<?xml version="1.0" standalone="no"?>
<!DOCTYPE svg PUBLIC "-//W3C//DTD SVG 20010904//EN"
 "http://www.w3.org/TR/2001/REC-SVG-20010904/DTD/svg10.dtd">
<svg version="1.0" xmlns="http://www.w3.org/2000/svg"
 width="829.000000pt" height="564.000000pt" viewBox="0 0 829.000000 564.000000"
 preserveAspectRatio="xMidYMid meet">

<g transform="translate(0.000000,564.000000) scale(0.100000,-0.100000)"
fill="#000000" stroke="none">
<path d="M175 2730 c0 -1504 1 -2120 2 -1367 2 752 2 1982 0 2735 -1 752 -2
136 -2 -1368z"/>
<path d="M3333 4815 c-30 -30 -35 -40 -29 -68 8 -42 57 -87 96 -87 35 0 77 35
86 73 6 26 5 27 -40 27 -25 0 -46 -4 -46 -10 0 -5 16 -10 35 -10 39 0 42 -6
19 -38 -23 -33 -86 -31 -113 4 -27 34 -27 64 1 99 19 25 26 27 71 22 45 -4 48
-3 32 9 -34 25 -74 17 -112 -21z"/>
<path d="M4207 4813 c-2 -10 -16 -48 -30 -85 -14 -38 -22 -68 -16 -68 5 0 14
11 19 25 8 21 16 25 49 25 33 0 40 -4 45 -25 4 -14 11 -25 17 -25 7 0 8 7 4
18 -4 9 -18 47 -32 85 -25 66 -46 84 -56 50z m40 -55 c13 -30 9 -38 -24 -38
-26 0 -29 16 -11 55 12 27 18 25 35 -17z"/>
<path d="M4540 4819 c0 -5 5 -7 10 -4 6 3 10 8 10 11 0 2 -4 4 -10 4 -5 0 -10
-5 -10 -11z"/>
<path d="M4461 4798 c0 -9 -7 -19 -13 -21 -10 -4 -10 -7 -1 -14 6 -5 13 -29
15 -53 3 -40 6 -45 28 -48 l25 -2 -22 16 c-27 20 -33 84 -8 84 8 0 15 5 15 10
0 6 -6 10 -14 10 -8 0 -17 8 -19 18 -4 15 -5 15 -6 0z"/>
<path d="M4830 4796 c0 -8 -6 -17 -12 -20 -10 -5 -10 -7 0 -12 6 -3 12 -19 12
-35 0 -17 5 -39 10 -50 11 -20 40 -27 40 -9 0 6 -7 10 -15 10 -11 0 -15 11
-15 40 0 29 4 40 15 40 8 0 15 5 15 10 0 6 -7 10 -15 10 -8 0 -15 7 -15 15 0
8 -4 15 -10 15 -5 0 -10 -6 -10 -14z"/>
<path d="M3525 4766 c-11 -8 -18 -26 -18 -46 0 -37 23 -60 60 -60 28 0 63 33
63 60 0 47 -65 76 -105 46z m70 -46 c0 -32 -2 -35 -30 -35 -26 0 -30 4 -33 29
-4 32 12 48 43 44 16 -2 20 -11 20 -38z"/>
<path d="M3809 4759 c-40 -40 -5 -106 52 -94 27 6 28 5 20 -17 -9 -26 -45 -36
-67 -18 -10 9 -14 9 -14 1 0 -6 11 -16 25 -23 19 -9 29 -8 50 6 23 15 25 22
25 89 l0 72 -36 2 c-23 1 -42 -5 -55 -18z m75 -21 c16 -26 -4 -53 -40 -53 -23
0 -30 5 -32 23 -2 13 -1 30 2 38 8 20 56 14 70 -8z"/>
<path d="M3986 4758 c-9 -12 -16 -29 -16 -38 0 -9 7 -26 16 -38 18 -26 65 -30
84 -7 10 13 7 14 -25 12 -52 -3 -54 17 -5 33 43 14 51 33 21 50 -31 16 -59 12
-75 -12z m64 -6 c0 -8 -43 -32 -56 -32 -3 0 0 9 6 20 10 19 50 29 50 12z"/>
<path d="M4330 4760 c-24 -24 -25 -48 -4 -78 18 -26 65 -30 84 -7 14 17 7 19
-20 5 -37 -20 -69 16 -55 60 4 14 15 20 36 20 16 0 29 -5 29 -11 0 -5 5 -7 10
-4 17 11 -9 35 -36 35 -13 0 -33 -9 -44 -20z"/>
<path d="M4530 4720 c0 -33 4 -60 10 -60 6 0 10 27 10 60 0 33 -4 60 -10 60
-6 0 -10 -27 -10 -60z"/>
<path d="M4591 4728 c34 -87 38 -88 68 -12 24 63 24 64 13 64 -5 0 -15 -18
-22 -41 -8 -22 -17 -42 -20 -44 -4 -3 -15 16 -25 40 -9 25 -21 45 -26 45 -5 0
1 -23 12 -52z"/>
<path d="M4710 4765 c-14 -17 -3 -20 19 -6 9 6 22 6 33 0 28 -15 21 -29 -16
-29 -41 0 -65 -24 -49 -48 7 -11 24 -17 52 -17 l41 -1 0 46 c0 25 -5 51 -12
58 -17 17 -53 15 -68 -3z m65 -54 c5 -9 -20 -41 -33 -41 -18 1 -34 20 -29 34
7 17 52 22 62 7z"/>
<path d="M4917 4762 c-35 -38 -12 -102 36 -102 27 0 54 16 44 26 -3 4 -13 1
-21 -5 -18 -15 -56 2 -56 24 0 11 12 15 45 15 49 0 58 15 27 43 -24 22 -55 21
-75 -1z m73 -22 c0 -6 -16 -10 -35 -10 -38 0 -46 13 -18 29 19 10 53 -2 53
-19z"/>
<path d="M1130 3750 c-50 -26 -74 -73 -74 -140 0 -119 71 -175 198 -156 l46 7
0 75 0 74 -45 0 c-25 0 -45 -4 -45 -10 0 -5 16 -10 35 -10 l35 0 0 -55 0 -55
-65 0 c-57 0 -68 3 -96 28 -59 53 -50 175 16 218 19 12 41 15 90 12 46 -3 65
0 65 8 0 29 -109 32 -160 4z"/>
<path d="M1370 3761 c0 -5 9 -11 20 -14 19 -5 20 -14 20 -137 0 -123 -1 -132
-20 -137 -37 -10 -20 -23 30 -23 48 0 66 12 35 24 -12 4 -15 29 -15 136 0 107
3 132 15 136 31 12 13 24 -35 24 -27 0 -50 -4 -50 -9z"/>
<path d="M1550 3610 l0 -160 80 0 c63 0 80 3 80 15 0 11 -16 15 -67 17 l-68 3
-3 143 c-4 200 -22 185 -22 -18z"/>
<path d="M1790 3610 l0 -163 71 5 c89 7 123 28 127 82 4 43 -19 76 -52 76 -21
1 -21 1 -1 15 40 29 45 36 45 70 0 47 -32 66 -120 73 l-70 5 0 -163z m148 114
c27 -19 28 -48 2 -74 -15 -15 -33 -20 -75 -20 l-55 0 0 55 0 55 53 0 c31 0 61
-6 75 -16z m15 -146 c21 -25 16 -65 -10 -85 -9 -7 -43 -13 -75 -13 l-58 0 0
66 0 67 63 -7 c47 -4 66 -11 80 -28z"/>
<path d="M2080 3610 l0 -160 80 0 c64 0 80 3 80 15 0 12 -14 15 -70 15 l-71 0
3 63 3 62 63 3 c34 2 62 7 62 12 0 5 -28 10 -62 12 l-63 3 -3 53 -3 52 70 0
c56 0 71 3 71 15 0 12 -16 15 -80 15 l-80 0 0 -160z"/>
<path d="M2330 3610 c0 -95 4 -160 10 -160 5 0 10 30 12 68 l3 67 40 0 c38 0
40 -2 78 -67 21 -38 45 -68 54 -68 15 0 1 29 -49 102 -23 34 -23 35 12 68 53
49 34 120 -38 140 -20 5 -56 10 -79 10 l-43 0 0 -160z m142 113 c22 -20 24
-76 2 -94 -9 -7 -39 -13 -68 -14 l-51 0 -3 49 c-2 27 -1 55 2 62 8 20 95 18
118 -3z"/>
<path d="M2570 3755 c0 -11 12 -15 50 -15 l50 0 0 -145 c0 -90 4 -145 10 -145
12 0 12 -6 13 155 l2 130 52 3 c41 2 51 6 46 18 -8 21 -223 21 -223 -1z"/>
<path d="M2912 3755 c-96 -42 -93 -244 5 -290 133 -63 250 85 184 232 -31 68
-110 92 -189 58z m148 -41 c23 -22 25 -32 25 -105 0 -76 -2 -82 -28 -105 -21
-18 -40 -24 -73 -24 -56 0 -79 12 -100 52 -22 42 -16 149 11 178 39 43 121 45
165 4z"/>
<path d="M3350 3757 c-32 -16 -47 -58 -34 -94 7 -21 27 -37 77 -61 76 -37 94
-67 61 -103 -16 -17 -28 -20 -81 -17 -44 2 -63 -1 -63 -9 0 -16 61 -27 105
-19 45 9 75 41 75 82 0 40 -20 60 -87 90 -65 29 -81 55 -58 91 16 23 21 25 76
21 42 -3 59 -1 59 8 0 24 -88 32 -130 11z"/>
<path d="M3570 3610 l0 -160 85 0 c69 0 85 3 85 15 0 12 -14 15 -70 15 l-71 0
3 63 3 62 63 3 c82 4 80 22 -3 22 l-65 0 0 55 0 55 70 0 c56 0 70 3 70 15 0
12 -16 15 -85 15 l-85 0 0 -160z"/>
<path d="M3820 3610 c0 -136 2 -160 15 -160 12 0 15 14 15 70 l0 70 38 0 c35
0 39 -3 77 -70 22 -38 46 -70 53 -70 17 0 17 0 -28 74 l-41 67 31 25 c24 21
30 34 30 64 0 64 -43 90 -146 90 l-44 0 0 -160z m143 118 c9 -7 19 -25 22 -40
11 -42 -31 -78 -90 -78 l-45 0 0 65 0 65 48 0 c27 0 56 -6 65 -12z"/>
<path d="M4100 3610 c0 -136 2 -160 15 -160 12 0 15 14 15 70 l0 70 38 0 c35
0 39 -3 77 -70 22 -38 46 -70 53 -70 17 0 17 2 -29 74 l-41 66 31 26 c25 21
31 33 31 64 0 64 -43 90 -146 90 l-44 0 0 -160z m143 118 c9 -7 19 -25 22 -40
11 -42 -31 -78 -90 -78 l-45 0 0 65 0 65 48 0 c27 0 56 -6 65 -12z"/>
<path d="M4425 3673 c-20 -54 -48 -126 -61 -160 -17 -45 -20 -63 -11 -63 7 0
20 23 30 50 l18 50 74 0 73 0 17 -50 c10 -29 23 -50 31 -50 12 0 12 5 1 33 -8
17 -36 89 -62 160 -27 70 -54 127 -60 127 -7 0 -29 -44 -50 -97z m81 -12 c13
-35 24 -67 24 -72 0 -5 -25 -9 -55 -9 -30 0 -55 3 -55 7 0 22 46 142 54 140 4
-2 19 -31 32 -66z"/>
<path d="M4630 3755 c0 -11 12 -15 50 -15 l50 0 0 -146 c0 -108 3 -145 12
-142 8 3 12 45 12 144 l1 139 52 3 c41 2 51 6 46 18 -8 21 -223 21 -223 -1z"/>
<path d="M4984 3760 c-35 -14 -71 -66 -78 -114 -8 -51 7 -122 32 -150 63 -69
184 -56 224 24 22 43 23 128 4 175 -26 61 -114 93 -182 65z m98 -21 c79 -21
102 -157 41 -230 -22 -25 -31 -29 -79 -29 -41 0 -59 5 -74 20 -66 66 -48 210
30 237 44 15 38 15 82 2z"/>
<path d="M5410 3757 c-32 -16 -47 -58 -34 -94 7 -21 27 -37 77 -61 76 -37 94
-67 61 -103 -16 -17 -28 -20 -81 -17 -44 2 -63 -1 -63 -9 0 -16 61 -27 106
-19 47 9 74 38 74 79 0 45 -8 54 -80 90 -70 36 -87 62 -63 97 14 20 22 22 74
18 42 -3 59 -1 59 8 0 24 -88 32 -130 11z"/>
<path d="M5675 3673 c-20 -54 -48 -126 -61 -160 -17 -46 -20 -63 -11 -63 7 0
21 23 31 50 l18 50 73 0 73 0 17 -50 c9 -28 23 -50 31 -50 11 0 10 10 -7 53
-83 216 -105 267 -115 267 -6 0 -28 -44 -49 -97z m81 -12 c13 -35 24 -67 24
-72 0 -5 -25 -9 -56 -9 -63 0 -61 -9 -28 92 11 32 23 56 28 55 4 -2 19 -31 32
-66z"/>
<path d="M5920 3610 l0 -160 80 0 c63 0 80 3 80 15 0 11 -16 15 -67 17 l-68 3
-3 143 c-4 200 -22 185 -22 -18z"/>
<path d="M6209 3747 c-66 -44 -88 -140 -50 -223 27 -59 112 -92 175 -68 33 13
14 24 -40 24 -30 0 -64 5 -75 10 -29 16 -49 64 -49 120 0 97 41 136 134 128
40 -3 56 -1 56 8 0 31 -105 32 -151 1z"/>
<path d="M6440 3610 l0 -160 80 0 c63 0 80 3 80 15 0 11 -16 15 -67 17 l-68 3
0 60 0 60 63 3 c82 4 80 22 -4 22 l-65 0 3 53 3 52 68 3 c51 2 67 6 67 17 0
12 -17 15 -80 15 l-80 0 0 -160z"/>
<path d="M6690 3610 l0 -163 73 7 c124 12 171 61 164 169 -6 98 -50 136 -169
145 l-68 5 0 -163z m159 116 c35 -19 51 -55 51 -119 0 -86 -46 -127 -140 -127
l-50 0 0 130 0 130 55 0 c31 0 68 -6 84 -14z"/>
<path d="M7084 3760 c-35 -14 -71 -66 -78 -114 -8 -51 7 -122 32 -150 62 -69
181 -57 224 24 22 42 24 127 4 175 -26 61 -114 93 -182 65z m98 -21 c79 -21
102 -157 41 -230 -21 -25 -32 -29 -75 -29 -62 0 -86 13 -104 55 -34 81 -6 181
56 202 44 15 38 15 82 2z"/>
<path d="M2483 3075 c0 -27 2 -38 4 -22 2 15 2 37 0 50 -2 12 -4 0 -4 -28z"/>
<path d="M3873 3075 c0 -27 2 -38 4 -22 2 15 2 37 0 50 -2 12 -4 0 -4 -28z"/>
<path d="M4023 3075 c0 -27 2 -38 4 -22 2 15 2 37 0 50 -2 12 -4 0 -4 -28z"/>
<path d="M4254 3106 c-3 -8 -4 -29 -2 -48 3 -29 4 -27 8 15 5 48 3 58 -6 33z"/>
<path d="M4483 3075 c0 -27 2 -38 4 -22 2 15 2 37 0 50 -2 12 -4 0 -4 -28z"/>
<path d="M5533 3075 c0 -27 2 -38 4 -22 2 15 2 37 0 50 -2 12 -4 0 -4 -28z"/>
<path d="M2813 3070 c0 -25 2 -35 4 -22 2 12 2 32 0 45 -2 12 -4 2 -4 -23z"/>
<path d="M3153 3070 c0 -25 2 -35 4 -22 2 12 2 32 0 45 -2 12 -4 2 -4 -23z"/>
<path d="M3233 3070 c0 -25 2 -35 4 -22 2 12 2 32 0 45 -2 12 -4 2 -4 -23z"/>
<path d="M5302 3090 c0 -14 2 -19 5 -12 2 6 2 18 0 25 -3 6 -5 1 -5 -13z"/>
<path d="M2262 3060 c0 -19 2 -27 5 -17 2 9 2 25 0 35 -3 9 -5 1 -5 -18z"/>
<path d="M2596 3077 c3 -10 9 -15 12 -12 3 3 0 11 -7 18 -10 9 -11 8 -5 -6z"/>
<path d="M2667 3083 c-9 -9 -9 -41 1 -46 4 -3 7 8 7 24 0 16 0 29 -1 29 0 0
-4 -3 -7 -7z"/>
<path d="M2883 3075 c0 -8 4 -15 9 -15 4 0 8 4 8 9 0 6 -4 12 -8 15 -5 3 -9
-1 -9 -9z"/>
<path d="M3192 3060 c0 -19 2 -27 5 -17 2 9 2 25 0 35 -3 9 -5 1 -5 -18z"/>
<path d="M3565 3060 c0 -15 3 -26 8 -23 4 2 7 13 7 23 0 10 -3 21 -7 23 -5 3
-8 -8 -8 -23z"/>
<path d="M3643 3050 c0 -25 2 -35 4 -22 2 12 2 32 0 45 -2 12 -4 2 -4 -23z"/>
<path d="M3717 3083 c-9 -9 -9 -41 1 -46 4 -3 7 8 7 24 0 16 0 29 -1 29 0 0
-4 -3 -7 -7z"/>
<path d="M3792 3060 c0 -19 2 -27 5 -17 2 9 2 25 0 35 -3 9 -5 1 -5 -18z"/>
<path d="M3912 3060 c0 -19 2 -27 5 -17 2 9 2 25 0 35 -3 9 -5 1 -5 -18z"/>
<path d="M4097 3083 c-9 -9 -9 -41 1 -46 4 -3 7 8 7 24 0 16 0 29 -1 29 0 0
-4 -3 -7 -7z"/>
<path d="M4332 3060 c0 -19 2 -27 5 -17 2 9 2 25 0 35 -3 9 -5 1 -5 -18z"/>
<path d="M4442 3060 c0 -19 2 -27 5 -17 2 9 2 25 0 35 -3 9 -5 1 -5 -18z"/>
<path d="M4512 3060 c0 -19 2 -27 5 -17 2 9 2 25 0 35 -3 9 -5 1 -5 -18z"/>
<path d="M4569 3073 c-13 -16 -12 -17 4 -4 16 13 21 21 13 21 -2 0 -10 -8 -17
-17z"/>
<path d="M4652 3060 c0 -19 2 -27 5 -17 2 9 2 25 0 35 -3 9 -5 1 -5 -18z"/>
<path d="M4687 3083 c-9 -9 -9 -41 1 -46 4 -3 7 8 7 24 0 16 0 29 -1 29 0 0
-4 -3 -7 -7z"/>
<path d="M4877 3083 c-9 -9 -9 -41 1 -46 4 -3 7 8 7 24 0 16 0 29 -1 29 0 0
-4 -3 -7 -7z"/>
<path d="M4947 3083 c-9 -9 -9 -41 1 -46 4 -3 7 8 7 24 0 16 0 29 -1 29 0 0
-4 -3 -7 -7z"/>
<path d="M5022 3060 c0 -19 2 -27 5 -17 2 9 2 25 0 35 -3 9 -5 1 -5 -18z"/>
<path d="M5062 3060 c0 -19 2 -27 5 -17 2 9 2 25 0 35 -3 9 -5 1 -5 -18z"/>
<path d="M5163 3075 c0 -8 4 -15 9 -15 4 0 8 4 8 9 0 6 -4 12 -8 15 -5 3 -9
-1 -9 -9z"/>
<path d="M5385 3060 c0 -15 3 -26 8 -23 4 2 7 13 7 23 0 10 -3 21 -7 23 -5 3
-8 -8 -8 -23z"/>
<path d="M5636 3077 c3 -10 9 -15 12 -12 3 3 0 11 -7 18 -10 9 -11 8 -5 -6z"/>
<path d="M5693 3078 c-22 -28 -24 -38 -8 -32 9 4 13 9 11 12 -3 3 -1 11 5 19
6 7 9 13 6 13 -2 0 -9 -6 -14 -12z"/>
<path d="M5772 3060 c0 -19 2 -27 5 -17 2 9 2 25 0 35 -3 9 -5 1 -5 -18z"/>
<path d="M5852 3060 c0 -19 2 -27 5 -17 2 9 2 25 0 35 -3 9 -5 1 -5 -18z"/>
<path d="M5892 3060 c0 -19 2 -27 5 -17 2 9 2 25 0 35 -3 9 -5 1 -5 -18z"/>
<path d="M5927 3083 c-9 -9 -9 -41 1 -46 4 -3 7 8 7 24 0 16 0 29 -1 29 0 0
-4 -3 -7 -7z"/>
<path d="M3450 3061 c0 -11 4 -22 9 -25 4 -3 6 6 3 19 -5 30 -12 33 -12 6z"/>
<path d="M4372 3055 c0 -16 2 -22 5 -12 2 9 2 23 0 30 -3 6 -5 -1 -5 -18z"/>
<path d="M2300 3059 c0 -5 5 -7 10 -4 6 3 10 8 10 11 0 2 -4 4 -10 4 -5 0 -10
-5 -10 -11z"/>
<path d="M5210 3060 c0 -5 5 -10 10 -10 6 0 10 5 10 10 0 6 -4 10 -10 10 -5 0
-10 -4 -10 -10z"/>
<path d="M5450 3059 c0 -5 5 -7 10 -4 6 3 10 8 10 11 0 2 -4 4 -10 4 -5 0 -10
-5 -10 -11z"/>
<path d="M2771 3044 c0 -11 3 -14 6 -6 3 7 2 16 -1 19 -3 4 -6 -2 -5 -13z"/>
<path d="M4611 3044 c0 -11 3 -14 6 -6 3 7 2 16 -1 19 -3 4 -6 -2 -5 -13z"/>
<path d="M4545 3040 c-3 -5 -1 -10 4 -10 6 0 11 5 11 10 0 6 -2 10 -4 10 -3 0
-8 -4 -11 -10z"/>
<path d="M2013 2875 c0 -27 2 -38 4 -22 2 15 2 37 0 50 -2 12 -4 0 -4 -28z"/>
<path d="M2983 2875 c0 -27 2 -38 4 -22 2 15 2 37 0 50 -2 12 -4 0 -4 -28z"/>
<path d="M3123 2875 c0 -27 2 -38 4 -22 2 15 2 37 0 50 -2 12 -4 0 -4 -28z"/>
<path d="M3449 2903 c-1 -10 -2 -27 -3 -37 -1 -11 -6 -21 -13 -23 -18 -6 -26
16 -11 34 11 14 11 15 -2 11 -8 -2 -15 -16 -15 -29 0 -19 6 -25 28 -27 26 -3
27 -2 27 42 0 44 -8 65 -11 29z"/>
<path d="M3990 2875 c0 -25 5 -45 10 -45 6 0 10 20 10 45 0 25 -4 45 -10 45
-5 0 -10 -20 -10 -45z"/>
<path d="M4070 2875 c0 -37 3 -45 18 -45 41 0 59 60 23 80 -34 18 -41 11 -41
-35z m40 20 c14 -17 4 -55 -16 -55 -9 0 -14 11 -14 35 0 37 10 44 30 20z"/>
<path d="M4543 2875 c0 -27 2 -38 4 -22 2 15 2 37 0 50 -2 12 -4 0 -4 -28z"/>
<path d="M4583 2875 c0 -27 2 -38 4 -22 2 15 2 37 0 50 -2 12 -4 0 -4 -28z"/>
<path d="M4720 2915 c0 -5 5 -27 11 -48 10 -36 29 -43 29 -11 0 8 -4 12 -10 9
-5 -3 -10 2 -10 12 0 19 -20 56 -20 38z"/>
<path d="M4765 2906 c-5 -10 -3 -21 2 -25 6 -3 12 -15 14 -25 6 -31 23 -20 32
20 9 47 1 57 -11 13 l-9 -34 -10 35 c-9 29 -12 32 -18 16z"/>
<path d="M4910 2877 c0 -43 2 -47 24 -47 26 0 39 20 30 45 -10 24 -22 17 -16
-10 3 -18 0 -25 -12 -25 -11 0 -15 9 -14 35 1 19 -2 38 -5 42 -4 3 -7 -15 -7
-40z"/>
<path d="M5020 2875 c0 -25 5 -45 10 -45 6 0 10 20 10 45 0 25 -4 45 -10 45
-5 0 -10 -20 -10 -45z"/>
<path d="M5106 2904 c-8 -21 -7 -66 2 -81 4 -6 7 13 7 43 0 30 -1 54 -1 54 -1
0 -5 -7 -8 -16z"/>
<path d="M5163 2890 c-20 -32 -21 -35 -5 -39 9 -2 20 -8 23 -13 10 -16 15 14
9 52 l-5 35 -22 -35z m13 -27 c-10 -10 -19 5 -10 18 6 11 8 11 12 0 2 -7 1
-15 -2 -18z"/>
<path d="M5231 2906 c-20 -24 -10 -70 16 -74 17 -3 24 3 29 24 11 44 -21 79
-45 50z m33 -12 c9 -23 -3 -56 -17 -51 -22 7 -21 67 2 67 5 0 12 -7 15 -16z"/>
<path d="M5330 2875 c0 -49 15 -62 22 -17 5 35 -1 62 -13 62 -5 0 -9 -20 -9
-45z"/>
<path d="M5415 2865 c0 -29 3 -51 8 -48 4 2 7 24 7 48 0 24 -3 46 -7 48 -5 3
-8 -19 -8 -48z"/>
<path d="M5533 2875 c0 -27 2 -38 4 -22 2 15 2 37 0 50 -2 12 -4 0 -4 -28z"/>
<path d="M5813 2875 c0 -27 2 -38 4 -22 2 15 2 37 0 50 -2 12 -4 0 -4 -28z"/>
<path d="M6213 2875 c0 -27 2 -38 4 -22 2 15 2 37 0 50 -2 12 -4 0 -4 -28z"/>
<path d="M3237 2903 c-6 -11 4 -73 12 -73 7 0 6 68 -2 76 -3 3 -7 2 -10 -3z"/>
<path d="M2047 2883 c-10 -10 -8 -41 3 -48 5 -3 7 0 4 9 -4 9 2 16 18 19 l23
4 -23 2 c-13 0 -20 6 -17 11 7 11 2 13 -8 3z"/>
<path d="M2260 2879 c0 -6 -9 -9 -20 -6 -15 4 -20 0 -20 -13 0 -11 4 -22 10
-25 6 -3 7 1 4 9 -4 11 0 16 15 16 12 0 21 6 21 15 0 8 -2 15 -5 15 -3 0 -5
-5 -5 -11z"/>
<path d="M2292 2860 c0 -19 2 -27 5 -17 2 9 2 25 0 35 -3 9 -5 1 -5 -18z"/>
<path d="M2472 2860 c0 -19 2 -27 5 -17 2 9 2 25 0 35 -3 9 -5 1 -5 -18z"/>
<path d="M2722 2860 c0 -19 2 -27 5 -17 2 9 2 25 0 35 -3 9 -5 1 -5 -18z"/>
<path d="M3160 2860 c0 -16 2 -30 4 -30 2 0 6 14 8 30 3 17 1 30 -4 30 -4 0
-8 -13 -8 -30z"/>
<path d="M3198 2860 c2 -16 6 -30 8 -30 2 0 4 14 4 30 0 17 -4 30 -8 30 -5 0
-7 -13 -4 -30z"/>
<path d="M3281 2858 c2 -28 2 -29 6 -8 3 14 10 28 17 32 7 5 5 8 -6 8 -14 0
-18 -8 -17 -32z"/>
<path d="M3332 2863 c2 -20 9 -28 23 -28 14 0 21 8 23 28 2 15 -1 27 -6 27 -5
0 -7 -11 -4 -25 3 -19 0 -25 -13 -25 -13 0 -16 6 -13 25 3 14 1 25 -4 25 -5 0
-8 -12 -6 -27z"/>
<path d="M3481 2863 c-1 -29 2 -33 24 -33 22 0 25 4 24 33 -2 30 -2 30 -6 5
-2 -16 -10 -28 -18 -28 -8 0 -16 12 -18 28 -4 25 -4 25 -6 -5z"/>
<path d="M3556 2875 c-13 -34 31 -64 50 -34 4 8 -1 9 -16 4 -20 -6 -22 -4 -18
19 6 28 -6 36 -16 11z"/>
<path d="M3625 2880 c-3 -6 -3 -19 0 -30 7 -21 39 -27 51 -9 4 8 -1 9 -16 4
-20 -6 -22 -4 -18 19 5 26 -5 35 -17 16z"/>
<path d="M3702 2860 c0 -19 2 -27 5 -17 2 9 2 25 0 35 -3 9 -5 1 -5 -18z"/>
<path d="M3734 2876 c-10 -26 4 -48 28 -44 17 2 23 10 23 28 0 18 -6 26 -23
28 -13 2 -25 -3 -28 -12z m42 -7 c10 -17 -13 -36 -27 -22 -12 12 -4 33 11 33
5 0 12 -5 16 -11z"/>
<path d="M3810 2860 c0 -16 2 -30 4 -30 2 0 6 14 8 30 3 17 1 30 -4 30 -4 0
-8 -13 -8 -30z"/>
<path d="M3848 2860 c2 -16 6 -30 8 -30 2 0 4 14 4 30 0 17 -4 30 -8 30 -5 0
-7 -13 -4 -30z"/>
<path d="M3949 2878 c-1 -7 -1 -19 0 -25 1 -7 -2 -13 -8 -13 -5 0 -12 6 -14
13 -3 7 -6 5 -6 -5 -1 -13 7 -18 24 -18 20 0 25 5 25 24 0 26 -19 47 -21 24z"/>
<path d="M4154 2875 c-10 -24 4 -45 28 -44 23 0 23 0 -2 11 -25 11 -25 11 -2
15 22 4 32 33 11 33 -5 0 -7 -4 -4 -10 3 -5 -1 -10 -10 -10 -9 0 -13 5 -10 10
3 6 4 10 0 10 -3 0 -8 -7 -11 -15z"/>
<path d="M4220 2881 c0 -5 10 -16 23 -25 l22 -17 -23 5 c-12 2 -20 0 -16 -5 9
-15 44 -10 44 5 0 8 -9 18 -20 21 -11 4 -18 11 -15 16 4 5 1 9 -4 9 -6 0 -11
-4 -11 -9z"/>
<path d="M4325 2881 c3 -5 -4 -12 -15 -16 -29 -9 -25 -35 5 -35 21 0 25 5 25
30 0 17 -5 30 -11 30 -5 0 -8 -4 -4 -9z m5 -31 c0 -5 -7 -10 -16 -10 -8 0 -12
5 -9 10 3 6 10 10 16 10 5 0 9 -4 9 -10z"/>
<path d="M4360 2860 c0 -16 5 -30 10 -30 6 0 10 11 10 24 0 13 6 27 13 29 6 3
2 6 -10 6 -19 1 -23 -4 -23 -29z"/>
<path d="M4410 2860 c0 -16 5 -30 10 -30 6 0 10 11 10 24 0 13 6 27 13 29 6 3
2 6 -10 6 -19 1 -23 -4 -23 -29z"/>
<path d="M4464 2875 c-10 -25 4 -47 28 -43 17 2 23 10 23 27 0 13 -7 27 -15
29 -13 5 -13 3 -1 -12 10 -12 11 -20 3 -28 -15 -15 -35 1 -29 23 6 23 -1 25
-9 4z"/>
<path d="M4614 2876 c-10 -26 4 -48 28 -44 17 2 23 10 23 28 0 18 -6 26 -23
28 -13 2 -25 -3 -28 -12z m42 -7 c10 -17 -13 -36 -27 -22 -12 12 -4 33 11 33
5 0 12 -5 16 -11z"/>
<path d="M4842 2863 c2 -22 9 -28 28 -30 22 -1 22 -1 3 4 -28 6 -30 23 -3 23
11 0 20 7 20 15 0 8 -5 15 -11 15 -5 0 -7 -4 -4 -10 3 -5 -1 -10 -10 -10 -9 0
-13 5 -10 10 3 6 1 10 -5 10 -6 0 -10 -12 -8 -27z"/>
<path d="M5376 2863 c9 -38 14 -42 14 -10 0 14 -5 29 -10 32 -7 4 -8 -3 -4
-22z"/>
<path d="M5600 2879 c0 -6 -9 -9 -20 -6 -15 4 -20 0 -20 -13 0 -11 4 -22 10
-25 6 -3 7 1 4 9 -4 11 0 16 15 16 12 0 21 6 21 15 0 8 -2 15 -5 15 -3 0 -5
-5 -5 -11z"/>
<path d="M6063 2875 c-3 -9 -3 -18 -1 -21 3 -3 8 4 11 16 6 23 -1 27 -10 5z"/>
<path d="M6325 2860 c0 -15 3 -26 8 -23 4 2 7 13 7 23 0 10 -3 21 -7 23 -5 3
-8 -8 -8 -23z"/>
<path d="M2500 2861 c0 -11 4 -22 9 -25 4 -3 6 6 3 19 -5 30 -12 33 -12 6z"/>
<path d="M2750 2861 c0 -11 4 -22 9 -25 4 -3 6 6 3 19 -5 30 -12 33 -12 6z"/>
<path d="M2872 2855 c0 -16 2 -22 5 -12 2 9 2 23 0 30 -3 6 -5 -1 -5 -18z"/>
<path d="M3010 2859 c0 -10 4 -21 10 -24 5 -3 7 0 4 9 -4 10 2 16 18 18 22 3
21 4 -4 9 -22 5 -28 3 -28 -12z"/>
<path d="M5888 2857 c-3 -19 -2 -25 4 -19 6 6 8 18 6 28 -3 14 -5 12 -10 -9z"/>
<path d="M2598 2863 c7 -3 16 -2 19 1 4 3 -2 6 -13 5 -11 0 -14 -3 -6 -6z"/>
<path d="M5646 2847 c3 -10 9 -15 12 -12 3 3 0 11 -7 18 -10 9 -11 8 -5 -6z"/>
<path d="M3888 2670 c2 -22 6 -40 8 -40 2 0 4 18 4 40 0 22 -3 40 -8 40 -4 0
-6 -18 -4 -40z"/>
<path d="M4091 2674 c0 -11 3 -14 6 -6 3 7 2 16 -1 19 -3 4 -6 -2 -5 -13z"/>
<path d="M4341 2674 c0 -11 3 -14 6 -6 3 7 2 16 -1 19 -3 4 -6 -2 -5 -13z"/>
<path d="M3670 2659 c0 -10 4 -21 10 -24 5 -3 7 0 4 9 -4 10 2 16 18 18 22 3
21 4 -4 9 -22 5 -28 3 -28 -12z"/>
<path d="M4387 2662 c-24 -26 -21 -32 11 -31 24 2 25 2 4 6 -23 4 -23 5 -6 24
9 10 15 19 12 19 -3 0 -12 -8 -21 -18z"/>
<path d="M4457 2662 c-24 -26 -21 -32 11 -31 24 2 25 2 4 6 -23 4 -23 5 -6 24
9 10 15 19 12 19 -3 0 -12 -8 -21 -18z"/>
<path d="M3943 2633 c9 -2 23 -2 30 0 6 3 -1 5 -18 5 -16 0 -22 -2 -12 -5z"/>
<path d="M4243 2633 c9 -2 23 -2 30 0 6 3 -1 5 -18 5 -16 0 -22 -2 -12 -5z"/>
<path d="M5201 2241 c-43 -23 -60 -54 -61 -111 0 -75 56 -140 122 -140 21 0
23 5 23 46 0 61 31 89 87 80 35 -6 38 -4 38 18 0 38 -37 92 -74 110 -44 21
-93 20 -135 -3z"/>
<path d="M2905 2220 c-7 -12 2 -30 16 -30 5 0 9 9 9 20 0 21 -15 27 -25 10z"/>
<path d="M4025 2220 c-4 -6 -3 -16 3 -22 6 -6 12 -6 17 2 4 6 3 16 -3 22 -6 6
-12 6 -17 -2z"/>
<path d="M6265 2220 c-4 -6 -3 -16 3 -22 6 -6 12 -6 17 2 4 6 3 16 -3 22 -6 6
-12 6 -17 -2z"/>
<path d="M1757 2204 c-4 -4 -7 -53 -7 -110 0 -84 3 -103 16 -108 24 -9 297 -7
312 2 9 6 12 36 10 113 l-3 104 -161 3 c-88 1 -163 -1 -167 -4z"/>
<path d="M2232 1715 c0 -16 2 -22 5 -12 2 9 2 23 0 30 -3 6 -5 -1 -5 -18z"/>
<path d="M3741 1714 c0 -11 3 -14 6 -6 3 7 2 16 -1 19 -3 4 -6 -2 -5 -13z"/>
<path d="M3911 1704 c0 -11 3 -14 6 -6 3 7 2 16 -1 19 -3 4 -6 -2 -5 -13z"/>
<path d="M4561 1704 c0 -11 3 -14 6 -6 3 7 2 16 -1 19 -3 4 -6 -2 -5 -13z"/>
<path d="M6421 1494 c0 -11 3 -14 6 -6 3 7 2 16 -1 19 -3 4 -6 -2 -5 -13z"/>
<path d="M6711 1174 c0 -11 3 -14 6 -6 3 7 2 16 -1 19 -3 4 -6 -2 -5 -13z"/>
<path d="M6991 1174 c0 -11 3 -14 6 -6 3 7 2 16 -1 19 -3 4 -6 -2 -5 -13z"/>
<path d="M6981 1124 c0 -11 3 -14 6 -6 3 7 2 16 -1 19 -3 4 -6 -2 -5 -13z"/>
<path d="M7012 1104 c-8 -17 -9 -23 -1 -19 7 5 10 -1 9 -16 -3 -37 -1 -53 7
-45 4 4 8 17 8 29 0 15 6 22 17 21 10 -1 15 2 12 7 -3 5 -13 8 -22 7 -12 -2
-16 3 -15 20 3 29 -1 28 -15 -4z"/>
<path d="M7081 1094 c0 -11 3 -14 6 -6 3 7 2 16 -1 19 -3 4 -6 -2 -5 -13z"/>
<path d="M6712 1080 c0 -14 2 -19 5 -12 2 6 2 18 0 25 -3 6 -5 1 -5 -13z"/>
<path d="M6976 1087 c3 -10 9 -15 12 -12 3 3 0 11 -7 18 -10 9 -11 8 -5 -6z"/>
<path d="M6951 1057 c-13 -21 -12 -21 5 -5 10 10 16 20 13 22 -3 3 -11 -5 -18
-17z"/>
<path d="M6898 1063 c7 -3 16 -2 19 1 4 3 -2 6 -13 5 -11 0 -14 -3 -6 -6z"/>
<path d="M7106 1054 c-8 -20 -8 -24 2 -24 4 0 8 9 9 20 2 24 -3 26 -11 4z"/>
<path d="M6801 1040 c14 -31 19 -36 19 -24 0 6 -7 19 -16 30 -14 18 -14 18 -3
-6z"/>
<path d="M6860 1044 c0 -23 26 -28 34 -7 4 9 1 11 -5 7 -6 -4 -15 0 -20 7 -7
11 -9 9 -9 -7z"/>
<path d="M7062 1047 c-8 -10 -6 -13 11 -14 12 0 16 1 9 4 -6 3 -10 9 -6 14 8
14 -2 11 -14 -4z"/>
<path d="M7140 1045 c-10 -12 -10 -15 4 -15 9 0 16 7 16 15 0 8 -2 15 -4 15
-2 0 -9 -7 -16 -15z"/>
<path d="M6920 1038 c0 -12 7 -18 23 -17 15 0 17 2 7 6 -8 3 -18 11 -22 17 -5
7 -8 4 -8 -6z"/>
<path d="M6756 1023 c-6 -14 -5 -15 5 -6 7 7 10 15 7 18 -3 3 -9 -2 -12 -12z"/>
<path d="M3621 1003 l-34 -17 29 -12 c26 -11 31 -10 46 9 32 41 17 48 -41 20z"/>
<path d="M3695 991 c-17 -34 -7 -46 31 -37 24 6 24 7 9 36 -9 17 -18 30 -20
30 -2 0 -11 -13 -20 -29z"/>
<path d="M3750 1013 c1 -15 28 -43 41 -43 8 0 20 4 28 9 11 7 7 13 -17 25 -34
17 -52 20 -52 9z"/>
<path d="M3990 950 c0 -22 5 -40 10 -40 6 0 10 18 10 40 0 22 -4 40 -10 40 -5
0 -10 -18 -10 -40z"/>
<path d="M4590 981 c0 -5 -9 -11 -20 -14 -14 -3 -20 -14 -20 -31 0 -22 4 -26
30 -26 28 0 30 2 30 40 0 22 -4 40 -10 40 -5 0 -10 -4 -10 -9z m0 -46 c0 -8
-4 -15 -10 -15 -5 0 -10 7 -10 15 0 8 5 15 10 15 6 0 10 -7 10 -15z"/>
<path d="M4167 972 c-3 -4 -3 -19 0 -35 4 -20 11 -27 27 -26 11 0 15 3 9 6 -7
2 -13 11 -13 18 0 7 6 16 13 18 9 4 8 8 -3 16 -18 13 -27 14 -33 3z"/>
<path d="M4257 973 c-3 -4 -3 -20 0 -36 4 -19 11 -27 27 -27 14 0 17 3 8 8 -7
5 -11 19 -10 32 3 22 -15 39 -25 23z"/>
<path d="M4387 973 c-9 -14 5 -63 17 -63 15 0 14 62 -1 67 -6 2 -13 0 -16 -4z"/>
<path d="M3558 953 c-24 -28 -40 -63 -35 -77 5 -12 94 -43 101 -35 2 2 6 25 9
51 6 45 5 48 -23 63 -36 19 -34 19 -52 -2z"/>
<path d="M3812 957 c-19 -9 -23 -16 -18 -40 3 -16 6 -40 6 -53 0 -27 14 -30
71 -12 44 13 45 26 5 85 -23 36 -29 37 -64 20z"/>
<path d="M4030 941 c0 -17 5 -31 10 -31 6 0 10 9 10 20 0 11 5 20 10 20 6 0
10 -9 10 -20 0 -11 5 -20 11 -20 6 0 9 12 7 28 -2 21 -9 28 -30 30 -25 3 -28
0 -28 -27z"/>
<path d="M4109 968 c-1 -2 -3 -15 -5 -30 -2 -24 1 -28 22 -28 21 0 24 4 21 28
-2 15 -11 28 -20 30 -10 2 -18 2 -18 0z"/>
<path d="M4220 940 c0 -16 5 -30 10 -30 6 0 10 14 10 30 0 17 -4 30 -10 30 -5
0 -10 -13 -10 -30z"/>
<path d="M4310 940 c0 -27 3 -30 30 -30 27 0 30 3 30 30 0 17 -4 30 -10 30 -5
0 -10 -9 -10 -19 0 -11 -4 -23 -10 -26 -6 -4 -10 5 -10 19 0 14 -4 26 -10 26
-5 0 -10 -13 -10 -30z"/>
<path d="M4440 955 c-19 -23 -4 -47 27 -43 31 3 44 35 21 49 -19 13 -34 11
-48 -6z m32 -27 c-9 -9 -12 -7 -12 12 0 19 3 21 12 12 9 -9 9 -15 0 -24z"/>
<path d="M4632 953 c-13 -26 -4 -43 24 -43 22 0 25 4 22 27 -4 33 -32 43 -46
16z"/>
<path d="M3667 914 c-4 -4 -7 -25 -7 -46 l0 -38 56 0 55 0 -3 43 -3 42 -45 3
c-25 2 -49 0 -53 -4z"/>
<path d="M3990 820 c0 -39 1 -40 33 -39 23 1 26 3 10 6 -28 5 -30 23 -3 23 27
0 25 18 -2 23 -23 4 -23 4 2 15 25 11 25 11 -7 11 -32 1 -33 0 -33 -39z"/>
<path d="M3510 829 c0 -142 151 -247 278 -193 36 15 102 70 102 86 0 4 -21 14
-47 21 -43 13 -50 12 -80 -6 -53 -31 -115 -6 -128 52 -5 23 -14 30 -48 38 -23
6 -50 14 -59 18 -14 6 -18 2 -18 -16z"/>
<path d="M4070 826 c-7 -9 -10 -23 -6 -31 6 -17 56 -21 56 -5 0 6 -7 10 -16 8
-10 -2 -19 3 -22 11 -3 10 2 11 18 6 16 -5 21 -4 18 6 -7 20 -33 22 -48 5z"/>
<path d="M4140 825 c-18 -21 -5 -45 25 -45 14 0 28 7 31 15 7 17 -12 45 -31
45 -7 0 -18 -7 -25 -15z m40 -13 c0 -13 -12 -22 -22 -16 -10 6 -1 24 13 24 5
0 9 -4 9 -8z"/>
<path d="M4210 809 c0 -16 5 -29 10 -29 6 0 10 9 10 20 0 11 5 20 10 20 6 0
10 -9 10 -20 0 -11 5 -20 11 -20 6 0 9 12 7 27 -2 22 -9 28 -30 30 -25 2 -28
-2 -28 -28z"/>
<path d="M4297 834 c-4 -4 -7 -18 -7 -31 0 -19 5 -23 31 -23 27 0 30 3 27 28
-3 26 -34 43 -51 26z m33 -29 c0 -8 -4 -15 -10 -15 -5 0 -10 7 -10 15 0 8 5
15 10 15 6 0 10 -7 10 -15z"/>
<path d="M4370 808 c0 -33 17 -37 23 -5 l4 22 8 -22 c4 -13 11 -23 15 -23 5 0
11 10 13 23 l4 22 8 -22 c10 -32 27 -29 23 5 -3 25 -6 27 -50 27 -46 0 -48 -1
-48 -27z"/>
<path d="M4487 833 c-11 -10 -8 -53 3 -53 6 0 10 14 10 30 0 31 -2 35 -13 23z"/>
<path d="M4529 835 c-1 -3 -2 -8 -3 -12 -1 -5 -4 -13 -8 -19 -10 -16 1 -24 34
-24 30 0 34 10 18 41 -10 17 -38 27 -41 14z"/>
<path d="M742 710 c0 -19 2 -27 5 -17 2 9 2 25 0 35 -3 9 -5 1 -5 -18z"/>
<path d="M1711 713 c0 -25 1 -26 9 -8 12 27 12 35 0 35 -5 0 -10 -12 -9 -27z"/>
<path d="M895 721 c-3 -5 -2 -12 3 -15 5 -3 9 1 9 9 0 17 -3 19 -12 6z"/>
<path d="M942 705 c0 -16 2 -22 5 -12 2 9 2 23 0 30 -3 6 -5 -1 -5 -18z"/>
<path d="M1024 715 c-7 -17 3 -35 19 -35 8 0 7 3 -2 9 -11 7 -10 10 5 14 17 4
17 5 1 6 -10 0 -15 6 -12 11 3 6 4 10 0 10 -3 0 -8 -7 -11 -15z"/>
<path d="M1098 703 c5 -21 7 -23 10 -9 2 10 0 22 -6 28 -6 6 -7 0 -4 -19z"/>
<path d="M1167 723 c-13 -12 -7 -23 11 -22 10 0 12 3 4 6 -6 2 -10 9 -6 14 6
10 0 12 -9 2z"/>
<path d="M3990 690 c0 -22 5 -40 10 -40 6 0 10 18 10 40 0 22 -4 40 -10 40 -5
0 -10 -18 -10 -40z"/>
<path d="M4495 720 c4 -6 11 -8 16 -5 14 9 11 15 -7 15 -8 0 -12 -5 -9 -10z"/>
<path d="M4760 690 c0 -22 5 -40 10 -40 6 0 10 18 10 40 0 22 -4 40 -10 40 -5
0 -10 -18 -10 -40z"/>
<path d="M801 704 c0 -11 3 -14 6 -6 3 7 2 16 -1 19 -3 4 -6 -2 -5 -13z"/>
<path d="M1072 700 c0 -14 2 -19 5 -12 2 6 2 18 0 25 -3 6 -5 1 -5 -13z"/>
<path d="M1582 703 c2 -9 10 -18 18 -20 12 -4 13 -3 1 5 -11 8 -10 11 5 14 17
3 16 5 -4 10 -18 5 -22 3 -20 -9z"/>
<path d="M1668 713 c7 -3 16 -2 19 1 4 3 -2 6 -13 5 -11 0 -14 -3 -6 -6z"/>
<path d="M1808 713 c7 -3 16 -2 19 1 4 3 -2 6 -13 5 -11 0 -14 -3 -6 -6z"/>
<path d="M4106 712 c-8 -13 8 -65 21 -69 7 -3 10 9 8 29 -2 18 -4 36 -4 41 -1
10 -19 9 -25 -1z"/>
<path d="M848 703 c7 -3 16 -2 19 1 4 3 -2 6 -13 5 -11 0 -14 -3 -6 -6z"/>
<path d="M1352 694 c-7 -8 -8 -14 -3 -14 10 0 25 19 20 25 -2 1 -10 -3 -17
-11z"/>
<path d="M1440 703 c0 -19 21 -27 33 -13 9 10 9 11 -2 5 -8 -4 -17 -2 -22 6
-6 9 -9 10 -9 2z"/>
<path d="M1736 697 c3 -10 9 -15 12 -12 3 3 0 11 -7 18 -10 9 -11 8 -5 -6z"/>
<path d="M4048 702 c-19 -4 -26 -52 -8 -52 6 0 10 9 10 20 0 11 5 20 10 20 6
0 10 -9 10 -20 0 -11 5 -20 10 -20 15 0 12 47 -2 52 -7 2 -21 3 -30 0z"/>
<path d="M4162 698 c-25 -25 0 -64 32 -52 21 8 21 50 0 58 -20 8 -18 8 -32 -6z
m35 -34 c-3 -3 -12 -4 -19 -1 -8 3 -5 6 6 6 11 1 17 -2 13 -5z"/>
<path d="M4298 702 c-19 -4 -26 -52 -8 -52 6 0 10 9 10 20 0 11 5 20 10 20 6
0 10 -9 10 -20 0 -11 5 -20 10 -20 15 0 12 47 -2 52 -7 2 -21 3 -30 0z"/>
<path d="M4365 701 c-3 -5 3 -12 12 -14 14 -4 13 -5 -4 -6 -13 0 -23 -7 -23
-15 0 -20 12 -26 38 -19 26 6 30 48 6 57 -20 8 -22 8 -29 -3z"/>
<path d="M4432 698 c-25 -25 0 -64 32 -52 23 9 20 27 -4 19 -14 -5 -20 -2 -20
10 0 12 6 15 20 10 24 -7 27 10 4 19 -20 8 -18 8 -32 -6z"/>
<path d="M4542 698 c-28 -28 2 -67 37 -48 26 14 27 36 2 50 -24 13 -24 13 -39
-2z m28 -23 c0 -8 -4 -15 -10 -15 -5 0 -10 7 -10 15 0 8 5 15 10 15 6 0 10 -7
10 -15z"/>
<path d="M4628 703 c-19 -5 -26 -53 -8 -53 6 0 10 9 10 20 0 11 5 20 10 20 6
0 10 -9 10 -20 0 -11 5 -20 11 -20 13 0 8 53 -6 56 -5 1 -18 0 -27 -3z"/>
<path d="M4699 706 c-1 -3 -2 -9 -3 -13 -1 -5 -5 -14 -10 -22 -11 -17 9 -30
36 -23 25 6 21 55 -4 60 -10 2 -19 1 -19 -2z"/>
<path d="M4220 675 c0 -32 22 -32 37 0 10 23 9 25 -13 25 -19 0 -24 -5 -24
-25z"/>
<path d="M4490 675 c0 -16 6 -25 15 -25 9 0 15 9 15 25 0 16 -6 25 -15 25 -9
0 -15 -9 -15 -25z"/>
<path d="M1668 683 c6 -2 18 -2 25 0 6 3 1 5 -13 5 -14 0 -19 -2 -12 -5z"/>
<path d="M1808 683 c7 -3 16 -2 19 1 4 3 -2 6 -13 5 -11 0 -14 -3 -6 -6z"/>
<path d="M7133 668 c-5 -7 -6 -24 -2 -38 6 -21 7 -22 9 -5 1 11 3 28 5 38 4
20 1 21 -12 5z"/>
<path d="M7552 650 c0 -19 2 -27 5 -17 2 9 2 25 0 35 -3 9 -5 1 -5 -18z"/>
<path d="M6070 661 c0 -10 19 -25 25 -20 1 2 -3 10 -11 17 -8 7 -14 8 -14 3z"/>
<path d="M6401 643 c-1 -28 2 -33 22 -32 15 1 17 3 5 6 -9 2 -19 16 -21 31 -4
24 -4 24 -6 -5z"/>
<path d="M6680 638 c0 -36 4 -35 14 5 4 16 2 27 -4 27 -5 0 -10 -14 -10 -32z"/>
<path d="M6738 640 c2 -16 6 -30 8 -30 2 0 4 14 4 30 0 17 -4 30 -8 30 -5 0
-7 -13 -4 -30z"/>
<path d="M7460 647 c0 -14 4 -28 8 -31 9 -5 8 41 -1 51 -4 3 -7 -5 -7 -20z"/>
<path d="M6155 650 c6 -10 4 -12 -8 -7 -11 4 -17 1 -17 -7 0 -9 7 -12 20 -9
22 6 26 18 8 29 -7 5 -8 3 -3 -6z"/>
<path d="M6512 630 c0 -19 2 -27 5 -17 2 9 2 25 0 35 -3 9 -5 1 -5 -18z"/>
<path d="M6556 653 c7 -4 14 -17 17 -28 5 -16 5 -15 4 4 -1 14 -9 26 -17 28
-10 3 -11 2 -4 -4z"/>
<path d="M6887 639 c4 -13 8 -18 11 -10 2 7 -1 18 -6 23 -8 8 -9 4 -5 -13z"/>
<path d="M6972 630 c0 -19 2 -27 5 -17 2 9 2 25 0 35 -3 9 -5 1 -5 -18z"/>
<path d="M7032 635 c0 -16 2 -22 5 -12 2 9 2 23 0 30 -3 6 -5 -1 -5 -18z"/>
<path d="M7185 650 c6 -10 4 -12 -9 -7 -13 5 -17 2 -14 -10 2 -9 10 -18 18
-20 13 -4 13 -3 0 6 -13 9 -13 11 3 11 19 0 23 15 5 26 -7 5 -8 3 -3 -6z"/>
<path d="M7332 640 c0 -14 2 -19 5 -12 2 6 2 18 0 25 -3 6 -5 1 -5 -13z"/>
<path d="M7432 635 c0 -16 2 -22 5 -12 2 9 2 23 0 30 -3 6 -5 -1 -5 -18z"/>
<path d="M7596 653 c7 -4 14 -17 17 -28 5 -16 5 -15 4 4 -1 14 -9 26 -17 28
-10 3 -11 2 -4 -4z"/>
<path d="M6311 634 c0 -11 3 -14 6 -6 3 7 2 16 -1 19 -3 4 -6 -2 -5 -13z"/>
<path d="M6801 636 c-1 -13 -6 -16 -18 -11 -15 5 -16 4 -5 -6 15 -16 37 2 29
23 -4 8 -6 6 -6 -6z"/>
<path d="M7271 638 c-1 -22 18 -33 32 -19 9 9 8 11 -5 6 -11 -4 -18 0 -21 12
-4 15 -5 16 -6 1z"/>
<path d="M6706 627 c3 -10 9 -15 12 -12 3 3 0 11 -7 18 -10 9 -11 8 -5 -6z"/>
<path d="M6103 515 c0 -22 2 -30 4 -17 2 12 2 30 0 40 -3 9 -5 -1 -4 -23z"/>
<path d="M6241 513 c-1 -25 3 -33 17 -33 11 0 13 3 6 8 -7 4 -14 18 -17 32 -4
21 -4 20 -6 -7z"/>
<path d="M6277 519 c4 -13 8 -18 11 -10 2 7 -1 18 -6 23 -8 8 -9 4 -5 -13z"/>
<path d="M6367 533 c-3 -5 -1 -17 4 -28 7 -17 8 -17 8 8 1 27 -4 34 -12 20z"/>
<path d="M6661 513 c-1 -28 2 -33 22 -32 15 1 17 3 5 6 -9 2 -19 16 -21 31 -4
24 -4 24 -6 -5z"/>
<path d="M7387 533 c-3 -5 -1 -17 4 -28 7 -17 8 -17 8 8 1 27 -4 34 -12 20z"/>
<path d="M6073 514 c-3 -8 -2 -19 3 -24 5 -5 9 1 9 16 0 28 -3 30 -12 8z"/>
<path d="M6137 524 c-15 -15 -6 -32 13 -27 12 3 19 10 17 16 -4 14 -21 19 -30
11z"/>
<path d="M6310 521 c0 -6 6 -8 14 -5 8 3 16 -2 20 -13 4 -15 5 -15 3 2 -2 20
-37 35 -37 16z"/>
<path d="M6403 515 c-3 -9 -3 -19 1 -22 3 -4 6 2 6 11 0 12 5 16 16 12 8 -3
12 -2 9 4 -9 15 -25 12 -32 -5z"/>
<path d="M6772 505 c0 -16 2 -22 5 -12 2 9 2 23 0 30 -3 6 -5 -1 -5 -18z"/>
<path d="M6798 503 c5 -21 7 -23 10 -9 2 10 0 22 -6 28 -6 6 -7 0 -4 -19z"/>
<path d="M6862 505 c0 -16 2 -22 5 -12 2 9 2 23 0 30 -3 6 -5 -1 -5 -18z"/>
<path d="M6956 523 c6 -4 14 -15 17 -23 5 -11 6 -9 4 4 -1 11 -9 21 -17 23
-10 3 -11 2 -4 -4z"/>
<path d="M7002 500 c0 -19 2 -27 5 -17 2 9 2 25 0 35 -3 9 -5 1 -5 -18z"/>
<path d="M7085 520 c-3 -6 1 -7 9 -4 18 7 21 14 7 14 -6 0 -13 -4 -16 -10z"/>
<path d="M7335 520 c-3 -6 1 -7 9 -4 18 7 21 14 7 14 -6 0 -13 -4 -16 -10z"/>
<path d="M7445 520 c6 -10 4 -12 -8 -7 -11 4 -17 1 -17 -7 0 -9 7 -12 20 -9
22 6 26 18 8 29 -7 5 -8 3 -3 -6z"/>
<path d="M7480 521 c0 -5 12 -7 26 -5 37 4 39 11 4 12 -16 0 -30 -3 -30 -7z"/>
<path d="M7587 509 c4 -13 8 -18 11 -10 2 7 -1 18 -6 23 -8 8 -9 4 -5 -13z"/>
<path d="M7625 520 c-3 -6 1 -7 9 -4 18 7 21 14 7 14 -6 0 -13 -4 -16 -10z"/>
<path d="M6588 503 c7 -3 16 -2 19 1 4 3 -2 6 -13 5 -11 0 -14 -3 -6 -6z"/>
<path d="M6728 503 c7 -3 16 -2 19 1 4 3 -2 6 -13 5 -11 0 -14 -3 -6 -6z"/>
<path d="M7038 503 c7 -3 16 -2 19 1 4 3 -2 6 -13 5 -11 0 -14 -3 -6 -6z"/>
<path d="M7104 502 c3 -5 0 -13 -6 -15 -9 -4 -10 -6 -1 -6 17 -1 25 16 12 25
-7 4 -9 3 -5 -4z"/>
<path d="M7644 502 c3 -5 0 -13 -6 -15 -9 -4 -10 -6 -1 -6 17 -1 25 16 12 25
-7 4 -9 3 -5 -4z"/>
<path d="M5987 408 c-2 -7 -1 -22 3 -33 6 -17 8 -15 12 13 4 31 -5 45 -15 20z"/>
<path d="M6552 390 c0 -19 2 -27 5 -17 2 9 2 25 0 35 -3 9 -5 1 -5 -18z"/>
<path d="M6662 390 c0 -19 2 -27 5 -17 2 9 2 25 0 35 -3 9 -5 1 -5 -18z"/>
<path d="M7166 400 c-10 -10 -16 -25 -13 -32 4 -8 6 -7 6 5 1 9 5 17 10 17 5
0 12 -8 14 -17 3 -10 5 -3 6 15 1 37 2 37 -23 12z"/>
<path d="M7382 390 c0 -19 2 -27 5 -17 2 9 2 25 0 35 -3 9 -5 1 -5 -18z"/>
<path d="M6260 387 c0 -14 4 -28 8 -31 9 -5 8 41 -1 51 -4 3 -7 -5 -7 -20z"/>
<path d="M6772 390 c0 -14 2 -19 5 -12 2 6 2 18 0 25 -3 6 -5 1 -5 -13z"/>
<path d="M6812 385 c0 -16 2 -22 5 -12 2 9 2 23 0 30 -3 6 -5 -1 -5 -18z"/>
<path d="M7517 390 c3 -11 9 -22 13 -25 5 -3 6 4 3 15 -3 11 -9 22 -13 25 -5
3 -6 -4 -3 -15z"/>
<path d="M6023 385 c-3 -9 -3 -19 1 -22 3 -4 6 2 6 11 0 12 5 16 16 12 8 -3
12 -2 9 4 -9 15 -25 12 -32 -5z"/>
<path d="M6082 380 c0 -14 2 -19 5 -12 2 6 2 18 0 25 -3 6 -5 1 -5 -13z"/>
<path d="M6121 377 c1 -17 2 -18 6 -4 2 9 8 17 13 17 5 0 11 -8 13 -17 4 -17
5 -17 6 0 1 21 18 23 24 2 4 -11 5 -10 3 2 -1 12 -11 18 -34 20 -28 2 -32 0
-31 -20z"/>
<path d="M6216 393 c6 -4 14 -15 17 -23 5 -11 6 -9 4 4 -1 11 -9 21 -17 23
-10 3 -11 2 -4 -4z"/>
<path d="M6385 391 c-3 -6 0 -8 9 -5 8 3 16 -1 19 -10 4 -14 5 -14 3 0 -1 20
-21 30 -31 15z"/>
<path d="M6842 380 c0 -14 2 -19 5 -12 2 6 2 18 0 25 -3 6 -5 1 -5 -13z"/>
<path d="M6867 379 c4 -13 8 -18 11 -10 2 7 -1 18 -6 23 -8 8 -9 4 -5 -13z"/>
<path d="M6902 380 c0 -14 2 -19 5 -12 2 6 2 18 0 25 -3 6 -5 1 -5 -13z"/>
<path d="M7032 380 c0 -14 2 -19 5 -12 2 6 2 18 0 25 -3 6 -5 1 -5 -13z"/>
<path d="M7278 393 c7 -3 16 -2 19 1 4 3 -2 6 -13 5 -11 0 -14 -3 -6 -6z"/>
<path d="M7353 385 c-3 -9 -3 -18 -1 -21 3 -3 8 4 11 16 6 23 -1 27 -10 5z"/>
<path d="M7417 394 c-15 -15 -6 -32 13 -27 12 3 19 10 17 16 -4 14 -21 19 -30
11z"/>
<path d="M7615 390 c-3 -6 1 -7 9 -4 18 7 21 14 7 14 -6 0 -13 -4 -16 -10z"/>
<path d="M7712 380 c0 -14 2 -19 5 -12 2 6 2 18 0 25 -3 6 -5 1 -5 -13z"/>
<path d="M7737 379 c4 -13 8 -18 11 -10 2 7 -1 18 -6 23 -8 8 -9 4 -5 -13z"/>
<path d="M7803 384 c-3 -8 0 -21 7 -27 10 -9 11 -9 6 1 -4 7 -2 12 6 12 10 0
10 2 -1 9 -11 7 -11 9 0 14 11 4 11 6 1 6 -7 1 -15 -6 -19 -15z"/>
<path d="M7496 373 c-6 -14 -5 -15 5 -6 7 7 10 15 7 18 -3 3 -9 -2 -12 -12z"/>
<path d="M6588 373 c7 -3 16 -2 19 1 4 3 -2 6 -13 5 -11 0 -14 -3 -6 -6z"/>
<path d="M6988 373 c7 -3 16 -2 19 1 4 3 -2 6 -13 5 -11 0 -14 -3 -6 -6z"/>
</g>
</svg>
