<?xml version="1.0" standalone="no"?>
<!DOCTYPE svg PUBLIC "-//W3C//DTD SVG 20010904//EN"
 "http://www.w3.org/TR/2001/REC-SVG-20010904/DTD/svg10.dtd">
<svg version="1.0" xmlns="http://www.w3.org/2000/svg"
 width="824.000000pt" height="572.000000pt" viewBox="0 0 824.000000 572.000000"
 preserveAspectRatio="xMidYMid meet">

<g transform="translate(0.000000,572.000000) scale(0.100000,-0.100000)"
fill="#000000" stroke="none">
<path d="M142 2823 l-2 -2753 3983 2 3982 3 -3977 2 -3978 3 -3 2748 -2 2747
-3 -2752z"/>
<path d="M3303 4925 c-30 -30 -35 -40 -29 -68 8 -42 57 -87 96 -87 35 0 77 35
86 73 6 26 5 27 -40 27 -25 0 -46 -4 -46 -10 0 -5 16 -10 35 -10 39 0 42 -6
19 -38 -23 -33 -86 -31 -113 4 -27 34 -27 64 1 99 19 25 26 27 71 22 45 -4 48
-3 32 9 -34 25 -74 17 -112 -21z"/>
<path d="M4177 4923 c-2 -10 -16 -48 -30 -85 -14 -38 -22 -68 -16 -68 5 0 14
11 19 25 8 21 16 25 49 25 33 0 40 -4 45 -25 4 -14 11 -25 17 -25 7 0 8 7 4
18 -4 9 -18 47 -32 85 -25 66 -46 84 -56 50z m40 -55 c13 -30 9 -38 -24 -38
-26 0 -29 16 -11 55 12 27 18 25 35 -17z"/>
<path d="M4510 4929 c0 -5 5 -7 10 -4 6 3 10 8 10 11 0 2 -4 4 -10 4 -5 0 -10
-5 -10 -11z"/>
<path d="M4431 4908 c0 -9 -7 -19 -13 -21 -10 -4 -10 -7 -1 -14 6 -5 13 -29
15 -53 3 -40 6 -45 28 -48 l25 -2 -22 16 c-27 20 -33 84 -8 84 8 0 15 5 15 10
0 6 -6 10 -14 10 -8 0 -17 8 -19 18 -4 15 -5 15 -6 0z"/>
<path d="M4800 4906 c0 -8 -6 -17 -12 -20 -10 -5 -10 -7 0 -12 6 -3 12 -19 12
-35 0 -17 5 -39 10 -50 11 -20 40 -27 40 -9 0 6 -7 10 -15 10 -11 0 -15 11
-15 40 0 29 4 40 15 40 8 0 15 5 15 10 0 6 -7 10 -15 10 -8 0 -15 7 -15 15 0
8 -4 15 -10 15 -5 0 -10 -6 -10 -14z"/>
<path d="M3495 4876 c-11 -8 -18 -26 -18 -46 0 -37 23 -60 60 -60 28 0 63 33
63 60 0 47 -65 76 -105 46z m70 -46 c0 -32 -2 -35 -30 -35 -26 0 -30 4 -33 29
-4 32 12 48 43 44 16 -2 20 -11 20 -38z"/>
<path d="M3779 4869 c-40 -40 -5 -106 52 -94 27 6 28 5 20 -17 -9 -26 -45 -36
-67 -18 -10 9 -14 9 -14 1 0 -6 11 -16 25 -23 19 -9 29 -8 50 6 23 15 25 22
25 89 l0 72 -36 2 c-23 1 -42 -5 -55 -18z m75 -21 c16 -26 -4 -53 -40 -53 -23
0 -30 5 -32 23 -2 13 -1 30 2 38 8 20 56 14 70 -8z"/>
<path d="M3956 4868 c-9 -12 -16 -29 -16 -38 0 -9 7 -26 16 -38 18 -26 65 -30
84 -7 10 13 7 14 -25 12 -52 -3 -54 17 -5 33 43 14 51 33 21 50 -31 16 -59 12
-75 -12z m64 -6 c0 -8 -43 -32 -56 -32 -3 0 0 9 6 20 10 19 50 29 50 12z"/>
<path d="M4300 4870 c-24 -24 -25 -48 -4 -78 18 -26 65 -30 84 -7 14 17 7 19
-20 5 -37 -20 -69 16 -55 60 4 14 15 20 36 20 16 0 29 -5 29 -11 0 -5 5 -7 10
-4 17 11 -9 35 -36 35 -13 0 -33 -9 -44 -20z"/>
<path d="M4500 4830 c0 -33 4 -60 10 -60 6 0 10 27 10 60 0 33 -4 60 -10 60
-6 0 -10 -27 -10 -60z"/>
<path d="M4561 4838 c34 -87 38 -88 68 -12 24 63 24 64 13 64 -5 0 -15 -18
-22 -41 -8 -22 -17 -42 -20 -44 -4 -3 -15 16 -25 40 -9 25 -21 45 -26 45 -5 0
1 -23 12 -52z"/>
<path d="M4680 4875 c-14 -17 -3 -20 19 -6 9 6 22 6 33 0 28 -15 21 -29 -16
-29 -41 0 -65 -24 -49 -48 7 -11 24 -17 52 -17 l41 -1 0 46 c0 25 -5 51 -12
58 -17 17 -53 15 -68 -3z m65 -54 c5 -9 -20 -41 -33 -41 -18 1 -34 20 -29 34
7 17 52 22 62 7z"/>
<path d="M4887 4872 c-35 -38 -12 -102 36 -102 27 0 54 16 44 26 -3 4 -13 1
-21 -5 -18 -15 -56 2 -56 24 0 11 12 15 45 15 49 0 58 15 27 43 -24 22 -55 21
-75 -1z m73 -22 c0 -6 -16 -10 -35 -10 -38 0 -46 13 -18 29 19 10 53 -2 53
-19z"/>
<path d="M1763 3883 c15 -2 37 -2 50 0 12 2 0 4 -28 4 -27 0 -38 -2 -22 -4z"/>
<path d="M2058 3883 c29 -2 74 -2 100 0 26 2 2 3 -53 3 -55 0 -76 -1 -47 -3z"/>
<path d="M2303 3883 c15 -2 39 -2 55 0 15 2 2 4 -28 4 -30 0 -43 -2 -27 -4z"/>
<path d="M2598 3883 c34 -2 90 -2 125 0 34 2 6 3 -63 3 -69 0 -97 -1 -62 -3z"/>
<path d="M3348 3883 c7 -3 16 -2 19 1 4 3 -2 6 -13 5 -11 0 -14 -3 -6 -6z"/>
<path d="M3583 3883 c26 -2 68 -2 95 0 26 2 4 3 -48 3 -52 0 -74 -1 -47 -3z"/>
<path d="M3828 3883 c18 -2 45 -2 60 0 15 2 0 4 -33 4 -33 0 -45 -2 -27 -4z"/>
<path d="M4128 3883 c18 -2 45 -2 60 0 15 2 0 4 -33 4 -33 0 -45 -2 -27 -4z"/>
<path d="M4698 3883 c34 -2 90 -2 125 0 34 2 6 3 -63 3 -69 0 -97 -1 -62 -3z"/>
<path d="M6493 3883 c26 -2 68 -2 95 0 26 2 4 3 -48 3 -52 0 -74 -1 -47 -3z"/>
<path d="M6733 3883 c15 -2 37 -2 50 0 12 2 0 4 -28 4 -27 0 -38 -2 -22 -4z"/>
<path d="M2308 3703 c17 -2 47 -2 65 0 17 2 3 4 -33 4 -36 0 -50 -2 -32 -4z"/>
<path d="M3828 3703 c17 -2 47 -2 65 0 17 2 3 4 -33 4 -36 0 -50 -2 -32 -4z"/>
<path d="M4128 3703 c17 -2 47 -2 65 0 17 2 3 4 -33 4 -36 0 -50 -2 -32 -4z"/>
<path d="M1538 3563 c23 -2 61 -2 85 0 23 2 4 4 -43 4 -47 0 -66 -2 -42 -4z"/>
<path d="M1763 3563 c15 -2 39 -2 55 0 15 2 2 4 -28 4 -30 0 -43 -2 -27 -4z"/>
<path d="M2058 3563 c29 -2 74 -2 100 0 26 2 2 3 -53 3 -55 0 -76 -1 -47 -3z"/>
<path d="M3583 3563 c26 -2 68 -2 95 0 26 2 4 3 -48 3 -52 0 -74 -1 -47 -3z"/>
<path d="M5948 3563 c23 -2 61 -2 85 0 23 2 4 4 -43 4 -47 0 -66 -2 -42 -4z"/>
<path d="M6493 3563 c26 -2 68 -2 95 0 26 2 4 3 -48 3 -52 0 -74 -1 -47 -3z"/>
<path d="M6728 3563 c12 -2 32 -2 45 0 12 2 2 4 -23 4 -25 0 -35 -2 -22 -4z"/>
<path d="M2453 3185 c0 -27 2 -38 4 -22 2 15 2 37 0 50 -2 12 -4 0 -4 -28z"/>
<path d="M3843 3185 c0 -27 2 -38 4 -22 2 15 2 37 0 50 -2 12 -4 0 -4 -28z"/>
<path d="M3993 3185 c0 -27 2 -38 4 -22 2 15 2 37 0 50 -2 12 -4 0 -4 -28z"/>
<path d="M4224 3216 c-3 -8 -4 -29 -2 -48 3 -29 4 -27 8 15 5 48 3 58 -6 33z"/>
<path d="M4453 3185 c0 -27 2 -38 4 -22 2 15 2 37 0 50 -2 12 -4 0 -4 -28z"/>
<path d="M5503 3185 c0 -27 2 -38 4 -22 2 15 2 37 0 50 -2 12 -4 0 -4 -28z"/>
<path d="M2783 3180 c0 -25 2 -35 4 -22 2 12 2 32 0 45 -2 12 -4 2 -4 -23z"/>
<path d="M3123 3180 c0 -25 2 -35 4 -22 2 12 2 32 0 45 -2 12 -4 2 -4 -23z"/>
<path d="M3203 3180 c0 -25 2 -35 4 -22 2 12 2 32 0 45 -2 12 -4 2 -4 -23z"/>
<path d="M5272 3200 c0 -14 2 -19 5 -12 2 6 2 18 0 25 -3 6 -5 1 -5 -13z"/>
<path d="M2232 3170 c0 -19 2 -27 5 -17 2 9 2 25 0 35 -3 9 -5 1 -5 -18z"/>
<path d="M2566 3187 c3 -10 9 -15 12 -12 3 3 0 11 -7 18 -10 9 -11 8 -5 -6z"/>
<path d="M2637 3193 c-9 -9 -9 -41 1 -46 4 -3 7 8 7 24 0 16 0 29 -1 29 0 0
-4 -3 -7 -7z"/>
<path d="M2853 3185 c0 -8 4 -15 9 -15 4 0 8 4 8 9 0 6 -4 12 -8 15 -5 3 -9
-1 -9 -9z"/>
<path d="M3162 3170 c0 -19 2 -27 5 -17 2 9 2 25 0 35 -3 9 -5 1 -5 -18z"/>
<path d="M3535 3170 c0 -15 3 -26 8 -23 4 2 7 13 7 23 0 10 -3 21 -7 23 -5 3
-8 -8 -8 -23z"/>
<path d="M3613 3160 c0 -25 2 -35 4 -22 2 12 2 32 0 45 -2 12 -4 2 -4 -23z"/>
<path d="M3687 3193 c-9 -9 -9 -41 1 -46 4 -3 7 8 7 24 0 16 0 29 -1 29 0 0
-4 -3 -7 -7z"/>
<path d="M3762 3170 c0 -19 2 -27 5 -17 2 9 2 25 0 35 -3 9 -5 1 -5 -18z"/>
<path d="M3882 3170 c0 -19 2 -27 5 -17 2 9 2 25 0 35 -3 9 -5 1 -5 -18z"/>
<path d="M4067 3193 c-9 -9 -9 -41 1 -46 4 -3 7 8 7 24 0 16 0 29 -1 29 0 0
-4 -3 -7 -7z"/>
<path d="M4302 3170 c0 -19 2 -27 5 -17 2 9 2 25 0 35 -3 9 -5 1 -5 -18z"/>
<path d="M4412 3170 c0 -19 2 -27 5 -17 2 9 2 25 0 35 -3 9 -5 1 -5 -18z"/>
<path d="M4482 3170 c0 -19 2 -27 5 -17 2 9 2 25 0 35 -3 9 -5 1 -5 -18z"/>
<path d="M4539 3183 c-13 -16 -12 -17 4 -4 9 7 17 15 17 17 0 8 -8 3 -21 -13z"/>
<path d="M4622 3170 c0 -19 2 -27 5 -17 2 9 2 25 0 35 -3 9 -5 1 -5 -18z"/>
<path d="M4657 3193 c-9 -9 -9 -41 1 -46 4 -3 7 8 7 24 0 16 0 29 -1 29 0 0
-4 -3 -7 -7z"/>
<path d="M4847 3193 c-9 -9 -9 -41 1 -46 4 -3 7 8 7 24 0 16 0 29 -1 29 0 0
-4 -3 -7 -7z"/>
<path d="M4917 3193 c-9 -9 -9 -41 1 -46 4 -3 7 8 7 24 0 16 0 29 -1 29 0 0
-4 -3 -7 -7z"/>
<path d="M4992 3170 c0 -19 2 -27 5 -17 2 9 2 25 0 35 -3 9 -5 1 -5 -18z"/>
<path d="M5032 3170 c0 -19 2 -27 5 -17 2 9 2 25 0 35 -3 9 -5 1 -5 -18z"/>
<path d="M5133 3185 c0 -8 4 -15 9 -15 4 0 8 4 8 9 0 6 -4 12 -8 15 -5 3 -9
-1 -9 -9z"/>
<path d="M5355 3170 c0 -15 3 -26 8 -23 4 2 7 13 7 23 0 10 -3 21 -7 23 -5 3
-8 -8 -8 -23z"/>
<path d="M5606 3187 c3 -10 9 -15 12 -12 3 3 0 11 -7 18 -10 9 -11 8 -5 -6z"/>
<path d="M5663 3188 c-22 -28 -24 -38 -8 -32 9 4 13 9 11 12 -3 3 -1 11 5 19
6 7 9 13 6 13 -2 0 -9 -6 -14 -12z"/>
<path d="M5742 3170 c0 -19 2 -27 5 -17 2 9 2 25 0 35 -3 9 -5 1 -5 -18z"/>
<path d="M5822 3170 c0 -19 2 -27 5 -17 2 9 2 25 0 35 -3 9 -5 1 -5 -18z"/>
<path d="M5862 3170 c0 -19 2 -27 5 -17 2 9 2 25 0 35 -3 9 -5 1 -5 -18z"/>
<path d="M5897 3193 c-9 -9 -9 -41 1 -46 4 -3 7 8 7 24 0 16 0 29 -1 29 0 0
-4 -3 -7 -7z"/>
<path d="M3420 3171 c0 -11 4 -22 9 -25 4 -3 6 6 3 19 -5 30 -12 33 -12 6z"/>
<path d="M4342 3165 c0 -16 2 -22 5 -12 2 9 2 23 0 30 -3 6 -5 -1 -5 -18z"/>
<path d="M2270 3169 c0 -5 5 -7 10 -4 6 3 10 8 10 11 0 2 -4 4 -10 4 -5 0 -10
-5 -10 -11z"/>
<path d="M5180 3170 c0 -5 5 -10 10 -10 6 0 10 5 10 10 0 6 -4 10 -10 10 -5 0
-10 -4 -10 -10z"/>
<path d="M5420 3169 c0 -5 5 -7 10 -4 6 3 10 8 10 11 0 2 -4 4 -10 4 -5 0 -10
-5 -10 -11z"/>
<path d="M2741 3154 c0 -11 3 -14 6 -6 3 7 2 16 -1 19 -3 4 -6 -2 -5 -13z"/>
<path d="M4581 3154 c0 -11 3 -14 6 -6 3 7 2 16 -1 19 -3 4 -6 -2 -5 -13z"/>
<path d="M4515 3150 c-3 -5 -1 -10 4 -10 6 0 11 5 11 10 0 6 -2 10 -4 10 -3 0
-8 -4 -11 -10z"/>
<path d="M1963 2985 c0 -27 2 -38 4 -22 2 15 2 37 0 50 -2 12 -4 0 -4 -28z"/>
<path d="M2928 2985 c-2 -25 0 -45 4 -45 5 0 8 20 8 45 0 25 -2 45 -4 45 -2 0
-6 -20 -8 -45z"/>
<path d="M3073 2985 c0 -27 2 -38 4 -22 2 15 2 37 0 50 -2 12 -4 0 -4 -28z"/>
<path d="M3390 3016 c0 -7 -9 -16 -21 -19 -32 -9 -22 -51 14 -55 26 -3 27 -2
27 42 0 25 -4 46 -10 46 -5 0 -10 -6 -10 -14z m0 -46 c0 -11 -4 -20 -9 -20
-14 0 -23 18 -16 30 10 17 25 11 25 -10z"/>
<path d="M3943 2985 c0 -27 2 -38 4 -22 2 15 2 37 0 50 -2 12 -4 0 -4 -28z"/>
<path d="M4010 2985 c0 -40 2 -45 23 -45 44 0 62 43 31 74 -8 9 -24 16 -35 16
-16 0 -19 -7 -19 -45z m48 -3 c2 -24 -1 -32 -12 -32 -12 0 -16 10 -16 36 0 45
24 42 28 -4z"/>
<path d="M4493 2985 c0 -27 2 -38 4 -22 2 15 2 37 0 50 -2 12 -4 0 -4 -28z"/>
<path d="M4533 2985 c0 -27 2 -38 4 -22 2 15 2 37 0 50 -2 12 -4 0 -4 -28z"/>
<path d="M4673 3014 c3 -11 8 -32 11 -47 7 -28 26 -29 26 -1 0 8 -4 12 -10 9
-6 -3 -10 5 -10 19 0 14 -5 28 -11 32 -7 4 -9 0 -6 -12z"/>
<path d="M4714 3016 c-5 -13 -3 -21 4 -24 7 -2 12 -12 12 -22 0 -20 16 -35 23
-23 2 5 7 26 10 48 l6 40 -13 -35 -13 -35 -10 35 c-9 30 -12 32 -19 16z"/>
<path d="M4860 2987 c0 -43 2 -47 24 -47 25 0 43 30 31 50 -12 19 -22 10 -17
-16 4 -20 1 -25 -9 -22 -8 3 -15 19 -16 37 -2 51 -13 49 -13 -2z"/>
<path d="M4977 3023 c-11 -10 -8 -83 3 -83 6 0 10 20 10 45 0 46 -2 50 -13 38z"/>
<path d="M5017 3023 c-11 -10 -8 -83 3 -83 6 0 10 20 10 45 0 46 -2 50 -13 38z"/>
<path d="M5152 3000 c-20 -32 -21 -35 -4 -39 9 -2 20 -8 23 -13 10 -16 15 14
9 52 l-6 35 -22 -35z m14 -27 c-10 -10 -19 5 -10 18 6 11 8 11 12 0 2 -7 1
-15 -2 -18z"/>
<path d="M5214 3006 c-9 -38 -1 -61 23 -64 43 -6 42 78 0 86 -10 2 -19 -6 -23
-22z m36 -22 c0 -24 -4 -34 -12 -32 -24 8 -22 68 2 68 5 0 10 -16 10 -36z"/>
<path d="M5320 2985 c0 -49 15 -62 22 -17 5 35 -1 62 -13 62 -5 0 -9 -20 -9
-45z"/>
<path d="M5803 2985 c0 -27 2 -38 4 -22 2 15 2 37 0 50 -2 12 -4 0 -4 -28z"/>
<path d="M6203 2985 c0 -27 2 -38 4 -22 2 15 2 37 0 50 -2 12 -4 0 -4 -28z"/>
<path d="M3187 3013 c-6 -11 4 -73 12 -73 4 0 5 18 3 40 -4 40 -7 46 -15 33z"/>
<path d="M5093 2975 c0 -22 2 -30 4 -17 2 12 2 30 0 40 -3 9 -5 -1 -4 -23z"/>
<path d="M5413 2975 c0 -22 2 -30 4 -17 2 12 2 30 0 40 -3 9 -5 -1 -4 -23z"/>
<path d="M2242 2970 c0 -19 2 -27 5 -17 2 9 2 25 0 35 -3 9 -5 1 -5 -18z"/>
<path d="M2342 2970 c0 -19 2 -27 5 -17 2 9 2 25 0 35 -3 9 -5 1 -5 -18z"/>
<path d="M2422 2970 c0 -19 2 -27 5 -17 2 9 2 25 0 35 -3 9 -5 1 -5 -18z"/>
<path d="M2552 2985 c-7 -8 -8 -15 -3 -15 5 0 12 -8 14 -17 3 -10 5 -3 6 15 1
36 1 37 -17 17z"/>
<path d="M2782 2970 c0 -19 2 -27 5 -17 2 9 2 25 0 35 -3 9 -5 1 -5 -18z"/>
<path d="M2822 2970 c0 -19 2 -27 5 -17 2 9 2 25 0 35 -3 9 -5 1 -5 -18z"/>
<path d="M2967 2993 c-10 -10 -8 -41 3 -48 5 -3 7 0 4 9 -4 9 2 16 18 19 l23
4 -23 2 c-13 0 -20 6 -17 11 7 11 2 13 -8 3z"/>
<path d="M3110 2970 c0 -16 2 -30 4 -30 2 0 6 14 8 30 3 17 1 30 -4 30 -4 0
-8 -13 -8 -30z"/>
<path d="M3148 2970 c2 -16 6 -30 8 -30 2 0 4 14 4 30 0 17 -4 30 -8 30 -5 0
-7 -13 -4 -30z"/>
<path d="M3231 2968 c2 -28 2 -29 6 -8 3 14 10 28 17 32 7 5 5 8 -6 8 -14 0
-18 -8 -17 -32z"/>
<path d="M3282 2973 c2 -20 9 -29 26 -31 19 -3 22 1 22 27 0 17 -4 31 -9 31
-4 0 -6 -11 -3 -25 3 -19 0 -25 -13 -25 -13 0 -16 6 -13 25 3 14 1 25 -4 25
-5 0 -8 -12 -6 -27z"/>
<path d="M3431 2973 c-1 -29 2 -33 24 -33 22 0 25 4 24 33 -2 30 -2 30 -6 5
-2 -16 -10 -28 -18 -28 -8 0 -16 12 -18 28 -4 25 -4 25 -6 -5z"/>
<path d="M3504 2985 c-9 -23 3 -45 26 -45 11 0 20 4 20 9 0 5 -8 8 -17 7 -10
0 -18 6 -18 14 0 8 8 14 18 14 9 -1 17 2 17 7 0 15 -40 10 -46 -6z"/>
<path d="M3576 2985 c-13 -34 31 -64 50 -34 4 8 -1 9 -16 4 -20 -6 -22 -4 -18
19 6 28 -6 36 -16 11z"/>
<path d="M3652 2970 c0 -19 2 -27 5 -17 2 9 2 25 0 35 -3 9 -5 1 -5 -18z"/>
<path d="M3684 2985 c-9 -23 3 -45 25 -45 11 0 22 9 26 20 7 22 -1 40 -17 40
-7 0 -6 -5 2 -15 14 -17 5 -35 -17 -35 -11 0 -14 7 -11 25 6 28 1 33 -8 10z"/>
<path d="M3760 2970 c0 -16 2 -30 4 -30 2 0 6 14 8 30 3 17 1 30 -4 30 -4 0
-8 -13 -8 -30z"/>
<path d="M3798 2970 c2 -16 6 -30 8 -30 2 0 4 14 4 30 0 17 -4 30 -8 30 -5 0
-7 -13 -4 -30z"/>
<path d="M3905 2990 c3 -5 2 -10 -4 -10 -6 0 -8 -7 -5 -15 4 -8 2 -15 -4 -15
-6 0 -13 6 -15 13 -3 7 -6 5 -6 -5 -1 -13 7 -18 24 -18 21 0 25 5 25 30 0 17
-5 30 -11 30 -5 0 -7 -4 -4 -10z"/>
<path d="M4102 2973 c2 -22 9 -28 28 -30 22 -1 22 -1 3 4 -28 6 -30 23 -3 23
11 0 20 7 20 15 0 8 -5 15 -11 15 -5 0 -7 -4 -4 -10 3 -5 -1 -10 -10 -10 -9 0
-13 5 -10 10 3 6 1 10 -5 10 -6 0 -10 -12 -8 -27z"/>
<path d="M4170 2990 c0 -5 10 -15 22 -21 22 -12 22 -12 3 -20 -19 -7 -19 -8 3
-8 28 -1 30 25 2 34 -11 4 -18 11 -15 16 4 5 1 9 -4 9 -6 0 -11 -4 -11 -10z"/>
<path d="M4275 2991 c3 -5 -4 -12 -15 -16 -29 -9 -25 -35 5 -35 21 0 25 5 25
30 0 17 -5 30 -11 30 -5 0 -8 -4 -4 -9z m5 -31 c0 -5 -7 -10 -16 -10 -8 0 -12
5 -9 10 3 6 10 10 16 10 5 0 9 -4 9 -10z"/>
<path d="M4310 2970 c0 -16 5 -30 10 -30 6 0 10 11 10 24 0 13 6 27 13 29 6 3
2 6 -10 6 -19 1 -23 -4 -23 -29z"/>
<path d="M4367 2993 c-2 -5 -1 -19 4 -33 l7 -25 1 27 c1 14 7 29 14 31 7 3 6
6 -5 6 -9 1 -19 -2 -21 -6z"/>
<path d="M4414 2985 c-10 -25 4 -47 28 -43 17 2 23 10 23 27 0 13 -7 27 -15
29 -13 5 -13 3 -1 -12 10 -12 11 -20 3 -28 -15 -15 -35 1 -29 23 6 23 -1 25
-9 4z"/>
<path d="M4564 2985 c-9 -23 3 -45 25 -45 11 0 22 9 26 20 7 22 -1 40 -17 40
-7 0 -6 -5 2 -15 14 -17 5 -35 -17 -35 -11 0 -14 7 -11 25 6 28 1 33 -8 10z"/>
<path d="M4787 2986 c-8 -21 16 -49 39 -43 17 4 16 5 -3 6 -28 1 -31 21 -3 21
22 0 27 15 8 26 -7 4 -8 3 -4 -4 4 -7 1 -12 -9 -12 -9 0 -13 5 -10 10 3 6 2
10 -3 10 -6 0 -12 -6 -15 -14z"/>
<path d="M5360 2971 c0 -17 5 -31 10 -31 6 0 10 11 10 24 0 14 -4 28 -10 31
-6 4 -10 -7 -10 -24z"/>
<path d="M6273 2985 c-3 -9 -3 -18 -1 -21 3 -3 8 4 11 16 6 23 -1 27 -10 5z"/>
<path d="M6315 2970 c0 -15 3 -26 8 -23 4 2 7 13 7 23 0 10 -3 21 -7 23 -5 3
-8 -8 -8 -23z"/>
<path d="M2170 2978 c0 -5 11 -8 25 -8 14 0 25 3 25 8 0 4 -11 7 -25 7 -14 0
-25 -3 -25 -7z"/>
<path d="M2450 2971 c0 -11 4 -22 9 -25 4 -3 6 6 3 19 -5 30 -12 33 -12 6z"/>
<path d="M2700 2971 c0 -11 4 -22 9 -25 4 -3 6 6 3 19 -5 30 -12 33 -12 6z"/>
<path d="M5550 2969 c0 -10 4 -21 10 -24 5 -3 7 0 4 9 -4 10 2 16 18 18 22 3
21 4 -4 9 -22 5 -28 3 -28 -12z"/>
<path d="M5878 2967 c-3 -19 -2 -25 4 -19 6 6 8 18 6 28 -3 14 -5 12 -10 -9z"/>
<path d="M5980 2980 c-12 -7 -12 -10 -1 -10 7 0 11 -6 7 -15 -3 -8 -1 -15 4
-15 6 0 10 11 10 25 0 28 0 28 -20 15z"/>
<path d="M1990 2971 c0 -4 11 -6 25 -3 14 2 25 6 25 8 0 2 -11 4 -25 4 -14 0
-25 -4 -25 -9z"/>
<path d="M5636 2957 c3 -10 9 -15 12 -12 3 3 0 11 -7 18 -10 9 -11 8 -5 -6z"/>
<path d="M3844 2808 c-4 -6 -3 -8 4 -4 7 4 12 -7 15 -31 l4 -38 1 43 c2 40 -9
55 -24 30z"/>
<path d="M3904 2805 c-7 -19 3 -35 23 -35 13 0 14 -2 2 -17 -13 -16 -12 -17 4
-4 9 7 17 26 17 42 0 22 -5 29 -20 29 -11 0 -23 -7 -26 -15z m36 -11 c0 -17
-22 -14 -28 4 -2 7 3 12 12 12 9 0 16 -7 16 -16z"/>
<path d="M4020 2785 c0 -38 25 -59 41 -34 17 25 6 64 -18 67 -20 3 -23 -1 -23
-33z m35 -5 c0 -13 -6 -25 -12 -27 -9 -3 -13 6 -13 27 0 21 4 30 13 28 6 -3
12 -15 12 -28z"/>
<path d="M4090 2795 c0 -16 6 -25 16 -25 14 0 14 -3 4 -15 -11 -13 -10 -14 3
-9 34 13 31 74 -4 74 -14 0 -19 -7 -19 -25z m32 0 c0 -5 -5 -11 -11 -13 -6 -2
-11 4 -11 13 0 9 5 15 11 13 6 -2 11 -8 11 -13z"/>
<path d="M4200 2811 c0 -5 9 -7 20 -4 11 3 20 1 20 -4 0 -6 -9 -18 -20 -28
-27 -25 -25 -35 8 -34 18 1 21 3 9 6 -17 4 -17 6 -2 29 9 14 13 29 10 34 -8
13 -45 13 -45 1z"/>
<path d="M4274 2806 c-11 -28 0 -61 21 -61 16 0 20 7 20 35 0 25 -5 36 -18 38
-9 2 -20 -3 -23 -12z m36 -26 c0 -20 -5 -30 -15 -30 -10 0 -15 10 -15 30 0 20
5 30 15 30 10 0 15 -10 15 -30z"/>
<path d="M4340 2810 c0 -5 7 -7 15 -4 9 4 15 0 15 -9 0 -8 -7 -20 -15 -27 -23
-19 -18 -30 13 -29 16 1 20 3 10 6 -20 5 -23 18 -8 28 19 12 11 45 -10 45 -11
0 -20 -4 -20 -10z"/>
<path d="M4410 2810 c0 -5 7 -7 15 -4 9 4 15 0 15 -9 0 -8 -7 -20 -15 -27 -23
-19 -18 -30 13 -29 16 1 20 3 10 6 -20 5 -23 18 -8 28 19 12 11 45 -10 45 -11
0 -20 -4 -20 -10z"/>
<path d="M3640 2769 c0 -10 4 -21 10 -24 5 -3 7 0 4 9 -4 10 2 16 18 18 22 3
21 4 -4 9 -22 5 -28 3 -28 -12z"/>
<path d="M4520 2350 c0 -5 5 -10 10 -10 6 0 10 5 10 10 0 6 -4 10 -10 10 -5 0
-10 -4 -10 -10z"/>
<path d="M5640 2350 c0 -5 5 -10 10 -10 6 0 10 5 10 10 0 6 -4 10 -10 10 -5 0
-10 -4 -10 -10z"/>
<path d="M3467 2304 c-9 -10 2 -24 19 -24 8 0 14 7 14 15 0 15 -21 21 -33 9z"/>
<path d="M5670 2254 c0 -13 18 -15 130 -13 102 1 130 5 130 15 0 11 -27 14
-130 14 -111 0 -130 -2 -130 -16z"/>
<path d="M4540 2130 l0 -30 146 0 145 0 -3 28 -3 27 -142 3 -143 3 0 -31z"/>
<path d="M4592 1705 c0 -16 2 -22 5 -12 2 9 2 23 0 30 -3 6 -5 -1 -5 -18z"/>
<path d="M4541 1704 c0 -11 3 -14 6 -6 3 7 2 16 -1 19 -3 4 -6 -2 -5 -13z"/>
<path d="M4711 1704 c0 -11 3 -14 6 -6 3 7 2 16 -1 19 -3 4 -6 -2 -5 -13z"/>
<path d="M6031 1704 c0 -11 3 -14 6 -6 3 7 2 16 -1 19 -3 4 -6 -2 -5 -13z"/>
<path d="M3421 1484 c0 -11 3 -14 6 -6 3 7 2 16 -1 19 -3 4 -6 -2 -5 -13z"/>
<path d="M6681 1284 c0 -11 3 -14 6 -6 3 7 2 16 -1 19 -3 4 -6 -2 -5 -13z"/>
<path d="M6961 1284 c0 -11 3 -14 6 -6 3 7 2 16 -1 19 -3 4 -6 -2 -5 -13z"/>
<path d="M6951 1234 c0 -11 3 -14 6 -6 3 7 2 16 -1 19 -3 4 -6 -2 -5 -13z"/>
<path d="M6982 1214 c-8 -17 -9 -23 -1 -19 7 5 10 -1 9 -16 -3 -37 -1 -53 7
-45 4 4 8 17 8 29 0 15 6 22 17 21 10 -1 15 2 12 7 -3 5 -13 8 -22 7 -12 -2
-16 3 -15 20 3 29 -1 28 -15 -4z"/>
<path d="M7051 1204 c0 -11 3 -14 6 -6 3 7 2 16 -1 19 -3 4 -6 -2 -5 -13z"/>
<path d="M6682 1190 c0 -14 2 -19 5 -12 2 6 2 18 0 25 -3 6 -5 1 -5 -13z"/>
<path d="M6946 1197 c3 -10 9 -15 12 -12 3 3 0 11 -7 18 -10 9 -11 8 -5 -6z"/>
<path d="M6921 1167 c-13 -21 -12 -21 5 -5 10 10 16 20 13 22 -3 3 -11 -5 -18
-17z"/>
<path d="M6868 1173 c7 -3 16 -2 19 1 4 3 -2 6 -13 5 -11 0 -14 -3 -6 -6z"/>
<path d="M7076 1164 c-8 -20 -8 -24 2 -24 4 0 8 9 9 20 2 24 -3 26 -11 4z"/>
<path d="M6771 1150 c14 -31 19 -36 19 -24 0 6 -7 19 -16 30 -14 18 -14 18 -3
-6z"/>
<path d="M6830 1154 c0 -23 26 -28 34 -7 4 9 1 11 -5 7 -6 -4 -15 0 -20 7 -7
11 -9 9 -9 -7z"/>
<path d="M7032 1157 c-8 -10 -6 -13 11 -14 12 0 16 1 9 4 -6 3 -10 9 -6 14 8
14 -2 11 -14 -4z"/>
<path d="M7110 1155 c-10 -12 -10 -15 4 -15 9 0 16 7 16 15 0 8 -2 15 -4 15
-2 0 -9 -7 -16 -15z"/>
<path d="M6890 1148 c0 -12 7 -18 23 -17 15 0 17 2 7 6 -8 3 -18 11 -22 17 -5
7 -8 4 -8 -6z"/>
<path d="M6726 1133 c-6 -14 -5 -15 5 -6 7 7 10 15 7 18 -3 3 -9 -2 -12 -12z"/>
<path d="M3591 1113 l-34 -17 29 -12 c26 -11 31 -10 46 9 32 41 17 48 -41 20z"/>
<path d="M3665 1101 c-17 -34 -7 -46 31 -37 24 6 24 7 9 36 -9 17 -18 30 -20
30 -2 0 -11 -13 -20 -29z"/>
<path d="M3720 1123 c1 -15 28 -43 41 -43 8 0 20 4 28 9 11 7 7 13 -17 25 -34
17 -52 20 -52 9z"/>
<path d="M3960 1060 c0 -22 5 -40 10 -40 6 0 10 18 10 40 0 22 -4 40 -10 40
-5 0 -10 -18 -10 -40z"/>
<path d="M4560 1091 c0 -5 -9 -11 -20 -14 -14 -3 -20 -14 -20 -31 0 -22 4 -26
30 -26 28 0 30 2 30 40 0 22 -4 40 -10 40 -5 0 -10 -4 -10 -9z m0 -46 c0 -8
-4 -15 -10 -15 -5 0 -10 7 -10 15 0 8 5 15 10 15 6 0 10 -7 10 -15z"/>
<path d="M4137 1082 c-3 -4 -3 -19 0 -35 4 -20 11 -27 27 -26 11 0 15 3 9 6
-7 2 -13 11 -13 18 0 7 6 16 13 18 9 4 8 8 -3 16 -18 13 -27 14 -33 3z"/>
<path d="M4227 1083 c-3 -4 -3 -20 0 -36 4 -19 11 -27 27 -27 14 0 17 3 8 8
-7 5 -11 19 -10 32 3 22 -15 39 -25 23z"/>
<path d="M4357 1083 c-9 -14 5 -63 17 -63 15 0 14 62 -1 67 -6 2 -13 0 -16 -4z"/>
<path d="M3528 1063 c-24 -28 -40 -63 -35 -77 5 -12 94 -43 101 -35 2 2 6 25
9 51 6 45 5 48 -23 63 -36 19 -34 19 -52 -2z"/>
<path d="M3782 1067 c-19 -9 -23 -16 -18 -40 3 -16 6 -40 6 -53 0 -27 14 -30
71 -12 44 13 45 26 5 85 -23 36 -29 37 -64 20z"/>
<path d="M4000 1051 c0 -17 5 -31 10 -31 6 0 10 9 10 20 0 11 5 20 10 20 6 0
10 -9 10 -20 0 -11 5 -20 11 -20 6 0 9 12 7 28 -2 21 -9 28 -30 30 -25 3 -28
0 -28 -27z"/>
<path d="M4079 1078 c-1 -2 -3 -15 -5 -30 -2 -24 1 -28 22 -28 21 0 24 4 21
28 -2 15 -11 28 -20 30 -10 2 -18 2 -18 0z"/>
<path d="M4190 1050 c0 -16 5 -30 10 -30 6 0 10 14 10 30 0 17 -4 30 -10 30
-5 0 -10 -13 -10 -30z"/>
<path d="M4280 1050 c0 -27 3 -30 30 -30 27 0 30 3 30 30 0 17 -4 30 -10 30
-5 0 -10 -9 -10 -19 0 -11 -4 -23 -10 -26 -6 -4 -10 5 -10 19 0 14 -4 26 -10
26 -5 0 -10 -13 -10 -30z"/>
<path d="M4410 1065 c-19 -23 -4 -47 27 -43 31 3 44 35 21 49 -19 13 -34 11
-48 -6z m32 -27 c-9 -9 -12 -7 -12 12 0 19 3 21 12 12 9 -9 9 -15 0 -24z"/>
<path d="M4602 1063 c-13 -26 -4 -43 24 -43 22 0 25 4 22 27 -4 33 -32 43 -46
16z"/>
<path d="M3637 1024 c-4 -4 -7 -25 -7 -46 l0 -38 56 0 55 0 -3 43 -3 42 -45 3
c-25 2 -49 0 -53 -4z"/>
<path d="M3960 930 c0 -39 1 -40 33 -39 23 1 26 3 10 6 -28 5 -30 23 -3 23 27
0 25 18 -2 23 -23 4 -23 4 2 15 25 11 25 11 -7 11 -32 1 -33 0 -33 -39z"/>
<path d="M3480 939 c0 -142 151 -247 278 -193 36 15 102 70 102 86 0 4 -21 14
-47 21 -43 13 -50 12 -80 -6 -53 -31 -115 -6 -128 52 -5 23 -14 30 -48 38 -23
6 -50 14 -59 18 -14 6 -18 2 -18 -16z"/>
<path d="M4040 936 c-7 -9 -10 -23 -6 -31 6 -17 56 -21 56 -5 0 6 -7 10 -16 8
-10 -2 -19 3 -22 11 -3 10 2 11 18 6 16 -5 21 -4 18 6 -7 20 -33 22 -48 5z"/>
<path d="M4110 935 c-18 -21 -5 -45 25 -45 14 0 28 7 31 15 7 17 -12 45 -31
45 -7 0 -18 -7 -25 -15z m40 -13 c0 -13 -12 -22 -22 -16 -10 6 -1 24 13 24 5
0 9 -4 9 -8z"/>
<path d="M4180 919 c0 -16 5 -29 10 -29 6 0 10 9 10 20 0 11 5 20 10 20 6 0
10 -9 10 -20 0 -11 5 -20 11 -20 6 0 9 12 7 27 -2 22 -9 28 -30 30 -25 2 -28
-2 -28 -28z"/>
<path d="M4267 944 c-4 -4 -7 -18 -7 -31 0 -19 5 -23 31 -23 27 0 30 3 27 28
-3 26 -34 43 -51 26z m33 -29 c0 -8 -4 -15 -10 -15 -5 0 -10 7 -10 15 0 8 5
15 10 15 6 0 10 -7 10 -15z"/>
<path d="M4340 918 c0 -33 17 -37 23 -5 l4 22 8 -22 c4 -13 11 -23 15 -23 5 0
11 10 13 23 l4 22 8 -22 c10 -32 27 -29 23 5 -3 25 -6 27 -50 27 -46 0 -48 -1
-48 -27z"/>
<path d="M4457 943 c-11 -10 -8 -53 3 -53 6 0 10 14 10 30 0 31 -2 35 -13 23z"/>
<path d="M4499 945 c-1 -3 -2 -8 -3 -12 -1 -5 -4 -13 -8 -19 -10 -16 1 -24 34
-24 30 0 34 10 18 41 -10 17 -38 27 -41 14z"/>
<path d="M712 820 c0 -19 2 -27 5 -17 2 9 2 25 0 35 -3 9 -5 1 -5 -18z"/>
<path d="M1681 823 c0 -25 1 -26 9 -8 12 27 12 35 0 35 -5 0 -10 -12 -9 -27z"/>
<path d="M865 831 c-3 -5 -2 -12 3 -15 5 -3 9 1 9 9 0 17 -3 19 -12 6z"/>
<path d="M912 815 c0 -16 2 -22 5 -12 2 9 2 23 0 30 -3 6 -5 -1 -5 -18z"/>
<path d="M994 825 c-7 -17 3 -35 19 -35 8 0 7 3 -2 9 -11 7 -10 10 5 14 17 4
17 5 1 6 -10 0 -15 6 -12 11 3 6 4 10 0 10 -3 0 -8 -7 -11 -15z"/>
<path d="M1068 813 c5 -21 7 -23 10 -9 2 10 0 22 -6 28 -6 6 -7 0 -4 -19z"/>
<path d="M1137 833 c-13 -12 -7 -23 11 -22 10 0 12 3 4 6 -6 2 -10 9 -6 14 6
10 0 12 -9 2z"/>
<path d="M3960 800 c0 -22 5 -40 10 -40 6 0 10 18 10 40 0 22 -4 40 -10 40 -5
0 -10 -18 -10 -40z"/>
<path d="M4465 830 c4 -6 11 -8 16 -5 14 9 11 15 -7 15 -8 0 -12 -5 -9 -10z"/>
<path d="M4730 800 c0 -22 5 -40 10 -40 6 0 10 18 10 40 0 22 -4 40 -10 40 -5
0 -10 -18 -10 -40z"/>
<path d="M771 814 c0 -11 3 -14 6 -6 3 7 2 16 -1 19 -3 4 -6 -2 -5 -13z"/>
<path d="M1042 810 c0 -14 2 -19 5 -12 2 6 2 18 0 25 -3 6 -5 1 -5 -13z"/>
<path d="M1552 813 c2 -9 10 -18 18 -20 12 -4 13 -3 1 5 -11 8 -10 11 5 14 17
3 16 5 -4 10 -18 5 -22 3 -20 -9z"/>
<path d="M1638 823 c7 -3 16 -2 19 1 4 3 -2 6 -13 5 -11 0 -14 -3 -6 -6z"/>
<path d="M1778 823 c7 -3 16 -2 19 1 4 3 -2 6 -13 5 -11 0 -14 -3 -6 -6z"/>
<path d="M4076 822 c-8 -13 8 -65 21 -69 7 -3 10 9 8 29 -2 18 -4 36 -4 41 -1
10 -19 9 -25 -1z"/>
<path d="M818 813 c7 -3 16 -2 19 1 4 3 -2 6 -13 5 -11 0 -14 -3 -6 -6z"/>
<path d="M1322 804 c-7 -8 -8 -14 -3 -14 10 0 25 19 20 25 -2 1 -10 -3 -17
-11z"/>
<path d="M1410 813 c0 -19 21 -27 33 -13 9 10 9 11 -2 5 -8 -4 -17 -2 -22 6
-6 9 -9 10 -9 2z"/>
<path d="M1706 807 c3 -10 9 -15 12 -12 3 3 0 11 -7 18 -10 9 -11 8 -5 -6z"/>
<path d="M4018 812 c-19 -4 -26 -52 -8 -52 6 0 10 9 10 20 0 11 5 20 10 20 6
0 10 -9 10 -20 0 -11 5 -20 10 -20 15 0 12 47 -2 52 -7 2 -21 3 -30 0z"/>
<path d="M4132 808 c-25 -25 0 -64 32 -52 21 8 21 50 0 58 -20 8 -18 8 -32 -6z
m35 -34 c-3 -3 -12 -4 -19 -1 -8 3 -5 6 6 6 11 1 17 -2 13 -5z"/>
<path d="M4268 812 c-19 -4 -26 -52 -8 -52 6 0 10 9 10 20 0 11 5 20 10 20 6
0 10 -9 10 -20 0 -11 5 -20 10 -20 15 0 12 47 -2 52 -7 2 -21 3 -30 0z"/>
<path d="M4335 811 c-3 -5 3 -12 12 -14 14 -4 13 -5 -4 -6 -13 0 -23 -7 -23
-15 0 -20 12 -26 38 -19 26 6 30 48 6 57 -20 8 -22 8 -29 -3z"/>
<path d="M4402 808 c-25 -25 0 -64 32 -52 23 9 20 27 -4 19 -14 -5 -20 -2 -20
10 0 12 6 15 20 10 24 -7 27 10 4 19 -20 8 -18 8 -32 -6z"/>
<path d="M4512 808 c-28 -28 2 -67 37 -48 26 14 27 36 2 50 -24 13 -24 13 -39
-2z m28 -23 c0 -8 -4 -15 -10 -15 -5 0 -10 7 -10 15 0 8 5 15 10 15 6 0 10 -7
10 -15z"/>
<path d="M4598 813 c-19 -5 -26 -53 -8 -53 6 0 10 9 10 20 0 11 5 20 10 20 6
0 10 -9 10 -20 0 -11 5 -20 11 -20 13 0 8 53 -6 56 -5 1 -18 0 -27 -3z"/>
<path d="M4669 816 c-1 -3 -2 -9 -3 -13 -1 -5 -5 -14 -10 -22 -11 -17 9 -30
36 -23 25 6 21 55 -4 60 -10 2 -19 1 -19 -2z"/>
<path d="M4190 785 c0 -32 22 -32 37 0 10 23 9 25 -13 25 -19 0 -24 -5 -24
-25z"/>
<path d="M4460 785 c0 -16 6 -25 15 -25 9 0 15 9 15 25 0 16 -6 25 -15 25 -9
0 -15 -9 -15 -25z"/>
<path d="M1638 793 c6 -2 18 -2 25 0 6 3 1 5 -13 5 -14 0 -19 -2 -12 -5z"/>
<path d="M1778 793 c7 -3 16 -2 19 1 4 3 -2 6 -13 5 -11 0 -14 -3 -6 -6z"/>
<path d="M7103 778 c-5 -7 -6 -24 -2 -38 6 -21 7 -22 9 -5 1 11 3 28 5 38 4
20 1 21 -12 5z"/>
<path d="M7522 760 c0 -19 2 -27 5 -17 2 9 2 25 0 35 -3 9 -5 1 -5 -18z"/>
<path d="M6040 771 c0 -10 19 -25 25 -20 1 2 -3 10 -11 17 -8 7 -14 8 -14 3z"/>
<path d="M6371 753 c-1 -28 2 -33 22 -32 15 1 17 3 5 6 -9 2 -19 16 -21 31 -4
24 -4 24 -6 -5z"/>
<path d="M6650 748 c0 -36 4 -35 14 5 4 16 2 27 -4 27 -5 0 -10 -14 -10 -32z"/>
<path d="M6708 750 c2 -16 6 -30 8 -30 2 0 4 14 4 30 0 17 -4 30 -8 30 -5 0
-7 -13 -4 -30z"/>
<path d="M7430 757 c0 -14 4 -28 8 -31 9 -5 8 41 -1 51 -4 3 -7 -5 -7 -20z"/>
<path d="M6125 760 c6 -10 4 -12 -8 -7 -11 4 -17 1 -17 -7 0 -9 7 -12 20 -9
22 6 26 18 8 29 -7 5 -8 3 -3 -6z"/>
<path d="M6482 740 c0 -19 2 -27 5 -17 2 9 2 25 0 35 -3 9 -5 1 -5 -18z"/>
<path d="M6526 763 c7 -4 14 -17 17 -28 5 -16 5 -15 4 4 -1 14 -9 26 -17 28
-10 3 -11 2 -4 -4z"/>
<path d="M6857 749 c4 -13 8 -18 11 -10 2 7 -1 18 -6 23 -8 8 -9 4 -5 -13z"/>
<path d="M6942 740 c0 -19 2 -27 5 -17 2 9 2 25 0 35 -3 9 -5 1 -5 -18z"/>
<path d="M7002 745 c0 -16 2 -22 5 -12 2 9 2 23 0 30 -3 6 -5 -1 -5 -18z"/>
<path d="M7155 760 c6 -10 4 -12 -9 -7 -13 5 -17 2 -14 -10 2 -9 10 -18 18
-20 13 -4 13 -3 0 6 -13 9 -13 11 3 11 19 0 23 15 5 26 -7 5 -8 3 -3 -6z"/>
<path d="M7302 750 c0 -14 2 -19 5 -12 2 6 2 18 0 25 -3 6 -5 1 -5 -13z"/>
<path d="M7402 745 c0 -16 2 -22 5 -12 2 9 2 23 0 30 -3 6 -5 -1 -5 -18z"/>
<path d="M7566 763 c7 -4 14 -17 17 -28 5 -16 5 -15 4 4 -1 14 -9 26 -17 28
-10 3 -11 2 -4 -4z"/>
<path d="M6281 744 c0 -11 3 -14 6 -6 3 7 2 16 -1 19 -3 4 -6 -2 -5 -13z"/>
<path d="M6771 746 c-1 -13 -6 -16 -18 -11 -15 5 -16 4 -5 -6 15 -16 37 2 29
23 -4 8 -6 6 -6 -6z"/>
<path d="M7241 748 c-1 -22 18 -33 32 -19 9 9 8 11 -5 6 -11 -4 -18 0 -21 12
-4 15 -5 16 -6 1z"/>
<path d="M6676 737 c3 -10 9 -15 12 -12 3 3 0 11 -7 18 -10 9 -11 8 -5 -6z"/>
<path d="M6073 625 c0 -22 2 -30 4 -17 2 12 2 30 0 40 -3 9 -5 -1 -4 -23z"/>
<path d="M6211 623 c-1 -25 3 -33 17 -33 11 0 13 3 6 8 -7 4 -14 18 -17 32 -4
21 -4 20 -6 -7z"/>
<path d="M6247 629 c4 -13 8 -18 11 -10 2 7 -1 18 -6 23 -8 8 -9 4 -5 -13z"/>
<path d="M6337 643 c-3 -5 -1 -17 4 -28 7 -17 8 -17 8 8 1 27 -4 34 -12 20z"/>
<path d="M6631 623 c-1 -28 2 -33 22 -32 15 1 17 3 5 6 -9 2 -19 16 -21 31 -4
24 -4 24 -6 -5z"/>
<path d="M7357 643 c-3 -5 -1 -17 4 -28 7 -17 8 -17 8 8 1 27 -4 34 -12 20z"/>
<path d="M6043 624 c-3 -8 -2 -19 3 -24 5 -5 9 1 9 16 0 28 -3 30 -12 8z"/>
<path d="M6107 634 c-15 -15 -6 -32 13 -27 12 3 19 10 17 16 -4 14 -21 19 -30
11z"/>
<path d="M6280 631 c0 -6 6 -8 14 -5 8 3 16 -2 20 -13 4 -15 5 -15 3 2 -2 20
-37 35 -37 16z"/>
<path d="M6373 625 c-3 -9 -3 -19 1 -22 3 -4 6 2 6 11 0 12 5 16 16 12 8 -3
12 -2 9 4 -9 15 -25 12 -32 -5z"/>
<path d="M6742 615 c0 -16 2 -22 5 -12 2 9 2 23 0 30 -3 6 -5 -1 -5 -18z"/>
<path d="M6768 613 c5 -21 7 -23 10 -9 2 10 0 22 -6 28 -6 6 -7 0 -4 -19z"/>
<path d="M6832 615 c0 -16 2 -22 5 -12 2 9 2 23 0 30 -3 6 -5 -1 -5 -18z"/>
<path d="M6926 633 c6 -4 14 -15 17 -23 5 -11 6 -9 4 4 -1 11 -9 21 -17 23
-10 3 -11 2 -4 -4z"/>
<path d="M6972 610 c0 -19 2 -27 5 -17 2 9 2 25 0 35 -3 9 -5 1 -5 -18z"/>
<path d="M7055 630 c-3 -6 1 -7 9 -4 18 7 21 14 7 14 -6 0 -13 -4 -16 -10z"/>
<path d="M7305 630 c-3 -6 1 -7 9 -4 18 7 21 14 7 14 -6 0 -13 -4 -16 -10z"/>
<path d="M7415 630 c6 -10 4 -12 -8 -7 -11 4 -17 1 -17 -7 0 -9 7 -12 20 -9
22 6 26 18 8 29 -7 5 -8 3 -3 -6z"/>
<path d="M7450 631 c0 -5 12 -7 26 -5 37 4 39 11 4 12 -16 0 -30 -3 -30 -7z"/>
<path d="M7557 619 c4 -13 8 -18 11 -10 2 7 -1 18 -6 23 -8 8 -9 4 -5 -13z"/>
<path d="M7595 630 c-3 -6 1 -7 9 -4 18 7 21 14 7 14 -6 0 -13 -4 -16 -10z"/>
<path d="M6558 613 c7 -3 16 -2 19 1 4 3 -2 6 -13 5 -11 0 -14 -3 -6 -6z"/>
<path d="M6698 613 c7 -3 16 -2 19 1 4 3 -2 6 -13 5 -11 0 -14 -3 -6 -6z"/>
<path d="M7008 613 c7 -3 16 -2 19 1 4 3 -2 6 -13 5 -11 0 -14 -3 -6 -6z"/>
<path d="M7074 612 c3 -5 0 -13 -6 -15 -9 -4 -10 -6 -1 -6 17 -1 25 16 12 25
-7 4 -9 3 -5 -4z"/>
<path d="M7614 612 c3 -5 0 -13 -6 -15 -9 -4 -10 -6 -1 -6 17 -1 25 16 12 25
-7 4 -9 3 -5 -4z"/>
<path d="M5957 518 c-2 -7 -1 -22 3 -33 6 -17 8 -15 12 13 4 31 -5 45 -15 20z"/>
<path d="M6522 500 c0 -19 2 -27 5 -17 2 9 2 25 0 35 -3 9 -5 1 -5 -18z"/>
<path d="M6632 500 c0 -19 2 -27 5 -17 2 9 2 25 0 35 -3 9 -5 1 -5 -18z"/>
<path d="M7136 510 c-10 -10 -16 -25 -13 -32 4 -8 6 -7 6 5 1 9 5 17 10 17 5
0 12 -8 14 -17 3 -10 5 -3 6 15 1 37 2 37 -23 12z"/>
<path d="M7352 500 c0 -19 2 -27 5 -17 2 9 2 25 0 35 -3 9 -5 1 -5 -18z"/>
<path d="M6230 497 c0 -14 4 -28 8 -31 9 -5 8 41 -1 51 -4 3 -7 -5 -7 -20z"/>
<path d="M6742 500 c0 -14 2 -19 5 -12 2 6 2 18 0 25 -3 6 -5 1 -5 -13z"/>
<path d="M6782 495 c0 -16 2 -22 5 -12 2 9 2 23 0 30 -3 6 -5 -1 -5 -18z"/>
<path d="M7487 500 c3 -11 9 -22 13 -25 5 -3 6 4 3 15 -3 11 -9 22 -13 25 -5
3 -6 -4 -3 -15z"/>
<path d="M5993 495 c-3 -9 -3 -19 1 -22 3 -4 6 2 6 11 0 12 5 16 16 12 8 -3
12 -2 9 4 -9 15 -25 12 -32 -5z"/>
<path d="M6052 490 c0 -14 2 -19 5 -12 2 6 2 18 0 25 -3 6 -5 1 -5 -13z"/>
<path d="M6091 487 c1 -17 2 -18 6 -4 2 9 8 17 13 17 5 0 11 -8 13 -17 4 -17
5 -17 6 0 1 21 18 23 24 2 4 -11 5 -10 3 2 -1 12 -11 18 -34 20 -28 2 -32 0
-31 -20z"/>
<path d="M6186 503 c6 -4 14 -15 17 -23 5 -11 6 -9 4 4 -1 11 -9 21 -17 23
-10 3 -11 2 -4 -4z"/>
<path d="M6355 501 c-3 -6 0 -8 9 -5 8 3 16 -1 19 -10 4 -14 5 -14 3 0 -1 20
-21 30 -31 15z"/>
<path d="M6812 490 c0 -14 2 -19 5 -12 2 6 2 18 0 25 -3 6 -5 1 -5 -13z"/>
<path d="M6837 489 c4 -13 8 -18 11 -10 2 7 -1 18 -6 23 -8 8 -9 4 -5 -13z"/>
<path d="M6872 490 c0 -14 2 -19 5 -12 2 6 2 18 0 25 -3 6 -5 1 -5 -13z"/>
<path d="M7002 490 c0 -14 2 -19 5 -12 2 6 2 18 0 25 -3 6 -5 1 -5 -13z"/>
<path d="M7248 503 c7 -3 16 -2 19 1 4 3 -2 6 -13 5 -11 0 -14 -3 -6 -6z"/>
<path d="M7323 495 c-3 -9 -3 -18 -1 -21 3 -3 8 4 11 16 6 23 -1 27 -10 5z"/>
<path d="M7387 504 c-15 -15 -6 -32 13 -27 12 3 19 10 17 16 -4 14 -21 19 -30
11z"/>
<path d="M7585 500 c-3 -6 1 -7 9 -4 18 7 21 14 7 14 -6 0 -13 -4 -16 -10z"/>
<path d="M7682 490 c0 -14 2 -19 5 -12 2 6 2 18 0 25 -3 6 -5 1 -5 -13z"/>
<path d="M7707 489 c4 -13 8 -18 11 -10 2 7 -1 18 -6 23 -8 8 -9 4 -5 -13z"/>
<path d="M7773 494 c-3 -8 0 -21 7 -27 10 -9 11 -9 6 1 -4 7 -2 12 6 12 10 0
10 2 -1 9 -11 7 -11 9 0 14 11 4 11 6 1 6 -7 1 -15 -6 -19 -15z"/>
<path d="M7466 483 c-6 -14 -5 -15 5 -6 7 7 10 15 7 18 -3 3 -9 -2 -12 -12z"/>
<path d="M6558 483 c7 -3 16 -2 19 1 4 3 -2 6 -13 5 -11 0 -14 -3 -6 -6z"/>
<path d="M6958 483 c7 -3 16 -2 19 1 4 3 -2 6 -13 5 -11 0 -14 -3 -6 -6z"/>
</g>
</svg>
