<?xml version="1.0" standalone="no"?>
<!DOCTYPE svg PUBLIC "-//W3C//DTD SVG 20010904//EN"
 "http://www.w3.org/TR/2001/REC-SVG-20010904/DTD/svg10.dtd">
<svg version="1.0" xmlns="http://www.w3.org/2000/svg"
 width="706.000000pt" height="547.000000pt" viewBox="0 0 706.000000 547.000000"
 preserveAspectRatio="xMidYMid meet">

<g transform="translate(0.000000,547.000000) scale(0.100000,-0.100000)"
fill="#000000" stroke="none">
<path d="M5870 5145 l0 -86 78 3 77 3 3 83 3 82 -81 0 -80 0 0 -85z m138 3 l3
-58 -61 0 -60 0 0 60 0 61 58 -3 57 -3 3 -57z"/>
<path d="M5910 5145 c0 -33 2 -35 35 -35 33 0 35 2 35 35 0 33 -2 35 -35 35
-33 0 -35 -2 -35 -35z"/>
<path d="M6120 5220 c0 -5 11 -10 25 -10 19 0 25 -5 25 -21 0 -22 22 -49 39
-49 6 0 11 5 11 10 0 6 -7 10 -15 10 -8 0 -15 5 -15 10 0 17 25 11 40 -10 9
-13 26 -20 47 -20 23 0 33 -5 33 -15 0 -8 -4 -15 -10 -15 -5 0 -10 -16 -10
-35 0 -24 -5 -35 -15 -35 -8 0 -15 -4 -15 -10 0 -5 11 -10 25 -10 16 0 25 -6
25 -15 0 -8 5 -15 10 -15 6 0 10 -16 10 -35 0 -24 5 -35 15 -35 8 0 15 5 15
10 0 6 9 10 20 10 11 0 20 7 20 15 0 8 -4 15 -10 15 -5 0 -10 11 -10 25 0 19
-5 25 -21 25 -11 0 -27 6 -35 14 -16 16 -19 76 -4 76 6 0 10 5 10 11 0 17 -27
39 -49 39 -12 0 -21 5 -21 10 0 6 11 10 25 10 15 0 25 6 25 14 0 8 6 16 13 19
7 2 8 8 3 13 -5 5 -11 4 -13 -3 -6 -15 -93 -18 -93 -3 0 6 -22 10 -50 10 -27
0 -50 -4 -50 -10z"/>
<path d="M6358 5208 c-2 -15 -11 -24 -25 -26 -27 -4 -28 -8 -9 -28 18 -17 33
-18 39 -1 3 8 14 1 30 -18 22 -25 27 -27 33 -12 3 9 15 17 25 17 16 0 19 -8
19 -50 0 -27 -4 -50 -10 -50 -5 0 -10 -4 -10 -10 0 -5 11 -10 25 -10 14 0 25
5 25 10 0 6 9 10 20 10 11 0 20 -4 20 -10 0 -5 -4 -10 -10 -10 -5 0 -10 -7
-10 -15 0 -10 -11 -15 -35 -15 -19 0 -35 -4 -35 -10 0 -5 5 -10 10 -10 6 0 10
-7 10 -15 0 -8 7 -15 15 -15 8 0 15 -4 15 -10 0 -5 5 -10 10 -10 6 0 10 16 10
35 0 19 5 35 10 35 6 0 10 7 10 15 0 8 7 15 15 15 8 0 15 -7 15 -15 0 -10 11
-15 35 -15 24 0 35 5 35 15 0 10 -11 15 -35 15 -19 0 -35 5 -35 10 0 6 5 10
10 10 6 0 10 16 10 35 0 19 5 35 10 35 6 0 10 7 10 15 0 8 -9 15 -20 15 -11 0
-20 5 -20 10 0 6 5 10 10 10 6 0 10 11 10 25 0 14 5 25 10 25 6 0 10 -16 10
-35 0 -24 5 -35 15 -35 11 0 15 12 15 45 0 39 -3 45 -21 45 -11 0 -27 -6 -35
-14 -8 -8 -14 -24 -14 -35 0 -24 -15 -27 -36 -7 -17 18 -18 33 -1 39 7 2 8 8
3 13 -5 5 -11 4 -13 -3 -3 -7 -13 -13 -22 -13 -10 0 -21 -3 -24 -7 -11 -10 51
-63 73 -63 17 0 20 -7 20 -50 0 -38 -4 -50 -15 -50 -10 0 -15 11 -15 35 0 24
-5 35 -15 35 -20 0 -75 55 -75 75 0 19 -23 45 -39 45 -6 0 -11 -4 -11 -10 0
-5 7 -10 16 -10 23 0 11 -24 -14 -28 -18 -3 -22 2 -22 22 0 32 -17 34 -22 4z
m72 -58 c0 -5 -7 -10 -15 -10 -8 0 -15 5 -15 10 0 6 7 10 15 10 8 0 15 -4 15
-10z m90 -75 c0 -8 -4 -15 -10 -15 -5 0 -10 7 -10 15 0 8 5 15 10 15 6 0 10
-7 10 -15z"/>
<path d="M6662 5148 l3 -83 78 -3 77 -3 0 86 0 85 -80 0 -81 0 3 -82z m138 2
l0 -60 -60 0 -60 0 0 53 c0 30 3 57 7 60 3 4 30 7 60 7 l53 0 0 -60z"/>
<path d="M6710 5145 c0 -33 2 -35 35 -35 33 0 35 2 35 35 0 33 -2 35 -35 35
-33 0 -35 -2 -35 -35z"/>
<path d="M6052 5198 c7 -20 48 -23 48 -4 0 11 -9 16 -26 16 -16 0 -24 -5 -22
-12z"/>
<path d="M6050 5150 c0 -5 7 -10 15 -10 8 0 15 5 15 10 0 6 -7 10 -15 10 -8 0
-15 -4 -15 -10z"/>
<path d="M6100 5126 c0 -8 6 -17 13 -20 10 -5 10 -7 0 -12 -7 -3 -13 -16 -13
-29 0 -13 6 -26 13 -29 10 -5 10 -7 0 -12 -7 -3 -13 -12 -13 -20 0 -10 -13
-14 -45 -14 -33 0 -45 4 -45 15 0 10 11 15 35 15 19 0 35 5 35 10 0 6 -16 10
-35 10 -19 0 -35 -4 -35 -10 0 -5 -7 -10 -15 -10 -8 0 -15 5 -15 10 0 6 -25
10 -55 10 l-55 0 0 -45 c0 -40 5 -51 40 -85 47 -46 70 -51 70 -15 0 20 5 25
25 25 14 0 25 5 25 10 0 14 -47 12 -54 -2 -5 -10 -7 -10 -12 0 -3 6 -21 12
-40 12 -30 0 -34 3 -34 25 0 20 5 25 25 25 14 0 25 -4 25 -10 0 -5 9 -10 20
-10 11 0 20 5 20 10 0 6 7 10 15 10 8 0 15 -4 15 -10 0 -5 9 -10 20 -10 15 0
20 -7 20 -25 0 -16 6 -25 15 -25 8 0 15 -4 15 -10 0 -5 -16 -10 -35 -10 -24 0
-35 -5 -35 -15 0 -11 12 -15 45 -15 32 0 45 4 45 14 0 8 6 16 13 19 8 3 5 11
-10 24 -24 21 -30 43 -13 43 6 0 10 -7 10 -15 0 -9 9 -15 25 -15 14 0 25 -4
25 -10 0 -5 5 -10 10 -10 6 0 10 11 10 25 0 20 -5 25 -25 25 -20 0 -25 5 -25
25 0 16 6 25 15 25 8 0 15 -7 15 -15 0 -8 5 -15 10 -15 6 0 10 7 10 15 0 10
11 15 35 15 28 0 35 4 35 20 0 11 5 20 10 20 6 0 10 11 10 25 0 14 -4 25 -10
25 -5 0 -10 7 -10 15 0 20 -6 19 -31 -6 -21 -21 -22 -50 -1 -57 6 -2 12 3 12
12 0 9 5 16 10 16 6 0 10 -5 10 -11 0 -17 -27 -39 -49 -39 -12 0 -21 -4 -21
-10 0 -5 -4 -10 -10 -10 -5 0 -10 7 -10 16 0 9 -8 23 -17 30 -10 7 -14 16 -10
21 5 4 14 0 21 -10 18 -24 26 -21 26 8 0 20 -5 25 -25 25 -16 0 -25 6 -25 15
0 8 -4 15 -10 15 -5 0 -10 -6 -10 -14z"/>
<path d="M6052 5088 c2 -13 8 -23 13 -23 6 0 11 10 13 23 2 15 -2 22 -13 22
-11 0 -15 -7 -13 -22z"/>
<path d="M6330 5094 c0 -18 85 -106 94 -97 12 12 6 43 -9 43 -9 0 -15 9 -15
21 0 11 -6 27 -14 35 -20 19 -56 18 -56 -2z m50 -19 c0 -8 -4 -15 -10 -15 -5
0 -10 7 -10 15 0 8 5 15 10 15 6 0 10 -7 10 -15z"/>
<path d="M6610 5075 c0 -19 5 -35 11 -35 12 0 39 -25 39 -36 0 -4 -12 -17 -27
-30 -23 -20 -25 -24 -10 -30 29 -11 19 -24 -18 -24 -19 0 -35 5 -35 10 0 6 5
10 10 10 6 0 10 7 10 15 0 8 -4 15 -10 15 -5 0 -10 -7 -10 -15 0 -8 -7 -15
-15 -15 -8 0 -15 -4 -15 -10 0 -5 7 -10 15 -10 9 0 15 -9 15 -25 0 -14 5 -25
10 -25 6 0 10 7 10 15 0 9 9 15 25 15 20 0 25 -5 25 -25 0 -20 -5 -25 -25 -25
-20 0 -25 -5 -25 -25 0 -20 -5 -25 -25 -25 -27 0 -34 15 -10 24 24 9 17 26
-10 26 -20 0 -25 -5 -25 -25 0 -14 -4 -25 -10 -25 -15 0 -12 -39 4 -56 8 -8
28 -14 45 -14 21 0 31 -5 31 -15 0 -9 -9 -15 -25 -15 -14 0 -25 -4 -25 -10 0
-5 7 -10 15 -10 21 0 19 -5 -15 -40 -20 -20 -39 -30 -60 -30 -20 0 -30 -5 -30
-15 0 -9 9 -15 25 -15 18 0 25 -5 25 -19 0 -15 8 -21 33 -23 24 -2 33 -8 35
-25 2 -13 6 -23 8 -23 8 0 34 27 34 35 0 14 -30 35 -49 35 -17 0 -21 6 -21 35
0 24 5 35 15 35 8 0 15 -4 15 -10 0 -5 16 -10 35 -10 24 0 35 -5 35 -15 0 -8
5 -15 10 -15 6 0 10 7 10 15 0 8 5 15 10 15 14 0 12 -28 -2 -32 -15 -5 13 -38
31 -38 6 0 11 -7 11 -15 0 -8 5 -15 10 -15 6 0 10 -4 10 -10 0 -5 -16 -10 -35
-10 -24 0 -35 -5 -35 -15 0 -8 -4 -15 -10 -15 -5 0 -10 7 -10 16 0 23 -24 11
-28 -14 -3 -22 -42 -33 -42 -12 0 15 -19 12 -36 -4 -21 -22 -18 -26 21 -26 31
0 35 -3 35 -25 0 -14 5 -25 10 -25 6 0 10 -7 10 -15 0 -12 13 -15 60 -15 l60
0 0 50 c0 28 5 50 10 50 6 0 10 -9 10 -20 0 -10 8 -24 18 -30 16 -9 16 -11 -1
-21 -21 -12 -14 -29 13 -29 10 0 20 -6 23 -12 2 -8 8 -9 13 -4 5 5 4 11 -3 13
-7 3 -13 11 -13 18 0 7 6 16 13 18 9 4 8 8 -3 16 -12 8 -12 13 -2 23 18 18 15
28 -8 28 -11 0 -20 5 -20 10 0 6 -9 10 -19 10 -11 0 -23 5 -26 10 -10 17 21
40 54 40 26 0 31 4 31 25 0 26 -14 34 -24 13 -5 -10 -7 -10 -12 0 -7 14 -54
16 -54 2 0 -5 -4 -10 -10 -10 -5 0 -10 16 -10 35 0 19 5 35 10 35 6 0 10 5 10
10 0 6 -33 10 -80 10 -64 0 -80 3 -80 15 0 8 5 15 10 15 6 0 10 9 10 20 0 11
5 20 10 20 6 0 10 7 10 15 0 9 9 15 25 15 14 0 25 -5 25 -11 0 -14 -25 -39
-39 -39 -6 0 -11 -4 -11 -10 0 -5 5 -10 10 -10 14 0 60 46 60 60 0 5 7 10 15
10 8 0 15 5 15 10 0 6 -7 10 -15 10 -8 0 -15 7 -15 15 0 8 -4 15 -10 15 -5 0
-10 -7 -10 -15 0 -9 -9 -15 -24 -15 -13 0 -27 -6 -29 -12 -4 -10 -8 -10 -14
-2 -4 7 -16 13 -26 15 -10 2 -18 9 -18 14 0 6 8 12 18 14 10 2 22 8 26 15 6 8
10 8 14 -1 2 -7 15 -13 28 -13 13 0 26 6 29 13 5 10 7 10 12 0 8 -17 22 -16
40 1 22 22 17 26 -31 26 -33 0 -45 4 -45 15 0 8 5 15 10 15 6 0 10 9 10 21 0
22 22 49 39 49 6 0 11 -16 11 -35 0 -28 4 -35 19 -35 10 0 22 -7 25 -17 6 -14
9 -14 26 5 19 20 19 23 3 41 -9 11 -20 18 -25 15 -13 -9 -9 -24 7 -24 8 0 15
-4 15 -10 0 -5 -5 -10 -11 -10 -16 0 -39 26 -39 45 0 32 -44 59 -52 33 -3 -9
-9 -8 -21 4 -26 26 -20 38 18 38 19 0 35 -5 35 -11 0 -17 27 -39 49 -39 28 0
26 6 -6 37 -19 17 -24 27 -15 30 6 3 12 16 12 29 0 25 -14 32 -24 12 -5 -10
-7 -10 -12 0 -7 16 -31 16 -36 0 -8 -23 -38 18 -38 51 0 21 -5 31 -15 31 -10
0 -15 -11 -15 -35z m50 -165 c0 -5 -4 -10 -10 -10 -5 0 -10 5 -10 10 0 6 5 10
10 10 6 0 10 -4 10 -10z m20 -170 c0 -5 -4 -10 -10 -10 -5 0 -10 5 -10 10 0 6
5 10 10 10 6 0 10 -4 10 -10z m70 -215 c0 -8 -4 -15 -10 -15 -5 0 -10 7 -10
15 0 8 5 15 10 15 6 0 10 -7 10 -15z m-40 -120 c0 -33 -2 -35 -35 -35 -33 0
-35 2 -35 35 0 33 2 35 35 35 33 0 35 -2 35 -35z"/>
<path d="M6666 4411 c-4 -7 -5 -15 -2 -18 9 -9 19 4 14 18 -4 11 -6 11 -12 0z"/>
<path d="M6430 5075 c0 -8 5 -15 10 -15 6 0 10 7 10 15 0 8 -4 15 -10 15 -5 0
-10 -7 -10 -15z"/>
<path d="M6780 5030 c0 -5 5 -10 10 -10 14 0 12 -28 -2 -32 -8 -3 -5 -12 10
-28 17 -18 22 -20 22 -8 0 9 -6 19 -12 22 -10 5 -10 7 0 12 16 8 15 22 -2 40
-17 16 -26 18 -26 4z"/>
<path d="M6220 4980 c0 -5 -7 -10 -16 -10 -23 0 -11 -24 14 -28 18 -3 22 2 22
22 0 14 -4 26 -10 26 -5 0 -10 -4 -10 -10z"/>
<path d="M6290 4945 c0 -33 -4 -45 -15 -45 -8 0 -15 5 -15 10 0 6 -16 10 -35
10 -19 0 -35 -4 -35 -10 0 -5 -16 -10 -35 -10 -19 0 -35 -5 -35 -10 0 -6 -13
-24 -30 -41 -25 -26 -31 -29 -36 -15 -5 12 -19 16 -60 16 -30 0 -54 5 -54 10
0 6 -7 10 -15 10 -8 0 -15 -4 -15 -10 0 -5 -9 -10 -20 -10 -11 0 -20 -7 -20
-15 0 -8 9 -15 20 -15 11 0 20 -4 20 -10 0 -5 7 -10 15 -10 8 0 15 5 15 10 0
6 19 10 43 10 31 0 46 -5 57 -20 18 -26 28 -25 53 3 13 15 21 18 24 10 3 -7
16 -13 29 -13 13 0 24 -4 24 -10 0 -14 -48 -12 -52 2 -3 9 -9 8 -21 -4 -29
-29 -20 -38 37 -38 40 0 55 4 60 16 3 8 11 12 17 8 9 -5 6 -11 -6 -21 -18 -13
-18 -13 1 -27 18 -14 18 -15 2 -21 -22 -9 -24 -41 -3 -49 8 -3 15 -10 15 -16
0 -5 -7 -10 -15 -10 -8 0 -15 5 -15 11 0 16 -30 43 -38 34 -4 -4 -1 -10 6 -12
22 -8 13 -33 -13 -33 -16 0 -25 6 -25 15 0 8 -4 15 -10 15 -5 0 -10 9 -10 20
0 11 5 20 10 20 6 0 10 7 10 15 0 21 -26 19 -50 -5 -28 -28 -26 -50 5 -50 16
0 25 -6 25 -15 0 -8 -4 -15 -10 -15 -5 0 -10 -4 -10 -9 0 -6 15 -11 33 -13 24
-2 33 -8 35 -25 2 -16 -2 -23 -12 -23 -9 0 -16 5 -16 10 0 6 -9 10 -20 10 -11
0 -20 -4 -20 -10 0 -5 -6 -10 -14 -10 -8 0 -17 -6 -19 -12 -4 -10 -8 -9 -16 2
-5 8 -14 11 -18 6 -4 -5 -2 -11 5 -13 6 -3 12 -11 12 -18 0 -7 -6 -16 -12 -18
-10 -4 -9 -8 2 -16 12 -8 12 -13 2 -23 -9 -9 -12 -9 -12 5 0 9 -7 17 -15 17
-8 0 -15 5 -15 10 0 6 -7 10 -15 10 -14 0 -55 34 -55 45 0 3 7 5 15 5 8 0 15
5 15 10 0 17 -20 11 -45 -15 -19 -18 -25 -35 -25 -70 0 -25 5 -45 10 -45 6 0
10 23 10 50 0 28 5 50 10 50 6 0 10 -7 10 -15 0 -8 5 -15 11 -15 17 0 39 -27
39 -49 0 -18 6 -21 45 -21 41 0 45 -2 45 -25 0 -14 5 -25 11 -25 14 0 39 -25
39 -39 0 -6 -4 -11 -10 -11 -5 0 -10 7 -10 15 0 8 -7 15 -15 15 -12 0 -15 -13
-15 -60 0 -47 3 -60 15 -60 8 0 15 5 15 10 0 6 9 10 20 10 16 0 20 7 20 35 0
24 5 35 15 35 8 0 15 -4 15 -10 0 -5 9 -10 20 -10 11 0 20 5 20 10 0 6 -9 10
-20 10 -11 0 -20 7 -20 15 0 8 -7 15 -15 15 -9 0 -15 9 -15 25 0 18 -5 25 -20
25 -11 0 -20 5 -20 10 0 6 -7 10 -15 10 -11 0 -15 12 -15 50 0 28 3 50 8 50
15 0 46 -44 34 -48 -21 -7 -13 -26 23 -57 19 -16 35 -38 35 -47 0 -11 8 -18
20 -18 11 0 20 5 20 10 0 6 11 10 25 10 16 0 25 6 25 15 0 9 -9 15 -25 15 -18
0 -25 5 -25 20 0 11 -4 20 -10 20 -5 0 -10 -4 -10 -10 0 -5 -4 -10 -10 -10 -5
0 -10 11 -10 25 0 22 4 25 35 25 19 0 35 5 35 10 0 16 29 11 51 -9 13 -12 17
-21 10 -26 -6 -3 -14 1 -17 9 -9 25 -24 19 -24 -9 0 -14 5 -25 10 -25 6 0 10
-16 10 -35 0 -31 3 -35 25 -35 16 0 25 -6 25 -15 0 -9 -9 -15 -24 -15 -13 0
-26 -6 -29 -12 -2 -8 -8 -9 -13 -4 -5 5 -4 11 4 13 27 10 12 33 -23 33 -24 0
-35 -5 -35 -15 0 -8 7 -15 15 -15 8 0 15 -4 15 -10 0 -5 -7 -10 -15 -10 -9 0
-15 -9 -15 -25 0 -14 -4 -25 -10 -25 -5 0 -10 7 -10 15 0 8 -4 15 -10 15 -15
0 -12 -20 7 -38 12 -12 18 -13 21 -4 4 14 32 16 32 2 0 -5 20 -10 45 -10 25 0
45 5 45 10 0 6 20 10 45 10 25 0 45 -4 45 -10 0 -6 27 -10 60 -10 33 0 60 4
60 10 0 6 -16 10 -35 10 -37 0 -44 12 -21 36 18 17 33 18 39 2 2 -7 8 -10 12
-6 9 8 -18 38 -34 38 -6 0 -11 7 -11 15 0 9 9 15 25 15 16 0 25 -6 25 -15 0
-9 9 -15 25 -15 14 0 25 -4 25 -10 0 -5 9 -10 20 -10 14 0 20 -7 20 -24 0 -13
-6 -26 -12 -29 -8 -2 -9 -8 -4 -13 5 -5 11 -4 13 4 3 6 11 12 19 12 8 0 14 7
14 15 0 8 5 15 10 15 6 0 10 -11 10 -25 0 -20 5 -25 25 -25 20 0 25 5 25 25 0
14 5 25 10 25 6 0 10 -5 10 -11 0 -11 25 -39 35 -39 10 0 35 28 35 39 0 6 -4
11 -10 11 -5 0 -10 -7 -10 -15 0 -8 -7 -15 -15 -15 -8 0 -15 5 -15 11 0 18
-33 46 -38 31 -4 -14 -32 -16 -32 -2 0 6 -16 10 -35 10 -19 0 -35 5 -35 10 0
6 -9 10 -20 10 -11 0 -20 7 -20 15 0 8 -5 15 -11 15 -13 0 -39 25 -39 38 0 6
-6 12 -12 15 -9 3 -6 11 10 24 12 11 22 24 22 27 0 13 -26 34 -46 38 -11 2
-20 13 -22 26 -3 21 -22 32 -22 12 0 -5 -4 -10 -10 -10 -5 0 -10 9 -10 20 0
11 -7 20 -15 20 -8 0 -15 5 -15 11 0 22 -30 39 -68 39 -29 0 -42 5 -47 18 -6
16 -7 16 -19 0 -7 -10 -16 -18 -20 -18 -12 0 -6 48 7 54 10 5 10 7 0 12 -28
13 0 54 36 54 12 0 21 6 21 15 0 8 -4 15 -10 15 -5 0 -10 9 -10 20 0 11 5 20
10 20 6 0 10 6 10 14 0 8 6 17 13 20 10 5 10 7 0 12 -7 3 -13 12 -13 19 0 7 6
16 13 19 10 5 10 7 0 12 -7 3 -13 21 -13 40 0 19 -4 34 -10 34 -5 0 -10 -20
-10 -45z m-30 -60 c0 -8 7 -15 15 -15 8 0 15 -4 15 -10 0 -5 -7 -10 -15 -10
-8 0 -15 5 -15 10 0 6 -4 10 -10 10 -5 0 -10 -11 -10 -25 0 -14 5 -25 10 -25
6 0 10 -4 10 -10 0 -19 -33 -10 -56 15 -27 29 -34 31 -34 10 0 -8 -4 -15 -10
-15 -5 0 -10 11 -10 25 0 21 5 25 30 25 18 0 33 6 36 15 4 8 15 15 25 15 10 0
19 -7 19 -15z m-320 -50 c0 -8 -7 -15 -15 -15 -8 0 -15 7 -15 15 0 8 7 15 15
15 8 0 15 -7 15 -15z m250 -215 c0 -14 27 -12 33 3 4 9 8 8 17 -3 9 -11 13
-12 17 -2 9 22 33 13 33 -12 0 -13 6 -27 13 -29 9 -4 8 -8 -3 -17 -11 -9 -12
-13 -2 -17 6 -2 12 -11 12 -19 0 -11 16 -14 66 -14 43 0 70 -5 80 -14 16 -17
19 -36 4 -36 -5 0 -10 7 -10 15 0 11 -12 15 -45 15 -48 0 -56 -11 -28 -38 12
-12 18 -13 21 -4 4 14 32 16 32 2 0 -5 -7 -10 -15 -10 -8 0 -15 -4 -15 -10 0
-5 16 -10 35 -10 31 0 35 -3 35 -25 0 -14 -4 -25 -10 -25 -14 0 -12 -28 2 -32
7 -3 0 -17 -19 -36 -34 -36 -43 -39 -43 -17 0 8 -4 15 -10 15 -5 0 -10 5 -10
10 0 6 16 10 35 10 58 0 39 19 -22 22 -57 3 -80 20 -35 26 18 3 22 10 22 38 0
19 -4 34 -10 34 -5 0 -10 -4 -10 -10 0 -5 -7 -10 -15 -10 -8 0 -15 -7 -15 -15
0 -8 -9 -15 -20 -15 -11 0 -20 7 -20 15 0 8 9 15 20 15 22 0 27 15 8 24 -10 5
-10 7 0 12 27 13 -1 54 -37 54 -12 0 -21 6 -21 15 0 10 -10 15 -30 15 -18 0
-33 -6 -36 -15 -8 -19 -78 -21 -72 -2 3 6 14 13 26 15 19 3 22 10 22 48 0 24
5 44 10 44 6 0 10 -4 10 -10z m190 -24 c0 -8 -6 -16 -12 -19 -8 -2 -9 -8 -4
-13 5 -5 11 -4 13 4 7 19 23 14 23 -8 0 -17 -7 -20 -45 -20 -43 0 -59 12 -32
24 10 5 10 7 0 12 -27 12 -13 34 22 34 24 0 35 -5 35 -14z m-20 -286 c0 -5
-11 -10 -25 -10 -16 0 -25 -6 -25 -15 0 -10 -11 -15 -35 -15 -37 0 -44 11 -22
35 14 16 107 21 107 5z"/>
<path d="M6208 4589 c-24 -25 -23 -29 7 -29 20 0 25 5 25 25 0 29 -8 30 -32 4z"/>
<path d="M6330 4450 c0 -5 7 -10 15 -10 8 0 15 5 15 10 0 6 -7 10 -15 10 -8 0
-15 -4 -15 -10z"/>
<path d="M6400 4380 c0 -5 7 -10 15 -10 8 0 15 5 15 10 0 6 -7 10 -15 10 -8 0
-15 -4 -15 -10z"/>
<path d="M6430 4930 c0 -5 -16 -10 -35 -10 -19 0 -35 -4 -35 -10 0 -5 5 -10
10 -10 6 0 10 -5 10 -11 0 -14 -25 -39 -39 -39 -6 0 -11 -6 -11 -14 0 -8 -6
-16 -12 -19 -8 -2 -9 -8 -4 -13 5 -5 11 -4 13 4 3 6 11 12 18 12 7 0 16 -6 18
-12 4 -10 8 -9 17 2 9 11 13 12 17 3 2 -7 11 -13 19 -13 19 0 18 -6 -6 -30
-24 -24 -30 -25 -30 -4 0 25 -44 13 -48 -13 -2 -15 -10 -23 -23 -23 -10 0 -19
-7 -19 -15 0 -8 9 -15 20 -15 11 0 20 7 20 15 0 8 6 15 14 15 8 0 16 6 19 13
3 8 13 2 28 -15 14 -16 32 -28 42 -28 9 0 17 -4 17 -10 0 -5 11 -10 25 -10 14
0 25 -4 25 -10 0 -5 -11 -10 -25 -10 -16 0 -25 -6 -25 -15 0 -9 9 -15 25 -15
16 0 25 6 25 15 0 8 5 15 10 15 6 0 10 9 10 20 0 11 -4 20 -10 20 -5 0 -10 7
-10 15 0 8 -6 15 -14 15 -8 0 -17 6 -20 13 -5 10 -7 10 -12 0 -5 -12 -54 -19
-54 -8 0 3 16 21 35 39 35 35 46 71 23 79 -8 2 -9 8 -4 13 5 5 11 4 13 -3 6
-17 41 -16 59 1 20 20 17 36 -6 36 -11 0 -20 5 -20 10 0 6 -7 10 -15 10 -8 0
-15 5 -15 10 0 6 -9 10 -20 10 -11 0 -20 -4 -20 -10z m0 -75 c0 -18 6 -35 13
-38 7 -2 8 -8 3 -13 -5 -5 -11 -4 -13 4 -3 6 -11 12 -19 12 -8 0 -14 7 -14 15
0 8 -4 15 -10 15 -5 0 -10 -7 -10 -15 0 -8 -4 -15 -10 -15 -17 0 -11 19 17 49
33 35 43 32 43 -14z"/>
<path d="M1822 4908 c-7 -7 -12 -30 -12 -53 0 -23 5 -46 12 -53 23 -23 88 -9
88 20 0 4 -7 8 -15 8 -8 0 -15 -4 -15 -10 0 -22 -40 -9 -46 14 -13 51 22 86
54 54 17 -17 28 -2 12 17 -15 18 -61 20 -78 3z"/>
<path d="M1930 4855 l0 -65 45 0 c25 0 45 5 45 10 0 6 -13 10 -30 10 -23 0
-30 4 -30 20 0 15 7 20 25 20 14 0 25 5 25 10 0 6 -11 10 -25 10 -16 0 -25 6
-25 15 0 10 10 15 30 15 17 0 30 5 30 10 0 6 -20 10 -45 10 l-45 0 0 -65z"/>
<path d="M2040 4856 c0 -37 4 -66 10 -66 6 0 10 11 10 25 0 14 6 25 13 25 8 0
19 -11 25 -25 6 -14 19 -25 27 -25 14 0 14 3 1 29 -10 19 -12 31 -5 38 6 6 9
21 7 34 -2 20 -10 24 -45 27 l-43 3 0 -65z m65 24 c0 -8 -10 -16 -22 -18 -18
-3 -23 2 -23 18 0 16 5 21 23 18 12 -2 22 -10 22 -18z"/>
<path d="M2150 4910 c0 -5 9 -10 20 -10 18 0 20 -7 20 -55 0 -30 5 -55 10 -55
6 0 10 25 10 55 0 48 3 55 19 55 11 0 23 5 26 10 4 6 -15 10 -49 10 -31 0 -56
-4 -56 -10z"/>
<path d="M2270 4855 c0 -51 3 -65 15 -65 12 0 15 14 15 65 0 51 -3 65 -15 65
-12 0 -15 -14 -15 -65z"/>
<path d="M2330 4855 c0 -37 4 -65 10 -65 6 0 10 11 10 24 0 19 6 25 25 28 14
2 26 8 26 13 0 6 -12 11 -26 13 -36 5 -32 32 5 32 17 0 30 5 30 10 0 6 -18 10
-40 10 l-40 0 0 -65z"/>
<path d="M2430 4855 c0 -37 4 -65 10 -65 6 0 10 28 10 65 0 37 -4 65 -10 65
-6 0 -10 -28 -10 -65z"/>
<path d="M2492 4908 c-7 -7 -12 -30 -12 -53 0 -23 5 -46 12 -53 23 -23 88 -9
88 20 0 4 -7 8 -15 8 -8 0 -15 -4 -15 -10 0 -22 -40 -9 -46 14 -13 51 22 86
54 54 17 -17 28 -2 12 17 -15 18 -61 20 -78 3z"/>
<path d="M2633 4903 c-3 -10 -14 -39 -24 -65 -15 -39 -16 -48 -5 -48 8 0 16 7
20 15 7 20 46 19 62 -2 24 -33 26 -5 3 56 -22 61 -44 78 -56 44z m37 -55 c0
-5 -7 -8 -15 -8 -15 0 -20 21 -8 33 7 7 23 -11 23 -25z"/>
<path d="M2730 4855 l0 -65 30 0 c38 0 70 31 70 68 0 37 -28 62 -68 62 l-32 0
0 -65z m68 6 c3 -31 -9 -50 -30 -51 -5 0 -8 21 -8 46 0 38 3 45 18 42 11 -2
18 -14 20 -37z"/>
<path d="M2861 4906 c-7 -8 -11 -34 -9 -58 3 -36 7 -44 31 -52 53 -19 96 40
66 92 -17 32 -68 42 -88 18z m64 -51 c0 -33 -4 -40 -19 -40 -26 0 -40 26 -32
59 5 21 12 27 29 24 18 -3 22 -9 22 -43z"/>
<path d="M6800 4910 c0 -5 5 -10 10 -10 6 0 10 5 10 10 0 6 -4 10 -10 10 -5 0
-10 -4 -10 -10z"/>
<path d="M5870 4886 c0 -9 5 -16 10 -16 6 0 10 4 10 9 0 6 -4 13 -10 16 -5 3
-10 -1 -10 -9z"/>
<path d="M6793 4805 c-7 -8 -13 -23 -13 -35 0 -23 -18 -27 -26 -5 -8 19 -44
20 -44 1 0 -8 6 -17 13 -20 10 -5 10 -7 0 -12 -7 -3 -13 -12 -13 -19 0 -7 6
-16 13 -18 9 -4 8 -8 -3 -17 -11 -9 -12 -13 -2 -17 6 -2 12 -11 12 -19 0 -9
11 -14 35 -14 19 0 35 -4 35 -10 0 -5 -16 -10 -36 -10 -45 0 -42 -24 4 -28 24
-2 32 1 32 12 0 9 5 16 10 16 16 0 11 40 -7 58 -12 12 -18 13 -21 4 -4 -14
-52 -16 -52 -2 0 6 4 10 9 10 5 0 11 10 13 22 4 29 35 35 53 11 13 -16 14 -16
15 -1 0 9 -6 19 -12 22 -10 5 -10 7 0 12 6 3 12 12 12 19 0 7 -6 16 -12 19
-10 5 -10 7 0 12 13 6 17 24 5 24 -5 -1 -14 -7 -20 -15z"/>
<path d="M5940 4790 c0 -5 -16 -10 -35 -10 -35 0 -49 -22 -22 -34 10 -5 10 -7
0 -12 -7 -3 -13 -12 -13 -19 0 -7 6 -16 13 -19 10 -5 10 -7 0 -12 -20 -9 -15
-24 7 -24 13 0 20 7 20 20 0 11 7 20 15 20 8 0 15 5 15 10 0 6 -7 13 -15 16
-24 9 -17 24 10 24 18 0 25 -5 25 -19 0 -11 -4 -23 -10 -26 -22 -14 -8 -25 31
-25 44 0 69 17 69 49 0 14 -6 21 -20 21 -11 0 -20 -4 -20 -10 0 -5 5 -10 10
-10 6 0 10 -7 10 -16 0 -25 -44 -13 -48 14 -2 12 -8 22 -13 22 -5 0 -9 7 -9
15 0 10 11 15 35 15 19 0 35 5 35 10 0 6 -20 10 -45 10 -25 0 -45 -4 -45 -10z"/>
<path d="M6150 4715 c0 -8 5 -15 10 -15 6 0 10 7 10 15 0 8 -4 15 -10 15 -5 0
-10 -7 -10 -15z"/>
<path d="M6360 4690 c0 -5 -7 -10 -15 -10 -8 0 -15 -4 -15 -10 0 -5 11 -10 25
-10 14 0 25 -5 25 -11 0 -14 25 -39 39 -39 6 0 11 11 11 24 0 13 6 26 13 29 7
2 8 8 3 13 -5 5 -11 4 -13 -3 -7 -19 -27 -16 -43 7 -15 21 -30 26 -30 10z"/>
<path d="M1811 4648 c0 -24 3 -36 6 -28 3 8 11 18 17 22 8 5 7 8 -1 8 -20 0
-15 28 5 33 13 4 11 5 -5 6 -21 1 -23 -4 -22 -41z"/>
<path d="M1870 4675 c-7 -9 -10 -25 -6 -41 5 -19 12 -25 29 -22 25 3 35 41 17
64 -16 18 -24 18 -40 -1z m38 -28 c2 -19 -1 -27 -13 -27 -19 0 -30 24 -21 46
9 23 31 11 34 -19z"/>
<path d="M2030 4675 c-7 -9 -10 -25 -6 -41 5 -19 12 -25 29 -22 25 3 35 41 17
64 -16 18 -24 18 -40 -1z m38 -28 c2 -19 -1 -27 -13 -27 -19 0 -30 24 -21 46
9 23 31 11 34 -19z"/>
<path d="M2177 4683 c-4 -3 -7 -21 -7 -40 0 -26 4 -33 19 -33 29 0 46 26 33
53 -10 21 -10 20 -9 -8 2 -21 -3 -30 -15 -33 -14 -3 -18 3 -18 26 0 17 6 33
13 35 6 3 7 6 1 6 -6 1 -14 -2 -17 -6z"/>
<path d="M2328 4678 c8 -10 9 -19 3 -22 -5 -4 -14 1 -19 11 -8 13 -9 9 -8 -18
1 -27 6 -34 21 -34 25 0 29 50 5 68 -13 10 -13 10 -2 -5z m12 -48 c0 -5 -7
-10 -15 -10 -8 0 -15 5 -15 10 0 6 7 10 15 10 8 0 15 -4 15 -10z"/>
<path d="M2367 4683 c-4 -3 -7 -21 -7 -40 0 -30 3 -33 28 -32 21 1 22 3 6 6
-31 6 -31 60 -1 66 21 4 21 4 1 6 -11 0 -24 -2 -27 -6z"/>
<path d="M2446 4680 c7 -8 14 -24 17 -35 4 -19 5 -19 6 1 0 12 -7 28 -16 35
-16 12 -17 12 -7 -1z"/>
<path d="M2487 4683 c-4 -3 -7 -21 -7 -40 0 -26 4 -33 19 -33 29 0 46 26 33
53 -10 21 -10 20 -9 -8 2 -21 -3 -30 -15 -33 -14 -3 -18 3 -18 26 0 17 6 33
13 35 6 3 7 6 1 6 -6 1 -14 -2 -17 -6z"/>
<path d="M2560 4676 c-27 -33 12 -88 42 -58 6 6 0 8 -16 5 -22 -5 -26 -2 -26
20 0 32 16 43 38 25 15 -12 16 -11 3 5 -16 21 -25 21 -41 3z"/>
<path d="M2630 4680 c0 -5 7 -7 15 -4 8 4 15 8 15 10 0 2 -7 4 -15 4 -8 0 -15
-4 -15 -10z"/>
<path d="M2750 4650 c0 -33 3 -40 19 -40 26 0 35 16 21 37 -9 16 -10 15 -5 -4
5 -17 2 -23 -10 -23 -14 0 -16 7 -13 35 2 19 0 35 -4 35 -4 0 -8 -18 -8 -40z"/>
<path d="M2898 4678 c8 -10 9 -19 3 -22 -5 -4 -14 1 -19 11 -8 13 -9 9 -8 -18
1 -27 6 -34 21 -34 25 0 29 50 5 68 -13 10 -13 10 -2 -5z m12 -48 c0 -5 -7
-10 -15 -10 -8 0 -15 5 -15 10 0 6 7 10 15 10 8 0 15 -4 15 -10z"/>
<path d="M2958 4678 c8 -9 11 -22 7 -28 -3 -5 -1 -10 4 -10 17 0 13 26 -6 41
-16 13 -17 12 -5 -3z"/>
<path d="M3110 4683 c8 -3 18 -11 22 -17 5 -7 8 -4 8 7 0 11 -7 17 -22 16 -16
0 -18 -2 -8 -6z"/>
<path d="M3167 4684 c-4 -4 -7 -22 -7 -41 0 -27 4 -33 21 -33 17 0 20 5 17 37
-3 35 -17 51 -31 37z m23 -19 c0 -8 -4 -15 -10 -15 -5 0 -10 7 -10 15 0 8 5
15 10 15 6 0 10 -7 10 -15z m0 -35 c0 -5 -4 -10 -10 -10 -5 0 -10 5 -10 10 0
6 5 10 10 10 6 0 10 -4 10 -10z"/>
<path d="M3330 4675 c-9 -11 -10 -19 -3 -26 8 -8 11 -7 10 2 -1 8 3 15 8 17
17 4 13 -38 -4 -48 -9 -5 -11 -10 -5 -10 30 -1 45 49 20 69 -10 9 -16 8 -26
-4z"/>
<path d="M3450 4675 c-9 -11 -10 -19 -3 -26 8 -8 11 -7 10 2 -1 8 3 15 8 17
17 4 13 -38 -4 -48 -9 -5 -11 -10 -5 -10 30 -1 45 49 20 69 -10 9 -16 8 -26
-4z"/>
<path d="M3512 4678 c-7 -7 -12 -21 -11 -32 1 -18 2 -18 8 3 10 37 31 38 31 3
0 -20 -6 -32 -17 -36 -14 -4 -14 -4 2 -3 16 2 20 10 20 36 0 37 -13 49 -33 29z"/>
<path d="M3755 4680 c-3 -5 0 -7 8 -4 25 9 28 -12 6 -40 l-20 -26 28 1 c17 1
21 3 10 6 -15 4 -16 7 -2 26 11 15 12 24 3 34 -13 15 -25 17 -33 3z"/>
<path d="M3817 4683 c-4 -3 -6 -22 -6 -42 1 -20 3 -28 6 -19 2 9 12 19 21 21
15 4 15 5 0 6 -10 0 -18 7 -18 15 0 8 8 17 18 19 14 4 14 5 1 6 -9 0 -19 -2
-22 -6z"/>
<path d="M3896 4680 c7 -8 14 -24 17 -35 4 -19 5 -19 6 1 0 12 -7 28 -16 35
-16 12 -17 12 -7 -1z"/>
<path d="M3997 4683 c-4 -3 -7 -21 -7 -40 0 -29 3 -33 25 -33 22 0 25 4 25 38
0 27 -3 33 -10 22 -5 -8 -7 -23 -4 -32 3 -12 0 -18 -9 -18 -17 0 -20 51 -3 62
7 5 8 8 0 8 -6 0 -14 -3 -17 -7z"/>
<path d="M4060 4649 c0 -36 2 -40 23 -37 23 3 37 42 20 59 -6 6 -8 -2 -5 -21
3 -23 1 -30 -13 -30 -14 0 -16 7 -13 35 2 19 0 35 -4 35 -4 0 -8 -18 -8 -41z"/>
<path d="M4135 4680 c-3 -6 1 -7 9 -4 21 8 21 -19 1 -36 -22 -18 -18 -30 8
-29 18 1 18 2 4 6 -17 4 -18 6 -2 24 10 10 15 25 12 34 -7 17 -23 20 -32 5z"/>
<path d="M4194 4676 c-3 -8 -4 -21 -1 -28 3 -7 6 -3 6 10 1 12 6 22 11 22 13
0 13 -57 0 -63 -6 -3 -5 -4 2 -3 17 3 17 68 1 73 -7 3 -16 -2 -19 -11z"/>
<path d="M4255 4681 c-3 -7 0 -8 9 -5 11 4 14 -2 14 -26 -1 -22 -5 -29 -15
-26 -7 3 -13 1 -13 -4 0 -6 9 -10 21 -10 17 0 20 5 17 37 -3 36 -20 54 -33 34z"/>
<path d="M4312 4678 c-7 -7 -12 -21 -11 -32 1 -18 2 -18 8 3 10 37 31 38 31 3
0 -20 -6 -32 -17 -36 -14 -4 -14 -4 2 -3 16 2 20 10 20 36 0 37 -13 49 -33 29z"/>
<path d="M1942 4648 c-2 -34 1 -38 21 -37 15 1 17 3 5 6 -10 2 -18 17 -21 36
-4 31 -4 31 -5 -5z"/>
<path d="M2003 4645 c0 -22 2 -30 4 -17 2 12 2 30 0 40 -3 9 -5 -1 -4 -23z"/>
<path d="M2252 4660 c-16 -26 -15 -30 3 -30 8 0 15 -6 15 -12 0 -10 2 -10 9 0
9 14 3 62 -8 62 -3 0 -12 -9 -19 -20z m18 -10 c0 -5 -5 -10 -11 -10 -5 0 -7 5
-4 10 3 6 8 10 11 10 2 0 4 -4 4 -10z"/>
<path d="M2423 4648 c1 -23 7 -33 20 -34 11 -1 12 0 3 3 -8 2 -17 17 -20 34
-6 28 -6 28 -3 -3z"/>
<path d="M2822 4660 c-16 -26 -15 -30 3 -30 8 0 15 -6 15 -12 0 -10 2 -10 9 0
9 14 3 62 -8 62 -3 0 -12 -9 -19 -20z m18 -10 c0 -5 -5 -10 -11 -10 -5 0 -7 5
-4 10 3 6 8 10 11 10 2 0 4 -4 4 -10z"/>
<path d="M2930 4660 c0 -11 4 -20 9 -20 5 0 7 9 4 20 -3 11 -7 20 -9 20 -2 0
-4 -9 -4 -20z"/>
<path d="M3050 4661 c-13 -26 -13 -31 4 -31 8 0 17 -6 19 -12 3 -7 6 4 6 25 1
40 -12 48 -29 18z m20 -11 c0 -5 -5 -10 -11 -10 -5 0 -7 5 -4 10 3 6 8 10 11
10 2 0 4 -4 4 -10z"/>
<path d="M3224 4666 c-9 -24 0 -51 19 -54 9 -2 17 1 17 7 0 6 -7 8 -15 5 -10
-4 -15 0 -15 11 0 11 5 15 15 11 8 -3 15 -1 15 4 0 6 -7 10 -16 10 -8 0 -12 5
-9 10 3 6 4 10 0 10 -3 0 -8 -6 -11 -14z"/>
<path d="M3412 4660 c-7 -12 -8 -20 -2 -20 5 0 10 -5 10 -11 0 -6 -9 -9 -20
-6 -11 3 -17 1 -14 -4 13 -22 38 -3 40 29 1 17 1 32 0 32 -1 0 -7 -9 -14 -20z"/>
<path d="M3630 4670 c0 -5 5 -10 10 -10 6 0 10 -5 10 -11 0 -6 -6 -9 -14 -6
-14 6 -32 -21 -21 -31 3 -3 5 0 5 6 0 7 9 12 20 12 11 0 20 -4 20 -10 0 -5 7
-10 15 -10 8 0 15 5 15 10 0 6 9 10 20 10 11 0 20 -5 20 -12 0 -6 2 -9 5 -6
11 10 -7 37 -21 31 -8 -3 -14 0 -14 6 0 6 5 11 10 11 6 0 10 5 10 10 0 22 -19
8 -30 -22 l-12 -33 -16 33 c-15 31 -32 43 -32 22z"/>
<path d="M3873 4648 c1 -23 7 -33 20 -34 11 -1 12 0 3 3 -8 2 -17 17 -20 34
-6 28 -6 28 -3 -3z"/>
<path d="M3934 4666 c-10 -26 1 -51 21 -51 28 0 33 35 6 42 -11 3 -18 9 -15
14 3 5 3 9 -1 9 -3 0 -8 -6 -11 -14z m36 -31 c0 -8 -7 -15 -15 -15 -8 0 -15 7
-15 15 0 8 7 15 15 15 8 0 15 -7 15 -15z"/>
<path d="M2643 4654 c26 -8 22 -38 -4 -31 -16 4 -19 3 -11 -5 15 -15 44 -1 40
19 -2 10 -12 19 -23 20 -16 1 -16 1 -2 -3z"/>
<path d="M6010 4648 c0 -9 6 -18 13 -21 7 -2 8 -8 3 -13 -5 -5 -11 -4 -13 4
-5 14 -73 17 -73 2 0 -5 9 -10 20 -10 11 0 20 -7 20 -15 0 -8 -4 -15 -10 -15
-5 0 -10 -4 -10 -10 0 -14 47 -12 54 3 5 10 7 10 12 0 11 -23 24 -13 24 17 0
17 -9 40 -20 52 -16 18 -20 19 -20 6z"/>
<path d="M2950 4620 c-9 -6 -10 -10 -3 -10 6 0 15 5 18 10 8 12 4 12 -15 0z"/>
<path d="M5870 4604 c0 -14 4 -23 10 -19 6 3 10 15 10 26 0 10 -4 19 -10 19
-5 0 -10 -12 -10 -26z"/>
<path d="M6610 4561 c0 -10 7 -21 15 -25 8 -3 15 -15 15 -26 0 -24 6 -25 26
-6 19 19 18 23 -11 51 -29 30 -45 32 -45 6z"/>
<path d="M5987 4533 c-12 -11 -8 -23 8 -23 8 0 15 7 15 15 0 16 -12 20 -23 8z"/>
<path d="M5910 4465 c0 -16 6 -25 15 -25 9 0 15 9 15 25 0 16 -6 25 -15 25 -9
0 -15 -9 -15 -25z"/>
<path d="M5870 4335 l0 -85 80 0 81 0 -3 83 -3 82 -77 3 -78 3 0 -86z m138 -2
l-3 -58 -57 -3 -58 -3 0 61 0 60 60 0 61 0 -3 -57z"/>
<path d="M5910 4335 c0 -33 2 -35 35 -35 33 0 35 2 35 35 0 33 -2 35 -35 35
-33 0 -35 -2 -35 -35z"/>
<path d="M6540 4260 c0 -5 7 -10 15 -10 8 0 15 5 15 10 0 6 -7 10 -15 10 -8 0
-15 -4 -15 -10z"/>
<path d="M1811 4128 c1 -24 3 -35 6 -25 2 9 11 17 19 17 20 0 30 30 13 41 -29
18 -39 10 -38 -33z m37 14 c2 -7 -3 -12 -12 -12 -9 0 -16 7 -16 16 0 17 22 14
28 -4z"/>
<path d="M1947 4163 c-4 -3 -6 -22 -6 -42 1 -20 3 -28 6 -18 6 21 19 22 31 2
5 -11 8 -4 8 22 1 21 -1 30 -3 21 -3 -10 -11 -18 -19 -18 -17 0 -19 26 -1 33
6 3 7 6 1 6 -6 1 -14 -2 -17 -6z"/>
<path d="M2210 4166 c0 -2 7 -9 15 -16 9 -7 15 -8 15 -2 0 5 -7 12 -15 16 -8
3 -15 4 -15 2z"/>
<path d="M2261 4128 c1 -24 3 -35 6 -25 6 21 12 22 27 2 9 -13 11 -10 11 12 0
34 -11 53 -31 53 -10 0 -14 -12 -13 -42z m37 14 c2 -7 -3 -12 -12 -12 -9 0
-16 7 -16 16 0 17 22 14 28 -4z"/>
<path d="M2320 4130 c0 -37 2 -40 28 -39 23 2 24 2 5 6 -29 6 -33 59 -5 66 13
4 11 5 -5 6 -20 1 -23 -4 -23 -39z"/>
<path d="M2387 4163 c-4 -3 -7 -21 -7 -40 0 -26 4 -33 19 -33 29 0 46 26 33
53 -10 21 -10 20 -9 -8 2 -21 -3 -30 -15 -33 -14 -3 -18 3 -18 26 0 17 6 33
13 35 6 3 7 6 1 6 -6 1 -14 -2 -17 -6z"/>
<path d="M2487 4162 c6 -4 13 -23 16 -42 l4 -35 1 37 c1 20 8 39 15 41 6 3 -1
6 -18 6 -17 0 -25 -3 -18 -7z"/>
<path d="M2617 4163 c-4 -3 -6 -22 -6 -42 1 -20 3 -28 6 -18 6 21 19 22 31 2
5 -11 8 -4 8 22 1 21 -1 30 -3 21 -3 -10 -11 -18 -19 -18 -17 0 -19 26 -1 33
6 3 7 6 1 6 -6 1 -14 -2 -17 -6z"/>
<path d="M2753 4163 c-7 -2 -13 -18 -13 -34 0 -22 6 -32 23 -38 23 -9 36 5 36
39 0 8 -4 5 -9 -7 -12 -30 -40 -30 -40 0 0 13 5 28 12 35 13 13 11 14 -9 5z"/>
<path d="M2880 4130 c0 -37 2 -40 28 -39 23 2 24 2 5 6 -29 6 -33 59 -5 66 13
4 11 5 -5 6 -20 1 -23 -4 -23 -39z"/>
<path d="M1881 4128 c-6 -17 -9 -34 -6 -36 3 -3 5 0 5 6 0 7 9 12 20 12 11 0
20 -5 20 -12 0 -6 2 -9 5 -6 11 10 -7 37 -21 31 -8 -3 -14 0 -14 6 0 6 5 11
10 11 6 0 10 5 10 10 0 22 -19 8 -29 -22z"/>
<path d="M2025 4149 c-4 -5 -4 -13 -1 -16 3 -4 6 0 6 8 0 11 2 11 10 -1 6 -9
10 -10 10 -3 0 17 -17 25 -25 12z"/>
<path d="M2130 4150 c0 -5 5 -10 10 -10 6 0 10 -5 10 -11 0 -6 -6 -9 -14 -6
-14 6 -32 -21 -21 -31 3 -3 5 0 5 6 0 7 9 12 20 12 11 0 20 -5 20 -12 0 -6 3
-8 6 -5 9 8 -16 67 -27 67 -5 0 -9 -4 -9 -10z"/>
<path d="M2185 4140 c-10 -33 32 -69 49 -42 3 5 -5 8 -17 8 -18 -1 -22 4 -20
27 2 32 -3 35 -12 7z"/>
<path d="M2453 4125 c0 -22 2 -30 4 -17 2 12 2 30 0 40 -3 9 -5 -1 -4 -23z"/>
<path d="M2551 4128 c-6 -17 -9 -34 -6 -36 3 -3 5 0 5 6 0 7 9 12 20 12 11 0
20 -5 20 -12 0 -6 2 -9 5 -6 11 10 -7 37 -21 31 -8 -3 -14 0 -14 6 0 6 5 11
10 11 6 0 10 5 10 10 0 22 -19 8 -29 -22z"/>
<path d="M2813 4128 c4 -59 58 -47 56 12 -1 23 -2 22 -8 -5 -9 -42 -38 -45
-45 -6 l-6 31 3 -32z"/>
<path d="M2006 4104 c-6 -14 -4 -15 10 -4 12 11 20 11 34 2 16 -10 18 -9 14 3
-8 20 -50 19 -58 -1z"/>
<path d="M1836 3971 c-9 -10 -19 -35 -23 -54 -12 -77 22 -127 86 -127 55 0 80
25 74 73 -5 34 -7 37 -39 37 -24 0 -34 -5 -34 -15 0 -8 7 -15 16 -15 10 0 14
-7 12 -22 -5 -34 -48 -31 -67 4 -11 20 -13 35 -6 65 8 31 15 39 38 41 18 2 29
-2 33 -12 7 -19 44 -21 44 -3 0 44 -101 65 -134 28z"/>
<path d="M2010 3890 c0 -93 1 -100 20 -100 19 0 20 7 20 100 0 93 -1 100 -20
100 -19 0 -20 -7 -20 -100z"/>
<path d="M2090 3890 l0 -100 65 0 c50 0 65 3 65 14 0 10 -14 16 -42 18 l-43 3
-3 83 c-3 74 -5 82 -22 82 -19 0 -20 -7 -20 -100z"/>
<path d="M2250 3890 l0 -100 51 0 c68 0 89 13 89 53 0 18 -5 38 -11 44 -8 8
-8 13 0 17 17 11 13 51 -7 69 -12 11 -36 17 -70 17 l-52 0 0 -100z m95 45 c0
-14 -8 -21 -27 -23 -24 -3 -28 0 -28 23 0 23 4 26 28 23 19 -2 27 -9 27 -23z
m0 -85 c0 -20 -6 -26 -27 -28 -25 -3 -28 0 -28 28 0 28 3 31 28 28 21 -2 27
-8 27 -28z"/>
<path d="M2430 3890 l0 -100 65 0 c51 0 65 3 65 15 0 11 -12 15 -45 15 -43 0
-45 1 -45 30 0 28 2 30 40 30 29 0 40 4 40 15 0 11 -11 15 -40 15 -36 0 -40 3
-40 25 0 23 4 25 45 25 33 0 45 4 45 15 0 12 -14 15 -65 15 l-65 0 0 -100z"/>
<path d="M2590 3890 c0 -93 1 -100 20 -100 16 0 20 7 20 35 0 27 4 35 18 35
11 0 25 -14 35 -35 11 -23 24 -35 37 -35 25 0 25 1 -1 45 -20 33 -20 37 -5 54
23 25 21 78 -3 91 -11 5 -42 10 -70 10 l-51 0 0 -100z m95 40 c0 -20 -6 -26
-27 -28 -25 -3 -28 0 -28 28 0 28 3 31 28 28 21 -2 27 -8 27 -28z"/>
<path d="M2760 3975 c0 -10 10 -15 30 -15 l30 0 0 -85 c0 -78 2 -85 20 -85 18
0 20 7 20 85 l0 85 30 0 c20 0 30 5 30 15 0 12 -16 15 -80 15 -64 0 -80 -3
-80 -15z"/>
<path d="M2971 3973 c-24 -20 -37 -78 -27 -118 15 -61 88 -86 136 -47 34 28
40 117 10 155 -26 33 -85 37 -119 10z m89 -32 c25 -47 3 -121 -35 -121 -20 0
-45 40 -45 73 0 41 17 67 45 67 14 0 29 -8 35 -19z"/>
<path d="M3215 3970 c-28 -31 -13 -66 43 -92 26 -13 47 -30 47 -38 0 -22 -46
-25 -61 -5 -7 9 -22 15 -36 13 l-23 -3 27 -27 c52 -54 150 -27 134 37 -5 18
-21 32 -54 48 -26 12 -47 29 -47 37 0 21 46 26 57 6 9 -16 48 -23 48 -8 0 4
-7 18 -16 30 -20 30 -93 31 -119 2z"/>
<path d="M3380 3890 l0 -100 65 0 c51 0 65 3 65 15 0 11 -12 15 -45 15 -43 0
-45 1 -45 30 0 28 2 30 40 30 29 0 40 4 40 15 0 11 -11 15 -40 15 -36 0 -40 3
-40 25 0 23 4 25 45 25 33 0 45 4 45 15 0 12 -14 15 -65 15 l-65 0 0 -100z"/>
<path d="M3540 3890 c0 -93 1 -100 20 -100 16 0 20 7 20 35 0 27 4 35 18 35
11 0 25 -14 35 -35 11 -23 24 -35 37 -35 25 0 25 1 -1 45 -20 33 -20 37 -5 54
23 25 21 78 -3 91 -11 5 -42 10 -70 10 l-51 0 0 -100z m95 40 c0 -20 -6 -26
-27 -28 -25 -3 -28 0 -28 28 0 28 3 31 28 28 21 -2 27 -8 27 -28z"/>
<path d="M3720 3890 c0 -93 1 -100 20 -100 16 0 20 7 20 35 0 27 4 35 18 35
11 0 25 -14 35 -35 11 -23 24 -35 37 -35 25 0 25 1 -1 45 -20 33 -20 37 -5 54
23 25 21 78 -3 91 -11 5 -42 10 -70 10 l-51 0 0 -100z m95 40 c0 -20 -6 -26
-27 -28 -25 -3 -28 0 -28 28 0 28 3 31 28 28 21 -2 27 -8 27 -28z"/>
<path d="M3943 3958 c-6 -18 -22 -63 -36 -100 l-26 -68 23 0 c15 0 26 7 29 20
4 16 14 20 45 20 31 0 41 -4 45 -20 3 -12 14 -20 27 -20 17 0 21 4 15 18 -4 9
-21 54 -37 100 -26 69 -34 82 -53 82 -16 0 -24 -9 -32 -32z m52 -65 c5 -20 3
-23 -19 -23 -24 0 -24 2 -14 31 11 32 21 29 33 -8z"/>
<path d="M4080 3975 c0 -10 10 -15 30 -15 l30 0 0 -85 c0 -78 2 -85 20 -85 18
0 20 7 20 85 l0 85 30 0 c20 0 30 5 30 15 0 12 -16 15 -80 15 -64 0 -80 -3
-80 -15z"/>
<path d="M4291 3973 c-24 -20 -37 -78 -27 -118 15 -61 88 -86 136 -47 34 28
40 117 10 155 -26 33 -85 37 -119 10z m89 -32 c25 -47 3 -121 -35 -121 -20 0
-45 40 -45 73 0 41 17 67 45 67 14 0 29 -8 35 -19z"/>
<path d="M1824 3614 c-16 -24 -16 -27 3 -51 10 -15 35 -32 54 -38 43 -15 48
-48 6 -53 -18 -2 -29 2 -33 12 -8 20 -44 21 -44 2 0 -40 102 -62 134 -30 35
35 12 83 -52 105 -40 14 -45 49 -7 49 14 0 28 -7 31 -15 8 -19 44 -20 44 -2 0
26 -36 47 -78 47 -34 0 -45 -5 -58 -26z"/>
<path d="M2033 3608 c-6 -18 -22 -63 -36 -100 l-26 -68 23 0 c15 0 26 7 29 20
4 15 14 20 41 20 25 0 38 -6 46 -20 14 -26 55 -28 45 -2 -4 9 -21 54 -37 100
-26 69 -34 82 -53 82 -16 0 -24 -9 -32 -32z m49 -63 c4 -21 1 -25 -18 -25 -21
0 -22 2 -13 30 12 34 24 32 31 -5z"/>
<path d="M2180 3540 l0 -100 65 0 c50 0 65 3 65 14 0 10 -14 16 -42 18 l-43 3
-3 83 c-3 74 -5 82 -22 82 -19 0 -20 -7 -20 -100z"/>
<path d="M2351 3614 c-15 -19 -21 -41 -21 -76 0 -62 31 -98 85 -98 37 0 75 28
75 55 0 8 -9 15 -20 15 -11 0 -20 -7 -20 -15 0 -24 -51 -31 -67 -10 -16 22
-17 79 -3 106 14 25 56 25 70 -1 13 -25 40 -26 40 -2 0 30 -33 52 -78 52 -32
0 -45 -6 -61 -26z"/>
<path d="M2520 3540 l0 -100 70 0 c54 0 70 3 70 14 0 11 -14 16 -47 18 -44 3
-48 5 -51 31 -3 26 -1 27 37 27 30 0 41 4 41 15 0 11 -11 15 -40 15 -36 0 -40
3 -40 25 0 23 3 25 50 25 38 0 50 4 50 15 0 12 -14 15 -70 15 l-70 0 0 -100z"/>
<path d="M2680 3540 l0 -100 39 0 c61 0 90 15 107 57 13 30 14 44 5 75 -15 49
-44 68 -103 68 l-48 0 0 -100z m91 60 c29 -16 27 -105 -2 -120 -38 -21 -49 -6
-49 65 0 69 8 78 51 55z"/>
<path d="M2891 3623 c-24 -20 -37 -78 -27 -118 15 -61 88 -86 136 -47 34 28
40 117 10 155 -26 33 -85 37 -119 10z m89 -32 c25 -47 3 -121 -35 -121 -20 0
-45 40 -45 73 0 41 17 67 45 67 14 0 29 -8 35 -19z"/>
<path d="M2890 3311 c0 -5 5 -13 10 -16 6 -3 10 -17 10 -31 0 -19 -5 -25 -17
-22 -13 3 -18 12 -16 33 1 29 1 29 -10 7 -8 -18 -7 -26 6 -39 8 -9 23 -13 31
-10 20 8 21 54 1 73 -8 9 -15 11 -15 5z"/>
<path d="M1808 3285 c-8 -19 -8 -28 2 -40 14 -16 36 -20 44 -7 3 5 -5 8 -17 8
-23 -1 -32 21 -18 43 8 12 12 12 25 2 9 -8 16 -9 16 -3 0 8 -22 22 -36 22 -2
0 -9 -11 -16 -25z"/>
<path d="M1908 3299 c19 -20 16 -61 -5 -57 -13 3 -18 12 -16 33 1 29 1 29 -10
7 -8 -18 -7 -26 6 -39 8 -9 23 -13 31 -10 22 9 21 63 -1 72 -15 5 -16 4 -5 -6z"/>
<path d="M1951 3268 c1 -35 2 -38 8 -18 l7 25 8 -23 c7 -21 26 -22 26 -1 0 6
-4 8 -9 5 -5 -3 -14 8 -20 24 -14 42 -21 37 -20 -12z"/>
<path d="M2007 3296 c-4 -10 -5 -21 -2 -24 9 -9 17 6 13 25 -3 17 -4 17 -11
-1z"/>
<path d="M2047 3303 c-4 -3 -6 -22 -6 -42 1 -20 3 -28 6 -18 2 9 13 17 23 17
25 0 35 17 20 35 -13 16 -32 19 -43 8z m41 -20 c2 -8 -5 -13 -17 -13 -12 0
-21 6 -21 16 0 18 31 15 38 -3z"/>
<path d="M2170 3270 c0 -35 3 -40 23 -39 16 1 18 2 5 6 -12 3 -18 14 -18 33 0
19 6 30 18 33 13 4 11 5 -5 6 -20 1 -23 -4 -23 -39z"/>
<path d="M2228 3303 c6 -2 13 -21 13 -41 2 -34 2 -35 6 -7 3 17 9 36 15 43 8
9 4 12 -18 11 -16 0 -23 -3 -16 -6z"/>
<path d="M2302 3301 c-21 -13 -11 -66 12 -66 26 0 44 30 30 52 -13 21 -25 25
-42 14z m33 -32 c0 -15 -7 -25 -17 -27 -13 -3 -18 3 -18 21 0 13 3 27 7 31 13
12 28 -1 28 -25z"/>
<path d="M2597 3303 c-4 -3 -6 -22 -6 -42 1 -20 3 -28 6 -18 2 9 13 17 23 17
24 0 36 18 21 33 -9 9 -11 8 -6 -5 6 -14 2 -18 -14 -18 -23 0 -29 25 -8 33 6
3 7 6 1 6 -6 1 -14 -2 -17 -6z"/>
<path d="M2667 3303 c-4 -3 -6 -22 -6 -42 1 -20 3 -28 6 -18 6 21 19 22 31 2
5 -11 8 -4 8 22 1 21 -1 30 -3 21 -3 -10 -11 -18 -19 -18 -17 0 -19 26 -1 33
6 3 7 6 1 6 -6 1 -14 -2 -17 -6z"/>
<path d="M2758 3299 c19 -20 16 -61 -5 -57 -13 3 -18 12 -16 33 1 29 1 29 -10
7 -8 -18 -7 -26 6 -39 8 -9 23 -13 31 -10 22 9 21 63 -1 72 -15 5 -16 4 -5 -6z"/>
<path d="M2800 3269 c0 -36 2 -40 23 -37 39 5 30 77 -10 78 -8 0 -13 -15 -13
-41z m36 -2 c2 -18 -2 -27 -12 -27 -9 0 -14 11 -14 31 0 38 22 35 26 -4z"/>
<path d="M3000 3270 c0 -35 3 -40 23 -39 16 1 18 2 5 6 -12 3 -18 14 -18 33 0
19 6 30 18 33 13 4 11 5 -5 6 -20 1 -23 -4 -23 -39z"/>
<path d="M3163 3303 c-19 -7 -16 -62 3 -70 8 -3 20 -1 26 5 8 8 5 9 -11 5 -20
-5 -22 -2 -19 23 2 20 8 29 20 28 10 -1 15 2 12 7 -6 10 -12 10 -31 2z"/>
<path d="M3291 3268 c1 -24 3 -35 6 -25 6 21 19 22 31 1 6 -11 9 -7 9 18 0 33
-11 48 -34 48 -9 0 -13 -14 -12 -42z m37 14 c2 -7 -3 -12 -12 -12 -9 0 -16 7
-16 16 0 17 22 14 28 -4z"/>
<path d="M3448 3299 c19 -20 16 -61 -5 -57 -13 3 -18 12 -16 33 1 29 1 29 -10
7 -8 -18 -7 -26 6 -39 8 -9 23 -13 31 -10 22 9 21 63 -1 72 -15 5 -16 4 -5 -6z"/>
<path d="M2112 3268 c-2 -34 1 -38 21 -37 15 1 17 3 5 6 -10 2 -18 17 -21 36
-4 31 -4 31 -5 -5z"/>
<path d="M2430 3299 c0 -4 6 -20 13 -37 l13 -31 11 37 c10 32 10 34 -2 19 -13
-18 -14 -18 -24 0 -6 10 -11 15 -11 12z"/>
<path d="M2540 3290 c0 -5 5 -10 10 -10 6 0 10 -5 10 -11 0 -6 -6 -9 -14 -6
-14 6 -32 -21 -21 -31 3 -3 5 0 5 6 0 7 9 12 20 12 11 0 20 -5 20 -12 0 -6 3
-8 6 -5 9 8 -16 67 -27 67 -5 0 -9 -4 -9 -10z"/>
<path d="M3062 3268 c-2 -34 1 -38 21 -37 15 1 17 3 5 6 -10 2 -18 17 -21 36
-4 31 -4 31 -5 -5z"/>
<path d="M3223 3268 c1 -25 7 -33 22 -33 15 0 20 7 21 30 1 28 1 28 -3 3 -6
-37 -30 -36 -37 2 -6 30 -6 30 -3 -2z"/>
<path d="M3350 3290 c0 -6 9 -15 20 -22 26 -16 26 -32 0 -25 -11 3 -18 1 -14
-4 8 -13 44 -11 44 2 0 7 -11 22 -25 35 -14 13 -25 19 -25 14z"/>
<path d="M2011 3244 c0 -11 3 -14 6 -6 3 7 2 16 -1 19 -3 4 -6 -2 -5 -13z"/>
<path d="M3599 3136 c-13 -6 -25 -22 -27 -34 -2 -12 -8 -22 -13 -22 -5 0 -9
-7 -9 -15 0 -8 5 -15 10 -15 6 0 10 -27 10 -60 0 -53 2 -60 20 -60 18 0 20 7
20 60 0 47 3 60 15 60 8 0 15 7 15 15 0 8 -7 15 -15 15 -22 0 -18 27 5 33 11
3 20 10 20 15 0 17 -26 21 -51 8z"/>
<path d="M2450 3035 c0 -98 1 -105 20 -105 19 0 20 7 20 105 0 98 -1 105 -20
105 -19 0 -20 -7 -20 -105z"/>
<path d="M2768 3108 c-3 -30 -6 -33 -34 -30 -38 4 -64 -26 -64 -73 0 -53 23
-74 80 -73 l50 1 0 104 c0 83 -3 103 -14 103 -9 0 -16 -12 -18 -32z m-2 -82
c8 -34 -4 -66 -26 -66 -25 0 -43 63 -23 83 15 16 43 6 49 -17z"/>
<path d="M3260 3106 c0 -30 -2 -33 -25 -28 -39 7 -65 -22 -65 -73 0 -55 21
-74 83 -73 l47 1 0 104 c0 96 -1 103 -20 103 -16 0 -20 -7 -20 -34z m-5 -101
c0 -33 -3 -40 -20 -40 -15 0 -21 8 -23 28 -5 39 5 59 25 55 14 -2 18 -13 18
-43z"/>
<path d="M3665 3130 c-8 -14 3 -30 21 -30 8 0 14 9 14 20 0 21 -24 28 -35 10z"/>
<path d="M3740 3037 l0 -104 50 -1 c57 -1 80 20 80 73 0 47 -26 78 -61 73 -27
-4 -29 -2 -29 29 0 26 -4 33 -20 33 -19 0 -20 -7 -20 -103z m85 -32 c0 -34 -3
-40 -22 -43 -21 -3 -23 1 -23 43 0 42 2 46 23 43 19 -3 22 -9 22 -43z"/>
<path d="M4270 3120 c-8 -16 -8 -20 3 -20 8 0 22 9 32 20 18 19 17 20 -3 20
-12 0 -26 -9 -32 -20z"/>
<path d="M4635 3130 c-8 -14 3 -30 21 -30 8 0 14 9 14 20 0 21 -24 28 -35 10z"/>
<path d="M1820 3030 c0 -93 1 -100 20 -100 19 0 20 7 20 100 0 93 -1 100 -20
100 -19 0 -20 -7 -20 -100z"/>
<path d="M2210 3100 c0 -11 -4 -20 -10 -20 -5 0 -10 -7 -10 -15 0 -8 4 -15 10
-15 5 0 10 -26 12 -57 3 -55 4 -58 31 -61 19 -2 27 1 27 12 0 9 -4 16 -10 16
-5 0 -10 20 -10 45 0 25 5 45 10 45 6 0 10 7 10 15 0 8 -4 15 -10 15 -5 0 -10
9 -10 20 0 13 -7 20 -20 20 -13 0 -20 -7 -20 -20z"/>
<path d="M4543 3100 c-3 -11 -9 -20 -14 -20 -5 0 -9 -7 -9 -15 0 -8 5 -15 10
-15 6 0 10 -18 10 -41 0 -53 15 -79 45 -79 27 0 34 24 10 34 -10 3 -15 19 -15
46 0 29 4 40 15 40 8 0 15 7 15 15 0 8 -7 15 -15 15 -8 0 -15 9 -15 20 0 12
-7 20 -16 20 -9 0 -18 -9 -21 -20z"/>
<path d="M1900 3004 c0 -65 2 -74 19 -74 15 0 18 7 16 48 -3 59 2 72 26 72 20
0 24 -20 20 -87 -2 -28 1 -33 19 -33 20 0 21 4 18 73 l-3 72 -57 1 -58 1 0
-73z"/>
<path d="M2061 3066 c-20 -24 -9 -50 32 -69 38 -19 49 -37 22 -37 -8 0 -24 5
-35 12 -24 15 -38 3 -24 -20 13 -21 80 -28 100 -11 8 7 14 24 12 38 -2 20 -11
29 -38 37 -36 12 -53 34 -26 34 9 0 25 -5 36 -12 24 -15 38 -3 24 20 -15 23
-86 28 -103 8z"/>
<path d="M2304 3059 l-19 -21 44 4 c29 2 45 -1 48 -9 3 -9 -6 -13 -25 -13 -34
0 -62 -22 -62 -49 0 -29 22 -40 78 -39 l52 0 0 57 c0 43 -5 62 -18 74 -26 24
-75 21 -98 -4z m74 -76 c-4 -22 -48 -31 -48 -10 0 19 10 27 32 27 13 0 18 -6
16 -17z"/>
<path d="M2536 3064 c-24 -23 -20 -26 24 -19 33 6 40 4 40 -9 0 -10 -8 -16
-21 -16 -33 0 -59 -19 -59 -44 0 -34 19 -45 76 -44 l50 0 -4 61 c-2 34 -9 68
-14 75 -15 17 -74 15 -92 -4z m64 -84 c0 -13 -7 -20 -20 -20 -19 0 -27 20 -13
33 13 14 33 6 33 -13z"/>
<path d="M2850 3060 c-45 -45 -13 -130 50 -130 41 0 70 31 70 75 0 44 -29 75
-70 75 -17 0 -39 -9 -50 -20z m75 -55 c0 -33 -4 -41 -22 -43 -25 -4 -38 26
-29 64 5 19 12 25 29 22 18 -3 22 -9 22 -43z"/>
<path d="M3000 3004 c0 -67 2 -74 20 -74 18 0 20 7 20 55 0 48 2 55 20 55 13
0 20 7 20 19 0 15 -8 18 -40 18 l-40 0 0 -73z"/>
<path d="M3346 3058 c-22 -31 -20 -84 4 -108 24 -24 82 -27 100 -5 13 16 12
17 -39 19 -54 2 -51 26 3 26 44 0 46 1 46 28 0 58 -82 86 -114 40z m72 -25 c2
-8 -6 -13 -22 -13 -25 0 -33 10 -19 24 10 10 36 3 41 -11z"/>
<path d="M3660 3005 c0 -68 2 -75 20 -75 18 0 20 7 20 75 0 68 -2 75 -20 75
-18 0 -20 -7 -20 -75z"/>
<path d="M3900 3004 c0 -67 2 -74 20 -74 18 0 20 7 20 55 0 48 2 55 20 55 13
0 20 7 20 19 0 15 -8 18 -40 18 l-40 0 0 -73z"/>
<path d="M4012 3068 c-22 -22 -12 -30 28 -23 33 6 40 4 40 -9 0 -11 -9 -16
-29 -16 -27 0 -61 -29 -61 -52 0 -21 34 -37 83 -37 l52 0 -5 65 c-4 42 -11 68
-20 74 -21 14 -74 12 -88 -2z m68 -82 c0 -19 -17 -29 -37 -22 -12 5 -13 9 -3
21 16 19 40 19 40 1z"/>
<path d="M4227 3062 c-23 -26 -22 -94 1 -115 23 -21 76 -22 96 -1 32 32 32 87
0 119 -21 21 -77 19 -97 -3z m71 -24 c28 -28 2 -88 -33 -74 -15 5 -22 66 -8
79 10 11 28 8 41 -5z"/>
<path d="M4380 2973 c0 -94 2 -104 18 -101 11 2 18 14 20 34 3 27 6 30 31 26
52 -7 82 74 46 125 -13 18 -25 22 -65 21 l-50 -1 0 -104z m85 32 c0 -34 -3
-40 -22 -43 -21 -3 -23 1 -23 43 0 42 2 46 23 43 19 -3 22 -9 22 -43z"/>
<path d="M4630 3005 c0 -68 2 -75 20 -75 18 0 20 7 20 75 0 68 -2 75 -20 75
-18 0 -20 -7 -20 -75z"/>
<path d="M4720 3060 c-45 -45 -13 -130 48 -130 16 0 36 8 45 18 22 24 21 32
-3 32 -11 0 -20 -5 -20 -11 0 -6 -10 -9 -22 -7 -19 2 -24 10 -26 41 -4 44 18
59 47 33 22 -20 41 -21 41 -2 0 44 -75 61 -110 26z"/>
<path d="M4866 3064 c-24 -23 -20 -26 24 -19 33 6 40 4 40 -9 0 -10 -8 -16
-21 -16 -33 0 -59 -19 -59 -44 0 -34 18 -44 76 -44 l50 0 -4 62 c-2 33 -9 67
-14 74 -15 17 -74 15 -92 -4z m64 -84 c0 -13 -7 -20 -20 -20 -19 0 -27 20 -13
33 13 14 33 6 33 -13z"/>
<path d="M1811 2408 c1 -24 3 -35 6 -25 2 9 11 17 19 17 20 0 30 30 13 41 -29
18 -39 10 -38 -33z m37 14 c2 -7 -3 -12 -12 -12 -9 0 -16 7 -16 16 0 17 22 14
28 -4z"/>
<path d="M1877 2443 c-4 -3 -6 -22 -6 -42 1 -20 3 -28 6 -18 6 21 19 22 31 2
5 -11 8 -4 8 22 1 21 -1 30 -3 21 -3 -10 -11 -18 -19 -18 -17 0 -19 26 -1 33
6 3 7 6 1 6 -6 1 -14 -2 -17 -6z"/>
<path d="M1940 2410 c0 -37 2 -40 28 -39 21 1 22 3 6 6 -27 5 -32 59 -6 66 12
3 10 5 -5 6 -20 1 -23 -4 -23 -39z"/>
<path d="M2007 2443 c-13 -13 -7 -32 13 -38 11 -3 20 -11 20 -17 0 -6 -9 -8
-20 -5 -11 3 -20 1 -20 -4 0 -13 38 -11 46 3 4 7 -2 18 -14 26 -29 19 -28 35
1 27 17 -5 19 -4 7 4 -18 13 -24 13 -33 4z"/>
<path d="M2067 2443 c-4 -3 -7 -21 -7 -40 0 -30 3 -33 28 -32 21 1 22 3 6 6
-31 6 -31 60 -1 66 21 4 21 4 1 6 -11 0 -24 -2 -27 -6z"/>
<path d="M2207 2442 c6 -4 13 -23 16 -42 l4 -35 1 37 c1 20 8 39 15 41 6 3 -1
6 -18 6 -17 0 -25 -3 -18 -7z"/>
<path d="M2410 2409 c0 -36 2 -40 23 -37 42 6 33 77 -10 78 -8 0 -13 -15 -13
-41z m38 -2 c2 -19 -1 -27 -12 -27 -11 0 -16 10 -16 31 0 38 24 35 28 -4z"/>
<path d="M2478 2425 c-9 -21 -9 -29 4 -42 9 -9 24 -13 32 -10 21 8 21 63 0 71
-23 9 -23 8 -36 -19z m40 -18 c2 -19 -1 -27 -12 -27 -20 0 -29 16 -21 41 9 27
29 19 33 -14z"/>
<path d="M2891 2408 c1 -24 3 -35 6 -26 2 9 12 19 21 21 15 4 15 5 0 6 -10 0
-18 7 -18 15 0 8 8 17 18 19 13 4 11 5 -5 6 -21 1 -23 -3 -22 -41z"/>
<path d="M2950 2410 c0 -37 2 -40 28 -39 23 2 24 2 5 6 -25 5 -30 18 -10 26
10 4 10 6 0 6 -19 1 -15 29 5 34 13 4 11 5 -5 6 -20 1 -23 -4 -23 -39z"/>
<path d="M3023 2443 c-19 -7 -16 -62 3 -70 8 -3 20 -1 26 5 8 8 5 9 -11 5 -20
-5 -22 -2 -19 23 2 20 8 29 20 28 10 -1 15 2 12 7 -6 10 -12 10 -31 2z"/>
<path d="M3750 2436 c-27 -33 12 -88 42 -58 6 6 0 8 -16 5 -22 -5 -26 -2 -26
20 0 32 16 43 38 25 15 -12 16 -11 3 5 -16 21 -25 21 -41 3z"/>
<path d="M3817 2443 c-4 -3 -7 -21 -7 -40 0 -30 3 -33 28 -32 21 1 22 3 6 6
-31 6 -31 60 -1 66 21 4 21 4 1 6 -11 0 -24 -2 -27 -6z"/>
<path d="M3920 2409 c0 -36 2 -40 23 -37 23 3 37 42 20 59 -6 6 -8 -2 -5 -21
3 -23 1 -30 -13 -30 -14 0 -16 7 -13 35 2 19 0 35 -4 35 -4 0 -8 -18 -8 -41z"/>
<path d="M3990 2410 c0 -37 2 -40 28 -39 23 2 24 2 5 6 -29 6 -33 59 -5 66 13
4 11 5 -5 6 -20 1 -23 -4 -23 -39z"/>
<path d="M4152 2438 c-7 -7 -12 -21 -11 -32 1 -18 2 -18 8 3 10 37 31 38 31 3
0 -20 -6 -32 -17 -36 -14 -4 -14 -4 2 -3 16 2 20 10 20 36 0 37 -13 49 -33 29z"/>
<path d="M4212 2438 c-7 -7 -12 -21 -11 -32 1 -18 2 -18 8 3 10 37 31 38 31 3
0 -20 -6 -32 -17 -36 -14 -4 -14 -4 2 -3 16 2 20 10 20 36 0 37 -13 49 -33 29z"/>
<path d="M4274 2438 c-4 -7 2 -18 14 -26 12 -8 22 -21 22 -28 0 -8 7 -14 15
-14 8 0 15 8 14 18 0 9 -3 12 -5 5 -3 -7 -14 -2 -30 14 -13 13 -22 29 -19 34
4 5 4 9 1 9 -3 0 -8 -5 -12 -12z"/>
<path d="M4671 2408 c1 -24 3 -36 6 -27 2 10 13 19 24 22 11 3 18 13 18 24 -1
16 -2 16 -6 1 -2 -10 -11 -18 -19 -18 -17 0 -19 26 -1 33 7 3 5 6 -5 6 -15 1
-18 -7 -17 -41z"/>
<path d="M4887 2442 c6 -4 13 -23 16 -42 l4 -35 1 37 c1 20 8 39 15 41 6 3 -1
6 -18 6 -17 0 -25 -3 -18 -7z"/>
<path d="M5077 2443 c-4 -3 -7 -21 -7 -40 0 -30 3 -33 28 -32 21 1 22 3 6 6
-31 6 -31 60 -1 66 21 4 21 4 1 6 -11 0 -24 -2 -27 -6z"/>
<path d="M5190 2410 c0 -41 14 -52 38 -28 14 14 16 44 4 52 -4 2 -8 -7 -7 -21
0 -14 -6 -28 -14 -31 -10 -3 -12 4 -9 32 2 20 0 36 -4 36 -4 0 -8 -18 -8 -40z"/>
<path d="M5260 2410 c0 -35 3 -40 23 -39 16 1 18 2 5 6 -12 3 -18 14 -18 33 0
19 6 30 18 33 13 4 11 5 -5 6 -20 1 -23 -4 -23 -39z"/>
<path d="M5378 2438 c8 -10 9 -19 3 -22 -5 -4 -14 1 -19 11 -8 13 -9 9 -8 -18
1 -27 6 -34 21 -34 25 0 29 50 5 68 -13 10 -13 10 -2 -5z m12 -48 c0 -5 -7
-10 -15 -10 -8 0 -15 5 -15 10 0 6 7 10 15 10 8 0 15 -4 15 -10z"/>
<path d="M2121 2403 c2 -33 3 -34 6 -9 l5 29 23 -29 24 -29 0 40 c-1 33 -2 36
-8 15 l-7 -25 -12 23 c-19 33 -32 27 -31 -15z"/>
<path d="M2270 2410 c-7 -17 -10 -33 -6 -37 3 -3 6 -1 6 5 0 7 9 12 20 12 11
0 20 -5 20 -12 0 -6 2 -9 5 -6 11 10 -7 37 -21 31 -8 -3 -14 0 -14 6 0 6 5 11
10 11 6 0 10 5 10 10 0 21 -18 9 -30 -20z"/>
<path d="M2331 2403 c2 -33 3 -34 6 -9 l5 29 23 -29 24 -29 0 40 c-1 33 -2 36
-8 15 l-7 -25 -12 23 c-19 33 -32 27 -31 -15z"/>
<path d="M2630 2410 c-7 -17 -10 -33 -6 -37 3 -3 6 -1 6 5 0 7 9 12 20 12 11
0 20 -5 20 -12 0 -6 2 -9 5 -6 11 10 -7 37 -21 31 -8 -3 -14 0 -14 6 0 6 5 11
10 11 6 0 10 5 10 10 0 21 -18 9 -30 -20z"/>
<path d="M2732 2408 c-2 -34 1 -38 21 -37 15 1 17 3 5 6 -10 2 -18 17 -21 36
-4 31 -4 31 -5 -5z"/>
<path d="M2791 2408 c-6 -17 -9 -34 -6 -36 3 -3 5 0 5 6 0 7 9 12 20 12 11 0
20 -5 20 -12 0 -6 2 -9 5 -6 11 10 -7 37 -21 31 -8 -3 -14 0 -14 6 0 6 5 11
10 11 6 0 10 5 10 10 0 22 -19 8 -29 -22z"/>
<path d="M3083 2405 c0 -22 2 -30 4 -17 2 12 2 30 0 40 -3 9 -5 -1 -4 -23z"/>
<path d="M3128 2422 c-3 -9 -1 -26 3 -37 6 -15 8 -11 8 18 1 40 -4 48 -11 19z"/>
<path d="M3170 2430 c0 -5 5 -10 10 -10 6 0 10 -5 10 -11 0 -6 -6 -9 -14 -6
-14 6 -32 -21 -21 -31 3 -3 5 0 5 6 0 7 9 12 20 12 11 0 20 -5 20 -12 0 -6 3
-8 6 -5 9 8 -16 67 -27 67 -5 0 -9 -4 -9 -10z"/>
<path d="M3271 2420 c-1 -34 13 -53 35 -48 13 2 19 12 20 33 1 30 1 30 -3 2
-6 -38 -36 -32 -44 8 -6 27 -7 28 -8 5z"/>
<path d="M3352 2405 c0 -38 1 -39 8 -10 4 17 8 25 9 19 0 -5 8 -19 16 -30 13
-18 14 -16 13 21 0 23 -3 30 -5 17 l-4 -22 -19 22 -19 23 1 -40z"/>
<path d="M3475 2429 c-4 -5 -4 -13 -1 -16 3 -4 6 0 6 8 0 11 2 11 10 -1 6 -9
10 -10 10 -3 0 17 -17 25 -25 12z"/>
<path d="M3531 2433 c-1 -6 4 -24 10 -40 l11 -28 13 25 c8 14 14 32 14 40 0 8
-6 2 -13 -15 l-13 -30 -10 30 c-7 17 -12 25 -12 18z"/>
<path d="M3610 2430 c0 -5 5 -10 10 -10 6 0 10 -5 10 -11 0 -6 -6 -9 -14 -6
-14 6 -32 -21 -21 -31 3 -3 5 0 5 6 0 7 9 12 20 12 11 0 20 -5 20 -12 0 -6 3
-8 6 -5 9 8 -16 67 -27 67 -5 0 -9 -4 -9 -10z"/>
<path d="M3672 2405 c0 -38 1 -39 8 -10 4 17 8 25 9 19 0 -5 8 -19 16 -30 13
-18 14 -16 13 21 0 23 -3 30 -5 17 l-4 -22 -19 22 -19 23 1 -40z"/>
<path d="M4390 2439 c0 -4 6 -20 13 -37 l13 -31 11 37 c10 32 10 34 -2 19 -13
-18 -14 -18 -24 0 -6 10 -11 15 -11 12z"/>
<path d="M4481 2420 c-1 -34 13 -53 35 -48 13 2 19 12 20 33 1 30 1 30 -3 2
-6 -38 -36 -32 -44 8 -6 27 -7 28 -8 5z"/>
<path d="M4562 2405 c0 -38 1 -39 8 -10 4 17 8 25 9 19 0 -5 8 -19 16 -30 13
-18 14 -16 13 21 0 23 -3 30 -5 17 l-4 -22 -19 22 -19 23 1 -40z"/>
<path d="M4731 2420 c-1 -34 13 -53 35 -48 13 2 19 12 20 33 1 30 1 30 -3 2
-6 -38 -36 -32 -44 8 -6 27 -7 28 -8 5z"/>
<path d="M4812 2405 c0 -38 1 -39 8 -10 4 17 8 25 9 19 0 -5 8 -19 16 -30 13
-18 14 -16 13 21 0 23 -3 30 -5 17 l-4 -22 -19 22 -19 23 1 -40z"/>
<path d="M4951 2408 c-6 -17 -9 -34 -6 -36 3 -3 5 0 5 6 0 7 9 12 20 12 11 0
20 -5 20 -12 0 -6 2 -9 5 -6 11 10 -7 37 -21 31 -8 -3 -14 0 -14 6 0 6 5 11
10 11 6 0 10 5 10 10 0 22 -19 8 -29 -22z"/>
<path d="M5040 2409 c0 -24 -4 -30 -15 -25 -8 3 -15 1 -15 -4 0 -6 9 -10 20
-10 16 0 20 7 20 35 0 19 -2 35 -5 35 -3 0 -5 -14 -5 -31z"/>
<path d="M5452 2420 c-16 -26 -15 -30 3 -30 8 0 15 -6 15 -12 0 -10 2 -10 9 0
9 14 3 62 -8 62 -3 0 -12 -9 -19 -20z m18 -10 c0 -5 -5 -10 -11 -10 -5 0 -7 5
-4 10 3 6 8 10 11 10 2 0 4 -4 4 -10z"/>
<path d="M5512 2420 c-16 -26 -15 -30 3 -30 8 0 15 -6 15 -12 0 -10 2 -10 9 0
9 14 3 62 -8 62 -3 0 -12 -9 -19 -20z m18 -10 c0 -5 -5 -10 -11 -10 -5 0 -7 5
-4 10 3 6 8 10 11 10 2 0 4 -4 4 -10z"/>
<path d="M3456 2384 c-6 -14 -4 -15 10 -4 12 11 20 11 34 2 16 -10 18 -9 14 3
-8 20 -50 19 -58 -1z"/>
<path d="M2863 2083 c-8 -3 -13 -22 -13 -44 0 -36 2 -39 28 -38 21 1 22 3 6 6
-27 5 -32 60 -6 65 9 2 13 6 7 9 -5 4 -16 4 -22 2z"/>
<path d="M1811 2038 c0 -24 3 -36 6 -28 3 8 11 18 17 22 8 5 7 8 -1 8 -20 0
-15 28 5 33 13 4 11 5 -5 6 -21 1 -23 -4 -22 -41z"/>
<path d="M1867 2073 c-4 -3 -7 -21 -7 -40 0 -30 3 -33 28 -32 21 1 22 3 6 6
-31 6 -31 60 -1 66 21 4 21 4 1 6 -11 0 -24 -2 -27 -6z"/>
<path d="M1928 2055 c-8 -19 -8 -28 2 -40 14 -16 36 -20 44 -7 3 5 -5 8 -17 8
-23 -1 -32 21 -18 43 8 12 12 12 25 2 9 -8 16 -9 16 -3 0 8 -22 22 -36 22 -2
0 -9 -11 -16 -25z"/>
<path d="M2370 2065 c-7 -9 -10 -25 -6 -41 5 -19 12 -25 29 -22 25 3 35 41 17
64 -16 18 -24 18 -40 -1z m38 -28 c2 -19 -1 -27 -13 -27 -19 0 -30 24 -21 46
9 23 31 11 34 -19z"/>
<path d="M2441 2038 c1 -24 3 -35 6 -25 6 21 12 22 27 2 9 -13 11 -10 11 12 0
34 -11 53 -31 53 -10 0 -14 -12 -13 -42z m31 17 c0 -5 -5 -11 -11 -13 -6 -2
-11 4 -11 13 0 9 5 15 11 13 6 -2 11 -8 11 -13z"/>
<path d="M2620 2039 c0 -36 2 -40 23 -37 42 6 33 77 -10 78 -8 0 -13 -15 -13
-41z m38 -2 c2 -19 -1 -27 -12 -27 -11 0 -16 10 -16 31 0 38 24 35 28 -4z"/>
<path d="M2690 2040 c0 -37 2 -40 28 -39 21 1 22 3 6 6 -27 5 -32 59 -6 66 12
3 10 5 -5 6 -20 1 -23 -4 -23 -39z"/>
<path d="M2788 2073 c6 -2 13 -21 13 -41 2 -34 2 -35 6 -7 3 17 9 36 15 43 8
9 4 12 -18 11 -16 0 -23 -3 -16 -6z"/>
<path d="M2911 2038 c1 -24 3 -35 6 -25 6 21 19 22 31 1 6 -11 9 -7 9 18 0 33
-11 48 -34 48 -9 0 -13 -14 -12 -42z m37 14 c2 -7 -3 -12 -12 -12 -9 0 -16 7
-16 16 0 17 22 14 28 -4z"/>
<path d="M3180 2066 c-6 -8 -10 -25 -8 -38 2 -17 10 -23 28 -23 18 0 26 6 28
23 3 22 -13 52 -28 52 -4 0 -13 -7 -20 -14z m38 -29 c2 -19 -1 -27 -13 -27
-19 0 -30 24 -21 46 9 23 31 11 34 -19z"/>
<path d="M3335 2070 c-3 -5 0 -7 8 -4 25 9 28 -12 6 -40 l-20 -26 28 1 c17 1
21 3 10 6 -15 4 -16 7 -2 26 11 15 12 24 3 34 -13 15 -25 17 -33 3z"/>
<path d="M3396 2072 c-2 -4 4 -8 14 -8 10 0 16 4 14 8 -3 4 -9 8 -14 8 -5 0
-11 -4 -14 -8z"/>
<path d="M3561 2038 c1 -24 3 -36 6 -27 2 10 13 19 24 22 11 3 18 13 18 24 -1
16 -2 16 -6 1 -2 -10 -11 -18 -19 -18 -17 0 -19 26 -1 33 7 3 5 6 -5 6 -15 1
-18 -7 -17 -41z"/>
<path d="M3631 2038 c1 -24 3 -35 6 -25 6 21 12 22 27 2 9 -13 11 -10 11 12 0
34 -11 53 -31 53 -10 0 -14 -12 -13 -42z m37 14 c2 -7 -3 -12 -12 -12 -9 0
-16 7 -16 16 0 17 22 14 28 -4z"/>
<path d="M3735 2070 c-3 -5 0 -7 8 -4 25 9 28 -12 6 -40 l-20 -26 28 1 c17 1
21 3 10 6 -15 4 -16 7 -2 26 11 15 12 24 3 34 -13 15 -25 17 -33 3z"/>
<path d="M3816 2070 c7 -8 14 -24 17 -35 4 -19 5 -19 6 1 0 12 -7 28 -16 35
-16 12 -17 12 -7 -1z"/>
<path d="M3855 2070 c-3 -5 0 -7 8 -4 25 9 28 -12 6 -40 l-20 -26 28 1 c17 1
21 3 10 6 -15 4 -16 7 -2 26 11 15 12 24 3 34 -13 15 -25 17 -33 3z"/>
<path d="M3916 2072 c-2 -4 4 -8 14 -8 10 0 16 4 14 8 -3 4 -9 8 -14 8 -5 0
-11 -4 -14 -8z"/>
<path d="M4145 2070 c-3 -6 1 -7 9 -4 23 9 20 -16 -6 -43 l-21 -23 29 1 c18 1
22 3 11 6 -17 4 -18 6 -2 24 10 10 15 25 12 34 -7 17 -23 20 -32 5z"/>
<path d="M4234 2067 c-3 -9 -4 -26 -2 -39 4 -28 38 -38 37 -11 0 10 -3 13 -6
6 -9 -24 -23 -13 -23 17 0 29 13 40 23 20 3 -6 4 -5 3 2 -4 18 -25 22 -32 5z"/>
<path d="M4294 2067 c-3 -9 -4 -26 -2 -39 4 -28 38 -38 37 -11 0 10 -3 13 -6
6 -9 -24 -23 -13 -23 17 0 29 13 40 23 20 3 -6 4 -5 3 2 -4 18 -25 22 -32 5z"/>
<path d="M4509 2050 c-6 -16 -15 -27 -20 -24 -5 3 -9 1 -9 -5 0 -21 19 -20 26
1 l8 23 7 -25 c6 -20 7 -17 8 18 1 49 -6 54 -20 12z"/>
<path d="M1991 2035 c0 -35 1 -37 10 -17 6 15 5 30 -1 40 -7 13 -9 8 -9 -23z"/>
<path d="M2040 2055 c0 -8 -6 -15 -12 -15 -9 0 -10 -3 -2 -8 6 -4 14 -14 17
-22 3 -8 6 2 6 23 1 20 -1 37 -4 37 -3 0 -5 -7 -5 -15z"/>
<path d="M2086 2063 c-3 -3 -6 -11 -6 -17 0 -6 4 -5 9 2 7 11 9 11 14 -2 4
-11 1 -16 -12 -16 -10 0 -22 -7 -25 -16 -6 -14 -4 -15 10 -4 12 11 20 11 34 2
17 -11 18 -9 8 18 -11 32 -21 43 -32 33z"/>
<path d="M2203 2037 c8 -25 13 -32 16 -20 2 10 8 24 14 31 5 7 7 15 4 19 -4 3
-9 -2 -13 -11 -6 -15 -7 -15 -19 1 -11 15 -12 12 -2 -20z"/>
<path d="M2291 2033 c0 -29 2 -33 8 -18 7 18 4 55 -5 55 -2 0 -4 -17 -3 -37z"/>
<path d="M2338 2052 c-3 -9 -1 -26 3 -37 6 -15 8 -11 8 18 1 40 -4 48 -11 19z"/>
<path d="M2510 2040 c-7 -17 -10 -33 -6 -37 3 -3 6 -1 6 5 0 7 9 12 20 12 11
0 20 -5 20 -12 0 -6 2 -9 5 -6 11 10 -7 37 -21 31 -8 -3 -14 0 -14 6 0 6 5 11
10 11 6 0 10 5 10 10 0 21 -18 9 -30 -20z"/>
<path d="M2971 2033 c1 -37 1 -38 9 -8 l7 30 7 -27 c5 -16 12 -28 16 -28 4 0
11 12 16 28 l7 27 7 -30 c8 -30 8 -29 9 8 1 40 -13 50 -24 17 -3 -11 -10 -20
-15 -20 -5 0 -12 9 -15 20 -11 33 -25 23 -24 -17z"/>
<path d="M3073 2035 c0 -22 2 -30 4 -17 2 12 2 30 0 40 -3 9 -5 -1 -4 -23z"/>
<path d="M3101 2034 c1 -24 3 -30 6 -16 2 12 9 20 14 17 15 -10 10 12 -6 25
-13 11 -15 7 -14 -26z"/>
<path d="M3137 2043 c-3 -16 -1 -32 4 -37 5 -6 9 4 9 27 0 44 -6 48 -13 10z"/>
<path d="M3505 2059 c-4 -5 -4 -13 -1 -16 3 -4 6 0 6 8 0 11 2 11 10 -1 6 -9
10 -10 10 -3 0 17 -17 25 -25 12z"/>
<path d="M3793 2038 c1 -23 7 -33 20 -34 11 -1 12 0 3 3 -8 2 -17 17 -20 34
-6 28 -6 28 -3 -3z"/>
<path d="M4400 2060 c0 -5 5 -10 10 -10 6 0 10 -5 10 -11 0 -6 -6 -9 -14 -6
-14 6 -32 -21 -21 -31 3 -3 5 0 5 6 0 7 9 12 20 12 11 0 20 -5 20 -12 0 -6 3
-8 6 -5 9 8 -16 67 -27 67 -5 0 -9 -4 -9 -10z"/>
<path d="M4461 2035 c1 -40 1 -40 10 -10 5 18 5 33 -1 39 -7 7 -10 -4 -9 -29z"/>
<path d="M3416 2041 c-4 -6 -2 -11 3 -11 6 0 11 -5 11 -11 0 -6 -9 -9 -20 -6
-11 3 -18 1 -14 -4 7 -12 31 -11 39 1 3 5 2 17 -3 26 -6 11 -11 13 -16 5z"/>
<path d="M3936 2041 c-4 -6 -2 -11 3 -11 6 0 11 -5 11 -11 0 -6 -9 -9 -20 -6
-11 3 -18 1 -14 -4 7 -12 31 -11 39 1 3 5 2 17 -3 26 -6 11 -11 13 -16 5z"/>
<path d="M3486 2014 c-6 -14 -4 -15 10 -4 12 11 20 11 34 2 16 -10 18 -9 14 3
-8 20 -50 19 -58 -1z"/>
<path d="M1810 1670 c0 -35 3 -40 23 -39 16 1 18 2 5 6 -21 5 -23 19 -5 26 10
4 10 6 0 6 -19 1 -15 29 5 34 13 4 11 5 -5 6 -20 1 -23 -4 -23 -39z"/>
<path d="M1868 1685 c-12 -27 -1 -49 30 -57 15 -4 19 2 20 30 4 52 -30 70 -50
27z m40 -18 c2 -19 -1 -27 -12 -27 -20 0 -29 16 -21 41 9 27 29 19 33 -14z"/>
<path d="M2237 1703 c-4 -3 -7 -21 -7 -40 0 -30 3 -33 28 -32 21 1 22 3 6 6
-31 6 -31 60 -1 66 21 4 21 4 1 6 -11 0 -24 -2 -27 -6z"/>
<path d="M2377 1702 c6 -4 13 -23 16 -42 l4 -35 1 37 c1 20 8 39 15 41 6 3 -1
6 -18 6 -17 0 -25 -3 -18 -7z"/>
<path d="M2437 1703 c-4 -3 -7 -21 -7 -40 0 -30 3 -33 28 -32 20 1 22 3 6 6
-15 3 -21 12 -21 33 0 21 6 30 21 33 l21 4 -21 2 c-11 0 -24 -2 -27 -6z"/>
<path d="M2666 1702 c-2 -4 4 -8 14 -8 10 0 16 4 14 8 -3 4 -9 8 -14 8 -5 0
-11 -4 -14 -8z"/>
<path d="M2730 1690 c0 -11 7 -20 15 -20 8 0 15 -7 15 -16 0 -11 -6 -15 -20
-11 -11 3 -18 1 -14 -4 9 -15 34 -10 41 7 4 11 -1 22 -13 31 -16 12 -17 15 -4
23 13 8 12 10 -2 10 -11 0 -18 -8 -18 -20z"/>
<path d="M2928 1699 c19 -20 16 -61 -5 -57 -13 3 -18 12 -16 33 1 29 1 29 -10
7 -8 -18 -7 -26 6 -39 8 -9 23 -13 31 -10 22 9 21 63 -1 72 -15 5 -16 4 -5 -6z"/>
<path d="M2971 1668 c1 -24 3 -35 6 -25 6 21 19 22 31 1 6 -11 9 -7 9 18 0 33
-11 48 -34 48 -9 0 -13 -14 -12 -42z m37 14 c2 -7 -3 -12 -12 -12 -9 0 -16 7
-16 16 0 17 22 14 28 -4z"/>
<path d="M3113 1703 c-20 -7 -15 -31 7 -38 26 -8 26 -29 0 -22 -11 3 -18 1
-14 -4 9 -15 44 -10 44 6 0 8 -9 19 -20 25 -23 12 -17 35 7 26 8 -3 11 -1 8 4
-7 11 -13 11 -32 3z"/>
<path d="M3236 1695 c-9 -23 -7 -32 3 -17 7 11 9 11 14 -2 4 -11 1 -16 -12
-16 -10 0 -21 -7 -25 -15 -4 -12 -2 -13 14 -3 14 9 22 9 35 -2 16 -13 16 -12
1 25 -20 48 -22 50 -30 30z"/>
<path d="M3466 1700 c7 -8 14 -24 17 -35 4 -19 5 -19 6 1 0 12 -7 28 -16 35
-16 12 -17 12 -7 -1z"/>
<path d="M3526 1700 c7 -8 14 -24 17 -35 4 -19 5 -19 6 1 0 12 -7 28 -16 35
-16 12 -17 12 -7 -1z"/>
<path d="M3576 1702 c-14 -23 22 -41 39 -19 3 4 2 5 -2 2 -3 -3 -11 3 -18 12
-8 11 -14 13 -19 5z"/>
<path d="M1943 1668 c1 -25 7 -33 22 -33 15 0 20 7 21 30 1 28 1 28 -3 3 -6
-37 -30 -36 -37 2 -6 30 -6 30 -3 -2z"/>
<path d="M2013 1665 c0 -22 2 -30 4 -17 2 12 2 30 0 40 -3 9 -5 -1 -4 -23z"/>
<path d="M2043 1665 c6 -19 14 -35 19 -35 11 0 10 2 -8 38 -20 42 -25 40 -11
-3z"/>
<path d="M2076 1685 c-9 -26 -7 -32 5 -12 6 10 9 21 6 23 -2 3 -7 -2 -11 -11z"/>
<path d="M2112 1668 c-6 -17 -9 -34 -7 -37 3 -2 5 1 5 7 0 7 9 12 20 12 11 0
20 -5 20 -12 0 -6 3 -8 6 -5 8 7 -15 67 -25 67 -4 0 -12 -14 -19 -32z m28 2
c0 -5 -5 -10 -11 -10 -5 0 -7 5 -4 10 3 6 8 10 11 10 2 0 4 -4 4 -10z"/>
<path d="M2182 1668 c-2 -34 1 -38 21 -37 15 1 17 3 5 6 -10 2 -18 17 -21 36
-4 31 -4 31 -5 -5z"/>
<path d="M2291 1663 c2 -33 3 -34 6 -9 l5 29 23 -29 24 -29 0 40 c-1 33 -2 36
-8 15 l-7 -25 -12 23 c-19 33 -32 27 -31 -15z"/>
<path d="M2570 1670 c-7 -17 -10 -33 -6 -37 3 -3 6 -1 6 5 0 7 9 12 20 12 11
0 20 -5 20 -12 0 -6 2 -9 5 -6 11 10 -7 37 -21 31 -8 -3 -14 0 -14 6 0 6 5 11
10 11 6 0 10 5 10 10 0 21 -18 9 -30 -20z"/>
<path d="M2821 1663 c0 -29 2 -33 8 -18 7 18 4 55 -5 55 -2 0 -4 -17 -3 -37z"/>
<path d="M2868 1682 c-3 -9 -1 -26 3 -37 6 -15 8 -11 8 18 1 40 -4 48 -11 19z"/>
<path d="M3041 1668 c-6 -17 -9 -34 -6 -36 3 -3 5 0 5 6 0 7 9 12 20 12 11 0
20 -5 20 -12 0 -6 2 -9 5 -6 11 10 -7 37 -21 31 -8 -3 -14 0 -14 6 0 6 5 11
10 11 6 0 10 5 10 10 0 22 -19 8 -29 -22z"/>
<path d="M3292 1668 c-2 -34 1 -38 21 -37 15 1 17 3 5 6 -10 2 -18 17 -21 36
-4 31 -4 31 -5 -5z"/>
<path d="M3387 1692 c6 -4 13 -21 16 -37 4 -27 4 -27 6 8 1 29 -3 37 -16 37
-12 0 -14 -3 -6 -8z"/>
<path d="M3443 1668 c1 -23 7 -33 20 -34 11 -1 12 0 3 3 -8 2 -17 17 -20 34
-6 28 -6 28 -3 -3z"/>
<path d="M3503 1668 c1 -23 7 -33 20 -34 11 -1 12 0 3 3 -8 2 -17 17 -20 34
-6 28 -6 28 -3 -3z"/>
<path d="M2686 1671 c-4 -6 -2 -11 3 -11 6 0 11 -5 11 -11 0 -6 -9 -9 -20 -6
-11 3 -18 1 -14 -4 7 -12 31 -11 39 1 3 5 2 17 -3 26 -6 11 -11 13 -16 5z"/>
<path d="M3620 1640 c-9 -6 -10 -10 -3 -10 6 0 15 5 18 10 8 12 4 12 -15 0z"/>
<path d="M1790 1072 l0 -128 35 4 c19 2 32 8 30 13 -3 4 13 14 35 20 33 10 43
10 49 0 20 -32 60 24 48 68 -3 13 5 29 24 47 16 15 29 33 29 40 0 20 -19 27
-35 14 -13 -11 -15 -7 -15 19 l0 31 -100 0 -100 0 0 -128z m191 88 c4 -19 0
-32 -19 -52 -25 -27 -23 -48 4 -48 11 0 14 -9 12 -32 -3 -30 -6 -33 -34 -31
-18 2 -57 -6 -88 -17 l-56 -19 0 108 c0 59 3 111 7 115 4 4 43 5 87 4 76 -3
80 -4 87 -28z"/>
<path d="M1846 1145 c-16 -12 -17 -15 -4 -15 8 0 21 7 28 15 16 19 1 19 -24 0z"/>
<path d="M1846 1085 c-11 -8 -15 -15 -9 -15 6 0 16 7 23 15 16 19 11 19 -14 0z"/>
<path d="M1920 1049 c0 -5 5 -7 10 -4 6 3 10 8 10 11 0 2 -4 4 -10 4 -5 0 -10
-5 -10 -11z"/>
<path d="M1855 1030 c-4 -6 -11 -8 -16 -5 -5 4 -9 1 -9 -4 0 -16 16 -13 30 4
7 8 10 15 7 15 -3 0 -9 -5 -12 -10z"/>
<path d="M2084 1157 c-3 -9 -4 -28 -2 -44 2 -24 8 -28 32 -28 16 0 31 6 34 13
3 11 1 11 -17 0 -18 -11 -23 -11 -31 2 -25 39 4 76 37 49 14 -12 16 -12 11 1
-6 20 -56 26 -64 7z"/>
<path d="M2478 1148 c-14 -41 18 -88 38 -56 5 8 2 9 -9 5 -12 -5 -17 -1 -17
12 0 11 4 21 9 23 5 2 3 8 -4 15 -10 9 -15 9 -17 1z"/>
<path d="M2599 1148 c-4 -49 13 -80 34 -59 10 10 9 11 -5 6 -14 -5 -18 -2 -18
13 0 11 4 22 9 24 5 2 3 9 -5 16 -11 10 -14 10 -15 0z"/>
<path d="M2205 1131 c3 -5 -5 -11 -17 -13 -33 -4 -29 -32 5 -36 24 -3 27 0 27
27 0 17 -5 31 -11 31 -5 0 -8 -4 -4 -9z m-5 -31 c0 -5 -4 -10 -10 -10 -5 0
-10 5 -10 10 0 6 5 10 10 10 6 0 10 -4 10 -10z"/>
<path d="M2242 1093 l1 -48 4 43 c3 28 9 42 19 42 17 0 19 -36 2 -43 -8 -3 -6
-6 5 -6 12 -1 17 7 17 29 0 25 -4 30 -25 30 -23 0 -25 -3 -23 -47z"/>
<path d="M2348 1110 c2 -16 6 -30 8 -30 2 0 4 14 4 30 0 17 -4 30 -8 30 -5 0
-7 -13 -4 -30z"/>
<path d="M2380 1115 c0 -28 25 -44 42 -27 8 8 5 9 -11 5 -17 -4 -21 -1 -21 17
0 17 4 21 20 17 11 -3 20 -1 20 4 0 5 -11 9 -25 9 -20 0 -25 -5 -25 -25z"/>
<path d="M2452 1110 c0 -19 2 -27 5 -17 2 9 2 25 0 35 -3 9 -5 1 -5 -18z"/>
<path d="M2566 1126 c4 -11 0 -13 -15 -9 -16 4 -21 1 -21 -16 0 -13 6 -21 18
-21 14 0 15 2 2 10 -8 5 -11 13 -6 17 4 4 14 -1 22 -11 13 -19 14 -18 14 12 0
18 -4 32 -10 32 -5 0 -7 -6 -4 -14z"/>
<path d="M2652 1113 c2 -20 9 -29 26 -31 12 -2 22 1 22 6 0 6 -9 8 -20 5 -11
-3 -20 0 -20 6 0 6 9 11 20 11 11 0 20 7 20 15 0 9 -10 15 -26 15 -22 0 -25
-4 -22 -27z m35 11 c-3 -3 -12 -4 -19 -1 -8 3 -5 6 6 6 11 1 17 -2 13 -5z"/>
<path d="M2317 1113 c-13 -13 -7 -33 11 -33 14 0 15 2 2 10 -13 9 -13 11 0 20
8 5 10 10 4 10 -6 0 -14 -3 -17 -7z"/>
<path d="M3175 1033 c-35 -44 -36 -46 -6 -18 29 26 58 65 48 65 -1 0 -20 -21
-42 -47z"/>
<path d="M3380 1035 c-25 -25 -50 -43 -57 -41 -7 3 -13 1 -13 -4 0 -22 29 -7
75 40 27 28 47 50 44 50 -3 0 -25 -20 -49 -45z"/>
<path d="M2978 1063 c6 -2 18 -2 25 0 6 3 1 5 -13 5 -14 0 -19 -2 -12 -5z"/>
<path d="M3415 1030 c-21 -22 -35 -40 -30 -40 9 0 81 80 73 80 -2 0 -22 -18
-43 -40z"/>
<path d="M2910 1042 c-33 -16 -54 -52 -31 -52 6 0 8 7 5 15 -4 10 7 21 37 34
24 11 40 20 34 20 -5 1 -26 -7 -45 -17z"/>
<path d="M2082 1000 c0 -19 2 -27 5 -17 2 9 2 25 0 35 -3 9 -5 1 -5 -18z"/>
<path d="M2402 1010 c0 -14 2 -19 5 -12 2 6 2 18 0 25 -3 6 -5 1 -5 -13z"/>
<path d="M2452 1010 c0 -14 2 -19 5 -12 2 6 2 18 0 25 -3 6 -5 1 -5 -13z"/>
<path d="M3040 1020 c0 -5 7 -7 15 -4 8 4 15 1 15 -5 0 -6 -5 -11 -12 -11 -6
0 -9 -3 -5 -6 3 -4 14 -4 23 0 13 5 14 9 4 21 -14 17 -40 20 -40 5z"/>
<path d="M3197 1016 c-9 -7 -17 -16 -17 -19 0 -9 29 -2 41 10 16 16 -4 23 -24
9z"/>
<path d="M2111 1004 c0 -11 3 -14 6 -6 3 7 2 16 -1 19 -3 4 -6 -2 -5 -13z"/>
<path d="M2301 1004 c0 -11 3 -14 6 -6 3 7 2 16 -1 19 -3 4 -6 -2 -5 -13z"/>
<path d="M2567 1001 c-4 -17 -3 -21 5 -13 5 5 8 16 6 23 -3 8 -7 3 -11 -10z"/>
<path d="M2661 1004 c0 -11 3 -14 6 -6 3 7 2 16 -1 19 -3 4 -6 -2 -5 -13z"/>
<path d="M3106 1004 c-5 -14 -4 -15 9 -4 17 14 19 20 6 20 -5 0 -12 -7 -15
-16z"/>
<path d="M3255 1009 c-11 -16 -1 -19 13 -3 7 8 8 14 3 14 -5 0 -13 -5 -16 -11z"/>
<path d="M3429 1003 c-13 -16 -12 -17 4 -4 9 7 17 15 17 17 0 8 -8 3 -21 -13z"/>
<path d="M3457 1001 c-13 -15 -13 -16 36 4 10 4 17 3 17 -4 0 -7 8 -7 26 1 21
10 27 9 35 -3 7 -12 9 -11 9 3 0 13 -10 16 -56 15 -35 -1 -60 -7 -67 -16z"/>
<path d="M2923 983 c9 -2 25 -2 35 0 9 3 1 5 -18 5 -19 0 -27 -2 -17 -5z"/>
<path d="M1893 963 c9 -2 23 -2 30 0 6 3 -1 5 -18 5 -16 0 -22 -2 -12 -5z"/>
<path d="M1801 503 c0 -16 3 -22 6 -15 2 6 11 12 19 12 8 0 14 7 14 15 0 8 -9
15 -20 15 -15 0 -20 -6 -19 -27z"/>
<path d="M2082 505 c0 -16 2 -22 5 -12 2 9 2 23 0 30 -3 6 -5 -1 -5 -18z"/>
<path d="M2232 505 c0 -16 2 -22 5 -12 2 9 2 23 0 30 -3 6 -5 -1 -5 -18z"/>
<path d="M2582 518 c-17 -17 -15 -38 3 -38 9 0 15 9 15 25 0 29 -1 30 -18 13z"/>
<path d="M2662 518 c-17 -17 -15 -38 3 -38 9 0 15 9 15 25 0 29 -1 30 -18 13z"/>
<path d="M2731 521 c-11 -7 -11 -9 0 -14 12 -5 11 -7 -1 -16 -11 -7 -6 -10 20
-9 19 1 29 3 23 5 -7 3 -13 9 -13 15 0 6 7 7 16 4 9 -3 12 -2 9 5 -4 6 -13 8
-20 5 -8 -3 -15 -1 -17 4 -2 5 -9 6 -17 1z"/>
<path d="M3660 521 c0 -5 -8 -8 -17 -7 -22 1 -24 -26 -3 -31 13 -4 13 -3 0 6
-8 5 -11 14 -6 18 4 4 14 -1 22 -11 13 -19 14 -19 14 7 0 15 -2 27 -5 27 -3 0
-5 -4 -5 -9z"/>
<path d="M3796 523 c-4 -4 -19 -7 -34 -8 -47 0 -33 -29 16 -32 36 -2 42 0 42
17 0 21 -13 33 -24 23z m-36 -23 c0 -5 -4 -10 -10 -10 -5 0 -10 5 -10 10 0 6
5 10 10 10 6 0 10 -4 10 -10z m40 0 c0 -5 -4 -10 -10 -10 -5 0 -10 5 -10 10 0
6 5 10 10 10 6 0 10 -4 10 -10z"/>
<path d="M3933 514 c-7 -20 11 -38 31 -31 17 7 21 32 7 41 -5 4 -7 -3 -4 -14
4 -14 0 -20 -12 -20 -12 0 -16 6 -12 20 6 24 -1 27 -10 4z"/>
<path d="M3990 505 c0 -24 1 -24 20 -8 11 10 20 21 20 25 0 5 -9 8 -20 8 -15
0 -20 -7 -20 -25z"/>
<path d="M1860 513 c5 -2 10 -9 10 -14 0 -6 -4 -7 -10 -4 -5 3 -10 1 -10 -4 0
-6 7 -11 16 -11 18 0 15 32 -4 36 -7 1 -8 0 -2 -3z"/>
<path d="M1891 504 c0 -11 3 -14 6 -6 3 7 2 16 -1 19 -3 4 -6 -2 -5 -13z"/>
<path d="M1927 503 c4 -11 3 -14 -5 -9 -7 4 -12 2 -12 -3 0 -6 7 -11 15 -11 8
0 15 9 15 20 0 11 -4 20 -10 20 -5 0 -6 -7 -3 -17z"/>
<path d="M2000 500 c0 -13 6 -20 18 -19 10 0 12 3 5 6 -7 2 -13 9 -13 14 0 6
5 7 12 3 7 -4 8 -3 4 4 -11 19 -26 14 -26 -8z"/>
<path d="M2042 500 c0 -14 2 -19 5 -12 2 6 2 18 0 25 -3 6 -5 1 -5 -13z"/>
<path d="M2062 500 c0 -14 2 -19 5 -12 2 6 2 18 0 25 -3 6 -5 1 -5 -13z"/>
<path d="M2112 508 c-17 -17 -15 -24 10 -25 18 -2 20 0 8 7 -13 9 -13 11 0 20
8 5 10 10 5 10 -6 0 -16 -5 -23 -12z"/>
<path d="M2160 513 c5 -2 10 -9 10 -14 0 -6 -4 -7 -10 -4 -5 3 -10 1 -10 -4 0
-6 7 -11 16 -11 18 0 15 32 -4 36 -7 1 -8 0 -2 -3z"/>
<path d="M2192 500 c0 -14 2 -19 5 -12 2 6 2 18 0 25 -3 6 -5 1 -5 -13z"/>
<path d="M2260 513 c5 -2 10 -9 10 -14 0 -6 -4 -7 -10 -4 -5 3 -10 1 -10 -4 0
-6 7 -11 16 -11 18 0 15 32 -4 36 -7 1 -8 0 -2 -3z"/>
<path d="M2318 513 c6 -2 12 -9 12 -14 0 -6 -4 -7 -10 -4 -5 3 -10 2 -10 -3 0
-6 16 -10 35 -10 23 0 35 5 35 14 0 8 5 14 11 14 6 0 9 -6 6 -13 -3 -8 4 -14
16 -15 17 -1 18 1 7 8 -8 5 -11 13 -6 17 4 4 14 -1 22 -11 12 -17 14 -18 14
-3 0 22 17 22 23 0 4 -17 5 -17 6 0 0 9 6 17 12 17 6 0 9 -7 5 -15 -3 -8 -1
-15 5 -15 6 0 9 8 7 18 -3 14 -15 17 -66 18 -47 1 -65 -3 -71 -14 -8 -14 -11
-14 -26 1 -9 9 -22 17 -28 16 -9 0 -8 -2 1 -6z"/>
<path d="M2527 514 c-14 -15 -6 -34 14 -34 14 0 19 5 17 17 -3 18 -20 27 -31
17z m23 -14 c0 -5 -4 -10 -10 -10 -5 0 -10 5 -10 10 0 6 5 10 10 10 6 0 10 -4
10 -10z"/>
<path d="M2627 503 c4 -11 3 -14 -5 -9 -7 4 -12 2 -12 -3 0 -6 7 -11 15 -11 8
0 15 9 15 20 0 11 -4 20 -10 20 -5 0 -6 -7 -3 -17z"/>
<path d="M2817 513 c-13 -13 -7 -33 11 -32 10 0 12 3 5 6 -7 2 -13 9 -13 14 0
6 5 7 10 4 6 -3 10 -1 10 4 0 12 -13 14 -23 4z"/>
<path d="M2892 500 c0 -14 2 -19 5 -12 2 6 2 18 0 25 -3 6 -5 1 -5 -13z"/>
<path d="M2910 500 c0 -13 6 -20 18 -19 10 0 12 3 5 6 -7 2 -13 9 -13 14 0 6
5 7 12 3 7 -4 8 -3 4 4 -11 19 -26 14 -26 -8z"/>
<path d="M2963 507 c-9 -15 8 -22 58 -23 29 0 44 3 37 8 -10 6 -10 10 -1 16 7
5 -9 8 -38 8 -28 0 -53 -4 -56 -9z m27 -7 c0 -5 -4 -10 -10 -10 -5 0 -10 5
-10 10 0 6 5 10 10 10 6 0 10 -4 10 -10z m40 0 c0 -5 -4 -10 -10 -10 -5 0 -10
5 -10 10 0 6 5 10 10 10 6 0 10 -4 10 -10z"/>
<path d="M3100 506 c0 -8 -6 -17 -12 -19 -8 -3 -6 -6 5 -6 11 -1 17 6 17 19 0
11 -2 20 -5 20 -3 0 -5 -6 -5 -14z"/>
<path d="M3120 510 c0 -6 5 -8 10 -5 6 3 10 -2 11 -12 0 -16 1 -16 8 2 l8 20
6 -20 6 -20 -2 20 c-2 21 -47 36 -47 15z"/>
<path d="M3187 513 c-13 -13 -7 -33 11 -32 10 0 12 3 5 6 -7 2 -13 9 -13 14 0
6 5 7 12 3 7 -4 8 -3 4 4 -8 14 -10 14 -19 5z"/>
<path d="M3220 510 c0 -6 4 -9 9 -5 5 3 12 -2 14 -10 4 -12 5 -12 3 1 -1 19
-26 32 -26 14z"/>
<path d="M3262 500 c0 -14 2 -19 5 -12 2 6 2 18 0 25 -3 6 -5 1 -5 -13z"/>
<path d="M3290 511 c13 -10 13 -12 0 -21 -13 -8 -12 -10 3 -10 22 0 19 31 -3
37 -13 4 -13 3 0 -6z"/>
<path d="M3347 513 c-13 -13 -7 -33 11 -32 10 0 12 3 5 6 -7 2 -13 9 -13 14 0
6 5 7 10 4 6 -3 10 -1 10 4 0 12 -13 14 -23 4z"/>
<path d="M3467 503 c4 -11 3 -14 -5 -9 -7 4 -12 2 -12 -3 0 -6 7 -11 15 -11 8
0 15 9 15 20 0 11 -4 20 -10 20 -5 0 -6 -7 -3 -17z"/>
<path d="M3491 498 c1 -18 2 -19 6 -5 2 9 9 15 14 12 5 -4 9 -1 9 4 0 6 -7 11
-15 11 -9 0 -15 -9 -14 -22z"/>
<path d="M3537 513 c-13 -13 -7 -33 11 -32 10 0 12 3 5 6 -7 2 -13 9 -13 14 0
6 5 7 10 4 6 -3 10 -1 10 4 0 12 -13 14 -23 4z"/>
<path d="M3587 503 c4 -11 3 -14 -5 -9 -7 4 -12 2 -12 -3 0 -6 7 -11 15 -11 8
0 15 9 15 20 0 11 -4 20 -10 20 -5 0 -6 -7 -3 -17z"/>
<path d="M3840 510 c13 -9 13 -11 0 -20 -11 -7 -11 -10 -2 -10 7 0 10 -5 6
-12 -4 -7 -3 -8 4 -4 19 12 15 56 -5 56 -15 0 -16 -2 -3 -10z"/>
<path d="M3880 511 c13 -10 13 -12 0 -21 -13 -8 -12 -10 3 -10 22 0 19 31 -3
37 -13 4 -13 3 0 -6z"/>
<path d="M4045 510 c-8 -13 3 -30 18 -30 7 0 6 4 -3 10 -13 9 -13 11 0 20 9 6
10 10 3 10 -6 0 -15 -4 -18 -10z"/>
<path d="M4105 510 c-8 -13 3 -30 18 -29 9 0 9 2 0 6 -7 2 -13 9 -13 14 0 6 5
7 10 4 6 -3 10 -1 10 4 0 14 -17 14 -25 1z"/>
<path d="M4210 510 c13 -9 13 -11 0 -20 -11 -7 -11 -10 -2 -10 7 0 10 -5 6
-12 -4 -7 -3 -8 4 -4 19 12 15 56 -5 56 -15 0 -16 -2 -3 -10z"/>
<path d="M4247 513 c-13 -13 -7 -33 11 -32 10 0 12 3 5 6 -7 2 -13 9 -13 14 0
6 5 7 12 3 7 -4 8 -3 4 4 -8 14 -10 14 -19 5z"/>
<path d="M4282 500 c0 -14 2 -19 5 -12 2 6 2 18 0 25 -3 6 -5 1 -5 -13z"/>
<path d="M4307 513 c-13 -13 -7 -33 11 -32 10 0 12 3 5 6 -7 2 -13 9 -13 14 0
6 5 7 12 3 7 -4 8 -3 4 4 -8 14 -10 14 -19 5z"/>
<path d="M1967 493 c3 -7 6 -13 8 -13 2 0 5 6 8 13 3 8 -1 14 -8 14 -7 0 -11
-6 -8 -14z"/>
<path d="M4141 494 c0 -11 3 -14 6 -6 3 7 2 16 -1 19 -3 4 -6 -2 -5 -13z"/>
<path d="M4181 494 c0 -11 3 -14 6 -6 3 7 2 16 -1 19 -3 4 -6 -2 -5 -13z"/>
<path d="M2860 490 c-13 -8 -12 -10 3 -10 9 0 17 5 17 10 0 12 -1 12 -20 0z"/>
<path d="M3390 490 c-13 -8 -12 -10 3 -10 9 0 17 5 17 10 0 12 -1 12 -20 0z"/>
<path d="M4360 490 c0 -6 7 -10 15 -10 8 0 15 2 15 4 0 2 -7 6 -15 10 -8 3
-15 1 -15 -4z"/>
<path d="M1801 362 c0 -16 3 -21 6 -12 3 8 10 18 15 21 5 3 3 9 -6 12 -12 5
-16 0 -15 -21z"/>
<path d="M1842 365 c0 -16 2 -22 5 -12 2 9 2 23 0 30 -3 6 -5 -1 -5 -18z"/>
<path d="M1862 365 c0 -16 2 -22 5 -12 2 9 2 23 0 30 -3 6 -5 -1 -5 -18z"/>
<path d="M2692 365 c0 -16 2 -22 5 -12 2 9 2 23 0 30 -3 6 -5 -1 -5 -18z"/>
<path d="M3062 365 c0 -16 2 -22 5 -12 2 9 2 23 0 30 -3 6 -5 -1 -5 -18z"/>
<path d="M3218 383 c10 -4 9 -9 -4 -24 -16 -18 -16 -19 0 -19 9 0 15 4 11 9
-3 5 -1 12 4 15 5 3 11 -1 15 -9 3 -10 17 -14 38 -13 l33 1 -32 4 c-18 2 -33
9 -33 15 0 5 7 7 16 4 8 -3 22 1 30 9 14 13 14 15 -1 15 -9 0 -25 -5 -35 -10
-13 -7 -21 -7 -25 0 -3 5 -12 10 -18 9 -8 0 -8 -2 1 -6z"/>
<path d="M3322 365 c0 -16 2 -22 5 -12 2 9 2 23 0 30 -3 6 -5 -1 -5 -18z"/>
<path d="M3342 368 c2 -12 9 -23 16 -24 7 -1 8 0 2 3 -14 7 -13 30 3 36 7 3 4
6 -6 6 -13 1 -18 -5 -15 -21z"/>
<path d="M3388 383 c7 -3 16 -2 19 1 4 3 -2 6 -13 5 -11 0 -14 -3 -6 -6z"/>
<path d="M3420 373 c0 -10 4 -14 8 -8 4 6 11 13 16 18 5 4 2 7 -7 7 -10 0 -17
-8 -17 -17z"/>
<path d="M3460 365 c0 -17 6 -25 18 -25 14 0 15 2 2 10 -12 8 -13 12 -2 19 11
7 11 9 -2 14 -12 5 -16 0 -16 -18z"/>
<path d="M3530 386 c0 -2 7 -6 15 -10 8 -3 15 -1 15 4 0 6 -7 10 -15 10 -8 0
-15 -2 -15 -4z"/>
<path d="M3570 375 c0 -8 6 -15 13 -15 8 0 7 -4 -3 -10 -13 -8 -12 -10 3 -10
12 0 17 8 17 25 0 16 -6 25 -15 25 -8 0 -15 -7 -15 -15z"/>
<path d="M3715 380 c-3 -5 -3 -10 2 -11 4 0 -1 -4 -11 -8 -19 -7 -19 -8 2 -13
18 -5 22 -2 22 18 0 26 -5 30 -15 14z"/>
<path d="M3745 380 c-3 -5 -1 -10 4 -10 6 0 11 5 11 10 0 6 -2 10 -4 10 -3 0
-8 -4 -11 -10z"/>
<path d="M3770 379 c0 -5 5 -7 10 -4 6 3 10 8 10 11 0 2 -4 4 -10 4 -5 0 -10
-5 -10 -11z"/>
<path d="M3793 366 l-21 -24 28 2 c16 1 32 5 37 9 4 5 -1 5 -10 1 -19 -7 -21
15 -2 28 7 5 6 8 -1 8 -6 0 -20 -11 -31 -24z"/>
<path d="M3870 375 c0 -8 -6 -15 -12 -15 -9 0 -8 -4 2 -10 26 -17 40 -11 40
15 0 16 -6 25 -15 25 -8 0 -15 -7 -15 -15z"/>
<path d="M3910 375 c0 -8 6 -15 13 -15 8 0 7 -4 -3 -10 -13 -8 -12 -10 3 -10
12 0 17 8 17 25 0 16 -6 25 -15 25 -8 0 -15 -7 -15 -15z"/>
<path d="M3958 381 c8 -4 14 -12 14 -16 0 -4 -6 -12 -14 -16 -10 -7 -9 -9 5
-9 12 0 17 8 17 25 0 17 -5 25 -17 25 -14 0 -15 -2 -5 -9z"/>
<path d="M3990 386 c0 -2 7 -6 15 -10 8 -3 15 -1 15 4 0 6 -7 10 -15 10 -8 0
-15 -2 -15 -4z"/>
<path d="M4050 386 c0 -2 7 -6 15 -10 8 -3 15 -1 15 4 0 6 -7 10 -15 10 -8 0
-15 -2 -15 -4z"/>
<path d="M4098 383 c7 -3 16 -2 19 1 4 3 -2 6 -13 5 -11 0 -14 -3 -6 -6z"/>
<path d="M4130 386 c0 -2 7 -6 15 -10 8 -3 15 -1 15 4 0 6 -7 10 -15 10 -8 0
-15 -2 -15 -4z"/>
<path d="M4220 383 c5 -2 10 -11 10 -18 0 -7 -5 -16 -10 -18 -6 -3 -5 -4 2 -3
7 2 13 11 13 21 0 10 -6 19 -13 21 -7 1 -8 0 -2 -3z"/>
<path d="M4258 383 c15 -6 16 -33 0 -33 -6 0 -8 -3 -5 -7 6 -5 47 29 47 39 0
2 -12 4 -28 4 -15 1 -21 -1 -14 -3z"/>
<path d="M4318 382 c10 -3 9 -8 -4 -23 -16 -17 -16 -19 -1 -19 10 0 16 3 16 8
-4 21 3 24 16 6 15 -19 16 -19 31 4 9 12 20 22 25 22 12 0 11 -27 -1 -33 -6
-3 -5 -4 2 -3 7 2 13 11 13 22 0 16 -8 19 -55 20 -30 0 -49 -1 -42 -4z m52
-17 c0 -8 -4 -15 -10 -15 -5 0 -10 7 -10 15 0 8 5 15 10 15 6 0 10 -7 10 -15z"/>
<path d="M4591 376 c-17 -20 -12 -26 28 -32 28 -5 31 -3 31 20 0 16 -6 26 -15
26 -18 0 -20 -26 -2 -33 9 -4 9 -6 -1 -6 -7 -1 -16 8 -20 20 -7 19 -9 19 -21
5z"/>
<path d="M4710 383 c5 -2 10 -11 10 -18 0 -7 -5 -16 -10 -18 -6 -3 -5 -4 2 -3
7 2 13 11 13 21 0 10 -6 19 -13 21 -7 1 -8 0 -2 -3z"/>
<path d="M4751 381 c-11 -7 -11 -9 0 -14 12 -4 11 -7 -1 -16 -13 -9 -13 -11 3
-11 12 0 17 8 17 25 0 28 0 28 -19 16z"/>
<path d="M4815 380 c-3 -6 1 -7 9 -4 18 7 21 14 7 14 -6 0 -13 -4 -16 -10z"/>
<path d="M4929 383 c-1 -5 -1 -11 0 -15 2 -12 -14 -9 -27 4 -9 10 -16 8 -29
-5 -18 -18 -17 -18 37 -21 25 -1 30 3 30 22 0 20 -8 32 -11 15z m-29 -23 c0
-5 -4 -10 -10 -10 -5 0 -10 5 -10 10 0 6 5 10 10 10 6 0 10 -4 10 -10z"/>
<path d="M4995 381 c-3 -7 0 -8 9 -5 18 7 23 -21 6 -29 -6 -3 -5 -4 2 -3 16 3
17 38 1 43 -6 2 -14 -1 -18 -6z"/>
<path d="M5065 380 c-3 -5 -3 -10 2 -11 4 0 -1 -4 -11 -8 -19 -7 -19 -8 2 -13
18 -5 22 -2 22 18 0 26 -5 30 -15 14z"/>
<path d="M5105 380 c4 -6 11 -8 16 -5 14 9 11 15 -7 15 -8 0 -12 -5 -9 -10z"/>
<path d="M5173 378 c-4 -7 -14 -13 -20 -13 -29 0 -10 -20 19 -21 18 -1 27 1
21 3 -7 3 -13 11 -13 18 0 7 6 16 13 18 9 4 9 6 0 6 -7 1 -16 -5 -20 -11z"/>
<path d="M5230 368 c-10 -21 -10 -21 3 -5 8 9 17 17 21 17 10 0 7 -28 -4 -33
-6 -3 -5 -4 2 -3 16 3 17 38 1 43 -6 2 -17 -6 -23 -19z"/>
<path d="M5310 374 c0 -9 -5 -12 -12 -8 -6 4 -8 3 -4 -4 3 -5 0 -12 -6 -15 -7
-2 3 -4 22 -4 24 -1 29 1 16 6 -17 7 -17 8 -2 24 15 15 16 17 2 17 -9 0 -16
-7 -16 -16z"/>
<path d="M5357 383 c-14 -14 -7 -43 11 -42 10 0 12 3 5 6 -7 2 -13 11 -13 18
0 7 6 16 13 18 6 3 7 6 1 6 -6 1 -14 -2 -17 -6z"/>
<path d="M5498 383 c7 -3 16 -2 19 1 4 3 -2 6 -13 5 -11 0 -14 -3 -6 -6z"/>
<path d="M5532 365 c0 -16 2 -22 5 -12 2 9 2 23 0 30 -3 6 -5 -1 -5 -18z"/>
<path d="M5552 368 c2 -12 9 -23 16 -24 7 -1 8 0 2 3 -14 7 -13 30 3 36 7 3 4
6 -6 6 -13 1 -18 -5 -15 -21z"/>
<path d="M5597 383 c-14 -14 -7 -43 11 -42 10 0 12 3 5 6 -7 2 -13 11 -13 18
0 7 6 16 13 18 6 3 7 6 1 6 -6 1 -14 -2 -17 -6z"/>
<path d="M5630 365 c0 -17 6 -25 18 -25 14 0 15 2 2 10 -12 8 -13 12 -2 19 11
7 11 9 -2 14 -12 5 -16 0 -16 -18z"/>
<path d="M5682 378 c-18 -18 -15 -38 6 -37 10 0 12 3 5 6 -7 2 -13 9 -13 14 0
6 5 7 10 4 6 -3 10 1 10 9 0 19 -2 20 -18 4z"/>
<path d="M5723 382 c18 -4 18 -5 1 -23 -16 -17 -16 -19 -1 -19 10 0 16 6 15
13 -2 6 3 11 10 9 8 -1 11 2 7 8 -3 5 -1 10 4 10 14 0 14 -27 1 -33 -6 -3 -5
-4 2 -3 7 1 14 12 16 23 3 18 -2 21 -35 20 -21 0 -30 -2 -20 -5z"/>
<path d="M5798 382 c8 -5 14 -13 14 -17 0 -4 -6 -12 -14 -16 -10 -7 -9 -9 5
-9 23 0 20 41 -3 47 -12 4 -12 3 -2 -5z"/>
<path d="M5840 383 c14 -7 13 -30 -2 -36 -8 -3 -5 -6 5 -6 13 -1 18 5 15 21
-2 12 -9 23 -16 24 -7 1 -8 0 -2 -3z"/>
<path d="M1880 355 c0 -18 4 -23 16 -18 12 4 13 7 3 14 -8 4 -11 11 -8 14 9 9
40 -6 33 -16 -3 -5 -1 -9 5 -9 5 0 13 5 16 10 3 6 1 10 -5 10 -6 0 -9 4 -6 8
3 5 -8 9 -24 10 -25 1 -30 -3 -30 -23z"/>
<path d="M2035 370 c-8 -13 3 -30 18 -30 7 0 6 4 -3 10 -13 9 -13 11 0 20 9 6
10 10 3 10 -6 0 -15 -4 -18 -10z"/>
<path d="M2078 373 c6 -3 12 -9 12 -14 0 -6 -4 -7 -10 -4 -5 3 -10 1 -10 -4 0
-11 24 -16 45 -11 6 1 30 2 54 2 29 0 39 3 30 9 -11 7 -12 11 -1 17 8 6 1 9
-20 9 -18 0 -27 -2 -20 -4 6 -3 12 -9 12 -14 0 -5 -10 -4 -22 3 -13 7 -36 13
-53 14 -16 1 -24 -1 -17 -3z m52 -13 c0 -5 -4 -10 -10 -10 -5 0 -10 5 -10 10
0 6 5 10 10 10 6 0 10 -4 10 -10z"/>
<path d="M2222 360 c0 -14 2 -19 5 -12 2 6 2 18 0 25 -3 6 -5 1 -5 -13z"/>
<path d="M2242 360 c0 -14 2 -19 5 -12 2 6 2 18 0 25 -3 6 -5 1 -5 -13z"/>
<path d="M2268 373 c6 -3 12 -9 12 -14 0 -6 -4 -7 -10 -4 -5 3 -10 1 -10 -4 0
-6 7 -11 15 -11 8 0 15 7 15 15 0 8 5 15 11 15 6 0 9 -6 6 -13 -3 -8 4 -14 16
-15 17 -1 18 1 7 8 -8 5 -11 12 -8 15 10 10 28 -4 28 -21 0 -9 5 -12 12 -8 7
4 26 7 44 6 23 -2 33 2 36 15 4 14 -2 18 -20 20 -18 1 -21 -1 -11 -8 12 -7 11
-9 -2 -9 -9 0 -19 3 -23 7 -4 4 -35 8 -69 9 -34 1 -56 -1 -49 -3z m112 -13 c0
-5 -4 -10 -10 -10 -5 0 -10 5 -10 10 0 6 5 10 10 10 6 0 10 -4 10 -10z"/>
<path d="M2470 373 c5 -2 10 -9 10 -14 0 -6 -4 -7 -10 -4 -5 3 -10 1 -10 -4 0
-6 7 -11 16 -11 18 0 15 32 -4 36 -7 1 -8 0 -2 -3z"/>
<path d="M2500 360 c0 -13 6 -20 18 -19 10 0 12 3 5 6 -7 2 -13 9 -13 14 0 6
5 7 12 3 7 -4 8 -3 4 4 -11 19 -26 14 -26 -8z"/>
<path d="M2553 373 c-22 -8 -14 -33 10 -32 12 0 16 3 10 6 -7 2 -13 9 -13 14
0 6 5 7 10 4 6 -3 10 -1 10 4 0 12 -7 13 -27 4z"/>
<path d="M2591 358 c0 -22 1 -22 8 -3 l8 20 5 -20 c5 -17 6 -18 7 -2 0 10 6
15 11 12 6 -3 10 -1 10 4 0 6 -11 11 -25 11 -19 0 -25 -5 -24 -22z"/>
<path d="M2650 355 c0 -18 4 -23 16 -18 13 5 13 7 2 14 -11 7 -10 11 2 19 13
8 12 10 -2 10 -12 0 -18 -8 -18 -25z"/>
<path d="M2710 360 c0 -13 6 -20 18 -19 10 0 12 3 5 6 -7 2 -13 9 -13 14 0 6
5 7 12 3 7 -4 8 -3 4 4 -11 19 -26 14 -26 -8z"/>
<path d="M2760 371 c13 -10 13 -12 0 -21 -13 -8 -12 -10 3 -10 22 0 19 31 -3
37 -13 4 -13 3 0 -6z"/>
<path d="M2817 373 c-13 -13 -7 -33 11 -33 14 0 15 2 2 10 -13 9 -13 11 0 20
8 5 10 10 4 10 -6 0 -14 -3 -17 -7z"/>
<path d="M2851 357 c0 -20 1 -21 8 -3 7 18 8 18 14 3 9 -23 39 -22 35 0 -2 11
-14 18 -31 20 -22 1 -27 -2 -26 -20z m49 3 c0 -5 -4 -10 -10 -10 -5 0 -10 5
-10 10 0 6 5 10 10 10 6 0 10 -4 10 -10z"/>
<path d="M2987 373 c-13 -13 -7 -33 11 -32 10 0 12 3 5 6 -7 2 -13 9 -13 14 0
6 5 7 10 4 6 -3 10 -1 10 4 0 12 -13 14 -23 4z"/>
<path d="M3021 358 c1 -19 2 -20 6 -4 4 15 7 16 15 5 8 -12 9 -12 6 0 -7 25
-28 24 -27 -1z"/>
<path d="M3080 360 c0 -9 9 -16 22 -17 18 -2 20 0 8 7 -13 9 -13 11 0 20 12 7
10 9 -8 7 -13 -1 -22 -8 -22 -17z"/>
<path d="M3147 363 c4 -11 3 -14 -5 -9 -7 4 -12 2 -12 -3 0 -6 7 -11 15 -11 8
0 15 9 15 20 0 11 -4 20 -10 20 -5 0 -6 -7 -3 -17z"/>
<path d="M3616 373 c-16 -17 -4 -33 23 -30 28 2 44 22 18 22 -6 0 -17 4 -23 7
-6 4 -14 5 -18 1z m19 -13 c3 -5 1 -10 -4 -10 -6 0 -11 5 -11 10 0 6 2 10 4
10 3 0 8 -4 11 -10z"/>
<path d="M4177 373 c-13 -13 -7 -33 11 -32 10 0 12 3 5 6 -7 2 -13 9 -13 14 0
6 5 7 12 3 7 -4 8 -3 4 4 -8 14 -10 14 -19 5z"/>
<path d="M4545 370 c-8 -13 3 -30 18 -29 9 0 9 2 0 6 -7 2 -13 9 -13 14 0 6 5
7 10 4 6 -3 10 -1 10 4 0 14 -17 14 -25 1z"/>
<path d="M4667 373 c-13 -13 -7 -33 11 -32 10 0 12 3 5 6 -7 2 -13 9 -13 14 0
6 5 7 12 3 7 -4 8 -3 4 4 -8 14 -10 14 -19 5z"/>
<path d="M5428 373 c21 -8 13 -21 -10 -16 -19 4 -20 3 -8 -6 8 -6 27 -11 43
-11 20 0 27 5 27 20 0 11 -4 20 -10 20 -5 0 -7 -8 -3 -17 6 -17 5 -17 -14 0
-11 9 -24 17 -29 16 -5 0 -3 -3 4 -6z"/>
<path d="M2957 363 c-4 -3 -7 -11 -7 -17 0 -6 5 -5 12 2 6 6 9 14 7 17 -3 3
-9 2 -12 -2z"/>
<path d="M3390 355 c-10 -12 -10 -15 2 -15 8 0 15 7 15 15 0 8 -1 15 -2 15 -2
0 -8 -7 -15 -15z"/>
<path d="M4444 362 c3 -5 0 -13 -6 -15 -9 -4 -10 -6 -1 -6 17 -1 25 16 12 25
-7 4 -9 3 -5 -4z"/>
<path d="M4484 362 c3 -5 0 -13 -6 -15 -9 -4 -10 -6 -1 -6 17 -1 25 16 12 25
-7 4 -9 3 -5 -4z"/>
<path d="M4955 361 c-7 -12 12 -24 25 -16 11 7 4 25 -10 25 -5 0 -11 -4 -15
-9z"/>
<path d="M5500 355 c-10 -12 -10 -15 2 -15 8 0 15 7 15 15 0 8 -1 15 -2 15 -2
0 -8 -7 -15 -15z"/>
<path d="M3530 350 c0 -6 7 -10 15 -10 8 0 15 2 15 4 0 2 -7 6 -15 10 -8 3
-15 1 -15 -4z"/>
<path d="M3990 350 c0 -6 7 -10 15 -10 8 0 15 2 15 4 0 2 -7 6 -15 10 -8 3
-15 1 -15 -4z"/>
<path d="M3428 343 c7 -3 16 -2 19 1 4 3 -2 6 -13 5 -11 0 -14 -3 -6 -6z"/>
<path d="M4058 343 c7 -3 16 -2 19 1 4 3 -2 6 -13 5 -11 0 -14 -3 -6 -6z"/>
<path d="M4138 343 c7 -3 16 -2 19 1 4 3 -2 6 -13 5 -11 0 -14 -3 -6 -6z"/>
<path d="M4818 343 c7 -3 16 -2 19 1 4 3 -2 6 -13 5 -11 0 -14 -3 -6 -6z"/>
</g>
</svg>
