<?xml version="1.0" standalone="no"?>
<!DOCTYPE svg PUBLIC "-//W3C//DTD SVG 20010904//EN"
 "http://www.w3.org/TR/2001/REC-SVG-20010904/DTD/svg10.dtd">
<svg version="1.0" xmlns="http://www.w3.org/2000/svg"
 width="881.000000pt" height="681.000000pt" viewBox="0 0 881.000000 681.000000"
 preserveAspectRatio="xMidYMid meet">

<g transform="translate(0.000000,681.000000) scale(0.100000,-0.100000)"
fill="#000000" stroke="none">
<path d="M0 3405 l0 -3405 4405 0 4405 0 0 3405 0 3405 -4405 0 -4405 0 0
-3405z m8515 3179 c22 -11 54 -40 70 -63 l30 -43 3 -3051 c2 -2368 0 -3062 -9
-3096 -16 -56 -71 -112 -125 -129 -60 -18 -8088 -18 -8148 0 -52 16 -108 72
-124 124 -16 55 -18 6088 -1 6147 13 47 73 109 119 124 25 8 1159 11 4090 9
l4055 -1 40 -21z"/>
<path d="M8078 6269 c-16 -9 -18 -27 -18 -139 l0 -130 111 0 c61 0 119 5 130
10 35 19 49 64 49 153 0 114 -4 117 -146 117 -60 0 -117 -5 -126 -11z m72
-129 c0 -83 -1 -90 -20 -90 -19 0 -20 7 -20 90 0 83 1 90 20 90 19 0 20 -7 20
-90z m160 70 c0 -15 -7 -20 -25 -20 -24 0 -25 -2 -25 -70 0 -63 -2 -70 -20
-70 -18 0 -20 7 -20 70 0 68 -1 70 -25 70 -18 0 -25 5 -25 20 0 18 7 20 70 20
63 0 70 -2 70 -20z"/>
<path d="M7730 6221 c-14 -27 -13 -31 8 -31 11 0 24 11 30 25 10 22 9 25 -8
25 -11 0 -24 -9 -30 -19z"/>
<path d="M7587 6216 c-8 -20 20 -43 35 -28 14 14 3 42 -16 42 -7 0 -16 -6 -19
-14z"/>
<path d="M6810 6186 l0 -34 -43 5 c-39 5 -46 2 -65 -22 -28 -35 -28 -75 -2
-108 19 -24 27 -26 85 -25 l65 1 0 108 c0 102 -1 109 -20 109 -16 0 -20 -7
-20 -34z m-19 -66 c22 -12 26 -59 7 -78 -26 -26 -78 -1 -78 38 0 20 25 50 41
50 6 0 19 -5 30 -10z"/>
<path d="M6531 6143 c-12 -10 -24 -35 -27 -55 -9 -52 27 -88 88 -88 49 0 74
12 63 29 -4 8 -18 10 -36 6 -36 -8 -69 2 -69 21 0 11 15 14 61 14 l61 0 -6 28
c-9 37 -42 62 -81 62 -18 0 -42 -8 -54 -17z m88 -26 c15 -19 4 -27 -36 -27
-31 0 -44 16 -26 33 11 12 50 8 62 -6z"/>
<path d="M6880 6102 c0 -75 18 -102 69 -102 59 0 74 17 79 94 4 61 3 66 -16
66 -18 0 -21 -7 -24 -56 -2 -40 -8 -60 -20 -67 -29 -19 -48 9 -48 69 0 47 -2
54 -20 54 -18 0 -20 -7 -20 -58z"/>
<path d="M7072 6137 c-30 -32 -29 -87 1 -115 28 -27 82 -29 116 -6 20 15 21
18 7 26 -10 5 -24 5 -37 -3 -34 -18 -69 3 -69 40 0 41 30 57 71 40 40 -16 60
2 28 25 -35 24 -91 21 -117 -7z"/>
<path d="M7240 6140 c-13 -13 -20 -34 -20 -60 0 -61 24 -80 105 -78 l65 1 0
77 0 77 -65 1 c-53 1 -70 -3 -85 -18z m94 -26 c9 -8 16 -24 16 -34 0 -20 -25
-50 -41 -50 -27 0 -49 22 -49 50 0 44 44 65 74 34z"/>
<path d="M7435 6135 c-31 -30 -32 -73 -4 -109 26 -34 96 -37 124 -6 16 17 16
20 2 26 -8 3 -25 0 -37 -6 -50 -27 -92 32 -52 72 18 19 24 20 51 9 39 -17 58
-6 35 20 -26 28 -88 26 -119 -6z"/>
<path d="M7590 6080 c0 -73 2 -80 20 -80 18 0 20 7 20 80 0 73 -2 80 -20 80
-18 0 -20 -7 -20 -80z"/>
<path d="M7671 6134 c-46 -59 -8 -134 67 -134 74 0 112 88 59 138 -35 33 -99
30 -126 -4z m90 -14 c39 -21 16 -90 -30 -90 -16 0 -41 30 -41 50 0 20 25 50
41 50 6 0 19 -5 30 -10z"/>
<path d="M7840 6080 c0 -73 2 -80 20 -80 16 0 20 7 20 38 0 54 10 81 32 87 32
11 48 -12 48 -71 0 -47 2 -54 20 -54 18 0 20 7 20 63 0 49 -4 68 -18 80 -22
20 -73 22 -90 5 -9 -9 -12 -9 -12 0 0 7 -9 12 -20 12 -18 0 -20 -7 -20 -80z"/>
<path d="M7407 5405 c-15 -31 -27 -58 -27 -60 0 -3 10 -5 23 -5 16 0 34 15 60
50 20 27 37 54 37 60 0 5 -15 10 -33 10 -30 0 -35 -5 -60 -55z"/>
<path d="M2080 5400 l0 -41 43 3 c41 3 42 4 42 38 0 34 -1 35 -42 38 l-43 3 0
-41z"/>
<path d="M2287 5420 c-18 -14 -29 -35 -33 -60 -5 -30 -11 -40 -28 -42 -16 -2
-22 -11 -24 -35 -3 -29 0 -33 22 -33 l25 0 3 -107 3 -106 40 0 40 0 0 106 0
107 52 0 52 0 3 -107 3 -108 40 1 40 1 0 139 0 139 -98 3 c-96 3 -98 3 -91 25
9 28 22 37 57 37 25 0 28 3 25 28 -3 25 -7 27 -54 30 -39 2 -56 -2 -77 -18z"/>
<path d="M2440 5400 l0 -40 45 0 45 0 0 40 0 40 -45 0 -45 0 0 -40z"/>
<path d="M3430 5365 c0 -41 -3 -75 -7 -75 -5 0 -17 7 -27 15 -44 34 -133 9
-161 -45 -22 -42 -20 -138 4 -174 38 -57 115 -74 164 -36 l25 20 5 -21 c4 -15
11 -20 22 -15 9 3 25 6 36 6 18 0 19 10 19 200 l0 200 -40 0 -40 0 0 -75z
m-34 -113 c57 -38 33 -162 -31 -162 -49 0 -81 80 -54 133 15 27 28 37 54 37
11 0 25 -4 31 -8z"/>
<path d="M4270 5365 c0 -41 -3 -75 -7 -75 -5 0 -17 7 -27 15 -26 19 -79 19
-116 0 -40 -21 -60 -63 -60 -130 0 -31 7 -69 15 -85 30 -58 119 -79 169 -39
24 19 26 19 26 2 0 -16 6 -18 40 -15 l40 4 0 199 0 199 -40 0 -40 0 0 -75z
m-21 -131 c59 -75 -24 -189 -89 -124 -14 14 -20 33 -20 65 0 79 66 114 109 59z"/>
<path d="M6140 5238 l0 -203 37 1 c27 1 39 6 41 18 3 14 6 14 29 -4 34 -27 92
-26 127 1 37 29 56 71 56 124 0 111 -91 176 -180 130 l-30 -16 0 76 0 75 -40
0 -40 0 0 -202z m181 3 c19 -15 24 -29 24 -66 0 -37 -5 -51 -24 -66 -51 -41
-101 -8 -101 66 0 74 50 107 101 66z"/>
<path d="M7112 5403 c3 -37 4 -38 46 -41 l42 -3 0 40 0 41 -46 0 -45 0 3 -37z"/>
<path d="M1042 5409 c-50 -25 -76 -58 -92 -119 -23 -85 11 -191 75 -230 60
-37 181 -38 225 -2 18 15 19 21 9 49 l-11 33 -31 -17 c-41 -21 -108 -21 -140
0 -48 31 -60 135 -23 192 9 13 34 30 57 36 35 11 46 10 88 -8 l48 -20 11 30
c14 36 9 45 -34 63 -50 21 -132 18 -182 -7z"/>
<path d="M1903 5390 c-17 -7 -23 -18 -23 -40 0 -25 -4 -30 -25 -30 -22 0 -25
-4 -25 -35 0 -30 3 -35 24 -35 23 0 24 -3 27 -85 5 -107 22 -129 101 -130 53
0 53 0 56 33 3 30 1 32 -27 32 -39 0 -51 23 -51 94 l0 55 38 3 c34 3 37 6 37
33 0 27 -3 30 -37 33 -37 3 -38 4 -38 43 0 42 -11 47 -57 29z"/>
<path d="M1363 5300 c-42 -25 -63 -68 -63 -127 0 -89 57 -143 150 -143 22 0
56 7 75 14 33 14 34 17 23 41 -8 18 -17 24 -27 19 -65 -26 -141 -7 -141 36 0
18 7 20 90 20 l90 0 0 31 c0 45 -28 98 -61 114 -39 21 -98 19 -136 -5z m115
-58 c25 -32 14 -42 -44 -42 -52 0 -55 2 -52 22 3 25 43 49 67 41 9 -3 22 -13
29 -21z"/>
<path d="M1618 5313 c-2 -5 -2 -69 0 -143 l3 -135 40 3 39 4 0 82 c0 102 13
126 71 126 38 0 39 1 39 35 0 32 -3 35 -29 35 -15 0 -40 -10 -55 -21 l-27 -21
-6 21 c-4 16 -13 21 -39 21 -18 0 -34 -3 -36 -7z"/>
<path d="M2084 5307 c-2 -7 -3 -71 -2 -141 l3 -129 38 -1 37 -1 0 143 0 142
-35 0 c-20 0 -38 -6 -41 -13z"/>
<path d="M2653 5301 c-48 -30 -67 -66 -67 -127 0 -93 63 -148 162 -141 65 5
90 24 72 57 -8 14 -17 19 -28 15 -49 -19 -71 -17 -96 8 -37 37 -36 97 1 127
27 21 50 22 95 5 26 -10 45 32 24 53 -25 26 -124 27 -163 3z"/>
<path d="M2928 5302 c-79 -48 -77 -208 1 -255 39 -23 92 -22 124 3 23 18 26
18 29 4 2 -12 14 -17 41 -18 l37 -1 2 128 c0 70 1 133 2 140 1 7 -14 13 -35
15 -30 3 -37 -1 -42 -19 l-6 -21 -27 21 c-33 26 -88 27 -126 3z m132 -62 c14
-14 20 -33 20 -65 0 -79 -66 -114 -109 -59 -59 75 24 189 89 124z"/>
<path d="M3633 5301 c-48 -30 -64 -62 -64 -126 0 -90 53 -145 139 -145 138 0
202 159 102 255 -40 39 -128 47 -177 16z m115 -57 c18 -12 22 -25 22 -69 0
-44 -4 -57 -22 -69 -51 -36 -98 -3 -98 69 0 72 47 105 98 69z"/>
<path d="M4484 5310 c-32 -13 -71 -65 -78 -104 -14 -72 23 -141 87 -165 60
-23 167 -5 167 27 0 35 -16 47 -45 34 -42 -19 -83 -15 -110 13 -14 13 -25 29
-25 35 0 6 36 10 95 10 95 0 95 0 95 25 0 39 -25 89 -55 113 -29 23 -90 29
-131 12z m104 -68 c25 -33 15 -42 -48 -42 -67 0 -73 8 -35 46 27 27 59 26 83
-4z"/>
<path d="M4928 5304 c-39 -21 -58 -64 -58 -131 0 -63 21 -107 62 -129 35 -20
92 -17 122 7 24 19 26 19 26 2 0 -16 6 -18 40 -15 l40 4 0 139 0 139 -36 0
c-27 0 -37 -5 -41 -20 -5 -20 -5 -20 -30 0 -30 24 -86 26 -125 4z m131 -70
c51 -65 -11 -179 -75 -136 -19 13 -34 50 -34 86 0 70 69 101 109 50z"/>
<path d="M5229 5316 c-2 -2 -3 -92 -1 -200 l3 -196 39 0 40 0 0 76 0 75 26
-20 c31 -25 83 -27 123 -6 82 42 82 216 -1 261 -35 20 -92 17 -121 -6 -25 -20
-25 -20 -30 0 -4 15 -14 20 -39 20 -19 0 -37 -2 -39 -4z m177 -64 c57 -38 33
-162 -31 -162 -49 0 -81 80 -54 133 15 27 28 37 54 37 11 0 25 -4 31 -8z"/>
<path d="M5578 5313 c-2 -5 -2 -69 0 -143 l3 -135 40 3 39 4 0 82 c0 102 13
126 71 126 38 0 39 1 39 35 0 32 -3 35 -29 35 -15 0 -40 -10 -55 -21 l-27 -21
-6 21 c-4 16 -13 21 -39 21 -18 0 -34 -3 -36 -7z"/>
<path d="M5863 5305 c-99 -43 -97 -219 2 -261 108 -45 215 20 215 131 0 112
-109 177 -217 130z m113 -66 c42 -47 14 -149 -42 -149 -29 0 -64 44 -64 82 0
76 62 115 106 67z"/>
<path d="M6525 5298 c-69 -54 -73 -183 -7 -241 29 -26 92 -33 129 -13 24 12
32 13 36 3 2 -7 21 -12 43 -11 l39 1 0 139 0 139 -33 3 c-27 3 -35 -1 -39 -17
-5 -19 -5 -19 -36 0 -43 25 -97 24 -132 -3z m135 -58 c14 -14 20 -33 20 -65 0
-74 -50 -107 -101 -66 -19 15 -24 29 -24 66 0 37 5 51 24 66 30 24 56 24 81
-1z"/>
<path d="M6890 5302 c-93 -49 -92 -204 1 -254 56 -30 169 -17 169 20 0 36 -15
45 -51 32 -50 -17 -85 -1 -99 47 -23 77 26 129 97 104 38 -14 53 -6 53 31 0
37 -112 50 -170 20z"/>
<path d="M7120 5178 l0 -144 40 4 41 4 -3 137 -3 136 -37 3 -38 3 0 -143z"/>
<path d="M7323 5301 c-48 -30 -66 -64 -66 -126 0 -88 55 -145 141 -145 138 0
202 159 102 255 -40 39 -128 47 -177 16z m115 -57 c30 -21 32 -104 2 -134 -45
-45 -100 -9 -100 65 0 72 47 105 98 69z"/>
<path d="M7602 5178 l3 -141 40 0 40 0 3 96 c3 91 4 98 28 113 20 13 30 15 49
6 23 -11 24 -16 27 -113 l3 -102 38 0 c20 0 37 3 37 6 0 4 0 57 0 117 0 104
-1 112 -25 135 -30 31 -86 33 -132 6 -31 -19 -31 -19 -36 0 -4 14 -14 19 -41
19 l-37 0 3 -142z"/>
<path d="M4030 4498 c-12 -22 -12 -22 6 -6 10 10 15 20 12 24 -4 3 -12 -5 -18
-18z"/>
<path d="M3270 4440 l0 -70 45 0 c25 0 45 5 45 11 0 6 -14 9 -32 7 -28 -2 -34
1 -36 20 -3 19 1 22 27 22 16 0 33 5 36 10 4 6 -8 10 -29 10 -29 0 -36 4 -36
20 0 16 7 20 35 20 19 0 35 5 35 10 0 6 -20 10 -45 10 l-45 0 0 -70z"/>
<path d="M3460 4485 c0 -22 -3 -25 -25 -19 -33 8 -55 -11 -55 -46 0 -35 18
-50 58 -47 l32 2 0 68 c0 37 -2 67 -5 67 -3 0 -5 -11 -5 -25z m-4 -57 c8 -25
-16 -51 -39 -42 -20 7 -23 60 -4 67 19 7 36 -3 43 -25z"/>
<path d="M3930 4500 c0 -5 5 -10 10 -10 6 0 10 5 10 10 0 6 -4 10 -10 10 -5 0
-10 -4 -10 -10z"/>
<path d="M4223 4440 c0 -41 2 -58 4 -37 2 20 2 54 0 75 -2 20 -4 3 -4 -38z"/>
<path d="M4260 4500 c0 -5 11 -10 25 -10 23 0 24 -4 28 -62 l3 -63 2 63 c2 59
3 62 27 62 14 0 25 5 25 10 0 6 -25 10 -55 10 -30 0 -55 -4 -55 -10z"/>
<path d="M4905 4485 c3 -22 0 -24 -21 -19 -31 8 -54 -11 -54 -46 0 -35 18 -50
58 -47 l32 2 0 68 c0 37 -4 67 -9 67 -4 0 -7 -11 -6 -25z m-1 -51 c9 -22 -13
-56 -32 -52 -21 4 -29 57 -11 68 16 10 36 3 43 -16z"/>
<path d="M4950 4500 c0 -5 5 -10 10 -10 6 0 10 5 10 10 0 6 -4 10 -10 10 -5 0
-10 -4 -10 -10z"/>
<path d="M5010 4485 c0 -8 -5 -15 -11 -15 -8 0 -8 -4 -1 -13 6 -6 12 -28 14
-47 2 -26 8 -36 23 -38 16 -3 18 -1 8 9 -7 7 -13 25 -13 40 0 15 6 30 13 33
10 5 10 7 0 12 -7 3 -13 12 -13 20 0 8 -4 14 -10 14 -5 0 -10 -7 -10 -15z"/>
<path d="M3508 4464 c-11 -11 -10 -52 2 -74 7 -14 20 -19 45 -18 35 1 35 1 35
50 0 26 -4 48 -10 48 -5 0 -10 -18 -10 -40 0 -22 -4 -41 -10 -41 -31 -5 -35
-1 -40 39 -3 24 -8 40 -12 36z"/>
<path d="M3625 4446 c-16 -23 -11 -54 9 -68 16 -11 56 -10 56 2 0 5 -9 9 -21
7 -12 -1 -26 6 -33 16 -15 23 5 53 33 50 13 -2 20 1 16 7 -11 18 -44 10 -60
-14z"/>
<path d="M3722 4458 c-16 -16 -15 -63 1 -77 7 -6 28 -9 45 -8 31 2 32 4 32 47
0 44 -1 45 -33 47 -18 2 -39 -3 -45 -9z m62 -24 c9 -22 -13 -57 -31 -50 -8 3
-17 6 -19 6 -10 0 -3 59 9 63 17 6 35 -2 41 -19z"/>
<path d="M3842 4458 c-7 -7 -12 -24 -12 -38 0 -14 5 -31 12 -38 15 -15 55 -16
64 0 5 8 2 9 -9 5 -28 -10 -47 3 -47 33 0 30 19 43 47 33 11 -4 14 -3 9 5 -9
16 -49 15 -64 0z"/>
<path d="M3930 4420 c0 -27 5 -50 10 -50 6 0 10 23 10 50 0 28 -4 50 -10 50
-5 0 -10 -22 -10 -50z"/>
<path d="M3992 4458 c-7 -7 -12 -24 -12 -38 0 -31 17 -50 45 -50 27 0 45 18
45 46 0 43 -50 70 -78 42z m42 -4 c22 -8 21 -60 -1 -68 -9 -4 -23 0 -32 8 -12
12 -12 20 -3 41 13 27 13 28 36 19z"/>
<path d="M4102 4415 c1 -42 2 -44 5 -13 8 70 53 76 53 7 0 -21 5 -39 11 -39 6
0 9 19 7 48 l-3 47 -37 0 -38 1 2 -51z"/>
<path d="M4454 4462 c-18 -12 -24 -41 -14 -67 8 -21 15 -25 50 -23 l40 1 0 47
c0 46 -1 47 -33 48 -17 1 -37 -2 -43 -6z m44 -14 c28 -28 -3 -83 -33 -58 -8 7
-15 20 -15 29 0 17 18 41 30 41 3 0 11 -5 18 -12z"/>
<path d="M4566 4454 c-9 -8 -16 -24 -16 -34 0 -37 58 -68 75 -40 4 6 -3 9 -16
7 -11 -1 -26 6 -33 16 -15 23 5 53 33 50 13 -2 20 1 16 7 -9 15 -42 12 -59 -6z"/>
<path d="M4654 4461 c-8 -9 -4 -80 6 -86 6 -4 10 9 10 30 0 28 5 38 20 42 29
8 25 21 -6 19 -14 0 -28 -3 -30 -5z"/>
<path d="M4736 4454 c-32 -32 -8 -84 39 -84 13 0 27 5 31 11 4 8 -1 9 -15 4
-22 -7 -51 9 -51 26 0 5 16 9 35 9 36 0 46 15 23 38 -17 17 -44 15 -62 -4z
m52 -12 c2 -7 -7 -12 -23 -12 -24 0 -26 2 -15 15 14 17 31 16 38 -3z"/>
<path d="M4950 4420 c0 -27 5 -50 10 -50 6 0 10 23 10 50 0 28 -4 50 -10 50
-5 0 -10 -22 -10 -50z"/>
<path d="M5078 4445 c-8 -19 -8 -31 0 -50 10 -22 17 -25 49 -22 37 4 38 5 38
47 0 42 -1 43 -38 47 -32 3 -39 0 -49 -22z m60 3 c27 -27 2 -75 -32 -62 -26
10 -15 74 14 74 3 0 11 -5 18 -12z"/>
<path d="M5250 4451 c-24 -46 0 -88 44 -77 21 5 25 2 29 -21 2 -16 5 0 6 35 0
34 0 65 -1 69 -2 4 -17 8 -35 10 -24 3 -35 -2 -43 -16z m58 -3 c27 -27 2 -75
-32 -62 -26 10 -15 74 14 74 3 0 11 -5 18 -12z"/>
<path d="M5368 4464 c-11 -11 -10 -52 2 -74 7 -14 20 -19 45 -18 35 1 35 1 35
50 0 26 -4 48 -10 48 -5 0 -10 -18 -10 -40 0 -22 -4 -41 -10 -41 -31 -5 -35
-1 -40 39 -3 24 -8 40 -12 36z"/>
<path d="M5484 4445 c-15 -23 -15 -27 0 -50 17 -26 59 -34 72 -14 4 8 -1 9
-15 4 -22 -7 -51 9 -51 26 0 5 16 9 35 9 36 0 46 15 23 38 -19 19 -46 14 -64
-13z m56 0 c11 -13 8 -15 -20 -15 -28 0 -31 2 -20 15 7 8 16 15 20 15 4 0 13
-7 20 -15z"/>
<path d="M2995 3918 c-31 -28 -43 -85 -25 -128 20 -49 82 -71 148 -54 19 6 22
13 22 61 l0 54 -37 -3 c-43 -4 -59 -28 -18 -28 23 0 26 -4 23 -27 -2 -23 -8
-29 -35 -31 -62 -6 -96 70 -57 127 15 20 23 23 66 19 49 -5 73 7 47 23 -29 18
-107 10 -134 -13z"/>
<path d="M3190 3835 c0 -87 3 -105 15 -105 12 0 15 18 15 105 0 87 -3 105 -15
105 -12 0 -15 -18 -15 -105z"/>
<path d="M3270 3835 l0 -106 67 3 c42 2 68 8 71 16 2 8 -11 12 -47 12 l-51 0
0 90 c0 83 -1 90 -20 90 -19 0 -20 -7 -20 -105z"/>
<path d="M3432 3838 l3 -103 55 -3 c71 -3 104 14 108 54 2 18 -3 36 -12 43
-14 11 -14 15 1 37 14 22 14 26 -1 49 -15 23 -23 25 -87 25 l-70 0 3 -102z
m124 57 c10 -24 -15 -45 -52 -45 -31 0 -34 3 -34 30 0 28 2 30 40 30 27 0 43
-5 46 -15z m8 -91 c10 -26 -13 -44 -55 -44 -37 0 -39 2 -39 30 0 29 2 30 44
30 31 0 46 -5 50 -16z"/>
<path d="M3640 3835 l0 -105 70 0 c56 0 70 3 70 15 0 11 -12 15 -50 15 -49 0
-50 1 -50 30 0 29 2 30 45 30 33 0 45 4 45 15 0 11 -12 15 -45 15 -43 0 -45 1
-45 30 0 29 1 30 50 30 38 0 50 4 50 15 0 12 -14 15 -70 15 l-70 0 0 -105z"/>
<path d="M3820 3834 c0 -95 2 -105 18 -102 12 2 18 15 20 46 3 40 5 43 30 40
21 -2 32 -13 47 -45 12 -27 26 -43 37 -43 23 0 23 17 -3 59 -18 30 -19 35 -5
50 21 24 20 64 -2 84 -13 12 -37 17 -80 17 l-62 0 0 -106z m119 62 c21 -25 2
-46 -40 -46 -37 0 -39 2 -39 30 0 27 3 30 34 30 18 0 39 -6 45 -14z"/>
<path d="M4010 3925 c0 -10 11 -15 35 -15 l35 0 0 -90 c0 -73 3 -90 15 -90 12
0 15 17 15 90 l0 90 35 0 c24 0 35 5 35 15 0 12 -16 15 -85 15 -69 0 -85 -3
-85 -15z"/>
<path d="M4222 3920 c-65 -60 -24 -190 59 -190 71 0 117 56 106 127 -9 55 -41
83 -97 83 -33 0 -53 -6 -68 -20z m112 -32 c34 -49 7 -128 -44 -128 -51 0 -83
96 -44 134 23 24 70 20 88 -6z"/>
<path d="M4527 3922 c-20 -22 -22 -65 -4 -80 6 -5 31 -15 54 -21 48 -13 60
-26 43 -46 -15 -18 -53 -19 -82 -4 -16 8 -22 8 -29 -2 -11 -19 26 -38 74 -39
56 0 103 51 79 86 -10 16 -48 34 -69 34 -31 0 -55 23 -47 44 6 15 15 17 56 14
27 -3 51 -1 55 5 18 30 -103 39 -130 9z"/>
<path d="M4702 3838 l3 -103 68 -3 c55 -2 67 0 67 13 0 11 -12 15 -50 15 -49
0 -50 1 -50 29 0 28 2 30 47 33 66 4 70 28 4 28 -50 0 -51 1 -51 30 0 29 1 30
50 30 38 0 50 4 50 15 0 12 -14 15 -70 15 l-71 0 3 -102z"/>
<path d="M4880 3835 c0 -98 1 -105 20 -105 17 0 20 7 20 46 0 44 1 45 27 42
21 -2 34 -14 51 -45 15 -28 30 -43 43 -43 18 0 18 2 -5 48 -22 43 -23 49 -9
58 23 14 21 73 -2 90 -11 8 -45 14 -82 14 l-63 0 0 -105z m125 45 c0 -22 -5
-25 -42 -28 -42 -3 -43 -2 -43 28 0 30 1 31 43 28 37 -3 42 -6 42 -28z"/>
<path d="M5092 3838 c3 -89 5 -103 21 -106 14 -3 17 4 17 42 0 41 2 46 23 46
32 0 43 -10 60 -52 11 -27 22 -38 37 -38 20 0 20 1 5 38 -9 20 -20 41 -25 46
-4 4 1 17 11 27 25 25 24 54 -1 79 -16 16 -33 20 -85 20 l-66 0 3 -102z m123
42 c0 -22 -5 -25 -42 -28 -42 -3 -43 -2 -43 28 0 30 1 31 43 28 37 -3 42 -6
42 -28z"/>
<path d="M5351 3898 c-10 -24 -30 -69 -45 -102 -31 -69 -30 -66 -11 -66 9 0
21 11 27 25 10 22 17 25 65 25 47 0 55 -3 65 -25 6 -14 19 -25 29 -25 17 0 17
5 -7 58 -15 31 -36 78 -47 105 -27 61 -51 63 -76 5z m54 -34 c21 -51 20 -54
-21 -54 -20 0 -34 3 -32 8 2 4 10 24 18 45 8 20 15 37 17 37 1 0 10 -16 18
-36z"/>
<path d="M5480 3925 c0 -10 11 -15 35 -15 l35 0 0 -90 c0 -83 1 -90 20 -90 19
0 20 7 20 90 l0 90 35 0 c24 0 35 5 35 15 0 12 -17 15 -90 15 -73 0 -90 -3
-90 -15z"/>
<path d="M5703 3925 c-49 -34 -49 -130 -1 -170 42 -35 91 -34 129 4 24 25 29
37 29 81 0 68 -29 100 -92 100 -24 0 -53 -7 -65 -15z m107 -30 c35 -42 4 -135
-45 -135 -49 0 -81 92 -46 134 17 20 74 21 91 1z"/>
<path d="M8192 3833 l2 -98 3 93 4 92 64 0 65 0 0 -390 0 -390 -65 0 -64 0 -4
83 -3 82 -2 -87 -2 -88 75 0 75 0 0 400 0 400 -75 0 -75 0 2 -97z"/>
<path d="M1642 3095 c-2 -70 -2 -70 26 -72 36 -2 52 13 52 48 0 31 -22 49 -51
42 -13 -4 -19 2 -22 24 -2 15 -5 -3 -5 -42z m66 -21 c4 -29 -23 -51 -43 -34
-16 13 -20 42 -8 54 14 14 48 1 51 -20z"/>
<path d="M1797 3153 c-4 -3 -7 -11 -7 -17 0 -6 5 -5 12 2 6 6 9 14 7 17 -3 3
-9 2 -12 -2z"/>
<path d="M2140 3134 c0 -18 -5 -25 -17 -23 -34 3 -44 -1 -54 -25 -18 -38 3
-67 46 -63 l35 2 0 68 c0 37 -2 67 -5 67 -3 0 -5 -12 -5 -26z m-6 -50 c8 -22
-12 -56 -32 -52 -18 3 -27 30 -18 54 7 19 42 18 50 -2z"/>
<path d="M2420 3090 c0 -45 4 -69 10 -65 6 3 10 33 10 65 0 32 -4 62 -10 65
-6 4 -10 -20 -10 -65z"/>
<path d="M4141 3095 c-1 -70 -1 -71 25 -73 35 -3 54 14 54 49 0 31 -22 49 -51
42 -13 -4 -19 2 -22 24 -2 15 -5 -4 -6 -42z m67 -21 c4 -29 -23 -51 -43 -34
-16 13 -20 42 -8 54 14 14 48 1 51 -20z"/>
<path d="M5308 3133 c-12 -32 -11 -93 3 -107 5 -6 9 6 9 32 0 35 3 42 20 42
17 0 20 -7 20 -41 0 -24 4 -38 10 -34 6 3 10 24 10 46 0 37 -2 39 -30 39 -20
0 -30 5 -30 15 0 8 5 15 10 15 6 0 10 5 10 10 0 21 -21 9 -32 -17z"/>
<path d="M5934 3145 c-3 -8 -3 -19 1 -25 5 -7 0 -11 -11 -10 -35 4 -44 0 -55
-24 -18 -38 3 -67 46 -63 l35 2 0 68 c0 65 -5 82 -16 52z m-1 -65 c7 -26 -16
-55 -37 -47 -16 6 -22 47 -9 60 13 14 41 6 46 -13z"/>
<path d="M6083 3090 c0 -41 2 -58 4 -37 2 20 2 54 0 75 -2 20 -4 3 -4 -38z"/>
<path d="M4830 3085 c0 -37 4 -65 10 -65 6 0 10 28 10 65 0 37 -4 65 -10 65
-6 0 -10 -28 -10 -65z"/>
<path d="M5670 3129 c0 -14 -5 -19 -15 -16 -7 3 -24 -2 -37 -12 -19 -16 -21
-23 -13 -47 9 -25 16 -29 48 -29 l37 -1 0 63 c0 35 -4 63 -10 63 -5 0 -10 -9
-10 -21z m-5 -64 c0 -23 -4 -30 -20 -30 -15 0 -21 8 -23 33 -3 30 -1 33 20 30
18 -2 23 -9 23 -33z"/>
<path d="M6862 3088 l-2 -68 43 1 42 2 -35 6 c-35 6 -35 7 -41 66 l-6 60 -1
-67z"/>
<path d="M1899 3123 c-4 -62 10 -103 34 -103 7 0 7 4 -1 12 -16 16 -15 65 1
71 10 4 10 6 0 6 -7 1 -13 8 -13 16 0 21 -20 19 -21 -2z"/>
<path d="M3279 3123 c-4 -62 10 -103 34 -103 7 0 7 4 -1 12 -16 16 -15 65 1
71 10 4 10 6 0 6 -7 1 -13 8 -13 16 0 21 -20 19 -21 -2z"/>
<path d="M4250 3125 c0 -8 -6 -15 -12 -15 -10 0 -10 -2 -1 -8 6 -4 13 -23 15
-42 2 -25 8 -36 22 -38 18 -4 18 -3 3 12 -17 18 -18 53 -1 64 6 4 3 14 -8 25
-15 14 -18 14 -18 2z"/>
<path d="M5195 3130 c-18 -30 2 -110 27 -110 9 0 9 3 0 12 -16 16 -15 68 1 68
8 0 9 3 1 8 -6 4 -13 14 -16 22 -4 12 -6 12 -13 0z"/>
<path d="M1257 3109 c-20 -12 -23 -62 -3 -78 7 -6 25 -10 39 -9 22 2 26 7 29
45 2 26 -1 42 -7 39 -5 -2 -17 0 -25 5 -9 4 -23 3 -33 -2z m51 -40 c2 -18 -3
-29 -14 -33 -25 -9 -48 16 -39 43 10 32 49 24 53 -10z"/>
<path d="M1483 3112 c-20 -3 -23 -9 -23 -48 0 -24 5 -44 10 -44 6 0 10 16 10
35 0 22 6 37 17 44 22 12 15 18 -14 13z"/>
<path d="M1760 3102 c-31 -25 -21 -69 17 -78 49 -13 71 53 27 83 -19 12 -24
11 -44 -5z m48 -34 c-2 -25 -8 -33 -23 -33 -20 0 -31 25 -21 51 3 8 15 14 26
14 18 0 21 -5 18 -32z"/>
<path d="M1982 3109 c-19 -7 -23 -15 -20 -40 6 -64 70 -64 76 -1 4 37 -20 54
-56 41z m46 -35 c2 -11 -4 -27 -13 -34 -22 -19 -50 9 -40 39 9 29 49 25 53 -5z"/>
<path d="M2191 3101 c-12 -12 -21 -27 -21 -35 0 -20 28 -46 49 -46 44 0 54 61
14 87 -19 13 -24 12 -42 -6z m53 -17 c8 -22 -12 -56 -32 -52 -18 3 -27 30 -18
54 7 19 42 18 50 -2z"/>
<path d="M2294 3105 c-20 -14 -12 -33 23 -46 32 -12 19 -33 -16 -24 -19 5 -23
4 -15 -5 17 -17 58 -8 62 12 2 12 -6 21 -22 28 -34 13 -33 28 2 32 25 3 25 4
5 10 -12 3 -30 0 -39 -7z"/>
<path d="M2479 3101 c-20 -16 -22 -23 -14 -47 14 -40 60 -46 76 -10 23 49 -22
90 -62 57z m49 -33 c-2 -25 -8 -33 -23 -33 -20 0 -31 25 -21 51 3 8 15 14 26
14 18 0 21 -5 18 -32z"/>
<path d="M2587 3108 c-26 -14 -20 -35 14 -47 37 -13 29 -36 -10 -26 -20 5 -23
4 -14 -6 15 -15 63 -3 63 16 0 9 -11 20 -25 25 -31 12 -32 28 -2 32 17 2 18 5
6 10 -8 3 -23 2 -32 -4z"/>
<path d="M2790 3100 c-11 -11 -20 -26 -20 -34 0 -35 59 -61 76 -34 4 7 3 8 -5
4 -16 -10 -51 3 -51 20 0 9 11 14 35 14 32 0 35 2 26 19 -16 29 -39 33 -61 11z
m50 -10 c0 -5 -12 -10 -26 -10 -14 0 -23 4 -19 10 3 6 15 10 26 10 10 0 19 -4
19 -10z"/>
<path d="M2890 3100 c-34 -34 -9 -86 37 -75 18 4 22 0 26 -22 2 -16 5 3 6 41
0 38 -2 66 -5 63 -4 -3 -15 -2 -25 4 -14 7 -23 5 -39 -11z m55 -21 c9 -26 -15
-52 -38 -43 -17 6 -23 44 -10 57 14 14 42 6 48 -14z"/>
<path d="M3157 3108 c-25 -13 -21 -37 8 -44 34 -8 34 -38 0 -32 -13 3 -22 1
-19 -3 12 -21 64 -1 64 24 0 4 -13 13 -30 18 -37 14 -39 27 -2 31 19 2 22 5
11 9 -8 4 -23 3 -32 -3z"/>
<path d="M3467 3112 c-27 -6 -18 -46 11 -50 29 -4 23 -27 -7 -26 -11 0 -21 -3
-21 -8 0 -5 12 -8 27 -6 38 4 43 35 9 48 -34 13 -33 28 2 32 17 2 21 5 12 9
-8 3 -23 4 -33 1z"/>
<path d="M3620 3110 c-8 -5 -18 -6 -22 -4 -4 3 -7 -25 -7 -63 1 -37 4 -56 6
-42 3 21 9 26 24 22 27 -7 49 14 49 48 0 32 -27 53 -50 39z m38 -36 c4 -29
-23 -51 -43 -34 -16 13 -20 42 -8 54 14 14 48 1 51 -20z"/>
<path d="M4046 3108 c-20 -11 -21 -61 -1 -78 32 -27 73 7 62 52 -7 28 -35 40
-61 26z m49 -29 c9 -26 -15 -52 -38 -43 -17 6 -23 44 -10 57 14 14 42 6 48
-14z"/>
<path d="M4321 3101 c-25 -25 -26 -30 -5 -59 16 -24 48 -29 60 -10 4 7 3 8 -5
4 -16 -10 -51 3 -51 20 0 9 11 14 36 14 39 0 42 14 7 37 -19 13 -24 12 -42 -6z
m49 -11 c0 -5 -12 -10 -26 -10 -14 0 -23 4 -19 10 3 6 15 10 26 10 10 0 19 -4
19 -10z"/>
<path d="M4433 3112 c-20 -3 -23 -9 -23 -48 0 -28 4 -43 10 -39 6 3 10 22 10
41 0 27 4 34 20 34 20 0 38 -39 26 -59 -4 -5 -2 -12 4 -16 6 -4 10 9 10 34 0
44 -17 60 -57 53z"/>
<path d="M4529 3101 c-20 -16 -22 -23 -14 -47 11 -31 49 -44 68 -25 7 7 1 10
-19 8 -20 -1 -29 3 -32 16 -3 13 3 17 27 17 36 0 42 23 12 40 -15 7 -25 5 -42
-9z m46 -11 c4 -6 -5 -10 -19 -10 -14 0 -26 5 -26 10 0 6 9 10 19 10 11 0 23
-4 26 -10z"/>
<path d="M4747 3108 c-20 -10 -23 -58 -5 -76 14 -14 58 -16 58 -2 0 5 -7 7
-15 4 -16 -6 -45 12 -45 27 0 5 16 9 35 9 35 0 41 6 27 26 -11 17 -37 23 -55
12z m43 -18 c0 -5 -12 -10 -26 -10 -14 0 -23 4 -19 10 3 6 15 10 26 10 10 0
19 -4 19 -10z"/>
<path d="M4948 3112 c-22 -4 -35 -49 -21 -71 13 -20 42 -26 56 -12 7 7 4 8
-10 5 -11 -3 -25 1 -32 10 -19 23 -4 54 27 58 17 2 22 5 12 9 -8 3 -23 4 -32
1z"/>
<path d="M5032 3104 c-24 -17 -29 -53 -10 -72 14 -14 54 -16 63 -3 3 6 -7 9
-22 8 -19 -1 -28 3 -31 16 -3 13 3 17 27 17 35 0 43 23 13 39 -14 7 -25 6 -40
-5z m43 -14 c4 -6 -5 -10 -19 -10 -14 0 -26 5 -26 10 0 6 9 10 19 10 11 0 23
-4 26 -10z"/>
<path d="M5428 3112 c-22 -4 -35 -49 -21 -71 13 -20 42 -26 56 -12 7 7 4 8
-11 4 -14 -3 -24 2 -31 15 -15 29 -4 50 27 54 17 2 22 5 12 9 -8 3 -23 4 -32
1z"/>
<path d="M5507 3100 c-18 -15 -20 -22 -12 -46 9 -25 16 -29 48 -29 37 -1 37 0
37 41 0 37 -3 42 -25 47 -16 3 -34 -2 -48 -13z m51 -32 c-2 -25 -8 -33 -23
-33 -15 0 -21 8 -23 33 -3 29 -1 32 23 32 24 0 26 -3 23 -32z"/>
<path d="M5729 3101 c-20 -16 -22 -23 -14 -47 14 -40 60 -46 76 -10 23 49 -22
90 -62 57z m46 -36 c0 -23 -4 -30 -20 -30 -15 0 -21 8 -23 33 -3 30 -1 33 20
30 18 -2 23 -9 23 -33z"/>
<path d="M5990 3100 c-24 -24 -25 -43 -4 -64 16 -17 49 -21 58 -8 2 4 -7 8
-22 7 -17 0 -28 6 -30 18 -3 13 3 17 27 17 36 0 42 23 11 40 -15 8 -24 6 -40
-10z m50 -10 c0 -5 -12 -10 -26 -10 -14 0 -23 4 -19 10 3 6 15 10 26 10 10 0
19 -4 19 -10z"/>
<path d="M6541 3101 c-12 -12 -21 -27 -21 -35 0 -20 28 -46 49 -46 44 0 54 61
14 87 -19 13 -24 12 -42 -6z m47 -33 c-2 -25 -8 -33 -23 -33 -20 0 -31 25 -21
51 3 8 15 14 26 14 18 0 21 -5 18 -32z"/>
<path d="M6690 3100 c-24 -24 -24 -29 -4 -58 16 -24 48 -29 60 -10 4 7 3 8 -5
4 -16 -10 -51 3 -51 20 0 9 11 14 35 14 32 0 35 2 26 19 -16 29 -39 33 -61 11z
m50 -10 c0 -5 -12 -10 -26 -10 -14 0 -23 4 -19 10 3 6 15 10 26 10 10 0 19 -4
19 -10z"/>
<path d="M6970 3100 c-11 -11 -20 -26 -20 -34 0 -35 59 -61 76 -34 4 7 3 8 -5
4 -16 -10 -51 3 -51 20 0 9 11 14 35 14 32 0 35 2 26 19 -16 29 -39 33 -61 11z
m50 -10 c0 -5 -12 -10 -26 -10 -14 0 -23 4 -19 10 3 6 15 10 26 10 10 0 19 -4
19 -10z"/>
<path d="M7070 3100 c-15 -15 -19 -28 -14 -43 9 -30 10 -31 49 -32 35 -2 35
-1 35 43 0 25 -3 42 -6 39 -4 -3 -15 -2 -25 4 -14 7 -23 5 -39 -11z m55 -21
c9 -26 -15 -52 -38 -43 -17 6 -23 44 -10 57 14 14 42 6 48 -14z"/>
<path d="M7270 3110 c-8 -5 -18 -6 -22 -4 -4 3 -7 -16 -7 -43 1 -26 3 -39 6
-28 2 11 6 30 9 43 3 14 12 22 24 22 17 0 20 -7 20 -40 0 -22 5 -40 10 -40 6
0 10 18 10 40 0 42 -24 66 -50 50z"/>
<path d="M7420 3110 c-8 -5 -18 -6 -22 -4 -4 3 -7 -16 -7 -43 1 -26 3 -39 6
-28 2 11 6 30 9 43 3 14 12 22 24 22 16 0 20 -7 20 -34 0 -19 5 -38 10 -41 6
-4 10 10 10 34 0 43 -24 67 -50 51z"/>
<path d="M1350 3051 c0 -33 5 -63 10 -66 6 -3 10 4 10 17 0 19 5 24 26 23 33
0 49 24 40 58 -6 24 -11 27 -46 27 l-40 0 0 -59z m74 33 c8 -22 -12 -56 -32
-52 -18 3 -27 30 -18 54 7 19 42 18 50 -2z"/>
<path d="M1534 3096 c-9 -24 0 -58 19 -70 27 -17 52 4 52 45 0 31 -3 34 -33
37 -21 2 -34 -2 -38 -12z m64 -22 c4 -29 -23 -51 -43 -34 -16 13 -20 42 -8 54
14 14 48 1 51 -20z"/>
<path d="M2711 3063 c1 -27 3 -39 6 -28 2 11 6 30 8 42 3 12 13 24 23 26 10 3
6 5 -10 6 -27 1 -28 -1 -27 -46z"/>
<path d="M2993 3070 c2 -45 2 -45 40 -47 l37 -1 0 44 c0 24 -4 44 -10 44 -5 0
-10 -16 -10 -35 0 -23 -6 -38 -15 -42 -21 -7 -27 0 -36 44 l-7 38 1 -45z"/>
<path d="M3103 3065 c0 -27 2 -38 4 -22 2 15 2 37 0 50 -2 12 -4 0 -4 -28z"/>
<path d="M3230 3065 c0 -25 5 -45 10 -45 6 0 10 20 10 45 0 25 -4 45 -10 45
-5 0 -10 -20 -10 -45z"/>
<path d="M3344 3096 c-9 -24 0 -58 19 -70 27 -17 52 4 52 45 0 31 -3 34 -33
37 -21 2 -34 -2 -38 -12z m64 -22 c4 -29 -23 -51 -43 -34 -16 13 -20 42 -8 54
14 14 48 1 51 -20z"/>
<path d="M3694 3083 c-10 -37 7 -58 50 -60 l36 -1 0 44 0 44 -40 0 c-35 0 -40
-3 -46 -27z m64 -16 c4 -34 -24 -49 -43 -23 -19 25 -7 58 19 54 15 -2 22 -11
24 -31z"/>
<path d="M3810 3063 c4 -44 5 -45 8 -13 2 19 10 41 19 48 15 11 14 12 -8 12
-23 0 -24 -2 -19 -47z"/>
<path d="M3874 3083 c-10 -37 7 -58 47 -58 33 0 34 2 37 41 l3 41 -40 1 c-36
2 -41 -1 -47 -25z m64 -14 c2 -18 -3 -29 -14 -33 -25 -9 -48 16 -39 43 10 32
49 24 53 -10z"/>
<path d="M4621 3060 l2 -45 6 39 c4 26 13 42 26 47 17 6 15 7 -7 6 -26 -1 -28
-4 -27 -47z"/>
<path d="M5122 3060 c1 -40 2 -41 5 -10 2 19 11 40 20 47 13 10 13 12 -6 10
-18 -1 -21 -7 -19 -47z"/>
<path d="M5250 3071 c0 -22 5 -43 10 -46 6 -4 10 12 10 39 0 25 -4 46 -10 46
-5 0 -10 -18 -10 -39z"/>
<path d="M6177 3103 c-11 -11 -8 -58 5 -71 15 -15 45 -16 54 -1 4 7 0 9 -13 5
-24 -8 -46 15 -41 41 2 10 16 21 33 24 l30 7 -31 1 c-17 0 -34 -2 -37 -6z"/>
<path d="M6260 3076 c0 -40 15 -55 52 -53 26 2 28 5 28 45 0 23 -4 42 -9 42
-5 0 -8 -11 -6 -25 3 -30 -17 -61 -33 -51 -7 4 -12 23 -12 42 0 19 -4 34 -10
34 -5 0 -10 -15 -10 -34z"/>
<path d="M6371 3060 l2 -45 6 39 c4 26 13 42 26 47 17 6 15 7 -7 6 -26 -1 -28
-4 -27 -47z"/>
<path d="M6437 3096 c-7 -17 12 -36 36 -36 11 0 17 -5 14 -12 -2 -7 -17 -12
-32 -11 -20 2 -25 -1 -18 -8 16 -16 57 -7 61 13 2 12 -6 21 -22 28 -34 12 -33
28 2 33 26 4 26 4 -4 6 -19 0 -34 -5 -37 -13z"/>
<path d="M7171 3063 c1 -27 3 -39 6 -28 2 11 6 30 8 42 3 12 13 24 23 26 10 3
6 5 -10 6 -27 1 -28 -1 -27 -46z"/>
<path d="M7340 3071 c0 -22 5 -43 10 -46 6 -4 10 12 10 39 0 25 -4 46 -10 46
-5 0 -10 -18 -10 -39z"/>
<path d="M7496 3094 c-15 -40 11 -79 46 -68 16 5 19 2 16 -13 -3 -13 -12 -17
-31 -16 -15 1 -25 -2 -22 -8 11 -16 54 -10 65 10 5 11 10 40 10 65 l0 46 -39
0 c-26 0 -41 -5 -45 -16z m59 -24 c0 -29 -38 -41 -48 -16 -10 26 4 47 27 44
15 -2 21 -10 21 -28z"/>
<path d="M6793 3073 c9 -2 23 -2 30 0 6 3 -1 5 -18 5 -16 0 -22 -2 -12 -5z"/>
<path d="M3049 2828 c0 -2 -1 -31 -2 -66 -1 -44 2 -62 11 -62 15 0 17 116 2
125 -5 3 -10 5 -11 3z"/>
<path d="M3520 2807 c0 -18 -5 -23 -26 -22 -33 0 -49 -24 -40 -58 6 -24 11
-27 46 -27 l40 0 0 65 c0 37 -4 65 -10 65 -5 0 -10 -10 -10 -23z m0 -61 c0
-32 -18 -43 -37 -23 -20 20 -10 47 17 47 15 0 20 -7 20 -24z"/>
<path d="M3860 2820 c0 -5 7 -10 15 -10 8 0 15 5 15 10 0 6 -7 10 -15 10 -8 0
-15 -4 -15 -10z"/>
<path d="M3955 2819 c-11 -17 1 -21 15 -4 8 9 8 15 2 15 -6 0 -14 -5 -17 -11z"/>
<path d="M4348 2765 c-2 -47 0 -65 10 -65 8 0 12 20 12 65 0 84 -17 84 -22 0z"/>
<path d="M5540 2820 c0 -5 5 -10 10 -10 6 0 10 5 10 10 0 6 -4 10 -10 10 -5 0
-10 -4 -10 -10z"/>
<path d="M5626 2815 c-3 -8 -1 -15 3 -15 5 0 11 7 15 15 3 8 1 15 -3 15 -5 0
-11 -7 -15 -15z"/>
<path d="M3206 2799 c-11 -13 -14 -24 -8 -28 6 -3 12 -20 14 -36 2 -23 8 -31
28 -33 22 -2 23 -1 8 8 -22 14 -24 60 -3 60 8 0 15 5 15 10 0 6 -6 10 -14 10
-8 0 -16 7 -18 15 -2 13 -7 12 -22 -6z"/>
<path d="M4560 2760 c0 -33 4 -60 10 -60 6 0 10 11 10 25 0 21 5 25 29 25 35
0 55 22 46 50 -5 16 -15 20 -51 20 l-44 0 0 -60z m69 37 c14 -17 4 -27 -26
-27 -16 0 -23 6 -23 20 0 23 31 27 49 7z"/>
<path d="M3090 2743 c0 -32 4 -43 15 -43 11 0 15 11 15 36 0 28 3 35 18 32 11
-2 18 -14 20 -36 4 -42 22 -42 22 1 0 45 -10 55 -53 54 -37 -1 -37 -1 -37 -44z"/>
<path d="M3270 2743 c0 -23 5 -43 10 -43 6 0 10 9 10 19 0 30 11 51 26 51 8 0
14 4 14 8 0 5 -13 9 -30 9 -29 0 -30 -2 -30 -44z"/>
<path d="M3348 2766 c-19 -44 15 -82 60 -65 25 9 31 56 10 77 -21 21 -57 14
-70 -12z m60 -20 c2 -10 -1 -23 -7 -29 -15 -15 -46 16 -37 38 8 21 40 15 44
-9z"/>
<path d="M3570 2750 c0 -44 17 -60 56 -52 21 4 24 10 24 48 0 54 -18 59 -22 7
-2 -26 -8 -38 -18 -38 -10 0 -16 12 -18 38 -4 49 -22 48 -22 -3z"/>
<path d="M3691 2776 c-7 -8 -11 -27 -9 -43 2 -23 8 -29 36 -31 17 -2 32 1 32
6 0 5 -10 8 -22 8 -18 -1 -23 5 -23 24 0 18 6 26 23 28 12 2 22 8 22 13 0 14
-46 10 -59 -5z"/>
<path d="M3782 2778 c-21 -21 -15 -68 11 -77 23 -9 47 -4 47 8 0 4 -10 7 -22
7 -18 -1 -23 5 -23 24 0 18 6 26 23 28 12 2 22 8 22 13 0 13 -44 11 -58 -3z"/>
<path d="M3866 2783 c-3 -3 -6 -24 -6 -45 0 -27 4 -38 15 -38 11 0 15 11 15
39 0 38 -10 57 -24 44z"/>
<path d="M3921 2776 c-7 -8 -11 -27 -9 -43 2 -23 9 -29 33 -31 46 -6 71 40 39
72 -19 20 -48 20 -63 2z m47 -33 c-2 -17 -9 -28 -18 -28 -9 0 -16 11 -18 28
-3 22 1 27 18 27 17 0 21 -5 18 -27z"/>
<path d="M4020 2744 c0 -51 17 -60 22 -12 2 22 9 34 21 36 14 3 17 -4 17 -32
0 -23 5 -36 13 -36 10 0 12 11 8 43 -6 41 -7 42 -43 44 l-38 1 0 -44z"/>
<path d="M4193 2783 c-19 -7 -16 -70 3 -81 8 -4 28 -6 45 -4 27 4 29 7 29 46
0 41 -1 42 -32 43 -18 0 -39 -2 -45 -4z m51 -30 c8 -19 -17 -48 -33 -39 -6 4
-11 18 -11 32 0 28 34 34 44 7z"/>
<path d="M4401 2777 c-16 -16 -13 -65 5 -75 8 -4 28 -6 45 -4 27 4 29 7 29 46
0 41 -1 42 -34 43 -19 1 -39 -4 -45 -10z m56 -23 c7 -19 -20 -49 -36 -40 -6 4
-11 18 -11 32 0 17 5 24 20 24 11 0 23 -7 27 -16z"/>
<path d="M4680 2743 c0 -23 5 -43 10 -43 6 0 10 14 10 31 0 22 5 32 20 36 30
8 24 22 -10 21 -29 -1 -30 -3 -30 -45z"/>
<path d="M4762 2778 c-13 -13 -16 -47 -4 -64 23 -33 82 -12 82 30 0 28 -18 46
-45 46 -12 0 -26 -5 -33 -12z m53 -18 c10 -16 -5 -50 -21 -50 -17 0 -28 24
-20 45 6 17 32 20 41 5z"/>
<path d="M4872 2778 c-30 -30 -1 -85 39 -75 15 4 19 1 17 -11 -3 -12 -13 -16
-31 -15 -15 1 -27 -3 -27 -8 0 -6 17 -9 38 -7 l37 3 3 61 3 61 -34 1 c-19 1
-39 -4 -45 -10z m56 -31 c4 -20 -25 -34 -40 -19 -15 15 -1 44 19 40 10 -2 19
-11 21 -21z"/>
<path d="M4980 2743 c0 -23 5 -43 10 -43 6 0 10 14 10 31 0 22 5 32 20 36 30
8 24 22 -10 21 -29 -1 -30 -3 -30 -45z"/>
<path d="M5061 2777 c-16 -16 -13 -65 5 -75 8 -4 28 -6 45 -4 27 4 29 7 29 46
0 41 -1 42 -34 43 -19 1 -39 -4 -45 -10z m56 -23 c7 -19 -20 -49 -36 -40 -6 4
-11 18 -11 32 0 17 5 24 20 24 11 0 23 -7 27 -16z"/>
<path d="M5170 2743 c0 -24 5 -43 10 -43 6 0 10 16 10 35 0 24 5 35 15 35 10
0 15 -11 15 -35 0 -24 5 -35 15 -35 10 0 15 11 15 35 0 24 5 35 15 35 10 0 15
-11 15 -35 0 -22 5 -35 13 -35 10 0 12 11 8 43 l-6 42 -62 0 -63 0 0 -42z"/>
<path d="M5341 2777 c-16 -16 -13 -65 5 -75 8 -4 28 -6 45 -4 27 4 29 7 29 46
0 41 -1 42 -34 43 -19 1 -39 -4 -45 -10z m56 -23 c7 -19 -20 -49 -36 -40 -6 4
-11 18 -11 32 0 17 5 24 20 24 11 0 23 -7 27 -16z"/>
<path d="M5452 2778 c-7 -7 -12 -21 -12 -33 0 -12 5 -26 12 -33 14 -14 72 -16
63 -2 -3 5 -12 7 -19 4 -17 -7 -40 22 -32 41 3 8 17 15 31 15 15 0 24 4 20 10
-9 14 -48 13 -63 -2z"/>
<path d="M5540 2745 c0 -25 5 -45 10 -45 6 0 10 20 10 45 0 25 -4 45 -10 45
-5 0 -10 -20 -10 -45z"/>
<path d="M5592 2778 c-21 -21 -15 -68 11 -77 44 -17 86 39 57 75 -15 17 -52
18 -68 2z m53 -18 c10 -16 -5 -50 -21 -50 -17 0 -28 24 -20 45 6 17 32 20 41
5z"/>
<path d="M5690 2743 c0 -23 5 -43 10 -43 6 0 10 10 10 23 0 31 15 51 34 44 10
-4 16 -18 16 -37 0 -16 5 -30 10 -30 14 0 12 66 -2 77 -7 6 -28 10 -45 10 -32
0 -33 -2 -33 -44z"/>
<path d="M3575 2443 c-12 -22 -8 -93 6 -93 8 0 15 58 10 84 -1 5 4 13 11 17
10 7 10 9 -2 9 -8 0 -20 -8 -25 -17z"/>
<path d="M3792 2405 c1 -47 2 -52 7 -25 4 22 12 35 21 35 9 0 18 -13 22 -35
l6 -35 -1 40 c-2 33 -6 40 -22 40 -11 0 -23 9 -27 20 -3 11 -6 -7 -6 -40z"/>
<path d="M4015 2450 c-5 -9 -1 -10 12 -6 12 4 25 1 32 -8 10 -11 6 -21 -20
-50 l-31 -36 38 1 c32 2 34 3 10 6 l-28 5 28 29 c23 24 26 33 18 47 -13 21
-49 28 -59 12z"/>
<path d="M4116 2444 c-20 -19 -21 -68 -1 -84 21 -18 50 -8 53 19 4 27 -15 43
-40 35 -10 -3 -18 -1 -18 4 0 16 29 34 45 28 9 -3 13 -2 10 4 -9 15 -31 12
-49 -6z m44 -65 c0 -12 -7 -19 -19 -19 -22 0 -34 23 -19 38 15 15 38 3 38 -19z"/>
<path d="M4290 2441 c0 -14 -5 -18 -18 -14 -24 6 -44 -19 -40 -49 2 -18 10
-24 36 -26 l32 -3 0 55 c0 31 -2 56 -5 56 -3 0 -5 -9 -5 -19z m-5 -52 c0 -15
-7 -25 -18 -27 -22 -4 -33 24 -17 43 18 21 35 13 35 -16z"/>
<path d="M5010 2439 c0 -15 -5 -19 -17 -15 -28 9 -45 -8 -41 -40 2 -25 8 -29
36 -32 l32 -3 0 55 c0 31 -2 56 -5 56 -3 0 -5 -9 -5 -21z m-11 -33 c15 -18 3
-46 -20 -46 -13 0 -19 7 -19 23 0 37 18 48 39 23z"/>
<path d="M5175 2450 c-4 -6 3 -9 17 -7 34 3 35 -30 2 -64 l-28 -29 40 1 c36 1
36 2 10 8 -27 5 -28 7 -12 20 29 24 39 50 25 67 -13 16 -45 19 -54 4z"/>
<path d="M5272 2448 c-14 -14 -16 -67 -3 -86 4 -8 19 -12 32 -10 20 2 25 10
27 41 5 55 -26 85 -56 55z m43 -43 c0 -33 -3 -40 -20 -40 -22 0 -30 24 -21 61
5 17 12 24 24 22 13 -2 17 -13 17 -43z"/>
<path d="M5360 2450 c-11 -7 -8 -9 14 -7 40 3 42 -15 5 -57 l-31 -36 38 1 c24
1 30 3 16 6 l-22 4 20 26 c24 31 26 59 4 67 -21 8 -26 7 -44 -4z"/>
<path d="M5450 2450 c-11 -7 -8 -9 14 -7 35 2 46 -20 15 -31 l-23 -9 22 -5
c12 -4 22 -14 22 -23 0 -13 -7 -16 -29 -13 -17 2 -28 1 -25 -4 3 -4 18 -8 35
-8 27 0 35 10 29 35 -1 6 -3 24 -4 40 -1 32 -27 44 -56 25z"/>
<path d="M3280 2416 c-6 -8 -10 -25 -8 -38 2 -18 10 -23 33 -25 28 -2 28 -1 5
5 -14 5 -26 16 -28 26 -4 21 16 38 36 31 7 -3 10 0 7 5 -9 14 -31 12 -45 -4z"/>
<path d="M3362 2421 c-8 -5 -12 -21 -10 -37 2 -23 9 -30 30 -32 22 -3 29 2 34
22 10 41 -21 68 -54 47z m38 -16 c16 -20 5 -45 -20 -45 -14 0 -20 7 -20 23 0
38 18 48 40 22z"/>
<path d="M3453 2423 c-8 -2 -12 -20 -12 -41 l2 -37 6 35 c4 22 12 35 21 35 9
0 18 -13 22 -35 l6 -35 -1 40 c-2 40 -15 51 -44 38z"/>
<path d="M3630 2416 c-6 -8 -10 -25 -8 -38 2 -17 10 -23 31 -24 25 -1 25 -1 2
3 -18 3 -25 11 -25 28 0 32 20 42 36 20 8 -10 16 -16 19 -13 7 6 -22 38 -34
38 -5 0 -14 -7 -21 -14z"/>
<path d="M3716 2414 c-9 -8 -16 -21 -16 -28 0 -20 27 -38 47 -33 14 4 13 5 -5
6 -19 1 -23 6 -20 29 2 18 8 27 20 26 10 -1 15 2 12 7 -8 13 -21 11 -38 -7z"/>
<path d="M3880 2410 c-19 -35 -3 -60 36 -60 32 0 34 2 34 34 0 26 -5 35 -22
40 -34 9 -36 8 -48 -14z m48 -23 c3 -21 -1 -27 -17 -27 -23 0 -32 18 -19 43
13 25 32 16 36 -16z"/>
<path d="M4338 2419 c-37 -21 -14 -70 32 -68 23 1 23 2 -5 8 -23 5 -29 11 -27
26 6 33 22 42 38 21 8 -11 14 -15 14 -10 0 11 -21 34 -29 34 -4 0 -14 -5 -23
-11z"/>
<path d="M4468 2422 c-13 -2 -18 -13 -18 -38 0 -43 18 -45 22 -2 4 46 28 49
28 4 0 -44 18 -48 22 -4 4 46 28 49 28 4 0 -20 5 -36 10 -36 14 0 12 57 -2 67
-14 8 -63 11 -90 5z"/>
<path d="M4601 2416 c-7 -8 -11 -25 -9 -38 2 -18 10 -24 36 -26 31 -3 32 -2
32 32 0 20 -4 36 -9 36 -5 0 -16 2 -24 5 -7 3 -19 -1 -26 -9z m39 -11 c15 -18
6 -45 -15 -45 -18 0 -30 24 -21 45 7 19 20 19 36 0z"/>
<path d="M4698 2423 c-13 -3 -18 -15 -18 -39 0 -19 5 -34 10 -34 6 0 10 13 10
28 0 15 5 33 12 40 7 7 10 11 8 11 -3 -1 -13 -3 -22 -6z"/>
<path d="M4758 2423 c27 -5 28 -15 2 -38 -28 -26 -25 -35 13 -34 l32 1 -28 7
-29 6 26 24 c30 28 26 42 -12 40 -24 -2 -24 -2 -4 -6z"/>
<path d="M4830 2416 c-20 -26 -8 -61 22 -64 22 -3 29 2 34 22 11 44 -29 74
-56 42z m40 -11 c15 -18 6 -45 -15 -45 -18 0 -30 24 -21 45 7 19 20 19 36 0z"/>
<path d="M5050 2416 c-6 -8 -10 -25 -8 -38 2 -18 10 -23 33 -25 28 -2 28 -1 5
5 -28 9 -38 38 -20 56 8 8 15 7 24 -6 18 -24 29 -23 16 2 -13 24 -33 26 -50 6z"/>
<path d="M6049 1295 c-49 -64 -63 -85 -56 -85 2 0 23 27 47 60 46 63 62 73 35
21 -8 -17 -13 -31 -11 -31 11 0 37 62 34 78 -2 12 -17 -2 -49 -43z"/>
<path d="M4000 1260 l0 -80 75 0 75 0 0 80 0 80 -75 0 -75 0 0 -80z m130 5 l0
-55 -55 0 -55 0 0 55 0 55 55 0 55 0 0 -55z"/>
<path d="M4040 1266 c0 -35 1 -36 36 -36 34 0 35 1 32 33 -3 28 -7 32 -35 35
-32 3 -33 2 -33 -32z"/>
<path d="M4320 1323 c-10 -12 -11 -18 -2 -21 14 -4 17 -52 3 -52 -5 0 -11 6
-14 13 -2 6 -8 9 -12 5 -4 -4 6 -20 23 -36 16 -15 31 -36 33 -47 2 -10 10 -20
17 -23 8 -2 12 10 12 42 0 34 -4 46 -15 46 -8 0 -15 5 -15 10 0 6 7 10 15 10
19 0 19 19 0 26 -8 4 -12 10 -9 15 7 12 64 11 64 -1 0 -5 -4 -10 -10 -10 -5 0
-10 -6 -10 -14 0 -8 -6 -17 -12 -20 -10 -5 -10 -7 0 -12 6 -3 12 -21 12 -40 0
-19 5 -34 10 -34 6 0 10 11 10 25 0 14 5 25 10 25 6 0 10 -9 10 -19 0 -26 18
-37 26 -17 3 9 10 16 15 16 14 0 11 -48 -3 -54 -10 -5 -10 -7 0 -12 15 -7 16
-36 1 -51 -9 -9 -8 -16 4 -27 21 -21 27 -20 27 4 0 11 5 20 10 20 17 0 11 22
-12 41 -11 11 -18 22 -15 26 4 3 15 -4 26 -15 23 -27 41 -28 41 -2 0 11 -5 20
-11 20 -14 0 -38 30 -39 48 0 20 -26 42 -49 42 -12 0 -21 5 -21 10 0 19 43 10
63 -12 13 -16 21 -19 24 -10 3 6 11 12 18 12 7 0 16 -6 19 -12 5 -10 7 -10 12
0 3 6 12 12 20 12 18 0 54 31 48 42 -3 4 -18 8 -35 8 -29 0 -40 14 -16 23 6 2
8 8 4 13 -4 5 -13 2 -18 -6 -8 -11 -12 -12 -16 -2 -7 18 -27 15 -43 -8 -15
-21 -80 -29 -80 -10 0 6 11 10 25 10 14 0 25 5 25 10 0 14 -47 12 -54 -2 -5
-10 -7 -10 -12 0 -9 18 -86 15 -104 -5z m246 -17 c23 -24 16 -36 -21 -36 -37
0 -44 11 -22 35 16 18 25 18 43 1z"/>
<path d="M4670 1260 l0 -80 73 0 c41 0 76 2 78 4 2 2 3 38 1 80 l-4 76 -74 0
-74 0 0 -80z m130 5 l0 -55 -55 0 -55 0 0 55 0 55 55 0 55 0 0 -55z"/>
<path d="M4717 1293 c-4 -3 -7 -19 -7 -35 0 -25 3 -28 35 -28 33 0 35 2 35 35
0 32 -3 35 -28 35 -16 0 -32 -3 -35 -7z"/>
<path d="M4220 1310 c0 -5 5 -10 10 -10 6 0 10 -7 10 -15 0 -8 -4 -15 -10 -15
-5 0 -10 7 -10 16 0 10 -7 14 -22 12 -21 -3 -23 -8 -23 -68 0 -60 2 -65 23
-68 12 -2 22 -8 22 -13 0 -5 5 -9 10 -9 6 0 10 16 10 35 0 19 -4 35 -10 35 -5
0 -10 -7 -10 -15 0 -8 -4 -15 -10 -15 -5 0 -10 16 -10 35 0 19 5 35 10 35 6 0
10 -4 10 -10 0 -5 9 -10 20 -10 16 0 20 7 20 30 0 18 6 33 15 36 27 11 16 24
-20 24 -19 0 -35 -4 -35 -10z"/>
<path d="M6190 1221 c-16 -33 -30 -64 -30 -68 1 -4 15 19 31 51 23 44 33 56
40 45 7 -11 9 -11 9 3 0 39 -21 25 -50 -31z"/>
<path d="M6330 1188 c-22 -45 -45 -87 -50 -93 -15 -18 3 -32 30 -24 24 7 25 7
2 8 -22 1 -22 2 -9 29 8 15 26 54 41 86 21 45 30 56 37 45 7 -11 9 -9 9 9 0
41 -18 23 -60 -60z"/>
<path d="M4620 1240 c0 -5 -9 -10 -20 -10 -13 0 -20 -7 -20 -19 0 -11 -4 -23
-10 -26 -17 -10 -11 -25 10 -25 11 0 20 -4 20 -10 0 -5 11 -10 25 -10 24 0 25
3 25 55 0 42 -3 55 -15 55 -8 0 -15 -4 -15 -10z m0 -45 c0 -8 -4 -15 -10 -15
-5 0 -10 7 -10 15 0 8 5 15 10 15 6 0 10 -7 10 -15z"/>
<path d="M6002 1175 c-29 -41 -50 -75 -48 -75 3 0 25 28 49 63 48 68 60 87 55
87 -2 0 -27 -34 -56 -75z"/>
<path d="M4530 1205 c0 -16 6 -25 15 -25 9 0 15 9 15 25 0 16 -6 25 -15 25 -9
0 -15 -9 -15 -25z"/>
<path d="M4266 1203 c-3 -3 -6 -17 -6 -30 0 -28 -31 -65 -38 -45 -2 6 -19 12
-38 12 -19 0 -34 5 -34 10 0 6 -25 10 -55 10 -30 0 -55 -3 -55 -8 0 -4 11 -16
25 -26 28 -21 32 -36 10 -36 -8 0 -15 -4 -15 -10 0 -5 -4 -10 -10 -10 -5 0
-10 11 -10 25 0 14 -4 25 -10 25 -5 0 -10 9 -10 20 0 11 -4 20 -10 20 -14 0
-12 -37 3 -43 10 -4 10 -7 0 -18 -18 -19 -16 -29 6 -29 11 0 21 -5 23 -12 6
-17 68 41 68 64 0 11 7 18 20 18 11 0 20 -4 20 -10 0 -5 -4 -10 -10 -10 -5 0
-10 -7 -10 -15 0 -8 5 -15 10 -15 6 0 10 7 10 16 0 25 44 13 48 -13 2 -13 6
-23 8 -23 8 0 34 27 34 35 0 8 27 35 35 35 10 0 35 -27 35 -38 0 -6 -6 -12
-12 -15 -7 -2 -10 -8 -6 -12 8 -9 38 18 38 35 0 15 42 8 48 -7 2 -7 -3 -13
-12 -13 -21 0 -22 -56 -1 -64 23 -9 19 -46 -5 -46 -22 0 -70 -41 -70 -60 0 -5
-8 -10 -17 -10 -17 -1 -17 -1 0 -14 24 -18 21 -35 -8 -58 -34 -27 -31 -38 10
-38 30 0 35 3 35 24 0 13 6 26 13 29 8 3 4 11 -11 25 -20 18 -22 23 -10 41 19
30 28 26 28 -13 0 -19 6 -37 13 -40 10 -5 10 -7 0 -12 -7 -3 -13 -21 -13 -40
0 -27 -4 -34 -20 -34 -11 0 -20 -4 -20 -10 0 -5 -11 -10 -25 -10 -14 0 -25 5
-25 10 0 6 -4 10 -10 10 -5 0 -10 -9 -10 -20 0 -11 5 -20 10 -20 6 0 10 -11
10 -24 0 -13 6 -27 13 -30 10 -5 10 -7 0 -12 -7 -3 -13 -17 -13 -30 0 -17 -6
-24 -20 -24 -22 0 -28 26 -8 32 15 5 -13 38 -31 38 -17 0 -13 17 7 25 16 6 16
7 0 19 -10 7 -18 18 -18 24 0 6 8 15 18 21 16 9 16 11 -1 23 -10 8 -17 20 -15
28 2 9 -6 16 -19 18 -25 4 -30 -7 -11 -26 10 -10 10 -15 -2 -23 -11 -8 -12
-12 -2 -16 23 -9 12 -23 -18 -23 -16 0 -30 -4 -30 -10 0 -5 -7 -10 -15 -10
-10 0 -15 10 -15 30 0 26 4 30 26 30 31 0 28 23 -4 28 -30 5 -28 22 3 22 14 0
25 5 25 10 0 6 14 10 30 10 17 0 30 5 30 10 0 6 7 10 15 10 8 0 15 -4 15 -10
0 -5 -7 -10 -15 -10 -8 0 -15 -4 -15 -10 0 -5 7 -10 15 -10 8 0 15 5 15 10 0
6 9 10 20 10 22 0 27 15 8 24 -10 5 -10 7 0 12 19 9 14 34 -8 34 -11 0 -20 5
-20 10 0 6 -11 10 -24 10 -13 0 -27 6 -30 13 -5 10 -7 10 -12 0 -3 -7 -14 -13
-25 -13 -10 0 -19 -4 -19 -10 0 -14 -48 -12 -52 2 -7 19 -38 -16 -38 -41 0
-23 16 -29 22 -9 6 17 38 -14 38 -36 0 -19 -36 -22 -43 -3 -2 6 -8 9 -12 5
-10 -9 19 -38 39 -38 9 0 16 -7 16 -15 0 -8 -7 -15 -16 -15 -8 0 -22 -6 -30
-14 -16 -16 -19 -96 -4 -96 6 0 10 16 10 35 0 19 3 35 6 35 3 0 20 -16 38 -35
40 -42 46 -43 46 -10 0 18 5 25 20 25 11 0 20 -7 20 -15 0 -8 -4 -15 -10 -15
-5 0 -10 -4 -10 -10 0 -5 9 -10 20 -10 11 0 20 -4 20 -10 0 -5 7 -10 15 -10 8
0 15 -4 15 -9 0 -5 -7 -11 -15 -15 -10 -3 -15 -19 -15 -45 0 -25 5 -41 15 -45
20 -7 19 -26 -2 -26 -13 0 -14 -3 -6 -11 14 -14 43 10 43 36 0 9 6 23 14 31
16 16 96 19 96 4 0 -5 -9 -10 -20 -10 -11 0 -20 -4 -20 -10 0 -5 9 -10 20 -10
11 0 20 -7 20 -15 0 -8 -9 -15 -20 -15 -11 0 -20 -4 -20 -10 0 -5 14 -10 30
-10 22 0 30 5 30 18 0 20 33 52 55 52 8 0 15 5 15 10 0 6 -9 10 -20 10 -11 0
-20 -4 -20 -10 0 -5 -7 -10 -15 -10 -8 0 -15 5 -15 10 0 6 7 10 15 10 8 0 15
5 15 10 0 6 -11 10 -25 10 -28 0 -32 14 -10 36 18 18 35 10 35 -17 0 -12 7
-19 20 -19 11 0 20 7 20 15 0 8 -4 15 -10 15 -5 0 -10 5 -10 10 0 6 9 10 20
10 17 0 20 -7 20 -45 0 -33 4 -45 15 -45 9 0 15 -9 15 -21 0 -23 27 -55 38
-44 4 4 1 10 -5 12 -15 5 -18 73 -3 73 6 0 10 -9 10 -20 0 -22 16 -27 23 -7 3
8 11 6 27 -9 14 -14 18 -24 11 -28 -6 -4 -11 0 -11 8 0 9 -7 16 -15 16 -9 0
-15 -9 -15 -25 0 -24 2 -25 70 -25 40 0 70 4 70 10 0 6 -8 10 -18 10 -20 0
-57 39 -46 48 4 4 9 1 11 -5 7 -21 33 -15 33 7 0 22 15 27 23 8 4 -10 8 -10
15 1 8 11 14 10 33 -8 21 -19 59 -29 59 -15 0 4 -12 17 -27 30 -22 19 -24 24
-10 24 9 0 17 7 17 15 0 8 -8 15 -17 15 -14 0 -14 3 5 20 12 11 33 20 47 20
22 0 25 4 25 35 0 32 -2 35 -30 35 -16 0 -30 5 -30 10 0 6 -4 10 -10 10 -5 0
-10 -9 -10 -20 0 -16 7 -20 30 -20 20 0 30 -5 30 -15 0 -8 -9 -15 -19 -15 -11
0 -22 -6 -25 -12 -5 -10 -7 -10 -12 0 -3 6 -21 12 -40 12 -24 0 -34 5 -34 15
0 8 9 15 20 15 13 0 20 7 20 20 0 11 7 20 15 20 9 0 15 9 15 25 0 14 5 25 10
25 6 0 10 9 10 19 0 11 6 21 13 24 6 2 8 8 4 13 -4 5 -13 2 -18 -6 -8 -11 -12
-12 -16 -2 -2 6 -11 12 -18 12 -7 0 -16 6 -18 13 -4 9 -8 8 -16 -3 -5 -8 -14
-11 -18 -6 -4 5 -2 11 5 13 6 3 12 11 12 18 0 7 6 16 13 18 9 4 8 8 -3 16 -8
5 -11 13 -7 18 5 4 12 1 16 -6 11 -17 34 -4 27 14 -2 7 2 16 10 19 20 8 8 26
-17 26 -10 0 -19 5 -19 10 0 6 16 10 35 10 33 0 35 -2 35 -34 0 -19 -6 -37
-12 -40 -10 -5 -10 -7 0 -12 6 -3 12 -13 12 -22 1 -22 28 -58 37 -48 13 13 11
37 -3 43 -16 6 -19 43 -4 43 15 0 12 47 -2 53 -10 4 -10 8 -2 14 24 17 20 58
-8 86 -22 22 -36 27 -78 27 -27 0 -50 -4 -50 -10 0 -5 13 -10 28 -10 15 0 34
-6 40 -12 10 -10 15 -10 22 2 5 8 13 11 17 6 4 -5 2 -11 -4 -13 -21 -7 -15
-33 7 -33 11 0 20 -4 20 -10 0 -5 -13 -10 -30 -10 -25 0 -30 4 -30 25 0 23 -4
25 -44 25 -38 0 -45 -3 -48 -22 -5 -32 -28 -35 -28 -4 0 14 -4 26 -10 26 -5 0
-10 -5 -10 -11 0 -16 -26 -39 -45 -39 -9 0 -23 -7 -31 -15 -13 -12 -12 -17 3
-35 19 -22 33 -26 33 -9 0 14 26 39 40 39 19 0 53 -37 41 -45 -6 -3 -14 1 -17
9 -8 21 -34 20 -50 -1 -19 -25 -17 -33 6 -33 22 0 27 -15 8 -23 -10 -4 -10 -8
0 -15 12 -8 12 -13 1 -31 -15 -22 -29 -28 -29 -11 0 6 -5 10 -11 10 -16 0 -39
-26 -39 -44 0 -9 -8 -16 -20 -16 -11 0 -20 5 -20 10 0 6 -7 10 -15 10 -9 0
-15 10 -15 26 0 14 -4 23 -10 19 -5 -3 -10 -15 -10 -26 0 -10 -4 -19 -10 -19
-14 0 -13 -33 1 -47 15 -15 -11 -43 -40 -43 -24 0 -28 15 -6 24 9 3 15 18 15
36 0 16 5 30 10 30 6 0 10 5 10 10 0 6 -9 10 -19 10 -11 0 -23 5 -26 10 -3 6
3 10 15 10 11 0 23 7 26 15 4 9 19 15 40 15 30 0 34 -3 34 -25 0 -34 24 -32
60 5 32 33 39 60 15 60 -8 0 -15 -4 -15 -10 0 -5 -9 -10 -19 -10 -11 0 -22 -6
-25 -12 -5 -10 -7 -10 -12 0 -7 14 -74 17 -74 2 0 -5 -11 -10 -25 -10 -14 0
-25 5 -25 10 0 6 7 10 15 10 8 0 15 5 15 10 0 6 17 10 38 10 21 0 44 6 50 12
10 10 15 10 22 -2 5 -8 13 -11 17 -6 4 5 2 11 -4 13 -7 3 -13 16 -13 29 0 19
-5 24 -24 24 -13 0 -27 6 -29 13 -4 9 -8 9 -15 -2 -9 -12 -13 -12 -27 3 -13
13 -15 20 -6 29 6 6 11 19 11 29 0 11 7 18 20 18 11 0 20 5 20 10 0 6 -9 10
-20 10 -11 0 -20 -4 -20 -10 0 -15 -67 -12 -74 3 -5 10 -7 10 -12 0 -10 -23
-24 -14 -24 16 0 30 -12 46 -24 34z m64 -73 c0 -5 -4 -10 -10 -10 -5 0 -10 5
-10 10 0 6 5 10 10 10 6 0 10 -4 10 -10z m360 -50 c0 -5 -4 -10 -10 -10 -5 0
-10 5 -10 10 0 6 5 10 10 10 6 0 10 -4 10 -10z m0 -55 c0 -14 -4 -25 -10 -25
-5 0 -10 11 -10 25 0 14 5 25 10 25 6 0 10 -11 10 -25z m-222 -12 c2 -9 -8
-13 -32 -13 -26 0 -36 4 -36 16 0 19 61 16 68 -3z m202 -43 c0 -5 -4 -10 -10
-10 -5 0 -10 -17 -10 -38 0 -39 -25 -72 -55 -72 -8 0 -15 -4 -15 -10 0 -5 -7
-10 -16 -10 -21 0 -74 -54 -74 -75 0 -8 -4 -15 -10 -15 -5 0 -10 -7 -10 -15 0
-8 5 -15 10 -15 6 0 10 -9 10 -20 0 -11 -4 -20 -10 -20 -5 0 -10 9 -10 20 0
14 -7 20 -24 20 -13 0 -26 -6 -29 -12 -3 -9 -13 -3 -29 16 -17 18 -28 24 -32
17 -4 -6 0 -14 8 -17 18 -7 22 -24 6 -24 -14 0 -60 -46 -60 -60 0 -15 -8 -12
-30 10 -27 27 -26 30 15 30 35 0 47 13 23 24 -10 5 -10 7 0 12 6 3 12 17 12
30 0 21 5 24 35 24 19 0 35 -4 35 -10 0 -5 9 -10 20 -10 11 0 20 5 20 10 0 6
-9 10 -20 10 -11 0 -20 4 -20 8 0 4 9 14 20 22 21 15 27 40 10 40 -5 0 -10 5
-10 10 0 16 40 12 57 -6 14 -14 17 -13 34 5 11 11 19 27 19 36 0 8 7 15 15 15
8 0 15 -4 15 -10 0 -15 29 -12 46 4 8 8 14 28 14 45 0 21 5 31 15 31 8 0 15 5
15 10 0 6 5 10 10 10 6 0 10 -4 10 -10z m-510 -27 c19 -17 19 -17 -1 -36 -17
-16 -23 -17 -30 -6 -8 12 -10 12 -18 -1 -6 -8 -14 -11 -18 -6 -4 5 -2 11 5 13
6 3 12 9 12 14 0 9 21 38 27 39 2 0 12 -8 23 -17z m550 -63 c0 -5 7 -10 15
-10 8 0 15 -4 15 -10 0 -5 -16 -10 -35 -10 -33 0 -35 -2 -35 -35 0 -19 -4 -35
-10 -35 -19 0 -10 60 13 85 24 26 37 31 37 15z m-124 -94 c16 -17 19 -46 4
-46 -5 0 -10 -7 -10 -15 0 -9 -9 -15 -25 -15 -14 0 -25 -4 -25 -10 0 -5 6 -10
14 -10 8 0 16 -6 18 -12 6 -17 38 15 38 37 0 26 29 50 43 36 8 -8 7 -11 -6
-11 -11 0 -17 -8 -17 -24 0 -13 -6 -27 -12 -30 -10 -5 -10 -7 0 -12 14 -7 16
-54 2 -54 -5 0 -10 7 -10 15 0 8 -9 15 -20 15 -22 0 -28 -26 -7 -33 6 -2 9 -8
5 -12 -4 -5 -19 4 -32 18 -29 31 -36 33 -36 12 0 -8 -4 -15 -10 -15 -17 0 -11
22 13 43 15 13 18 21 10 24 -17 6 -17 35 -1 51 10 10 10 15 -1 21 -12 8 -12
11 0 25 18 19 46 20 65 2z m-276 -36 c0 -5 -4 -10 -10 -10 -5 0 -10 -11 -10
-25 0 -16 -6 -25 -15 -25 -20 0 -19 29 3 51 19 20 32 24 32 9z m400 -95 c0
-32 -2 -35 -30 -35 -28 0 -30 3 -30 35 0 32 2 35 30 35 28 0 30 -3 30 -35z"/>
<path d="M4130 925 c0 -8 5 -15 10 -15 6 0 10 7 10 15 0 8 -4 15 -10 15 -5 0
-10 -7 -10 -15z"/>
<path d="M4530 770 c0 -5 11 -10 25 -10 14 0 25 5 25 10 0 6 -11 10 -25 10
-14 0 -25 -4 -25 -10z"/>
<path d="M4530 660 c0 -5 7 -10 15 -10 8 0 15 5 15 10 0 6 -7 10 -15 10 -8 0
-15 -4 -15 -10z"/>
<path d="M4670 660 c0 -5 5 -10 10 -10 6 0 10 5 10 10 0 6 -4 10 -10 10 -5 0
-10 -4 -10 -10z"/>
<path d="M4310 1195 c0 -8 5 -15 10 -15 6 0 10 7 10 15 0 8 -4 15 -10 15 -5 0
-10 -7 -10 -15z"/>
<path d="M5954 1153 c-15 -27 -35 -57 -44 -68 -18 -20 -50 -79 -50 -90 0 -3 6
-3 13 2 6 4 17 8 22 8 6 0 9 9 7 18 -2 10 1 24 6 30 14 17 82 147 77 147 -2 0
-16 -21 -31 -47z"/>
<path d="M6135 1106 c-9 -19 -26 -42 -38 -53 l-21 -18 18 30 17 30 -25 -27
c-31 -35 -44 -36 -22 -3 19 29 20 39 4 28 -7 -4 -16 -8 -20 -8 -12 0 -21 -15
-9 -15 9 0 9 -5 0 -21 -10 -20 -12 -19 -30 20 -19 43 -31 55 -22 22 3 -10 -6
-30 -21 -47 -28 -32 -35 -17 -10 21 9 14 12 25 8 25 -12 0 -45 -60 -39 -70 6
-9 84 -6 134 5 l35 7 -17 -25 c-9 -15 -17 -29 -17 -32 0 -13 22 8 29 28 5 13
18 21 37 23 41 4 139 41 139 52 0 6 3 14 8 18 14 14 7 26 -8 14 -9 -7 -14 -18
-12 -25 3 -6 -4 -12 -16 -12 -15 -2 -17 1 -8 10 6 6 11 14 11 18 0 8 -27 6
-36 -3 -3 -4 -12 -4 -19 -2 -7 3 -22 -7 -34 -22 -28 -35 -27 -21 1 19 12 17
16 27 8 22 -10 -6 -12 -4 -7 8 12 30 -2 18 -18 -17z m49 -30 c-3 -8 -12 -17
-20 -20 -12 -4 -12 -2 -4 14 12 23 32 27 24 6z m-179 -35 c-3 -6 -11 -11 -17
-11 -6 0 -6 6 2 15 14 17 26 13 15 -4z"/>
<path d="M4227 1067 c-14 -17 -19 -19 -26 -8 -10 16 -31 6 -31 -15 0 -9 11
-14 35 -14 38 0 44 -12 18 -38 -12 -12 -18 -13 -21 -4 -2 6 -11 12 -20 12 -12
0 -11 -4 7 -21 l22 -21 19 22 c17 20 22 21 37 9 10 -8 21 -18 24 -23 8 -10 59
37 59 54 0 5 -9 10 -20 10 -11 0 -20 5 -20 10 0 6 -11 10 -25 10 -18 0 -25 5
-25 20 0 26 -11 25 -33 -3z m81 -49 c-5 -15 -48 -24 -48 -10 0 14 12 22 33 22
10 0 17 -5 15 -12z"/>
<path d="M6413 1083 c15 -2 39 -2 55 0 15 2 2 4 -28 4 -30 0 -43 -2 -27 -4z"/>
<path d="M4130 1060 c0 -5 5 -10 10 -10 6 0 10 5 10 10 0 6 -4 10 -10 10 -5 0
-10 -4 -10 -10z"/>
<path d="M6270 1021 c0 -12 -8 -21 -22 -24 -20 -4 -19 -4 5 -6 23 -1 27 3 27
24 0 14 -2 25 -5 25 -3 0 -5 -9 -5 -19z"/>
<path d="M4000 1019 c0 -16 30 -43 38 -34 4 4 1 10 -5 12 -7 3 -13 11 -13 19
0 8 -4 14 -10 14 -5 0 -10 -5 -10 -11z"/>
<path d="M4067 1023 c-14 -13 -7 -63 8 -63 8 0 15 9 15 19 0 11 5 23 10 26 6
3 10 10 10 16 0 10 -33 12 -43 2z"/>
<path d="M4130 1021 c0 -6 5 -13 10 -16 6 -3 10 1 10 9 0 9 -4 16 -10 16 -5 0
-10 -4 -10 -9z"/>
<path d="M5865 975 c-42 -14 -29 -19 24 -9 17 4 31 10 31 15 0 11 -4 10 -55
-6z"/>
<path d="M6008 983 c6 -2 18 -2 25 0 6 3 1 5 -13 5 -14 0 -19 -2 -12 -5z"/>
<path d="M5938 973 c7 -3 16 -2 19 1 4 3 -2 6 -13 5 -11 0 -14 -3 -6 -6z"/>
<path d="M4560 925 c0 -8 5 -15 10 -15 6 0 10 7 10 15 0 8 -4 15 -10 15 -5 0
-10 -7 -10 -15z"/>
<path d="M4790 825 c-7 -14 -17 -25 -22 -25 -4 0 -8 -4 -8 -10 0 -5 9 -10 20
-10 15 0 20 7 20 25 0 14 3 24 8 23 4 -2 8 1 10 7 7 21 -15 14 -28 -10z"/>
<path d="M5813 705 c0 -22 2 -30 4 -17 2 12 2 30 0 40 -3 9 -5 -1 -4 -23z"/>
<path d="M6197 733 c-13 -13 -7 -24 21 -34 26 -10 26 -11 8 -25 -11 -8 -15
-14 -9 -14 6 0 15 6 22 13 12 15 -3 37 -27 37 -8 0 -12 6 -8 15 6 16 3 19 -7
8z"/>
<path d="M5874 706 c-3 -8 -4 -21 -1 -28 3 -7 6 -3 6 10 1 12 7 22 16 22 18 0
20 -21 3 -39 -11 -10 -9 -11 5 -5 11 4 17 15 15 28 -4 25 -36 34 -44 12z"/>
<path d="M5940 709 c0 -5 5 -7 10 -4 6 3 10 8 10 11 0 2 -4 4 -10 4 -5 0 -10
-5 -10 -11z"/>
<path d="M5976 704 c-4 -10 -1 -22 5 -28 8 -7 10 -7 6 -1 -3 6 -1 17 4 25 8
13 10 13 20 0 9 -13 10 -13 6 0 -5 22 -33 24 -41 4z"/>
<path d="M6041 693 c2 -25 2 -26 6 -5 3 15 10 22 19 18 8 -3 14 -1 14 4 0 6
-9 10 -20 10 -15 0 -20 -6 -19 -27z"/>
<path d="M6104 705 c-3 -8 -4 -20 -1 -27 3 -7 6 -3 6 9 1 12 7 24 14 26 9 4 9
6 -1 6 -7 1 -15 -6 -18 -14z"/>
<path d="M6138 695 c-3 -14 -1 -25 3 -25 5 0 9 11 9 25 0 14 -2 25 -4 25 -2 0
-6 -11 -8 -25z"/>
<path d="M6264 705 c-3 -8 -4 -20 -1 -27 3 -7 6 -3 6 10 1 12 7 22 16 22 18 0
20 -21 3 -41 -7 -7 -4 -6 6 3 21 18 15 48 -9 48 -9 0 -18 -7 -21 -15z"/>
<path d="M6330 710 c0 -5 6 -7 14 -4 9 4 16 -3 19 -18 4 -21 4 -20 6 5 1 21
-4 27 -19 27 -11 0 -20 -4 -20 -10z"/>
<path d="M6385 710 c3 -5 8 -10 11 -10 2 0 4 5 4 10 0 6 -5 10 -11 10 -5 0 -7
-4 -4 -10z"/>
<path d="M6424 705 c-3 -8 -4 -20 -2 -27 3 -7 7 -1 10 15 6 29 1 36 -8 12z"/>
<path d="M6453 705 c0 -8 4 -15 9 -15 4 0 8 4 8 9 0 6 -4 12 -8 15 -5 3 -9 -1
-9 -9z"/>
<path d="M6481 693 c1 -22 2 -23 6 -8 3 11 10 23 17 27 7 5 5 8 -6 8 -13 0
-18 -7 -17 -27z"/>
<path d="M2195 690 c-8 -13 3 -30 18 -29 9 0 9 2 0 6 -20 8 -15 21 10 26 22 4
22 4 0 6 -12 0 -25 -3 -28 -9z"/>
<path d="M2323 665 c0 -22 2 -30 4 -17 2 12 2 30 0 40 -3 9 -5 -1 -4 -23z"/>
<path d="M2722 663 c2 -28 8 -38 21 -39 12 -1 13 -1 2 3 -9 3 -15 16 -15 34 0
26 3 30 23 27 17 -2 22 -9 22 -30 -1 -14 3 -24 7 -22 12 8 10 38 -4 52 -7 7
-23 12 -36 12 -21 0 -23 -4 -20 -37z"/>
<path d="M3041 670 c-1 -30 2 -36 21 -37 17 -2 19 0 9 7 -13 7 -13 11 0 27 13
16 12 17 -3 5 -14 -11 -17 -10 -21 10 -3 16 -5 12 -6 -12z"/>
<path d="M2264 665 c-8 -20 2 -45 18 -44 10 0 10 2 1 6 -19 7 -16 41 5 46 16
4 16 5 -1 6 -10 0 -20 -6 -23 -14z"/>
<path d="M2350 673 c5 -2 10 -13 10 -23 0 -10 -5 -21 -10 -23 -6 -3 -5 -4 2
-3 7 2 13 13 13 26 0 13 -6 24 -13 26 -7 1 -8 0 -2 -3z"/>
<path d="M2387 673 c-12 -12 -7 -41 8 -47 12 -4 13 -2 2 15 -10 16 -9 21 3 29
8 5 10 10 4 10 -6 0 -14 -3 -17 -7z"/>
<path d="M2422 655 c0 -16 2 -22 5 -12 2 9 2 23 0 30 -3 6 -5 -1 -5 -18z"/>
<path d="M2450 663 c0 -10 4 -14 8 -8 4 6 11 13 16 18 5 4 2 7 -7 7 -10 0 -17
-8 -17 -17z"/>
<path d="M2508 673 c7 -3 16 -2 19 1 4 3 -2 6 -13 5 -11 0 -14 -3 -6 -6z"/>
<path d="M2542 655 c0 -16 2 -22 5 -12 2 9 2 23 0 30 -3 6 -5 -1 -5 -18z"/>
<path d="M2566 663 c-4 -10 0 -23 11 -32 16 -15 16 -15 3 2 -9 13 -10 21 -2
29 13 13 35 0 28 -18 -3 -8 -1 -14 4 -14 16 0 11 37 -6 44 -24 9 -31 7 -38
-11z"/>
<path d="M2632 655 c0 -16 2 -22 5 -12 2 9 2 23 0 30 -3 6 -5 -1 -5 -18z"/>
<path d="M2656 673 c7 -4 14 -17 17 -28 5 -16 5 -15 4 4 -1 14 -9 26 -17 28
-10 3 -11 2 -4 -4z"/>
<path d="M2865 661 c-3 -12 -11 -19 -16 -16 -5 4 -9 2 -9 -4 0 -5 4 -12 9 -15
8 -6 35 43 27 51 -2 2 -7 -5 -11 -16z"/>
<path d="M2892 655 c0 -16 2 -22 5 -12 2 9 2 23 0 30 -3 6 -5 -1 -5 -18z"/>
<path d="M2922 655 c0 -16 2 -22 5 -12 2 9 2 23 0 30 -3 6 -5 -1 -5 -18z"/>
<path d="M2946 673 c7 -4 14 -17 17 -28 5 -16 5 -15 4 4 -1 14 -9 26 -17 28
-10 3 -11 2 -4 -4z"/>
<path d="M2985 671 c-3 -5 0 -13 6 -17 7 -4 9 -3 5 4 -3 6 2 13 11 15 16 4 16
5 1 6 -9 0 -19 -3 -23 -8z"/>
<path d="M3090 677 c0 -5 5 -17 11 -28 7 -15 7 -24 -2 -35 -6 -8 -7 -14 -2
-14 10 0 46 70 39 77 -2 2 -7 -6 -11 -18 l-7 -22 -14 24 c-7 13 -13 20 -14 16z"/>
<path d="M4000 590 l0 -80 75 0 75 0 0 80 0 80 -75 0 -75 0 0 -80z m130 0 l0
-60 -55 0 -55 0 0 60 0 60 55 0 55 0 0 -60z"/>
<path d="M4040 590 c0 -28 3 -30 35 -30 32 0 35 2 35 30 0 28 -3 30 -35 30
-32 0 -35 -2 -35 -30z"/>
<path d="M4760 661 c0 -6 9 -11 20 -11 11 0 20 -7 20 -15 0 -8 -9 -15 -20 -15
-11 0 -20 -4 -20 -8 0 -4 9 -14 20 -22 11 -8 20 -25 20 -38 0 -20 -4 -23 -32
-20 -21 2 -32 8 -30 16 1 8 -3 12 -10 10 -7 -3 -14 -14 -16 -26 -3 -20 1 -22
52 -22 l56 0 0 34 c0 19 -6 37 -12 39 -10 4 -10 8 -2 14 7 4 14 22 15 38 4 27
1 30 -28 33 -19 2 -33 -1 -33 -7z"/>
<path d="M2232 648 c2 -8 -6 -13 -19 -12 -12 0 -20 -3 -17 -8 8 -13 30 -9 43
6 8 10 9 16 1 21 -6 4 -9 1 -8 -7z"/>
<path d="M2475 641 c3 -5 -2 -12 -10 -14 -12 -4 -12 -5 1 -3 19 1 32 26 14 26
-6 0 -9 -4 -5 -9z"/>
<path d="M3002 634 c-7 -8 -8 -14 -3 -14 10 0 25 19 20 25 -2 1 -10 -3 -17
-11z"/>
<path d="M2510 630 c0 -5 5 -10 11 -10 5 0 7 5 4 10 -3 6 -8 10 -11 10 -2 0
-4 -4 -4 -10z"/>
<path d="M5536 594 c-9 -8 -16 -19 -16 -24 0 -17 12 -40 21 -40 5 0 4 9 -3 19
-9 15 -9 23 2 36 7 9 19 14 27 11 8 -3 11 -1 8 4 -9 14 -21 12 -39 -6z"/>
<path d="M5799 598 c0 -7 -2 -25 -3 -40 -1 -16 2 -28 6 -28 4 0 8 18 8 40 0
22 -2 40 -5 40 -3 0 -5 -6 -6 -12z"/>
<path d="M6019 598 c0 -7 -2 -25 -3 -40 -1 -16 2 -28 6 -28 4 0 8 18 8 40 0
22 -2 40 -5 40 -3 0 -5 -6 -6 -12z"/>
<path d="M6255 569 c-9 -17 -14 -33 -11 -36 3 -3 11 10 19 28 l13 34 12 -33
c6 -17 13 -32 16 -32 8 0 -15 59 -25 65 -4 3 -15 -8 -24 -26z"/>
<path d="M6483 565 c0 -22 2 -30 4 -17 2 12 2 30 0 40 -3 9 -5 -1 -4 -23z"/>
<path d="M4240 561 c0 -11 5 -23 10 -26 6 -4 10 5 10 19 0 14 -4 26 -10 26 -5
0 -10 -9 -10 -19z"/>
<path d="M5593 564 c-3 -8 -2 -19 3 -24 5 -5 9 1 9 16 0 28 -3 30 -12 8z"/>
<path d="M5625 555 c0 -13 3 -21 8 -18 4 2 7 10 7 18 0 8 -3 16 -7 18 -5 3 -8
-5 -8 -18z"/>
<path d="M5653 564 c-3 -8 -2 -19 3 -24 5 -5 9 1 9 16 0 28 -3 30 -12 8z"/>
<path d="M5685 570 c3 -5 8 -10 11 -10 2 0 4 5 4 10 0 6 -5 10 -11 10 -5 0 -7
-4 -4 -10z"/>
<path d="M5720 555 c0 -14 2 -25 4 -25 2 0 6 11 8 25 3 14 1 25 -3 25 -5 0 -9
-11 -9 -25z"/>
<path d="M5763 564 c-3 -8 -2 -19 3 -24 5 -5 9 1 9 16 0 28 -3 30 -12 8z"/>
<path d="M5850 555 c0 -14 2 -25 4 -25 2 0 6 11 8 25 3 14 1 25 -3 25 -5 0 -9
-11 -9 -25z"/>
<path d="M5888 555 c2 -14 6 -25 8 -25 2 0 4 11 4 25 0 14 -4 25 -9 25 -4 0
-6 -11 -3 -25z"/>
<path d="M5955 555 c0 -14 3 -25 8 -25 4 0 7 11 7 25 0 14 -3 25 -7 25 -5 0
-8 -11 -8 -25z"/>
<path d="M5983 564 c-3 -8 -2 -19 3 -24 5 -5 9 1 9 16 0 28 -3 30 -12 8z"/>
<path d="M6043 564 c-3 -8 -2 -19 3 -24 5 -5 9 1 9 16 0 28 -3 30 -12 8z"/>
<path d="M6075 570 c3 -5 8 -10 11 -10 2 0 4 5 4 10 0 6 -5 10 -11 10 -5 0 -7
-4 -4 -10z"/>
<path d="M6110 555 c0 -14 2 -25 4 -25 2 0 6 11 8 25 3 14 1 25 -3 25 -5 0 -9
-11 -9 -25z"/>
<path d="M6150 555 c0 -14 3 -25 8 -25 4 0 7 11 7 25 0 14 -3 25 -7 25 -5 0
-8 -11 -8 -25z"/>
<path d="M6185 555 c0 -14 3 -25 8 -25 4 0 7 11 7 25 0 14 -3 25 -7 25 -5 0
-8 -11 -8 -25z"/>
<path d="M6323 564 c-3 -8 -2 -19 3 -24 5 -5 9 1 9 16 0 28 -3 30 -12 8z"/>
<path d="M6380 555 c0 -14 3 -25 8 -25 4 0 7 11 7 25 0 14 -3 25 -7 25 -5 0
-8 -11 -8 -25z"/>
<path d="M6415 555 c0 -14 3 -25 8 -25 4 0 7 11 7 25 0 14 -3 25 -7 25 -5 0
-8 -11 -8 -25z"/>
<path d="M6443 564 c-3 -8 -2 -19 3 -24 5 -5 9 1 9 16 0 28 -3 30 -12 8z"/>
<path d="M6510 555 c0 -14 4 -25 9 -25 4 0 6 11 3 25 -2 14 -6 25 -8 25 -2 0
-4 -11 -4 -25z"/>
<path d="M6572 555 c0 -16 2 -22 5 -12 2 9 2 23 0 30 -3 6 -5 -1 -5 -18z"/>
<path d="M6600 555 c0 -14 2 -25 4 -25 2 0 6 11 8 25 3 14 1 25 -3 25 -5 0 -9
-11 -9 -25z"/>
<path d="M6638 553 c5 -21 7 -23 10 -9 2 10 0 22 -6 28 -6 6 -7 0 -4 -19z"/>
<path d="M6662 555 c0 -16 2 -22 5 -12 2 9 2 23 0 30 -3 6 -5 -1 -5 -18z"/>
<path d="M6693 564 c-3 -8 -2 -19 3 -24 5 -5 9 1 9 16 0 28 -3 30 -12 8z"/>
<path d="M6784 555 c1 -33 16 -33 16 0 0 14 -4 25 -9 25 -5 0 -8 -11 -7 -25z"/>
<path d="M2332 553 c-5 -10 -6 -29 -2 -43 6 -21 7 -19 11 18 5 47 4 50 -9 25z"/>
<path d="M2997 563 c-4 -3 -7 -22 -7 -41 0 -45 8 -38 13 11 4 39 4 41 -6 30z"/>
<path d="M3032 553 c-5 -10 -6 -29 -1 -43 6 -21 7 -22 9 -5 1 11 3 30 4 43 3
27 0 28 -12 5z"/>
<path d="M2107 553 c-10 -9 -9 -51 2 -57 4 -3 6 6 3 20 -3 16 1 30 9 35 8 5 9
9 3 9 -6 0 -14 -3 -17 -7z"/>
<path d="M2170 528 c0 -21 2 -38 4 -38 9 0 12 50 5 62 -6 8 -9 -1 -9 -24z"/>
<path d="M2392 525 c0 -22 2 -32 5 -23 2 9 12 19 21 21 16 4 16 5 0 6 -9 0
-19 9 -21 19 -3 9 -5 -1 -5 -23z"/>
<path d="M2904 546 c-8 -22 -1 -49 14 -52 7 -1 8 0 2 3 -14 7 -13 50 3 56 9 4
9 6 -1 6 -7 1 -15 -5 -18 -13z"/>
<path d="M2950 553 c5 -2 10 -15 10 -28 0 -13 -5 -26 -10 -28 -6 -3 -5 -4 2
-3 7 2 13 15 13 31 0 16 -6 29 -13 31 -7 1 -8 0 -2 -3z"/>
<path d="M4400 546 c0 -8 -6 -16 -12 -19 -7 -2 -10 -8 -6 -12 8 -9 38 18 38
34 0 6 -4 11 -10 11 -5 0 -10 -6 -10 -14z"/>
<path d="M2690 527 c0 -14 4 -28 8 -31 9 -5 8 41 -1 51 -4 3 -7 -5 -7 -20z"/>
<path d="M5685 540 c-3 -5 -1 -10 4 -10 6 0 11 5 11 10 0 6 -2 10 -4 10 -3 0
-8 -4 -11 -10z"/>
<path d="M6075 540 c-3 -5 -1 -10 4 -10 6 0 11 5 11 10 0 6 -2 10 -4 10 -3 0
-8 -4 -11 -10z"/>
<path d="M2208 515 c2 -14 6 -25 8 -25 2 0 4 11 4 25 0 14 -4 25 -9 25 -4 0
-6 -11 -3 -25z"/>
<path d="M2242 515 c0 -16 2 -22 5 -12 2 9 2 23 0 30 -3 6 -5 -1 -5 -18z"/>
<path d="M2263 524 c-3 -8 -1 -20 4 -25 5 -5 9 1 9 16 0 29 -4 32 -13 9z"/>
<path d="M2296 527 c3 -10 9 -15 12 -12 3 3 0 11 -7 18 -10 9 -11 8 -5 -6z"/>
<path d="M2457 530 c8 -8 9 -18 3 -25 -6 -7 -3 -11 9 -11 13 0 18 8 18 26 0
14 -2 19 -4 12 -4 -10 -8 -10 -21 0 -14 10 -15 10 -5 -2z"/>
<path d="M2513 524 c-3 -8 -2 -19 3 -24 5 -5 9 1 9 16 0 28 -3 30 -12 8z"/>
<path d="M2543 525 c0 -8 4 -12 9 -9 5 3 6 10 3 15 -9 13 -12 11 -12 -6z"/>
<path d="M2577 533 c-9 -9 -9 -43 1 -43 4 0 7 11 7 25 0 14 0 25 -1 25 0 0 -4
-3 -7 -7z"/>
<path d="M2632 515 c0 -16 2 -22 5 -12 2 9 2 23 0 30 -3 6 -5 -1 -5 -18z"/>
<path d="M2662 515 c0 -16 2 -22 5 -12 2 9 2 23 0 30 -3 6 -5 -1 -5 -18z"/>
<path d="M2732 515 c0 -16 2 -22 5 -12 2 9 2 23 0 30 -3 6 -5 -1 -5 -18z"/>
<path d="M2750 534 c0 -5 6 -19 14 -29 13 -18 14 -18 25 4 7 13 10 25 8 28 -3
2 -8 -6 -12 -18 l-7 -22 -14 24 c-7 13 -13 19 -14 13z"/>
<path d="M2813 524 c-3 -8 -1 -20 4 -25 5 -5 9 1 9 16 0 29 -4 32 -13 9z"/>
<path d="M2846 527 c3 -10 9 -15 12 -12 3 3 0 11 -7 18 -10 9 -11 8 -5 -6z"/>
<path d="M3062 515 c0 -16 2 -22 5 -12 2 9 2 23 0 30 -3 6 -5 -1 -5 -18z"/>
<path d="M3090 529 c0 -5 5 -7 10 -4 6 3 10 8 10 11 0 2 -4 4 -10 4 -5 0 -10
-5 -10 -11z"/>
<path d="M3143 524 c-3 -8 -1 -20 4 -25 5 -5 9 1 9 16 0 29 -4 32 -13 9z"/>
<path d="M3176 527 c3 -10 9 -15 12 -12 3 3 0 11 -7 18 -10 9 -11 8 -5 -6z"/>
<path d="M3201 513 c1 -22 2 -23 6 -8 3 11 10 23 17 27 7 5 5 8 -6 8 -13 0
-18 -7 -17 -27z"/>
</g>
</svg>
