<?xml version="1.0" standalone="no"?>
<!DOCTYPE svg PUBLIC "-//W3C//DTD SVG 20010904//EN"
 "http://www.w3.org/TR/2001/REC-SVG-20010904/DTD/svg10.dtd">
<svg version="1.0" xmlns="http://www.w3.org/2000/svg"
 width="642.000000pt" height="494.000000pt" viewBox="0 0 642.000000 494.000000"
 preserveAspectRatio="xMidYMid meet">

<g transform="translate(0.000000,494.000000) scale(0.100000,-0.100000)"
fill="#000000" stroke="none">
<path d="M20 2460 l0 -2460 3195 0 3195 0 0 2460 0 2460 -3195 0 -3195 0 0
-2460z m6217 2277 l38 -37 3 -2236 c2 -2481 8 -2280 -63 -2324 -32 -20 -42
-20 -2995 -20 -2953 0 -2963 0 -2995 20 -71 44 -65 -157 -63 2323 l3 2236 30
31 c17 18 39 36 50 40 11 5 1355 8 2987 7 l2968 -2 37 -38z"/>
<path d="M5881 4526 c-8 -9 -11 -44 -9 -98 l3 -83 79 -3 c58 -2 84 1 102 13
23 15 25 21 22 98 l-3 82 -91 3 c-70 2 -94 -1 -103 -12z m59 -92 c0 -48 -3
-65 -12 -62 -8 3 -14 28 -16 66 -2 51 0 62 13 62 12 0 15 -13 15 -66z m120 56
c0 -5 -9 -10 -20 -10 -18 0 -20 -7 -20 -55 0 -42 -3 -55 -15 -55 -12 0 -15 13
-15 55 0 48 -2 55 -20 55 -11 0 -20 5 -20 10 0 6 25 10 55 10 30 0 55 -4 55
-10z"/>
<path d="M5637 4503 c-10 -10 -8 -33 3 -33 5 0 14 9 20 20 8 15 8 20 -3 20 -8
0 -17 -3 -20 -7z"/>
<path d="M4970 4474 c0 -23 -3 -25 -29 -19 -56 12 -95 -60 -53 -98 12 -11 34
-16 65 -15 l47 1 0 78 c0 64 -3 79 -15 79 -9 0 -15 -10 -15 -26z m-9 -60 c9
-11 10 -20 2 -32 -13 -22 -43 -22 -56 -1 -24 38 25 68 54 33z"/>
<path d="M5530 4485 c0 -8 7 -15 15 -15 8 0 15 7 15 15 0 8 -7 15 -15 15 -8 0
-15 -7 -15 -15z"/>
<path d="M4773 4450 c-30 -12 -39 -54 -19 -85 13 -20 25 -25 56 -25 29 0 40 4
40 15 0 11 -7 13 -28 9 -19 -4 -32 -1 -41 10 -12 14 -8 16 33 16 39 0 46 3 46
19 0 20 -35 52 -55 50 -5 0 -20 -4 -32 -9z m52 -30 c4 -6 -7 -10 -25 -10 -18
0 -29 4 -25 10 3 6 15 10 25 10 10 0 22 -4 25 -10z"/>
<path d="M5162 4444 c-26 -18 -30 -65 -6 -88 27 -27 107 -15 89 13 -5 9 -10 9
-20 1 -8 -7 -24 -9 -35 -5 -16 5 -20 14 -18 33 3 24 7 27 41 25 40 -3 49 10
18 27 -27 14 -43 13 -69 -6z"/>
<path d="M5281 4441 c-48 -48 -15 -101 62 -99 l47 1 0 53 c0 49 -2 54 -22 53
-13 0 -33 2 -45 6 -15 5 -27 1 -42 -14z m74 -31 c7 -23 -10 -50 -30 -50 -20 0
-37 27 -30 50 4 13 15 20 30 20 15 0 26 -7 30 -20z"/>
<path d="M5433 4450 c-56 -23 -31 -110 31 -110 35 0 68 24 44 32 -7 3 -21 0
-30 -6 -14 -8 -22 -7 -35 7 -28 27 -5 53 43 49 l39 -2 -24 20 c-25 22 -35 23
-68 10z"/>
<path d="M5602 4444 c-25 -17 -31 -71 -10 -92 17 -17 74 -15 92 4 35 35 6 104
-44 104 -9 0 -26 -7 -38 -16z m66 -46 c2 -20 -2 -28 -19 -33 -30 -10 -53 19
-38 47 15 29 53 20 57 -14z"/>
<path d="M5748 4453 c-27 -4 -28 -7 -28 -59 0 -40 4 -54 14 -54 10 0 16 14 18
43 2 34 7 42 23 42 16 0 21 -8 23 -42 2 -29 8 -43 18 -43 10 0 14 12 14 44 0
45 -19 78 -43 75 -7 -1 -24 -4 -39 -6z"/>
<path d="M5020 4407 c0 -49 13 -67 50 -67 37 0 50 18 50 67 0 32 -4 43 -15 43
-11 0 -15 -11 -15 -39 0 -22 -5 -43 -10 -46 -19 -12 -40 16 -40 51 0 19 -4 34
-10 34 -5 0 -10 -19 -10 -43z"/>
<path d="M5530 4395 c0 -42 3 -55 15 -55 12 0 15 13 15 55 0 42 -3 55 -15 55
-12 0 -15 -13 -15 -55z"/>
<path d="M2813 3928 c-26 -7 -35 -16 -44 -48 -7 -22 -18 -40 -26 -40 -7 0 -13
-9 -13 -20 0 -11 7 -20 15 -20 12 0 15 -16 15 -80 l0 -80 30 0 29 0 3 78 3 77
38 3 37 3 0 -80 0 -81 30 0 30 0 0 100 0 100 -63 0 c-35 0 -67 3 -70 6 -11 12
13 44 33 44 25 0 27 36 3 42 -10 3 -32 1 -50 -4z"/>
<path d="M1916 3920 c-99 -18 -140 -157 -70 -240 41 -49 140 -62 190 -26 14
10 14 16 5 34 -10 18 -16 20 -31 12 -32 -17 -88 -12 -110 10 -30 30 -28 109 3
138 25 24 75 29 109 11 23 -12 23 -12 32 18 5 16 2 24 -11 31 -29 15 -75 19
-117 12z"/>
<path d="M2640 3905 c0 -21 5 -25 30 -25 25 0 30 4 30 25 0 21 -5 25 -30 25
-25 0 -30 -4 -30 -25z"/>
<path d="M2900 3905 c0 -22 4 -25 35 -25 31 0 35 3 35 25 0 22 -4 25 -35 25
-31 0 -35 -3 -35 -25z"/>
<path d="M3620 3874 c0 -49 -2 -55 -15 -44 -8 6 -31 12 -52 12 -53 0 -83 -37
-83 -101 0 -82 58 -129 121 -97 16 8 29 10 29 5 0 -5 14 -9 30 -9 l30 0 0 145
0 145 -30 0 c-30 0 -30 0 -30 -56z m-16 -90 c32 -31 13 -104 -27 -104 -33 0
-47 19 -47 60 0 56 39 79 74 44z"/>
<path d="M4230 3874 c0 -49 -2 -55 -15 -44 -8 6 -31 12 -52 12 -53 0 -83 -37
-83 -101 0 -82 58 -129 121 -97 16 8 29 10 29 5 0 -5 14 -9 30 -9 l30 0 0 145
0 145 -30 0 c-30 0 -30 0 -30 -56z m-16 -90 c32 -31 13 -104 -27 -104 -33 0
-47 19 -47 60 0 56 39 79 74 44z"/>
<path d="M2503 3893 c-7 -2 -13 -16 -13 -29 0 -15 -6 -24 -15 -24 -8 0 -15 -9
-15 -20 0 -11 7 -20 15 -20 11 0 15 -12 16 -47 1 -70 12 -96 43 -111 36 -18
76 -8 76 18 0 13 -7 20 -20 20 -26 0 -42 32 -38 78 3 32 7 37 31 40 19 2 27 9
27 23 0 14 -7 19 -30 19 -27 0 -30 3 -30 30 0 30 -14 37 -47 23z"/>
<path d="M2143 3843 c-35 -7 -73 -59 -73 -99 0 -62 29 -98 88 -109 44 -8 105
12 98 32 -3 8 -6 16 -6 19 0 2 -20 1 -45 -3 -47 -6 -75 6 -75 33 0 11 16 14
65 14 l65 0 0 29 c0 54 -57 95 -117 84z m57 -47 c0 -2 3 -11 6 -20 5 -13 -2
-16 -35 -16 -39 0 -53 14 -34 33 7 8 63 10 63 3z"/>
<path d="M2405 3842 c-11 -2 -26 -11 -32 -20 -12 -14 -13 -14 -13 1 0 12 -8
17 -30 17 l-30 0 0 -100 0 -100 30 0 c30 0 30 0 30 58 0 67 15 95 53 95 22 0
27 4 27 23 0 27 -7 32 -35 26z"/>
<path d="M3073 3839 c-44 -13 -63 -44 -63 -102 0 -57 28 -92 81 -102 45 -8 92
9 87 33 -3 13 -12 16 -41 14 -49 -5 -67 11 -67 59 0 32 5 42 25 51 18 8 31 8
49 0 22 -10 26 -8 32 10 6 20 -8 38 -33 38 -6 0 -17 2 -25 4 -7 2 -27 0 -45
-5z"/>
<path d="M3268 3839 c-28 -11 -58 -62 -58 -98 0 -42 27 -87 59 -101 28 -11 37
-11 67 3 19 9 34 12 34 7 0 -6 14 -10 30 -10 l30 0 0 100 0 100 -30 0 c-16 0
-30 -4 -30 -9 0 -6 -16 -3 -35 5 -19 7 -36 14 -37 13 -2 0 -15 -5 -30 -10z
m86 -61 c21 -29 20 -51 -2 -78 -43 -54 -106 17 -68 75 20 31 50 32 70 3z"/>
<path d="M3798 3842 c-70 -8 -102 -112 -53 -170 67 -80 185 -34 185 72 0 66
-55 107 -132 98z m62 -61 c14 -26 13 -74 -2 -89 -7 -7 -21 -12 -33 -12 -29 0
-45 19 -45 53 0 41 17 67 45 67 14 0 29 -8 35 -19z"/>
<path d="M4403 3843 c-35 -7 -73 -59 -73 -99 0 -62 29 -98 88 -109 44 -8 105
12 98 32 -3 8 -6 16 -6 19 0 2 -20 1 -45 -3 -47 -6 -75 6 -75 33 0 11 16 14
65 14 l65 0 0 29 c0 54 -57 95 -117 84z m57 -47 c0 -2 3 -11 6 -20 5 -13 -2
-16 -35 -16 -39 0 -53 14 -34 33 7 8 63 10 63 3z"/>
<path d="M2640 3740 l0 -100 30 0 30 0 0 100 0 100 -30 0 -30 0 0 -100z"/>
<path d="M3967 3455 c-21 -44 -21 -45 2 -45 10 0 30 17 45 40 l26 40 -28 0
c-23 0 -32 -7 -45 -35z"/>
<path d="M3050 3335 l0 -145 25 0 c14 0 25 4 25 10 0 5 15 2 34 -7 29 -14 39
-14 66 -3 80 33 79 171 -1 199 -25 9 -38 8 -60 -3 l-29 -14 0 54 c0 53 0 54
-30 54 l-30 0 0 -145z m134 -1 c32 -32 13 -104 -28 -104 -30 0 -49 23 -49 60
0 53 43 78 77 44z"/>
<path d="M3760 3455 c0 -21 5 -25 30 -25 25 0 30 4 30 25 0 21 -5 25 -30 25
-25 0 -30 -4 -30 -25z"/>
<path d="M2178 3389 c-28 -11 -58 -62 -58 -98 0 -42 27 -87 59 -101 28 -11 37
-11 67 3 19 9 34 12 34 7 0 -6 14 -10 30 -10 l30 0 0 100 0 100 -30 0 c-16 0
-30 -4 -30 -9 0 -6 -16 -3 -35 5 -19 7 -36 14 -37 13 -2 0 -15 -5 -30 -10z
m86 -61 c21 -29 20 -51 -2 -78 -43 -54 -106 17 -68 75 20 31 50 32 70 3z"/>
<path d="M2475 3384 c-19 -10 -31 -11 -33 -5 -2 6 -17 11 -34 11 -29 0 -30 -2
-24 -31 3 -17 6 -83 6 -145 l0 -114 30 0 c29 0 30 1 30 50 0 54 1 55 31 39 32
-17 78 -1 100 34 37 62 16 146 -42 166 -38 13 -28 14 -64 -5z m49 -50 c32 -32
13 -104 -28 -104 -30 0 -49 23 -49 60 0 53 43 78 77 44z"/>
<path d="M2728 3386 c-16 -9 -30 -11 -33 -5 -4 5 -17 9 -31 9 -24 0 -24 -1
-24 -100 l0 -100 30 0 30 0 0 65 c0 57 3 66 24 80 13 8 31 12 40 9 15 -6 17
-2 14 21 -4 35 -15 39 -50 21z"/>
<path d="M2864 3389 c-48 -14 -69 -44 -69 -100 0 -39 5 -54 25 -73 56 -55 154
-35 177 36 30 90 -41 163 -133 137z m64 -51 c17 -17 15 -83 -3 -98 -23 -19
-62 -4 -69 26 -15 60 34 110 72 72z"/>
<path d="M3342 3385 c-36 -16 -52 -48 -52 -104 0 -72 62 -117 121 -87 16 8 29
10 29 5 0 -5 13 -9 29 -9 l30 0 3 100 3 100 -27 0 c-14 0 -28 -5 -30 -11 -2
-6 -14 -5 -33 5 -36 19 -32 19 -73 1z m86 -47 c16 -16 16 -80 0 -96 -31 -31
-78 -3 -78 48 0 51 47 79 78 48z"/>
<path d="M3614 3389 c-48 -14 -69 -44 -69 -99 0 -56 20 -83 71 -100 25 -9 43
-9 69 0 19 6 35 15 35 18 -1 20 -19 30 -54 28 -34 -1 -42 3 -55 27 -15 24 -15
30 0 55 13 23 21 27 55 26 52 -2 76 28 32 41 -43 12 -53 13 -84 4z"/>
<path d="M3933 3393 c-12 -2 -34 -18 -48 -34 -74 -89 23 -214 128 -164 39 18
57 50 57 100 0 63 -68 112 -137 98z m67 -62 c14 -26 13 -74 -2 -89 -7 -7 -21
-12 -33 -12 -29 0 -45 19 -45 53 0 41 17 67 45 67 14 0 29 -8 35 -19z"/>
<path d="M4203 3385 c-18 -8 -33 -10 -33 -5 0 6 -13 10 -30 10 l-30 0 0 -100
0 -100 30 0 30 0 0 64 c0 65 14 96 44 96 26 0 36 -26 36 -92 l0 -68 30 0 30 0
0 79 c0 61 -4 83 -17 99 -25 28 -52 33 -90 17z"/>
<path d="M3760 3290 l0 -100 30 0 30 0 0 100 0 100 -30 0 -30 0 0 -100z"/>
<path d="M5721 2848 c2 -77 6 -69 11 20 2 28 0 52 -4 52 -5 0 -7 -33 -7 -72z"/>
<path d="M2147 2848 c-22 -18 -36 -59 -30 -92 7 -37 42 -58 90 -54 37 3 38 4
41 46 3 41 2 42 -27 42 -17 0 -31 -4 -31 -10 0 -5 9 -10 21 -10 28 0 23 -44
-6 -48 -32 -5 -58 21 -58 58 0 42 26 63 71 55 17 -3 32 -2 32 3 0 23 -76 30
-103 10z"/>
<path d="M2290 2780 c0 -47 4 -80 10 -80 6 0 10 33 10 80 0 47 -4 80 -10 80
-6 0 -10 -33 -10 -80z"/>
<path d="M2350 2780 l0 -80 50 0 c38 0 50 4 50 15 0 10 -11 15 -35 15 l-35 0
0 65 c0 51 -3 65 -15 65 -12 0 -15 -16 -15 -80z"/>
<path d="M2480 2781 l0 -81 41 0 c22 0 49 5 60 10 20 11 26 54 9 65 -6 4 -5
13 3 25 20 34 -2 55 -62 58 l-51 3 0 -80z m85 34 c0 -16 -7 -20 -30 -20 -24 0
-31 5 -33 23 -3 21 0 23 30 20 25 -2 33 -8 33 -23z m10 -55 c11 -18 -17 -41
-44 -38 -18 2 -27 10 -29 26 -3 19 1 22 32 22 19 0 38 -5 41 -10z"/>
<path d="M2630 2780 l0 -80 55 0 c30 0 55 5 55 10 0 6 -18 10 -40 10 -36 0
-40 3 -40 25 0 22 4 25 35 25 19 0 35 5 35 10 0 6 -16 10 -35 10 -31 0 -35 3
-35 25 0 23 4 25 40 25 22 0 40 5 40 10 0 6 -25 10 -55 10 l-55 0 0 -80z"/>
<path d="M2770 2780 c0 -78 16 -112 22 -48 4 47 32 49 59 4 28 -47 57 -51 33
-4 -13 24 -14 36 -5 50 29 47 2 78 -68 78 l-41 0 0 -80z m88 33 c3 -20 -1 -23
-32 -23 -28 0 -36 4 -36 18 0 26 10 33 40 30 17 -2 26 -10 28 -25z"/>
<path d="M2910 2850 c0 -5 11 -10 25 -10 24 0 25 -2 25 -70 0 -56 3 -70 15
-70 12 0 15 14 15 70 0 68 1 70 25 70 14 0 25 5 25 10 0 6 -28 10 -65 10 -37
0 -65 -4 -65 -10z"/>
<path d="M3070 2840 c-29 -29 -27 -90 3 -118 33 -31 80 -29 106 4 43 55 11
134 -55 134 -21 0 -42 -8 -54 -20z m84 -16 c31 -31 11 -104 -29 -104 -41 0
-63 88 -27 109 24 15 38 13 56 -5z"/>
<path d="M3306 2844 c-9 -8 -16 -22 -16 -29 0 -18 28 -45 46 -45 9 0 24 -5 35
-11 17 -8 18 -13 8 -25 -9 -11 -23 -13 -51 -9 -38 7 -54 -7 -22 -19 52 -20
108 5 102 45 -2 18 -13 27 -46 38 -31 9 -42 18 -40 30 3 12 14 16 46 14 42 -2
56 9 26 21 -29 11 -72 6 -88 -10z"/>
<path d="M3440 2780 l0 -80 55 0 c30 0 55 5 55 10 0 6 -18 10 -40 10 -36 0
-40 3 -40 25 0 22 4 25 35 25 19 0 35 5 35 10 0 6 -16 10 -35 10 -31 0 -35 3
-35 25 0 23 4 25 40 25 22 0 40 5 40 10 0 6 -25 10 -55 10 l-55 0 0 -80z"/>
<path d="M3580 2780 c0 -78 16 -112 22 -48 4 47 32 49 59 4 28 -47 57 -51 33
-4 -13 24 -14 36 -5 50 29 47 2 78 -68 78 l-41 0 0 -80z m88 33 c3 -20 -1 -23
-32 -23 -28 0 -36 4 -36 18 0 26 10 33 40 30 17 -2 26 -10 28 -25z"/>
<path d="M3740 2780 c0 -78 16 -112 22 -48 4 47 32 49 59 4 28 -47 57 -51 33
-4 -13 24 -14 36 -5 50 29 47 2 78 -68 78 l-41 0 0 -80z m88 33 c3 -20 -1 -23
-32 -23 -28 0 -36 4 -36 18 0 26 10 33 40 30 17 -2 26 -10 28 -25z"/>
<path d="M3914 2786 c-39 -85 -39 -86 -20 -86 7 0 16 9 19 20 4 16 14 20 47
20 33 0 43 -4 47 -20 5 -17 33 -30 33 -14 0 18 -71 154 -80 154 -6 0 -27 -33
-46 -74z m65 4 c10 -29 9 -30 -19 -30 -28 0 -29 1 -19 30 6 17 15 30 19 30 4
0 13 -13 19 -30z"/>
<path d="M4030 2850 c0 -5 11 -10 25 -10 24 0 25 -2 25 -70 0 -56 3 -70 15
-70 12 0 15 14 15 70 l0 70 30 0 c17 0 30 5 30 10 0 6 -30 10 -70 10 -40 0
-70 -4 -70 -10z"/>
<path d="M4191 2834 c-28 -36 -27 -79 4 -109 52 -52 125 -20 125 55 0 51 -27
80 -74 80 -25 0 -40 -7 -55 -26z m80 -4 c14 -8 19 -21 19 -51 0 -32 -4 -41
-25 -51 -21 -9 -28 -8 -45 7 -24 22 -26 67 -4 89 18 19 28 20 55 6z"/>
<path d="M5721 2388 c0 -38 2 -68 7 -68 4 0 6 21 4 48 -5 82 -9 89 -11 20z"/>
<path d="M2722 2403 c-2 -17 -8 -22 -23 -20 -29 3 -48 -27 -33 -50 10 -16 49
-21 61 -9 3 2 2 26 0 52 -2 27 -4 39 -5 27z m-12 -38 c10 -12 10 -18 0 -29
-14 -18 -40 -10 -40 13 0 32 20 40 40 16z"/>
<path d="M3353 2370 c0 -30 2 -43 4 -27 2 15 2 39 0 55 -2 15 -4 2 -4 -28z"/>
<path d="M3662 2403 c-2 -17 -8 -22 -23 -20 -29 3 -48 -27 -33 -50 10 -16 49
-21 61 -9 3 2 2 26 0 52 -2 27 -4 39 -5 27z m-12 -38 c10 -12 10 -18 0 -29
-14 -18 -40 -10 -40 13 0 32 20 40 40 16z"/>
<path d="M3893 2370 c0 -30 2 -43 4 -27 2 15 2 39 0 55 -2 15 -4 2 -4 -28z"/>
<path d="M3988 2413 c-21 -5 -33 -42 -24 -71 8 -23 43 -35 65 -22 13 7 10 9
-11 10 -15 0 -31 8 -37 17 -14 26 5 53 37 53 21 0 24 2 12 10 -8 5 -17 9 -20
9 -3 -1 -13 -3 -22 -6z"/>
<path d="M2083 2365 c0 -27 2 -40 4 -27 3 17 11 22 33 22 22 0 30 -5 33 -22 2
-13 4 0 4 27 0 28 -2 40 -4 28 -3 -18 -11 -23 -33 -23 -22 0 -30 5 -33 23 -2
12 -4 0 -4 -28z"/>
<path d="M2577 2396 c-8 -22 8 -79 23 -84 12 -4 13 -2 3 9 -15 15 -17 56 -4
61 5 2 3 8 -4 15 -10 9 -14 9 -18 -1z"/>
<path d="M3467 2396 c-8 -22 8 -79 23 -84 12 -4 13 -2 3 9 -15 15 -17 56 -4
61 5 2 3 8 -4 15 -10 9 -14 9 -18 -1z"/>
<path d="M2192 2378 c-29 -29 -1 -71 39 -61 14 4 19 15 19 40 0 19 -4 32 -9
29 -4 -3 -6 -16 -4 -29 3 -16 -1 -26 -11 -30 -22 -9 -33 20 -17 44 13 21 2 26
-17 7z"/>
<path d="M2323 2383 c-18 -7 -16 -60 2 -67 12 -4 13 -2 3 13 -13 22 -3 55 15
48 6 -2 12 -16 12 -30 -1 -15 3 -27 7 -27 15 0 8 58 -8 64 -9 3 -16 6 -17 5
-1 0 -8 -3 -14 -6z"/>
<path d="M2400 2375 c-10 -12 -8 -17 14 -26 30 -14 24 -33 -7 -24 -18 5 -19 4
-5 -5 9 -5 23 -7 32 -4 20 8 21 34 2 34 -21 0 -31 21 -15 31 8 5 9 9 3 9 -6 0
-17 -7 -24 -15z"/>
<path d="M2473 2355 c0 -22 2 -30 4 -17 2 12 2 30 0 40 -3 9 -5 -1 -4 -23z"/>
<path d="M2513 2383 c-18 -7 -16 -33 1 -33 21 0 31 -21 15 -31 -8 -5 -9 -9 -3
-9 6 0 17 7 24 15 10 12 8 17 -14 26 -26 12 -26 35 1 25 8 -3 11 -1 8 4 -7 11
-13 11 -32 3z"/>
<path d="M2633 2355 c0 -22 2 -30 4 -17 2 12 2 30 0 40 -3 9 -5 -1 -4 -23z"/>
<path d="M2763 2383 c-18 -7 -16 -60 2 -67 8 -3 22 -3 30 0 20 8 19 60 -1 68
-9 3 -16 6 -17 5 -1 0 -8 -3 -14 -6z m32 -33 c0 -27 -22 -39 -31 -16 -8 22 3
49 19 43 6 -2 12 -14 12 -27z"/>
<path d="M2911 2363 l-13 -28 -14 25 c-16 31 -18 11 -2 -25 10 -22 9 -28 -3
-36 -10 -6 -11 -9 -1 -9 13 0 58 87 49 96 -2 2 -9 -8 -16 -23z"/>
<path d="M2992 2378 c-29 -29 5 -79 39 -57 11 8 10 9 -5 7 -10 -2 -23 5 -30
15 -9 15 -7 21 8 33 11 8 15 14 10 14 -6 0 -15 -5 -22 -12z"/>
<path d="M3062 2378 c-18 -18 -14 -46 7 -58 15 -7 23 -6 35 6 21 21 20 41 -3
54 -24 13 -24 13 -39 -2z m34 -13 c4 -8 4 -22 0 -30 -7 -19 -36 -8 -36 14 0
32 26 43 36 16z"/>
<path d="M3152 2382 c-6 -2 -11 -18 -11 -35 l1 -32 7 29 c9 43 31 45 32 4 1
-22 3 -26 6 -11 2 12 11 27 18 33 16 13 18 10 29 -35 2 -11 4 -4 3 15 -2 32
-4 34 -37 35 -19 1 -41 0 -48 -3z"/>
<path d="M3278 2383 c-14 -3 -18 -15 -18 -49 0 -24 5 -44 10 -44 6 0 10 6 10
14 0 8 7 13 16 12 24 -2 41 30 28 51 -12 19 -22 22 -46 16z m37 -33 c0 -27
-22 -39 -31 -16 -8 22 3 49 19 43 6 -2 12 -14 12 -27z"/>
<path d="M3418 2383 c17 -7 15 -23 -3 -23 -8 0 -15 5 -15 12 0 9 -3 9 -11 1
-6 -6 -8 -20 -5 -31 8 -24 35 -37 49 -23 6 6 3 9 -8 8 -10 -1 -20 4 -22 11 -3
7 5 12 22 12 23 0 24 2 15 20 -6 11 -16 20 -23 19 -9 0 -9 -2 1 -6z"/>
<path d="M3522 2378 c-29 -29 -1 -71 39 -61 14 4 19 15 19 40 0 19 -4 32 -9
29 -4 -3 -6 -16 -4 -29 3 -16 -1 -26 -11 -30 -22 -9 -33 20 -17 44 13 21 2 26
-17 7z"/>
<path d="M3703 2383 c-18 -7 -16 -60 2 -67 8 -3 22 -3 30 0 20 8 19 60 -1 68
-9 3 -16 6 -17 5 -1 0 -8 -3 -14 -6z m32 -33 c0 -27 -22 -39 -31 -16 -8 22 3
49 19 43 6 -2 12 -14 12 -27z"/>
<path d="M3823 2383 c-19 -7 -16 -60 3 -67 9 -3 23 -2 32 4 14 8 13 9 -7 7
-13 -1 -26 4 -28 11 -3 7 5 12 21 12 28 0 33 9 14 28 -13 13 -16 13 -35 5z
m32 -13 c3 -5 -3 -10 -15 -10 -12 0 -18 5 -15 10 3 6 10 10 15 10 5 0 12 -4
15 -10z"/>
<path d="M4100 2361 c0 -21 -5 -31 -15 -31 -9 0 -15 9 -15 25 0 14 -4 25 -10
25 -13 0 -13 -43 1 -57 5 -5 21 -8 35 -5 19 3 24 11 24 33 0 15 -4 31 -10 34
-6 4 -10 -7 -10 -24z"/>
<path d="M4141 2350 c1 -24 3 -28 6 -12 3 13 11 26 19 29 21 8 17 19 -6 19
-16 0 -20 -6 -19 -36z"/>
<path d="M4200 2375 c-10 -12 -8 -17 14 -26 30 -14 24 -33 -7 -24 -18 5 -19 4
-5 -5 19 -12 48 -3 48 15 0 8 -9 17 -20 20 -11 3 -20 11 -20 16 0 6 9 7 21 4
15 -5 19 -4 15 4 -10 15 -31 14 -46 -4z"/>
<path d="M4283 2383 c-12 -4 -19 -63 -9 -63 2 0 11 -3 19 -6 14 -5 47 20 47
36 0 11 -29 40 -38 39 -4 0 -13 -3 -19 -6z m37 -34 c0 -12 -7 -19 -20 -19 -22
0 -29 35 -7 43 18 6 27 -2 27 -24z"/>
<path d="M4350 2380 c0 -5 5 -10 11 -10 5 0 7 5 4 10 -3 6 -8 10 -11 10 -2 0
-4 -4 -4 -10z"/>
<path d="M2882 2138 c6 -18 28 -21 28 -4 0 9 -7 16 -16 16 -9 0 -14 -5 -12
-12z"/>
<path d="M3310 2121 c0 -28 -2 -29 -35 -24 -30 5 -36 2 -46 -21 -9 -19 -10
-35 -3 -54 8 -24 15 -27 57 -28 l47 -2 0 79 c0 46 -4 79 -10 79 -5 0 -10 -13
-10 -29z m-5 -60 c9 -29 -5 -52 -29 -49 -37 5 -34 68 3 68 11 0 22 -8 26 -19z"/>
<path d="M3680 2121 c0 -25 -3 -28 -25 -23 -34 6 -55 -14 -55 -53 0 -42 16
-54 68 -53 l42 0 0 79 c0 64 -3 79 -15 79 -10 0 -15 -10 -15 -29z m-5 -76 c0
-23 -5 -31 -21 -33 -24 -3 -38 20 -28 50 4 13 13 18 27 16 17 -2 22 -10 22
-33z"/>
<path d="M2120 2071 c0 -78 -6 -101 -26 -101 -8 0 -14 -5 -14 -11 0 -6 12 -9
28 -7 l27 3 3 93 c2 59 -1 92 -8 92 -6 0 -10 -28 -10 -69z"/>
<path d="M3090 2116 c0 -8 -6 -17 -12 -19 -10 -4 -10 -8 -1 -14 6 -4 13 -26
15 -48 3 -35 6 -40 31 -43 15 -2 27 1 27 7 0 6 -7 11 -15 11 -10 0 -15 11 -15
35 0 24 5 35 15 35 8 0 15 5 15 10 0 6 -7 10 -15 10 -8 0 -15 7 -15 15 0 8 -7
15 -15 15 -8 0 -15 -6 -15 -14z"/>
<path d="M2178 2074 c-8 -17 -9 -34 -2 -52 8 -24 15 -27 57 -28 l47 -2 0 52 0
52 -45 2 c-40 1 -47 -2 -57 -24z m72 -9 c18 -22 3 -57 -23 -53 -22 3 -33 28
-23 54 7 18 30 18 46 -1z"/>
<path d="M2323 2048 c24 -55 50 -73 60 -41 2 10 12 35 21 56 14 31 14 37 2 37
-8 0 -20 -16 -26 -35 -6 -19 -15 -35 -19 -35 -4 0 -13 16 -20 35 -7 19 -19 35
-26 35 -12 0 -10 -11 8 -52z"/>
<path d="M2442 2088 c-16 -16 -15 -73 1 -86 7 -6 32 -11 55 -10 l42 0 0 53 0
52 -43 1 c-24 1 -49 -4 -55 -10z m63 -43 c0 -23 -5 -31 -21 -33 -24 -3 -38 20
-28 50 4 13 13 18 27 16 17 -2 22 -10 22 -33z"/>
<path d="M2583 2093 c-25 -9 -14 -44 17 -54 17 -6 30 -15 30 -20 0 -5 -13 -9
-30 -9 -16 0 -30 -4 -30 -10 0 -5 18 -10 39 -10 31 0 41 4 46 20 9 27 1 36
-35 44 -19 3 -29 10 -24 17 3 6 17 9 30 6 16 -3 24 0 24 9 0 14 -41 18 -67 7z"/>
<path d="M2696 2084 c-18 -18 -20 -47 -6 -75 12 -22 80 -28 80 -6 0 7 -12 13
-27 12 -24 0 -28 4 -28 30 0 26 4 30 28 30 15 -1 27 5 27 12 0 18 -55 16 -74
-3z"/>
<path d="M2800 2043 c0 -40 4 -53 15 -53 11 0 15 11 15 41 0 32 4 42 20 46 32
9 23 21 -15 20 l-35 -1 0 -53z"/>
<path d="M2890 2045 c0 -30 5 -55 10 -55 6 0 10 25 10 55 0 30 -4 55 -10 55
-5 0 -10 -25 -10 -55z"/>
<path d="M2940 2019 c0 -64 3 -79 15 -79 10 0 15 10 15 28 0 26 3 28 33 24 30
-3 35 0 47 27 10 26 10 35 -4 56 -13 20 -24 24 -61 23 l-45 -1 0 -78z m86 35
c8 -30 -6 -47 -32 -42 -35 6 -30 68 5 68 14 0 23 -9 27 -26z"/>
<path d="M3376 2084 c-18 -18 -20 -47 -6 -75 8 -14 21 -19 50 -19 47 0 54 17
8 22 -46 4 -49 28 -4 28 28 0 36 4 36 18 0 40 -54 57 -84 26z m62 -21 c2 -8
-6 -13 -22 -13 -17 0 -26 5 -26 16 0 19 41 16 48 -3z"/>
<path d="M3497 2093 c-17 -17 -5 -45 23 -56 40 -15 38 -27 -6 -27 -21 0 -33
-4 -29 -10 10 -15 71 -12 85 5 15 19 -1 42 -32 47 -12 2 -23 9 -26 17 -3 10 3
12 27 9 21 -3 31 0 31 9 0 14 -61 19 -73 6z"/>
<path d="M3752 2088 c-7 -7 -12 -26 -12 -43 0 -17 5 -36 12 -43 15 -15 74 -16
83 -2 4 6 -8 10 -28 10 -22 0 -37 6 -41 15 -4 12 3 15 34 15 41 0 47 8 30 41
-12 22 -59 26 -78 7z m63 -23 c0 -5 -10 -11 -22 -13 -16 -2 -23 2 -23 13 0 11
7 15 23 13 12 -2 22 -7 22 -13z"/>
<path d="M3936 2084 c-18 -18 -20 -47 -6 -75 12 -22 80 -28 80 -6 0 7 -12 13
-27 12 -24 0 -28 4 -28 30 0 26 4 30 28 30 15 -1 27 5 27 12 0 18 -55 16 -74
-3z"/>
<path d="M4046 2084 c-18 -18 -20 -47 -6 -75 8 -14 21 -19 50 -19 47 0 54 17
8 22 -46 4 -49 28 -4 28 28 0 36 4 36 18 0 40 -54 57 -84 26z m62 -21 c2 -8
-6 -13 -22 -13 -17 0 -26 5 -26 16 0 19 41 16 48 -3z"/>
<path d="M4160 2043 c0 -40 4 -53 15 -53 11 0 15 11 15 41 0 32 4 42 20 46 32
9 23 21 -15 20 l-35 -1 0 -53z"/>
<path d="M4252 2088 c-7 -7 -12 -26 -12 -43 0 -40 16 -55 57 -55 49 0 72 59
37 94 -18 19 -65 21 -82 4z m63 -43 c0 -23 -5 -31 -21 -33 -24 -3 -38 20 -28
50 4 13 13 18 27 16 17 -2 22 -10 22 -33z"/>
<path d="M2910 1650 c0 -49 1 -50 29 -50 30 0 61 22 61 43 0 28 -32 57 -61 57
-28 0 -29 -1 -29 -50z m58 31 c8 -5 12 -21 10 -37 -2 -23 -9 -30 -30 -32 -26
-3 -28 -1 -28 31 0 46 16 59 48 38z"/>
<path d="M3022 1638 c-2 -36 0 -38 28 -38 28 0 30 2 29 38 l-1 37 -9 -32 c-5
-18 -16 -33 -24 -33 -8 0 -15 13 -18 33 -4 31 -4 31 -5 -5z"/>
<path d="M3101 1630 c1 -27 3 -29 6 -10 2 14 11 30 20 37 13 10 13 12 -6 10
-17 -1 -21 -7 -20 -37z"/>
<path d="M3154 1656 c-12 -31 1 -51 34 -54 30 -3 32 -2 32 30 0 30 -3 34 -30
36 -19 1 -33 -3 -36 -12z m49 -8 c6 -19 -3 -38 -18 -38 -18 0 -28 17 -21 35 7
18 33 20 39 3z"/>
<path d="M3244 1656 c-11 -28 1 -51 26 -53 22 -1 22 -1 3 4 -15 3 -23 12 -23
24 0 11 10 24 23 29 l22 9 -23 0 c-12 1 -25 -5 -28 -13z"/>
<path d="M3313 1635 c0 -22 2 -30 4 -17 2 12 2 30 0 40 -3 9 -5 -1 -4 -23z"/>
<path d="M3351 1656 c-21 -25 -4 -58 27 -54 23 2 27 8 27 33 0 23 -5 31 -21
33 -11 2 -26 -4 -33 -12z m47 -19 c4 -21 -27 -35 -38 -17 -12 19 0 42 19 38 9
-2 17 -11 19 -21z"/>
<path d="M3431 1631 c1 -36 1 -36 8 -6 8 40 38 46 44 8 4 -28 4 -28 3 2 -1 26
-5 30 -28 31 -26 1 -28 -2 -27 -35z"/>
<path d="M3103 1513 c-7 -2 -13 -9 -13 -14 0 -6 5 -7 10 -4 6 4 10 -8 10 -29
0 -19 -6 -37 -12 -39 -7 -3 3 -5 22 -5 19 0 29 2 23 5 -8 3 -13 23 -13 49 0
43 -3 47 -27 37z"/>
<path d="M3175 1508 c-3 -7 -6 -29 -7 -48 -3 -33 -1 -35 28 -38 37 -4 45 10
35 59 -5 25 -13 35 -29 37 -12 2 -24 -3 -27 -10z m43 -16 c2 -7 -6 -12 -17
-12 -21 0 -27 11 -14 24 9 9 26 2 31 -12z m2 -47 c0 -8 -9 -15 -20 -15 -11 0
-20 7 -20 15 0 8 9 15 20 15 11 0 20 -7 20 -15z"/>
<path d="M3290 1470 c0 -52 16 -70 22 -23 4 39 28 42 28 4 0 -17 5 -31 11 -31
6 0 9 14 7 33 -2 26 -7 32 -25 31 -16 0 -23 5 -23 18 0 10 -4 18 -10 18 -5 0
-10 -22 -10 -50z"/>
<path d="M4416 962 c-3 -5 1 -9 9 -9 8 0 15 4 15 9 0 4 -4 8 -9 8 -6 0 -12 -4
-15 -8z"/>
<path d="M2920 890 l0 -60 55 0 55 0 0 60 0 60 -55 0 -55 0 0 -60z m90 0 l0
-40 -40 0 -40 0 0 40 0 40 40 0 40 0 0 -40z"/>
<path d="M2950 884 c0 -21 4 -25 23 -22 14 2 23 11 25 26 3 18 -1 22 -22 22
-21 0 -26 -5 -26 -26z"/>
<path d="M3050 925 c0 -16 6 -25 15 -25 8 0 15 7 15 15 0 8 4 15 9 15 5 0 11
-7 15 -15 3 -9 0 -15 -9 -15 -9 0 -15 -9 -15 -22 l1 -23 18 23 c11 12 26 22
35 22 9 0 16 6 16 14 0 15 -27 29 -40 21 -5 -3 -11 -1 -15 5 -3 5 -15 10 -26
10 -14 0 -19 -7 -19 -25z m80 -5 c0 -5 -4 -10 -10 -10 -5 0 -10 5 -10 10 0 6
5 10 10 10 6 0 10 -4 10 -10z"/>
<path d="M3171 934 c-7 -8 -10 -18 -6 -22 4 -4 10 -1 12 6 3 6 11 12 19 12 8
0 14 5 14 10 0 15 -23 11 -39 -6z"/>
<path d="M3235 886 c4 -50 2 -68 -10 -80 -8 -8 -15 -20 -15 -27 0 -7 -6 -4
-15 7 -8 11 -15 14 -15 7 0 -7 -7 -13 -15 -13 -13 0 -15 -7 -9 -37 4 -21 12
-41 18 -45 7 -5 6 -8 -4 -8 -8 0 -22 5 -30 10 -13 9 -13 11 0 21 13 9 12 10
-3 5 -10 -3 -34 -6 -53 -6 -32 0 -34 -2 -34 -35 0 -28 -4 -35 -20 -35 -10 0
-24 -8 -29 -17 -9 -16 -12 -16 -21 -3 -12 18 -13 1 -1 -19 6 -9 10 -10 16 -2
5 9 10 9 21 0 10 -8 14 -8 14 0 0 6 -4 11 -10 11 -21 0 -9 18 15 22 23 5 25 3
20 -31 -2 -20 -9 -37 -15 -39 -15 -5 8 -32 26 -32 8 0 14 -4 14 -10 0 -14 -27
-12 -33 3 -4 9 -8 8 -16 -3 -5 -8 -14 -11 -18 -6 -4 5 -2 11 5 13 15 6 16 23
1 23 -10 0 -39 -24 -39 -33 0 -3 11 -8 25 -11 24 -6 35 -26 14 -26 -5 0 -7 -5
-4 -10 4 -7 14 -3 25 10 9 11 22 20 27 20 6 0 16 7 23 15 9 10 9 15 1 15 -6 0
-11 11 -11 25 0 14 5 25 11 25 17 0 39 -27 39 -49 0 -11 7 -21 15 -23 11 -2
12 -7 4 -18 -8 -11 -12 -12 -16 -2 -6 16 -21 15 -39 -2 -20 -21 -17 -28 6 -14
17 11 22 10 30 -2 9 -13 11 -13 20 0 10 13 11 13 9 0 -5 -49 16 -56 24 -7 3
22 0 36 -10 44 -14 11 -14 14 0 27 21 21 27 20 27 -4 0 -11 7 -23 15 -26 8 -4
15 -13 15 -20 0 -8 -7 -17 -15 -20 -20 -8 -19 -34 1 -34 14 0 14 -3 4 -15 -10
-12 -10 -15 4 -15 9 0 16 -7 16 -15 0 -8 9 -15 20 -15 11 0 20 -6 20 -12 0
-10 3 -9 9 1 5 7 22 15 37 17 16 1 30 8 32 13 5 14 52 15 52 1 0 -5 -16 -12
-35 -16 -37 -7 -48 -24 -16 -24 11 0 22 -6 25 -12 3 -7 3 -3 1 8 -4 15 0 23
12 27 10 4 26 12 35 19 9 7 21 8 25 4 4 -5 2 -11 -4 -13 -7 -3 -13 -11 -13
-19 0 -8 -7 -14 -15 -14 -8 0 -15 -4 -15 -10 0 -14 27 -12 33 3 4 9 8 8 16 -3
7 -10 11 -11 11 -2 0 16 37 16 43 0 2 -7 5 14 5 47 0 40 -5 66 -16 78 -14 15
-14 17 1 17 10 0 17 7 17 15 0 8 -7 15 -15 15 -8 0 -15 6 -15 13 0 7 -7 4 -15
-7 -13 -17 -15 -18 -15 -3 0 9 -4 17 -10 17 -10 0 -13 -11 -11 -40 0 -10 -1
-11 -5 -2 -3 6 -16 12 -30 12 -17 0 -22 4 -18 15 4 8 17 15 29 15 13 0 27 5
30 10 3 5 15 10 27 10 17 0 18 2 8 15 -11 13 -15 13 -22 3 -6 -10 -10 -10 -18
2 -8 13 -10 12 -10 -4 0 -16 -6 -18 -45 -14 -42 5 -45 4 -45 -18 0 -13 5 -24
10 -24 6 0 10 -11 10 -24 0 -13 6 -26 13 -29 10 -4 10 -7 0 -18 -10 -9 -13
-10 -13 -1 0 7 -16 12 -41 12 -32 0 -40 -3 -35 -15 3 -9 0 -15 -9 -15 -8 0
-15 -4 -15 -10 0 -5 -4 -10 -10 -10 -5 0 -10 7 -10 15 0 8 5 15 10 15 15 0 12
41 -4 59 -11 12 -12 21 -5 31 8 11 12 12 16 3 8 -21 33 -15 33 7 0 12 -7 20
-17 20 -15 0 -16 2 -3 10 13 8 12 12 -8 25 -19 14 -20 18 -8 31 21 20 23 18
30 -26 3 -22 11 -40 16 -40 16 0 12 -46 -5 -60 -8 -7 -15 -18 -15 -24 0 -6 5
-4 11 4 8 11 12 12 16 3 6 -15 33 -17 33 -3 0 6 -7 10 -15 10 -8 0 -15 5 -15
10 0 6 6 10 14 10 9 0 12 8 8 28 -3 15 -8 29 -12 32 -10 8 -40 77 -40 94 0 9
-4 16 -10 16 -5 0 -10 -9 -10 -21 0 -14 -5 -19 -13 -16 -8 3 -20 1 -28 -4 -12
-8 -12 -10 1 -19 9 -6 10 -10 3 -10 -6 0 -14 4 -17 8 -9 15 6 52 20 52 8 0 14
7 14 15 0 9 9 15 24 15 13 0 27 6 29 13 4 9 8 8 16 -3 7 -10 25 -14 55 -12 27
1 46 -3 46 -9 0 -6 7 -17 15 -25 13 -14 15 -13 15 9 0 23 -27 57 -46 57 -5 0
-10 21 -10 48 -1 26 1 35 3 20 2 -16 9 -28 14 -28 5 0 9 -9 9 -20 0 -11 7 -20
15 -20 11 0 14 7 9 25 -5 21 -3 25 14 25 11 0 22 6 24 12 3 9 10 7 23 -6 19
-18 19 -18 -2 -12 -18 6 -25 1 -39 -30 -16 -34 -16 -37 0 -46 11 -6 15 -16 11
-29 -4 -13 -2 -19 9 -19 9 0 16 5 16 10 0 6 6 10 14 10 8 0 14 11 14 26 0 17
-3 22 -8 13 -6 -9 -12 -9 -24 4 -9 8 -16 20 -16 26 0 15 37 14 43 -1 3 -7 5 8
4 35 -1 37 -5 47 -19 47 -9 0 -20 -5 -23 -10 -4 -6 -11 -7 -17 -4 -6 4 -17 -1
-24 -11 -16 -21 -15 -22 -37 25 -9 20 -17 27 -17 18 0 -11 -8 -18 -20 -18 -22
0 -27 -15 -7 -24 10 -5 10 -7 0 -12 -15 -7 -17 -34 -3 -34 6 0 10 -4 10 -10 0
-5 -7 -10 -15 -10 -10 0 -15 11 -15 35 0 19 -4 35 -10 35 -5 0 -10 7 -10 16 0
9 -6 14 -13 11 -18 -7 -44 9 -33 20 5 4 11 2 13 -5 4 -10 8 -10 19 -1 10 8 14
8 14 0 0 -6 5 -11 10 -11 6 0 10 7 10 15 0 9 -9 15 -25 15 -22 0 -25 4 -25 35
0 24 5 35 15 35 9 0 15 -9 15 -22 0 -15 9 -27 25 -35 14 -6 25 -7 25 -2 0 5
-5 9 -12 9 -9 0 -9 3 0 12 18 18 15 58 -4 58 -11 0 -14 -6 -8 -22 l6 -23 -19
23 c-14 15 -32 22 -57 22 l-37 0 6 -64z m21 17 c-10 -10 -19 5 -10 18 6 11 8
11 12 0 2 -7 1 -15 -2 -18z m4 -33 c0 -5 -4 -10 -10 -10 -5 0 -10 5 -10 10 0
6 5 10 10 10 6 0 10 -4 10 -10z m10 -90 c5 0 10 3 13 8 2 4 2 1 1 -5 -2 -7 3
-13 11 -13 8 0 15 -4 15 -10 0 -5 -4 -10 -10 -10 -5 0 -10 -7 -10 -15 0 -11
-11 -15 -40 -15 -38 0 -54 -13 -27 -23 8 -4 7 -6 -3 -6 -23 -1 -48 19 -32 26
6 2 12 11 12 19 0 17 31 19 48 2 9 -9 12 -6 12 15 0 17 -5 27 -15 27 -18 0
-19 12 -2 29 10 10 13 8 15 -8 2 -12 7 -21 12 -21z m-90 -20 c0 -5 -4 -10 -10
-10 -5 0 -10 5 -10 10 0 6 5 10 10 10 6 0 10 -4 10 -10z m-40 -70 c13 -8 13
-11 1 -19 -11 -7 -6 -17 24 -45 20 -20 45 -36 56 -36 10 0 19 -4 19 -10 0 -5
-7 -10 -16 -10 -14 0 -14 -3 -4 -15 8 -10 9 -15 1 -15 -6 0 -13 11 -17 24 -6
25 -29 40 -45 30 -5 -3 -9 2 -9 10 0 9 -4 16 -10 16 -5 0 -10 -4 -10 -10 0 -5
-11 -10 -25 -10 -14 0 -25 5 -25 10 0 6 11 10 25 10 28 0 30 7 12 42 -11 22
-14 23 -26 10 -12 -12 -12 -15 0 -23 8 -5 10 -9 4 -9 -5 0 -17 4 -25 10 -12 7
-10 12 9 29 27 23 39 25 61 11z m60 -13 c0 -14 -20 -37 -32 -37 -12 0 -10 19
5 35 15 18 27 19 27 2z m-20 -177 c0 -5 -4 -10 -10 -10 -5 0 -10 5 -10 10 0 6
5 10 10 10 6 0 10 -4 10 -10z m260 -50 c0 -15 -7 -20 -25 -20 -18 0 -25 5 -25
20 0 15 7 20 25 20 18 0 25 -5 25 -20z m70 -6 c0 -8 -4 -14 -10 -14 -5 0 -10
-11 -10 -25 0 -31 -16 -33 -24 -2 -13 48 -8 65 19 59 14 -2 25 -11 25 -18z
m-172 -22 c2 -7 -3 -12 -12 -12 -9 0 -16 7 -16 16 0 17 22 14 28 -4z m-48 -27
c0 -9 -6 -12 -15 -9 -8 4 -15 10 -15 15 0 5 7 9 15 9 8 0 15 -7 15 -15z"/>
<path d="M3410 890 l0 -60 55 0 55 0 0 60 0 60 -55 0 -55 0 0 -60z m100 0 l0
-40 -40 0 -40 0 0 40 0 40 40 0 40 0 0 -40z"/>
<path d="M3442 888 c2 -15 11 -24 26 -26 18 -3 22 1 22 22 0 21 -5 26 -26 26
-21 0 -25 -4 -22 -22z"/>
<path d="M4384 918 l-19 -23 23 19 c12 11 22 21 22 23 0 8 -8 2 -26 -19z"/>
<path d="M4400 900 c-6 -11 -8 -20 -6 -20 3 0 10 9 16 20 6 11 8 20 6 20 -3 0
-10 -9 -16 -20z"/>
<path d="M4537 906 c-4 -10 -3 -15 3 -11 6 3 10 1 10 -6 0 -7 3 -10 6 -6 3 3
2 13 -4 22 -8 16 -9 16 -15 1z"/>
<path d="M3382 885 c0 -16 2 -22 5 -12 2 9 2 23 0 30 -3 6 -5 -1 -5 -18z"/>
<path d="M4661 883 c-10 -25 -10 -26 3 -10 10 14 15 15 19 5 3 -7 6 -3 6 10 1
30 -13 28 -28 -5z"/>
<path d="M3173 885 c-7 -8 -13 -18 -13 -23 0 -5 -11 -7 -25 -4 -18 3 -25 0
-25 -12 0 -19 16 -21 24 -3 3 8 8 7 16 -5 14 -23 80 -25 80 -3 0 18 -16 20
-24 3 -4 -7 -4 4 -2 25 5 39 -8 49 -31 22z m7 -45 c0 -5 -4 -10 -10 -10 -5 0
-10 5 -10 10 0 6 5 10 10 10 6 0 10 -4 10 -10z"/>
<path d="M3080 835 c0 -12 -13 -15 -55 -15 -48 0 -55 -3 -55 -19 0 -11 -6 -22
-12 -24 -10 -4 -10 -6 0 -6 7 -1 10 -6 6 -12 -4 -8 -9 -7 -15 2 -8 12 -11 11
-19 -1 -20 -31 -7 -170 16 -170 8 0 14 -4 14 -10 0 -5 -9 -10 -20 -10 -18 0
-20 -6 -19 -52 1 -29 4 -43 6 -30 6 28 23 29 23 0 0 -16 3 -19 11 -11 6 6 18
9 25 6 20 -7 17 17 -3 32 -17 12 -17 14 1 34 11 12 25 21 33 21 7 0 13 5 13
10 0 6 -10 10 -23 10 -30 0 -57 33 -57 69 0 25 4 29 40 35 39 6 52 20 28 29
-10 4 -10 6 0 6 6 1 12 6 12 12 0 7 -9 9 -24 5 -18 -4 -25 -1 -29 15 -5 17 -2
20 21 16 15 -2 21 -2 15 0 -7 3 -13 9 -13 14 0 14 28 11 33 -3 4 -10 8 -9 16
2 7 9 11 11 11 3 0 -7 -8 -16 -17 -21 -15 -9 -15 -11 -1 -26 20 -19 34 -20 42
-3 5 9 7 9 12 0 4 -10 9 -10 20 1 23 23 17 39 -11 32 -22 -6 -25 -3 -25 19 0
14 5 25 10 25 6 0 10 -5 10 -12 0 -6 2 -9 5 -7 7 8 -6 49 -16 49 -5 0 -9 -7
-9 -15z m-80 -125 c0 -5 -9 -10 -19 -10 -11 0 -26 -3 -35 -6 -11 -4 -16 -1
-16 10 0 12 10 16 35 16 19 0 35 -4 35 -10z m-50 -180 c0 -5 -4 -10 -10 -10
-5 0 -10 5 -10 10 0 6 5 10 10 10 6 0 10 -4 10 -10z"/>
<path d="M3337 836 c-4 -10 -1 -13 9 -9 15 6 19 23 5 23 -5 0 -11 -7 -14 -14z"/>
<path d="M4300 791 c-11 -22 -24 -43 -30 -46 -6 -3 -19 -24 -30 -45 l-19 -38
30 15 c23 11 34 12 42 4 6 -6 18 -11 27 -11 10 1 8 5 -7 13 l-23 12 22 35 c11
19 23 30 25 23 2 -6 -3 -23 -12 -36 -15 -23 -14 -25 5 -30 12 -3 35 -1 53 4
43 12 47 12 41 -6 -4 -8 -18 -15 -33 -16 -23 0 -24 -1 -6 -9 15 -6 24 -3 36
10 9 11 27 21 40 24 13 3 46 13 72 23 39 15 49 16 56 5 7 -11 9 -11 14 2 4 9
2 17 -3 17 -6 1 -16 2 -22 3 -7 1 -20 -2 -28 -8 -12 -8 -13 -8 -2 4 19 22 14
29 -15 24 -42 -7 -53 -12 -53 -25 0 -8 5 -7 17 2 14 12 16 12 11 -1 -2 -8 -14
-16 -26 -16 -22 -1 -21 7 5 37 11 13 11 16 -2 16 -8 0 -17 -8 -20 -17 -3 -10
-15 -26 -27 -36 -21 -19 -21 -19 -9 6 l12 25 -20 -23 c-11 -13 -25 -21 -31
-17 -5 3 -10 1 -10 -4 0 -6 -4 -11 -10 -11 -5 0 -7 7 -4 15 3 8 -5 25 -19 39
-23 23 -23 26 -8 42 14 16 13 16 -6 0 -25 -21 -29 -16 -13 15 6 10 8 19 6 19
-3 0 -15 -18 -26 -39z m-4 -66 c-16 -20 -30 -34 -33 -32 -7 7 17 51 34 60 7 5
10 14 7 20 -5 9 -4 9 6 0 11 -10 8 -19 -14 -48z m57 -10 c-3 -9 -8 -14 -10
-11 -3 3 -2 9 2 15 9 16 15 13 8 -4z"/>
<path d="M2920 801 c0 -12 6 -21 15 -21 8 0 15 3 15 6 0 3 -7 12 -15 20 -13
14 -15 13 -15 -5z"/>
<path d="M4612 784 c-7 -14 -16 -23 -21 -19 -5 3 -12 2 -15 -3 -2 -4 3 -8 13
-9 18 -2 50 42 39 52 -2 3 -10 -6 -16 -21z"/>
<path d="M4405 750 c-4 -6 -11 -8 -16 -5 -5 4 -9 2 -9 -4 0 -20 19 -21 30 -1
11 20 7 29 -5 10z"/>
<path d="M4673 743 c15 -2 37 -2 50 0 12 2 0 4 -28 4 -27 0 -38 -2 -22 -4z"/>
<path d="M2092 700 c0 -19 2 -27 5 -17 2 9 2 25 0 35 -3 9 -5 1 -5 -18z"/>
<path d="M2288 705 c3 -17 -1 -31 -9 -37 -12 -8 -11 -9 1 -5 18 4 26 45 12 59
-6 6 -8 0 -4 -17z"/>
<path d="M1772 685 c0 -16 2 -22 5 -12 2 9 2 23 0 30 -3 6 -5 -1 -5 -18z"/>
<path d="M2055 699 c-4 -6 -5 -12 -2 -15 2 -3 7 2 10 11 7 17 1 20 -8 4z"/>
<path d="M2251 694 c0 -11 3 -14 6 -6 3 7 2 16 -1 19 -3 4 -6 -2 -5 -13z"/>
<path d="M1691 684 c0 -11 3 -14 6 -6 3 7 2 16 -1 19 -3 4 -6 -2 -5 -13z"/>
<path d="M2212 688 c-18 -18 -14 -28 11 -27 17 1 18 2 4 6 -14 4 -16 8 -6 19
14 17 8 19 -9 2z"/>
<path d="M2332 688 c-18 -18 -14 -28 11 -27 17 1 18 2 4 6 -14 4 -16 8 -6 19
14 17 8 19 -9 2z"/>
<path d="M2405 688 c4 -11 0 -18 -12 -21 -15 -4 -16 -5 -1 -6 22 -1 33 18 19
32 -9 9 -11 8 -6 -5z"/>
<path d="M3015 680 c-3 -5 -1 -10 4 -10 6 0 11 5 11 10 0 6 -2 10 -4 10 -3 0
-8 -4 -11 -10z"/>
<path d="M3297 684 c-3 -3 0 -12 6 -19 12 -13 37 -2 37 16 0 10 -33 12 -43 3z"/>
<path d="M3360 671 c0 -11 -5 -21 -12 -23 -7 -3 -13 -22 -15 -44 -2 -29 0 -35
8 -24 8 11 12 12 16 3 7 -20 36 -16 29 3 -5 14 2 15 56 10 34 -4 66 -12 70
-19 6 -9 8 -9 8 1 0 7 -11 17 -24 21 -13 5 -26 19 -29 30 -6 25 -27 28 -28 4
0 -14 -2 -15 -6 -3 -7 16 -29 40 -37 40 -12 0 -6 -28 7 -33 6 -2 8 -8 4 -13
-4 -5 -12 -2 -17 6 -7 10 -10 11 -10 3 0 -7 -9 -13 -20 -13 -11 0 -20 5 -20
10 0 6 9 10 20 10 11 0 20 4 20 9 0 5 3 16 6 25 4 11 1 16 -10 16 -9 0 -16 -8
-16 -19z"/>
<path d="M4581 674 c0 -11 3 -14 6 -6 3 7 2 16 -1 19 -3 4 -6 -2 -5 -13z"/>
<path d="M1977 669 c7 -7 15 -10 18 -7 3 3 -2 9 -12 12 -14 6 -15 5 -6 -5z"/>
<path d="M4498 673 c12 -2 30 -2 40 0 9 3 -1 5 -23 4 -22 0 -30 -2 -17 -4z"/>
<path d="M1498 663 c6 -2 18 -2 25 0 6 3 1 5 -13 5 -14 0 -19 -2 -12 -5z"/>
<path d="M1558 663 c6 -2 18 -2 25 0 6 3 1 5 -13 5 -14 0 -19 -2 -12 -5z"/>
<path d="M1926 653 c-6 -14 -5 -15 5 -6 7 7 10 15 7 18 -3 3 -9 -2 -12 -12z"/>
<path d="M4275 660 c3 -5 18 -10 32 -10 32 0 28 5 -10 14 -19 4 -26 3 -22 -4z"/>
<path d="M4220 650 l-25 -8 27 -1 c15 -1 30 4 33 9 7 11 0 11 -35 0z"/>
<path d="M3511 634 c0 -11 3 -14 6 -6 3 7 2 16 -1 19 -3 4 -6 -2 -5 -13z"/>
<path d="M1648 583 c172 -2 451 -2 620 0 169 1 28 2 -313 2 -341 0 -479 -1
-307 -2z"/>
<path d="M4178 583 c172 -2 451 -2 620 0 169 1 28 2 -313 2 -341 0 -479 -1
-307 -2z"/>
<path d="M1642 460 c0 -19 2 -27 5 -17 2 9 2 25 0 35 -3 9 -5 1 -5 -18z"/>
<path d="M4515 479 c-4 -6 -4 -13 -1 -16 3 -4 6 -1 6 5 0 6 8 13 18 15 15 4
15 5 0 6 -9 0 -20 -4 -23 -10z"/>
<path d="M1720 460 c-9 -6 -10 -10 -3 -10 6 0 15 5 18 10 8 12 4 12 -15 0z"/>
<path d="M1791 454 c0 -11 3 -14 6 -6 3 7 2 16 -1 19 -3 4 -6 -2 -5 -13z"/>
<path d="M1810 456 c0 -8 4 -17 9 -20 5 -4 7 3 4 14 -6 23 -13 26 -13 6z"/>
<path d="M1842 450 c0 -14 2 -19 5 -12 2 6 2 18 0 25 -3 6 -5 1 -5 -13z"/>
<path d="M2031 454 c0 -11 3 -14 6 -6 3 7 2 16 -1 19 -3 4 -6 -2 -5 -13z"/>
<path d="M2081 454 c0 -11 3 -14 6 -6 3 7 2 16 -1 19 -3 4 -6 -2 -5 -13z"/>
<path d="M2101 454 c0 -11 3 -14 6 -6 3 7 2 16 -1 19 -3 4 -6 -2 -5 -13z"/>
<path d="M2161 454 c0 -11 3 -14 6 -6 3 7 2 16 -1 19 -3 4 -6 -2 -5 -13z"/>
<path d="M2231 454 c0 -11 3 -14 6 -6 3 7 2 16 -1 19 -3 4 -6 -2 -5 -13z"/>
<path d="M3050 430 c0 -31 4 -40 17 -40 15 0 15 -1 0 -18 -10 -10 -17 -22 -17
-25 0 -12 28 -7 33 6 4 9 8 8 16 -3 8 -12 13 -12 23 -2 9 9 9 12 -4 12 -11 0
-15 10 -14 38 1 34 -1 37 -24 35 -14 -1 -19 1 -12 3 16 8 15 21 -3 28 -12 4
-15 -3 -15 -34z"/>
<path d="M4401 454 c0 -11 3 -14 6 -6 3 7 2 16 -1 19 -3 4 -6 -2 -5 -13z"/>
<path d="M4611 454 c0 -11 3 -14 6 -6 3 7 2 16 -1 19 -3 4 -6 -2 -5 -13z"/>
<path d="M4661 454 c0 -11 3 -14 6 -6 3 7 2 16 -1 19 -3 4 -6 -2 -5 -13z"/>
<path d="M4721 454 c0 -11 3 -14 6 -6 3 7 2 16 -1 19 -3 4 -6 -2 -5 -13z"/>
<path d="M1680 451 c0 -6 4 -13 10 -16 6 -3 7 1 4 9 -7 18 -14 21 -14 7z"/>
<path d="M2183 450 c2 -8 10 -15 17 -15 7 0 15 7 17 15 4 13 3 13 -6 0 -10
-13 -12 -13 -22 0 -9 13 -10 13 -6 0z"/>
<path d="M2920 400 l0 -60 55 0 55 0 0 60 0 60 -55 0 -55 0 0 -60z m90 0 l0
-40 -40 0 -40 0 0 40 0 40 40 0 40 0 0 -40z"/>
<path d="M2950 406 c0 -21 5 -26 26 -26 21 0 25 4 22 23 -2 14 -11 23 -25 25
-19 3 -23 -1 -23 -22z"/>
<path d="M3130 446 c0 -8 5 -18 10 -21 6 -3 10 -14 10 -24 0 -10 8 -27 18 -38
14 -16 21 -18 36 -9 14 8 20 8 23 -1 6 -15 33 -17 33 -3 0 6 -7 10 -15 10 -8
0 -15 5 -15 10 0 14 -28 12 -32 -2 -7 -19 -38 16 -38 40 0 27 -10 52 -21 52
-5 0 -9 -6 -9 -14z"/>
<path d="M4563 450 c2 -8 10 -15 17 -15 7 0 15 7 17 15 4 13 3 13 -6 0 -10
-13 -12 -13 -22 0 -9 13 -10 13 -6 0z"/>
<path d="M4248 433 c7 -3 16 -2 19 1 4 3 -2 6 -13 5 -11 0 -14 -3 -6 -6z"/>
<path d="M3180 420 c0 -5 5 -10 11 -10 5 0 7 5 4 10 -3 6 -8 10 -11 10 -2 0
-4 -4 -4 -10z"/>
<path d="M4035 380 c-3 -6 1 -7 9 -4 18 7 21 14 7 14 -6 0 -13 -4 -16 -10z"/>
<path d="M4565 379 c-4 -6 -5 -12 -2 -15 2 -3 7 2 10 11 7 17 1 20 -8 4z"/>
<path d="M4171 354 c0 -11 3 -14 6 -6 3 7 2 16 -1 19 -3 4 -6 -2 -5 -13z"/>
<path d="M4291 354 c0 -11 3 -14 6 -6 3 7 2 16 -1 19 -3 4 -6 -2 -5 -13z"/>
<path d="M4310 356 c0 -8 4 -17 9 -20 5 -4 7 3 4 14 -6 23 -13 26 -13 6z"/>
<path d="M4342 350 c0 -14 2 -19 5 -12 2 6 2 18 0 25 -3 6 -5 1 -5 -13z"/>
<path d="M4451 354 c0 -11 3 -14 6 -6 3 7 2 16 -1 19 -3 4 -6 -2 -5 -13z"/>
<path d="M4480 356 c0 -8 4 -17 9 -20 5 -4 7 3 4 14 -6 23 -13 26 -13 6z"/>
<path d="M4512 350 c0 -14 2 -19 5 -12 2 6 2 18 0 25 -3 6 -5 1 -5 -13z"/>
<path d="M4811 354 c0 -11 3 -14 6 -6 3 7 2 16 -1 19 -3 4 -6 -2 -5 -13z"/>
<path d="M4123 350 c2 -8 10 -15 17 -15 7 0 15 7 17 15 4 13 3 13 -6 0 -10
-13 -12 -13 -22 0 -9 13 -10 13 -6 0z"/>
<path d="M4740 351 c0 -6 4 -13 10 -16 6 -3 7 1 4 9 -7 18 -14 21 -14 7z"/>
<path d="M4037 339 c7 -7 15 -10 18 -7 3 3 -2 9 -12 12 -14 6 -15 5 -6 -5z"/>
<path d="M4090 340 c-9 -6 -10 -10 -3 -10 6 0 15 5 18 10 8 12 4 12 -15 0z"/>
<path d="M4420 340 c-9 -6 -10 -10 -3 -10 6 0 15 5 18 10 8 12 4 12 -15 0z"/>
</g>
</svg>
