<?xml version="1.0" standalone="no"?>
<!DOCTYPE svg PUBLIC "-//W3C//DTD SVG 20010904//EN"
 "http://www.w3.org/TR/2001/REC-SVG-20010904/DTD/svg10.dtd">
<svg version="1.0" xmlns="http://www.w3.org/2000/svg"
 width="300.000000pt" height="367.000000pt" viewBox="0 0 300.000000 367.000000"
 preserveAspectRatio="xMidYMid meet">
<metadata>
Created by potrace 1.10, written by Peter Selinger 2001-2011
</metadata>
<g transform="translate(0.000000,367.000000) scale(0.100000,-0.100000)"
fill="#000000" stroke="none">
<path d="M875 3597 c-115 -45 -163 -173 -119 -323 8 -30 19 -54 24 -54 5 0 25
7 44 16 19 9 41 14 50 11 24 -9 20 -59 -9 -101 -13 -20 -22 -36 -19 -36 2 0
26 11 53 24 49 26 81 70 81 116 0 12 11 46 25 77 14 30 32 81 39 112 19 81 5
119 -54 148 -51 25 -72 27 -115 10z m110 -59 c25 -19 27 -26 22 -67 -3 -25
-19 -80 -35 -121 -16 -41 -32 -84 -36 -94 -6 -18 -8 -17 -35 8 -23 22 -36 27
-66 24 -36 -3 -39 -1 -48 32 -12 44 -3 129 17 168 34 66 127 92 181 50z"/>
<path d="M999 3071 c-55 -21 -240 -122 -287 -156 -99 -72 -132 -118 -107 -151
12 -16 17 -17 34 -6 12 6 26 12 32 12 16 0 172 79 233 119 50 31 76 39 76 22
0 -5 -37 -40 -82 -77 -124 -101 -208 -188 -208 -212 0 -31 19 -27 81 17 59 42
147 91 200 111 36 14 83 32 112 45 10 4 17 3 17 -3 0 -17 -76 -84 -153 -134
-135 -89 -183 -141 -157 -173 9 -11 25 -6 93 29 94 48 176 80 183 73 3 -3 -20
-25 -51 -48 -144 -112 -171 -145 -141 -178 13 -15 25 -17 57 -11 45 8 54 14
44 29 -4 7 -17 6 -42 -4 -73 -31 -67 -14 27 69 36 32 78 70 93 84 37 32 34 72
-6 85 -22 7 -38 4 -82 -19 -30 -15 -57 -25 -60 -22 -3 2 27 27 67 53 137 95
173 156 108 190 -36 19 -48 19 -84 0 -42 -22 -46 -8 -8 26 24 22 39 28 55 23
32 -9 65 -43 94 -94 14 -25 43 -71 65 -102 l39 -57 -38 -40 c-21 -21 -58 -67
-83 -100 -25 -34 -66 -82 -92 -107 -27 -25 -48 -49 -48 -53 0 -5 -30 -31 -67
-59 -91 -67 -255 -235 -343 -352 -19 -25 -37 -47 -41 -50 -4 -3 -36 -50 -72
-105 -81 -125 -148 -254 -216 -415 -29 -69 -57 -134 -62 -145 -30 -65 -79
-241 -79 -285 0 -54 28 -97 57 -86 8 3 18 6 23 6 20 0 115 92 172 167 79 103
90 118 197 283 180 275 301 457 365 545 36 50 80 112 98 139 22 33 34 43 36
32 4 -20 -23 -67 -118 -201 -41 -58 -96 -136 -122 -173 -26 -37 -51 -71 -56
-77 -21 -28 -94 -158 -121 -215 -49 -108 -91 -264 -91 -341 0 -57 4 -72 23
-95 l23 -27 37 18 c48 23 97 77 178 200 42 63 229 401 304 548 29 58 53 87 42
51 -3 -10 -24 -64 -47 -119 -71 -169 -100 -244 -151 -390 -54 -156 -62 -220
-30 -249 22 -20 41 -13 78 26 21 23 143 257 166 321 17 46 104 207 128 237
l21 25 -6 -46 c-5 -44 -32 -140 -63 -223 -20 -55 -55 -194 -60 -241 -4 -32 0
-44 17 -60 29 -27 38 -20 152 123 151 187 198 213 198 107 0 -93 -36 -155
-134 -229 -65 -50 -211 -118 -301 -141 -38 -10 -74 -22 -80 -26 -5 -5 -15 -9
-23 -9 -42 0 -316 -127 -387 -180 -98 -72 -162 -160 -185 -253 -10 -38 -9 -51
6 -82 9 -21 31 -46 48 -57 44 -28 143 -20 221 17 32 15 76 35 99 46 132 60
616 370 835 536 2 2 2 6 -1 9 -13 12 -92 -34 -322 -185 -133 -87 -288 -186
-345 -220 -166 -99 -348 -186 -339 -162 4 12 127 100 293 211 72 48 193 130
271 182 227 155 482 296 562 313 41 8 41 -4 1 -44 -52 -52 -7 -33 75 32 19 16
40 27 47 25 6 -2 -19 -26 -56 -52 -36 -27 -64 -54 -62 -60 6 -16 -18 -43 -93
-104 -75 -61 -94 -67 -48 -16 71 78 60 83 -28 13 -232 -185 -302 -416 -124
-413 65 1 194 67 324 165 152 114 201 146 320 205 187 94 299 112 448 74 102
-25 249 -101 307 -158 7 -7 16 -10 20 -6 17 17 -138 122 -252 170 -162 68
-357 70 -500 5 -25 -12 -49 -21 -52 -21 -12 0 -197 -107 -265 -152 -101 -68
-131 -90 -185 -134 -62 -51 -180 -114 -212 -114 -21 0 -23 4 -18 23 17 57 155
221 241 287 32 25 102 88 156 140 101 99 124 139 95 167 -20 20 -127 19 -186
-1 -46 -17 -225 -110 -251 -130 -8 -7 -48 -32 -88 -55 -66 -39 -256 -163 -342
-224 -19 -14 -82 -56 -140 -93 -58 -38 -130 -87 -160 -109 -30 -23 -71 -50
-90 -61 -19 -10 -37 -22 -40 -25 -11 -14 -90 -49 -110 -49 -51 0 0 103 88 179
97 84 312 205 427 241 124 39 387 191 466 270 77 76 102 128 103 212 0 79 -22
121 -69 126 -63 8 -105 -29 -210 -183 -98 -145 -111 -155 -81 -63 8 24 31 97
51 163 20 66 41 131 47 144 13 35 21 183 10 200 -19 27 -64 16 -100 -25 -45
-52 -42 -49 -89 -134 -41 -74 -68 -134 -153 -337 -47 -112 -72 -141 -35 -41
29 81 80 210 105 268 75 176 118 347 111 437 -2 23 -41 25 -79 3 -55 -31 -151
-187 -403 -650 -76 -141 -99 -174 -110 -163 -8 8 20 132 40 178 5 11 21 52 36
90 26 69 121 256 155 305 15 22 58 87 186 285 46 72 84 168 84 214 0 32 -5 44
-24 56 -22 15 -27 15 -54 1 -33 -17 -133 -124 -242 -257 -19 -23 -46 -56 -60
-73 -62 -74 -163 -224 -260 -381 -186 -305 -261 -423 -280 -440 -18 -16 -18
-15 -4 32 8 26 21 62 29 80 8 17 15 34 15 38 0 10 83 185 154 325 97 191 213
368 345 526 14 16 37 45 51 64 14 18 52 68 85 109 51 64 98 134 160 236 7 11
55 56 107 100 155 132 231 233 209 280 -5 11 -18 40 -29 65 -11 25 -26 61 -35
80 -9 19 -25 57 -36 83 -30 70 -89 155 -113 163 -14 4 -17 9 -9 17 32 32 -18
36 -90 8z m92 -71 c49 -51 174 -310 150 -310 -4 0 -24 26 -44 58 -57 92 -104
140 -146 152 -21 5 -46 19 -56 30 -10 11 -27 20 -37 20 -11 0 -70 -27 -131
-59 -62 -32 -123 -62 -137 -66 l-25 -8 20 23 c11 12 40 36 64 53 60 41 267
147 287 147 10 0 34 -18 55 -40z m-151 -208 c0 -5 -11 -14 -25 -20 -26 -12
-33 -4 -13 16 14 14 38 16 38 4z m-106 -689 c-16 -21 -85 -110 -154 -198 -191
-245 -245 -325 -354 -528 -58 -108 -80 -138 -50 -69 9 20 29 68 45 107 90 214
261 462 453 659 80 81 109 96 60 29z m-110 -494 c-168 -259 -334 -504 -364
-539 l-31 -35 33 60 c55 102 205 341 276 440 75 104 165 216 170 211 1 -2 -36
-64 -84 -137z m423 -844 c-11 -7 -49 -26 -85 -41 -239 -98 -353 -158 -458
-243 -31 -25 -66 -53 -77 -61 -43 -31 11 46 71 101 85 79 242 160 437 225 110
37 142 42 112 19z"/>
</g>
</svg>
